<svg id="chart" width="698" height="405"><defs id="defs"></defs><g><rect x="0.5" y="0.5" width="697" height="404" stroke="none" stroke-width="0" fill-opacity="1.0" fill="#ffffff"></rect><g><text x="128" y="55" font-family="Arial" font-size="13" font-weight="bold" stroke="none" stroke-width="0" fill-opacity="1.0" fill="#000000">Évolution des dépenses et recettes</text></g><rect x="128" y="78" width="442" height="250" stroke="none" stroke-width="0" fill-opacity="1" fill="none"></rect><g><text text-anchor="middle" x="349" y="385" font-family="Arial" font-size="13" font-style="italic" stroke="none" stroke-width="0" fill-opacity="1.0" fill="#222222">Mois</text></g><g><text text-anchor="middle" x="154" y="333" font-family="Arial" font-size="13" font-style="italic" transform="rotate(270 29 328)" stroke="none" stroke-width="0" fill-opacity="1.0" fill="#222222">€</text></g><rect x="128" y="328" width="442" height="1" stroke="none" stroke-width="0" fill-opacity="1.0" fill="#cccccc"></rect><rect x="128" y="265" width="442" height="1" stroke="none" stroke-width="0" fill-opacity="1.0" fill="#cccccc"></rect><rect x="128" y="203" width="442" height="1" stroke="none" stroke-width="0" fill-opacity="1.0" fill="#cccccc"></rect><rect x="128" y="140" width="442" height="1" stroke="none" stroke-width="0" fill-opacity="1.0" fill="#cccccc"></rect><rect x="128" y="77" width="442" height="1" stroke="none" stroke-width="0" fill-opacity="1.0" fill="#cccccc"></rect><rect x="128" y="328" width="442" height="1" stroke="none" stroke-width="0" fill-opacity="1.0" fill="#333333"></rect><g><path d="M570,328L128,328L128,328L128,328L139.6315789473684,326.226875L139.6315789473684,326.226875L151.26315789473685,324.45375L151.26315789473685,324.45375L162.89473684210526,322.680625L162.89473684210526,322.680625L174.5263157894737,320.9075L174.5263157894737,320.9075L186.1578947368421,319.134375L186.1578947368421,319.134375L197.78947368421052,317.36125L197.78947368421052,317.36125L209.42105263157896,315.588125L209.42105263157896,315.588125L221.05263157894737,313.815L221.05263157894737,313.815L232.68421052631578,312.041875L232.68421052631578,312.041875L244.31578947368422,310.26875L244.31578947368422,310.26875L255.94736842105263,308.495625L255.94736842105263,308.495625L267.57894736842104,306.7225L267.57894736842104,306.7225L279.2105263157895,304.949375L279.2105263157895,304.949375L290.8421052631579,303.17625L290.8421052631579,303.17625L302.47368421052636,301.403125L302.47368421052636,301.403125L314.10526315789474,299.63L314.10526315789474,299.63L325.7368421052631,297.856875L325.7368421052631,297.856875L337.36842105263156,296.08375L337.36842105263156,296.08375L349,294.310625L349,294.310625L360.63157894736844,292.5375L360.63157894736844,292.5375L372.2631578947369,290.764375L372.2631578947369,290.764375L383.89473684210526,288.99125L383.89473684210526,288.99125L395.5263157894737,286.718125L395.5263157894737,286.718125L407.1578947368421,284.445L407.1578947368421,284.445L418.7894736842105,282.171875L418.7894736842105,282.171875L430.42105263157896,279.89875L430.42105263157896,279.89875L442.0526315789474,277.625625L442.0526315789474,277.625625L453.6842105263158,275.3525L453.6842105263158,275.3525L465.3157894736842,273.079375L465.3157894736842,273.079375L476.94736842105266,270.80625L476.94736842105266,270.80625L488.57894736842104,268.533125L488.57894736842104,268.533125L500.2105263157895,266.26L500.2105263157895,266.26L511.8421052631579,263.986875L511.8421052631579,263.986875L523.4736842105262,261.71375L523.4736842105262,261.71375L535.1052631578948,259.440625L535.1052631578948,259.440625L546.7368421052631,257.1675L546.7368421052631,257.1675L558.3684210526316,254.894375L558.3684210526316,254.894375L570,252.62124999999997L570,252.62124999999997Z" stroke="none" stroke-width="0" fill-opacity="0.3" fill="#ff9900"></path><path d="M570,328L128,328L128,325.9166666666667L128,325.9166666666667L139.6315789473684,325.9166666666667L139.6315789473684,325.9166666666667L151.26315789473685,325.9166666666667L151.26315789473685,325.9166666666667L162.89473684210526,325.80182291666665L162.89473684210526,325.80182291666665L174.5263157894737,325.57213541666664L174.5263157894737,325.57213541666664L186.1578947368421,325.22760416666665L186.1578947368421,325.22760416666665L197.78947368421052,324.7682291666667L197.78947368421052,324.7682291666667L209.42105263157896,324.1940104166667L209.42105263157896,324.1940104166667L221.05263157894737,323.50494791666665L221.05263157894737,323.50494791666665L232.68421052631578,322.7010416666667L232.68421052631578,322.7010416666667L244.31578947368422,321.6674479166667L244.31578947368422,321.6674479166667L255.94736842105263,320.4041666666667L255.94736842105263,320.4041666666667L267.57894736842104,318.7963541666667L267.57894736842104,318.7963541666667L279.2105263157895,316.7291666666667L279.2105263157895,316.7291666666667L290.8421052631579,314.2026041666667L290.8421052631579,314.2026041666667L302.47368421052636,311.2166666666667L302.47368421052636,311.2166666666667L314.10526315789474,307.7713541666667L314.10526315789474,307.7713541666667L325.7368421052631,303.8666666666667L325.7368421052631,303.8666666666667L337.36842105263156,299.5026041666667L337.36842105263156,299.5026041666667L349,294.6791666666667L349,294.6791666666667L360.63157894736844,289.3963541666667L360.63157894736844,289.3963541666667L372.2631578947369,283.6541666666667L372.2631578947369,283.6541666666667L383.89473684210526,277.45260416666673L383.89473684210526,277.45260416666673L395.5263157894737,270.79166666666674L395.5263157894737,270.79166666666674L407.1578947368421,263.67135416666673L407.1578947368421,263.67135416666673L418.7894736842105,256.0916666666667L418.7894736842105,256.0916666666667L430.42105263157896,248.0526041666667L430.42105263157896,248.0526041666667L442.0526315789474,239.5541666666667L442.0526315789474,239.5541666666667L453.6842105263158,230.5963541666667L453.6842105263158,230.5963541666667L465.3157894736842,221.17916666666673L465.3157894736842,221.17916666666673L476.94736842105266,211.30260416666673L476.94736842105266,211.30260416666673L488.57894736842104,200.96666666666673L488.57894736842104,200.96666666666673L500.2105263157895,190.17135416666673L500.2105263157895,190.17135416666673L511.8421052631579,178.91666666666674L511.8421052631579,178.91666666666674L523.4736842105262,167.20260416666673L523.4736842105262,167.20260416666673L535.1052631578948,155.07510416666673L535.1052631578948,155.07510416666673L546.7368421052631,142.53416666666672L546.7368421052631,142.53416666666672L558.3684210526316,129.57979166666672L558.3684210526316,129.57979166666672L570,116.21197916666674L570,116.21197916666674Z" stroke="none" stroke-width="0" fill-opacity="0.3" fill="#38761d"></path><path d="M570,328L128,328L128,325.9166666666667L128,325.9166666666667L139.6315789473684,325.9166666666667L139.6315789473684,325.9166666666667L151.26315789473685,325.9166666666667L151.26315789473685,325.9166666666667L162.89473684210526,325.9166666666667L162.89473684210526,325.9166666666667L174.5263157894737,325.9166666666667L174.5263157894737,325.9166666666667L186.1578947368421,325.87072916666665L186.1578947368421,325.87072916666665L197.78947368421052,325.7788541666667L197.78947368421052,325.7788541666667L209.42105263157896,325.6410416666667L209.42105263157896,325.6410416666667L221.05263157894737,325.45729166666666L221.05263157894737,325.45729166666666L232.68421052631578,325.22760416666665L232.68421052631578,325.22760416666665L244.31578947368422,324.92901041666664L244.31578947368422,324.92901041666664L255.94736842105263,324.5615104166667L255.94736842105263,324.5615104166667L267.57894736842104,324.0561979166667L267.57894736842104,324.0561979166667L279.2105263157895,323.4130729166667L279.2105263157895,323.4130729166667L290.8421052631579,322.63213541666664L290.8421052631579,322.63213541666664L302.47368421052636,321.71338541666665L302.47368421052636,321.71338541666665L314.10526315789474,320.65682291666667L314.10526315789474,320.65682291666667L325.7368421052631,319.4624479166667L325.7368421052631,319.4624479166667L337.36842105263156,318.13026041666666L337.36842105263156,318.13026041666666L349,316.61432291666665L349,316.61432291666665L360.63157894736844,314.91463541666667L360.63157894736844,314.91463541666667L372.2631578947369,313.03119791666666L372.2631578947369,313.03119791666666L383.89473684210526,310.9180729166667L383.89473684210526,310.9180729166667L395.5263157894737,308.57526041666665L395.5263157894737,308.57526041666665L407.1578947368421,305.93385416666666L407.1578947368421,305.93385416666666L418.7894736842105,302.99385416666667L418.7894736842105,302.99385416666667L430.42105263157896,299.7552604166667L430.42105263157896,299.7552604166667L442.0526315789474,296.2180729166667L442.0526315789474,296.2180729166667L453.6842105263158,292.3822916666667L453.6842105263158,292.3822916666667L465.3157894736842,288.2479166666667L465.3157894736842,288.2479166666667L476.94736842105266,283.8149479166667L476.94736842105266,283.8149479166667L488.57894736842104,279.0833854166667L488.57894736842104,279.0833854166667L500.2105263157895,274.0532291666667L500.2105263157895,274.0532291666667L511.8421052631579,268.7244791666667L511.8421052631579,268.7244791666667L523.4736842105262,263.09713541666673L523.4736842105262,263.09713541666673L535.1052631578948,257.1711979166667L535.1052631578948,257.1711979166667L546.7368421052631,250.94666666666672L546.7368421052631,250.94666666666672L558.3684210526316,244.42354166666672L558.3684210526316,244.42354166666672L570,237.60182291666672L570,237.60182291666672Z" stroke="none" stroke-width="0" fill-opacity="0.3" fill="#741b47"></path></g><g></g><g><path d="M128,328L139.6315789473684,326.226875L151.26315789473685,324.45375L162.89473684210526,322.680625L174.5263157894737,320.9075L186.1578947368421,319.134375L197.78947368421052,317.36125L209.42105263157896,315.588125L221.05263157894737,313.815L232.68421052631578,312.041875L244.31578947368422,310.26875L255.94736842105263,308.495625L267.57894736842104,306.7225L279.2105263157895,304.949375L290.8421052631579,303.17625L302.47368421052636,301.403125L314.10526315789474,299.63L325.7368421052631,297.856875L337.36842105263156,296.08375L349,294.310625L360.63157894736844,292.5375L372.2631578947369,290.764375L383.89473684210526,288.99125L395.5263157894737,286.718125L407.1578947368421,284.445L418.7894736842105,282.171875L430.42105263157896,279.89875L442.0526315789474,277.625625L453.6842105263158,275.3525L465.3157894736842,273.079375L476.94736842105266,270.80625L488.57894736842104,268.533125L500.2105263157895,266.26L511.8421052631579,263.986875L523.4736842105262,261.71375L535.1052631578948,259.440625L546.7368421052631,257.1675L558.3684210526316,254.894375L570,252.62124999999997" stroke="#ff9900" stroke-width="2" fill-opacity="1" fill="none"></path><path d="M128,325.9166666666667L139.6315789473684,325.9166666666667L151.26315789473685,325.9166666666667L162.89473684210526,325.80182291666665L174.5263157894737,325.57213541666664L186.1578947368421,325.22760416666665L197.78947368421052,324.7682291666667L209.42105263157896,324.1940104166667L221.05263157894737,323.50494791666665L232.68421052631578,322.7010416666667L244.31578947368422,321.6674479166667L255.94736842105263,320.4041666666667L267.57894736842104,318.7963541666667L279.2105263157895,316.7291666666667L290.8421052631579,314.2026041666667L302.47368421052636,311.2166666666667L314.10526315789474,307.7713541666667L325.7368421052631,303.8666666666667L337.36842105263156,299.5026041666667L349,294.6791666666667L360.63157894736844,289.3963541666667L372.2631578947369,283.6541666666667L383.89473684210526,277.45260416666673L395.5263157894737,270.79166666666674L407.1578947368421,263.67135416666673L418.7894736842105,256.0916666666667L430.42105263157896,248.0526041666667L442.0526315789474,239.5541666666667L453.6842105263158,230.5963541666667L465.3157894736842,221.17916666666673L476.94736842105266,211.30260416666673L488.57894736842104,200.96666666666673L500.2105263157895,190.17135416666673L511.8421052631579,178.91666666666674L523.4736842105262,167.20260416666673L535.1052631578948,155.07510416666673L546.7368421052631,142.53416666666672L558.3684210526316,129.57979166666672L570,116.21197916666674" stroke="#38761d" stroke-width="2" fill-opacity="1" fill="none"></path><path d="M128,325.9166666666667L139.6315789473684,325.9166666666667L151.26315789473685,325.9166666666667L162.89473684210526,325.9166666666667L174.5263157894737,325.9166666666667L186.1578947368421,325.87072916666665L197.78947368421052,325.7788541666667L209.42105263157896,325.6410416666667L221.05263157894737,325.45729166666666L232.68421052631578,325.22760416666665L244.31578947368422,324.92901041666664L255.94736842105263,324.5615104166667L267.57894736842104,324.0561979166667L279.2105263157895,323.4130729166667L290.8421052631579,322.63213541666664L302.47368421052636,321.71338541666665L314.10526315789474,320.65682291666667L325.7368421052631,319.4624479166667L337.36842105263156,318.13026041666666L349,316.61432291666665L360.63157894736844,314.91463541666667L372.2631578947369,313.03119791666666L383.89473684210526,310.9180729166667L395.5263157894737,308.57526041666665L407.1578947368421,305.93385416666666L418.7894736842105,302.99385416666667L430.42105263157896,299.7552604166667L442.0526315789474,296.2180729166667L453.6842105263158,292.3822916666667L465.3157894736842,288.2479166666667L476.94736842105266,283.8149479166667L488.57894736842104,279.0833854166667L500.2105263157895,274.0532291666667L511.8421052631579,268.7244791666667L523.4736842105262,263.09713541666673L535.1052631578948,257.1711979166667L546.7368421052631,250.94666666666672L558.3684210526316,244.42354166666672L570,237.60182291666672" stroke="#741b47" stroke-width="2" fill-opacity="1" fill="none"></path></g><g><circle cx="128.5" cy="328.5" r="12" stroke="none" stroke-width="0" fill-opacity="0" fill="#ffffff"></circle><circle cx="140.1315789473684" cy="326.726875" r="12" stroke="none" stroke-width="0" fill-opacity="0" fill="#ffffff"></circle><circle cx="151.76315789473685" cy="324.95375" r="12" stroke="none" stroke-width="0" fill-opacity="0" fill="#ffffff"></circle><circle cx="163.39473684210526" cy="323.180625" r="12" stroke="none" stroke-width="0" fill-opacity="0" fill="#ffffff"></circle><circle cx="175.0263157894737" cy="321.4075" r="12" stroke="none" stroke-width="0" fill-opacity="0" fill="#ffffff"></circle><circle cx="186.6578947368421" cy="319.634375" r="12" stroke="none" stroke-width="0" fill-opacity="0" fill="#ffffff"></circle><circle cx="198.28947368421052" cy="317.86125" r="12" stroke="none" stroke-width="0" fill-opacity="0" fill="#ffffff"></circle><circle cx="209.92105263157896" cy="316.088125" r="12" stroke="none" stroke-width="0" fill-opacity="0" fill="#ffffff"></circle><circle cx="221.55263157894737" cy="314.315" r="12" stroke="none" stroke-width="0" fill-opacity="0" fill="#ffffff"></circle><circle cx="233.18421052631578" cy="312.541875" r="12" stroke="none" stroke-width="0" fill-opacity="0" fill="#ffffff"></circle><circle cx="244.81578947368422" cy="310.76875" r="12" stroke="none" stroke-width="0" fill-opacity="0" fill="#ffffff"></circle><circle cx="256.4473684210526" cy="308.995625" r="12" stroke="none" stroke-width="0" fill-opacity="0" fill="#ffffff"></circle><circle cx="268.07894736842104" cy="307.2225" r="12" stroke="none" stroke-width="0" fill-opacity="0" fill="#ffffff"></circle><circle cx="279.7105263157895" cy="305.449375" r="12" stroke="none" stroke-width="0" fill-opacity="0" fill="#ffffff"></circle><circle cx="291.3421052631579" cy="303.67625" r="12" stroke="none" stroke-width="0" fill-opacity="0" fill="#ffffff"></circle><circle cx="302.97368421052636" cy="301.903125" r="12" stroke="none" stroke-width="0" fill-opacity="0" fill="#ffffff"></circle><circle cx="314.60526315789474" cy="300.13" r="12" stroke="none" stroke-width="0" fill-opacity="0" fill="#ffffff"></circle><circle cx="326.2368421052631" cy="298.356875" r="12" stroke="none" stroke-width="0" fill-opacity="0" fill="#ffffff"></circle><circle cx="337.86842105263156" cy="296.58375" r="12" stroke="none" stroke-width="0" fill-opacity="0" fill="#ffffff"></circle><circle cx="349.5" cy="294.810625" r="12" stroke="none" stroke-width="0" fill-opacity="0" fill="#ffffff"></circle><circle cx="361.13157894736844" cy="293.0375" r="12" stroke="none" stroke-width="0" fill-opacity="0" fill="#ffffff"></circle><circle cx="372.7631578947369" cy="291.264375" r="12" stroke="none" stroke-width="0" fill-opacity="0" fill="#ffffff"></circle><circle cx="384.39473684210526" cy="289.49125" r="12" stroke="none" stroke-width="0" fill-opacity="0" fill="#ffffff"></circle><circle cx="396.0263157894737" cy="287.218125" r="12" stroke="none" stroke-width="0" fill-opacity="0" fill="#ffffff"></circle><circle cx="407.6578947368421" cy="284.945" r="12" stroke="none" stroke-width="0" fill-opacity="0" fill="#ffffff"></circle><circle cx="419.2894736842105" cy="282.671875" r="12" stroke="none" stroke-width="0" fill-opacity="0" fill="#ffffff"></circle><circle cx="430.92105263157896" cy="280.39875" r="12" stroke="none" stroke-width="0" fill-opacity="0" fill="#ffffff"></circle><circle cx="442.5526315789474" cy="278.125625" r="12" stroke="none" stroke-width="0" fill-opacity="0" fill="#ffffff"></circle><circle cx="454.1842105263158" cy="275.8525" r="12" stroke="none" stroke-width="0" fill-opacity="0" fill="#ffffff"></circle><circle cx="465.8157894736842" cy="273.579375" r="12" stroke="none" stroke-width="0" fill-opacity="0" fill="#ffffff"></circle><circle cx="477.44736842105266" cy="271.30625" r="12" stroke="none" stroke-width="0" fill-opacity="0" fill="#ffffff"></circle><circle cx="489.07894736842104" cy="269.033125" r="12" stroke="none" stroke-width="0" fill-opacity="0" fill="#ffffff"></circle><circle cx="500.7105263157895" cy="266.76" r="12" stroke="none" stroke-width="0" fill-opacity="0" fill="#ffffff"></circle><circle cx="512.3421052631579" cy="264.486875" r="12" stroke="none" stroke-width="0" fill-opacity="0" fill="#ffffff"></circle><circle cx="523.9736842105262" cy="262.21375" r="12" stroke="none" stroke-width="0" fill-opacity="0" fill="#ffffff"></circle><circle cx="535.6052631578948" cy="259.940625" r="12" stroke="none" stroke-width="0" fill-opacity="0" fill="#ffffff"></circle><circle cx="547.2368421052631" cy="257.6675" r="12" stroke="none" stroke-width="0" fill-opacity="0" fill="#ffffff"></circle><circle cx="558.8684210526316" cy="255.394375" r="12" stroke="none" stroke-width="0" fill-opacity="0" fill="#ffffff"></circle><circle cx="570.5" cy="253.12124999999997" r="12" stroke="none" stroke-width="0" fill-opacity="0" fill="#ffffff"></circle><circle cx="128.5" cy="326.4166666666667" r="12" stroke="none" stroke-width="0" fill-opacity="0" fill="#ffffff"></circle><circle cx="140.1315789473684" cy="326.4166666666667" r="12" stroke="none" stroke-width="0" fill-opacity="0" fill="#ffffff"></circle><circle cx="151.76315789473685" cy="326.4166666666667" r="12" stroke="none" stroke-width="0" fill-opacity="0" fill="#ffffff"></circle><circle cx="163.39473684210526" cy="326.30182291666665" r="12" stroke="none" stroke-width="0" fill-opacity="0" fill="#ffffff"></circle><circle cx="175.0263157894737" cy="326.07213541666664" r="12" stroke="none" stroke-width="0" fill-opacity="0" fill="#ffffff"></circle><circle cx="186.6578947368421" cy="325.72760416666665" r="12" stroke="none" stroke-width="0" fill-opacity="0" fill="#ffffff"></circle><circle cx="198.28947368421052" cy="325.2682291666667" r="12" stroke="none" stroke-width="0" fill-opacity="0" fill="#ffffff"></circle><circle cx="209.92105263157896" cy="324.6940104166667" r="12" stroke="none" stroke-width="0" fill-opacity="0" fill="#ffffff"></circle><circle cx="221.55263157894737" cy="324.00494791666665" r="12" stroke="none" stroke-width="0" fill-opacity="0" fill="#ffffff"></circle><circle cx="233.18421052631578" cy="323.2010416666667" r="12" stroke="none" stroke-width="0" fill-opacity="0" fill="#ffffff"></circle><circle cx="244.81578947368422" cy="322.1674479166667" r="12" stroke="none" stroke-width="0" fill-opacity="0" fill="#ffffff"></circle><circle cx="256.4473684210526" cy="320.9041666666667" r="12" stroke="none" stroke-width="0" fill-opacity="0" fill="#ffffff"></circle><circle cx="268.07894736842104" cy="319.2963541666667" r="12" stroke="none" stroke-width="0" fill-opacity="0" fill="#ffffff"></circle><circle cx="279.7105263157895" cy="317.2291666666667" r="12" stroke="none" stroke-width="0" fill-opacity="0" fill="#ffffff"></circle><circle cx="291.3421052631579" cy="314.7026041666667" r="12" stroke="none" stroke-width="0" fill-opacity="0" fill="#ffffff"></circle><circle cx="302.97368421052636" cy="311.7166666666667" r="12" stroke="none" stroke-width="0" fill-opacity="0" fill="#ffffff"></circle><circle cx="314.60526315789474" cy="308.2713541666667" r="12" stroke="none" stroke-width="0" fill-opacity="0" fill="#ffffff"></circle><circle cx="326.2368421052631" cy="304.3666666666667" r="12" stroke="none" stroke-width="0" fill-opacity="0" fill="#ffffff"></circle><circle cx="337.86842105263156" cy="300.0026041666667" r="12" stroke="none" stroke-width="0" fill-opacity="0" fill="#ffffff"></circle><circle cx="349.5" cy="295.1791666666667" r="12" stroke="none" stroke-width="0" fill-opacity="0" fill="#ffffff"></circle><circle cx="361.13157894736844" cy="289.8963541666667" r="12" stroke="none" stroke-width="0" fill-opacity="0" fill="#ffffff"></circle><circle cx="372.7631578947369" cy="284.1541666666667" r="12" stroke="none" stroke-width="0" fill-opacity="0" fill="#ffffff"></circle><circle cx="384.39473684210526" cy="277.95260416666673" r="12" stroke="none" stroke-width="0" fill-opacity="0" fill="#ffffff"></circle><circle cx="396.0263157894737" cy="271.29166666666674" r="12" stroke="none" stroke-width="0" fill-opacity="0" fill="#ffffff"></circle><circle cx="407.6578947368421" cy="264.17135416666673" r="12" stroke="none" stroke-width="0" fill-opacity="0" fill="#ffffff"></circle><circle cx="419.2894736842105" cy="256.5916666666667" r="12" stroke="none" stroke-width="0" fill-opacity="0" fill="#ffffff"></circle><circle cx="430.92105263157896" cy="248.5526041666667" r="12" stroke="none" stroke-width="0" fill-opacity="0" fill="#ffffff"></circle><circle cx="442.5526315789474" cy="240.0541666666667" r="12" stroke="none" stroke-width="0" fill-opacity="0" fill="#ffffff"></circle><circle cx="454.1842105263158" cy="231.0963541666667" r="12" stroke="none" stroke-width="0" fill-opacity="0" fill="#ffffff"></circle><circle cx="465.8157894736842" cy="221.67916666666673" r="12" stroke="none" stroke-width="0" fill-opacity="0" fill="#ffffff"></circle><circle cx="477.44736842105266" cy="211.80260416666673" r="12" stroke="none" stroke-width="0" fill-opacity="0" fill="#ffffff"></circle><circle cx="489.07894736842104" cy="201.46666666666673" r="12" stroke="none" stroke-width="0" fill-opacity="0" fill="#ffffff"></circle><circle cx="500.7105263157895" cy="190.67135416666673" r="12" stroke="none" stroke-width="0" fill-opacity="0" fill="#ffffff"></circle><circle cx="512.3421052631579" cy="179.41666666666674" r="12" stroke="none" stroke-width="0" fill-opacity="0" fill="#ffffff"></circle><circle cx="523.9736842105262" cy="167.70260416666673" r="12" stroke="none" stroke-width="0" fill-opacity="0" fill="#ffffff"></circle><circle cx="535.6052631578948" cy="155.57510416666673" r="12" stroke="none" stroke-width="0" fill-opacity="0" fill="#ffffff"></circle><circle cx="547.2368421052631" cy="143.03416666666672" r="12" stroke="none" stroke-width="0" fill-opacity="0" fill="#ffffff"></circle><circle cx="558.8684210526316" cy="130.07979166666672" r="12" stroke="none" stroke-width="0" fill-opacity="0" fill="#ffffff"></circle><circle cx="570.5" cy="116.71197916666674" r="12" stroke="none" stroke-width="0" fill-opacity="0" fill="#ffffff"></circle><circle cx="128.5" cy="326.4166666666667" r="12" stroke="none" stroke-width="0" fill-opacity="0" fill="#ffffff"></circle><circle cx="140.1315789473684" cy="326.4166666666667" r="12" stroke="none" stroke-width="0" fill-opacity="0" fill="#ffffff"></circle><circle cx="151.76315789473685" cy="326.4166666666667" r="12" stroke="none" stroke-width="0" fill-opacity="0" fill="#ffffff"></circle><circle cx="163.39473684210526" cy="326.4166666666667" r="12" stroke="none" stroke-width="0" fill-opacity="0" fill="#ffffff"></circle><circle cx="175.0263157894737" cy="326.4166666666667" r="12" stroke="none" stroke-width="0" fill-opacity="0" fill="#ffffff"></circle><circle cx="186.6578947368421" cy="326.37072916666665" r="12" stroke="none" stroke-width="0" fill-opacity="0" fill="#ffffff"></circle><circle cx="198.28947368421052" cy="326.2788541666667" r="12" stroke="none" stroke-width="0" fill-opacity="0" fill="#ffffff"></circle><circle cx="209.92105263157896" cy="326.1410416666667" r="12" stroke="none" stroke-width="0" fill-opacity="0" fill="#ffffff"></circle><circle cx="221.55263157894737" cy="325.95729166666666" r="12" stroke="none" stroke-width="0" fill-opacity="0" fill="#ffffff"></circle><circle cx="233.18421052631578" cy="325.72760416666665" r="12" stroke="none" stroke-width="0" fill-opacity="0" fill="#ffffff"></circle><circle cx="244.81578947368422" cy="325.42901041666664" r="12" stroke="none" stroke-width="0" fill-opacity="0" fill="#ffffff"></circle><circle cx="256.4473684210526" cy="325.0615104166667" r="12" stroke="none" stroke-width="0" fill-opacity="0" fill="#ffffff"></circle><circle cx="268.07894736842104" cy="324.5561979166667" r="12" stroke="none" stroke-width="0" fill-opacity="0" fill="#ffffff"></circle><circle cx="279.7105263157895" cy="323.9130729166667" r="12" stroke="none" stroke-width="0" fill-opacity="0" fill="#ffffff"></circle><circle cx="291.3421052631579" cy="323.13213541666664" r="12" stroke="none" stroke-width="0" fill-opacity="0" fill="#ffffff"></circle><circle cx="302.97368421052636" cy="322.21338541666665" r="12" stroke="none" stroke-width="0" fill-opacity="0" fill="#ffffff"></circle><circle cx="314.60526315789474" cy="321.15682291666667" r="12" stroke="none" stroke-width="0" fill-opacity="0" fill="#ffffff"></circle><circle cx="326.2368421052631" cy="319.9624479166667" r="12" stroke="none" stroke-width="0" fill-opacity="0" fill="#ffffff"></circle><circle cx="337.86842105263156" cy="318.63026041666666" r="12" stroke="none" stroke-width="0" fill-opacity="0" fill="#ffffff"></circle><circle cx="349.5" cy="317.11432291666665" r="12" stroke="none" stroke-width="0" fill-opacity="0" fill="#ffffff"></circle><circle cx="361.13157894736844" cy="315.41463541666667" r="12" stroke="none" stroke-width="0" fill-opacity="0" fill="#ffffff"></circle><circle cx="372.7631578947369" cy="313.53119791666666" r="12" stroke="none" stroke-width="0" fill-opacity="0" fill="#ffffff"></circle><circle cx="384.39473684210526" cy="311.4180729166667" r="12" stroke="none" stroke-width="0" fill-opacity="0" fill="#ffffff"></circle><circle cx="396.0263157894737" cy="309.07526041666665" r="12" stroke="none" stroke-width="0" fill-opacity="0" fill="#ffffff"></circle><circle cx="407.6578947368421" cy="306.43385416666666" r="12" stroke="none" stroke-width="0" fill-opacity="0" fill="#ffffff"></circle><circle cx="419.2894736842105" cy="303.49385416666667" r="12" stroke="none" stroke-width="0" fill-opacity="0" fill="#ffffff"></circle><circle cx="430.92105263157896" cy="300.2552604166667" r="12" stroke="none" stroke-width="0" fill-opacity="0" fill="#ffffff"></circle><circle cx="442.5526315789474" cy="296.7180729166667" r="12" stroke="none" stroke-width="0" fill-opacity="0" fill="#ffffff"></circle><circle cx="454.1842105263158" cy="292.8822916666667" r="12" stroke="none" stroke-width="0" fill-opacity="0" fill="#ffffff"></circle><circle cx="465.8157894736842" cy="288.7479166666667" r="12" stroke="none" stroke-width="0" fill-opacity="0" fill="#ffffff"></circle><circle cx="477.44736842105266" cy="284.3149479166667" r="12" stroke="none" stroke-width="0" fill-opacity="0" fill="#ffffff"></circle><circle cx="489.07894736842104" cy="279.5833854166667" r="12" stroke="none" stroke-width="0" fill-opacity="0" fill="#ffffff"></circle><circle cx="500.7105263157895" cy="274.5532291666667" r="12" stroke="none" stroke-width="0" fill-opacity="0" fill="#ffffff"></circle><circle cx="512.3421052631579" cy="269.2244791666667" r="12" stroke="none" stroke-width="0" fill-opacity="0" fill="#ffffff"></circle><circle cx="523.9736842105262" cy="263.59713541666673" r="12" stroke="none" stroke-width="0" fill-opacity="0" fill="#ffffff"></circle><circle cx="535.6052631578948" cy="257.6711979166667" r="12" stroke="none" stroke-width="0" fill-opacity="0" fill="#ffffff"></circle><circle cx="547.2368421052631" cy="251.44666666666672" r="12" stroke="none" stroke-width="0" fill-opacity="0" fill="#ffffff"></circle><circle cx="558.8684210526316" cy="244.92354166666672" r="12" stroke="none" stroke-width="0" fill-opacity="0" fill="#ffffff"></circle><circle cx="570.5" cy="238.10182291666672" r="12" stroke="none" stroke-width="0" fill-opacity="0" fill="#ffffff"></circle></g><g><circle cx="128.5" cy="328.5" r="3.5" stroke="none" stroke-width="0" fill-opacity="0" fill="#ffffff"></circle><circle cx="140.1315789473684" cy="326.726875" r="3.5" stroke="none" stroke-width="0" fill-opacity="0" fill="#ffffff"></circle><circle cx="151.76315789473685" cy="324.95375" r="3.5" stroke="none" stroke-width="0" fill-opacity="0" fill="#ffffff"></circle><circle cx="163.39473684210526" cy="323.180625" r="3.5" stroke="none" stroke-width="0" fill-opacity="0" fill="#ffffff"></circle><circle cx="175.0263157894737" cy="321.4075" r="3.5" stroke="none" stroke-width="0" fill-opacity="0" fill="#ffffff"></circle><circle cx="186.6578947368421" cy="319.634375" r="3.5" stroke="none" stroke-width="0" fill-opacity="0" fill="#ffffff"></circle><circle cx="198.28947368421052" cy="317.86125" r="3.5" stroke="none" stroke-width="0" fill-opacity="0" fill="#ffffff"></circle><circle cx="209.92105263157896" cy="316.088125" r="3.5" stroke="none" stroke-width="0" fill-opacity="0" fill="#ffffff"></circle><circle cx="221.55263157894737" cy="314.315" r="3.5" stroke="none" stroke-width="0" fill-opacity="0" fill="#ffffff"></circle><circle cx="233.18421052631578" cy="312.541875" r="3.5" stroke="none" stroke-width="0" fill-opacity="0" fill="#ffffff"></circle><circle cx="244.81578947368422" cy="310.76875" r="3.5" stroke="none" stroke-width="0" fill-opacity="0" fill="#ffffff"></circle><circle cx="256.4473684210526" cy="308.995625" r="3.5" stroke="none" stroke-width="0" fill-opacity="0" fill="#ffffff"></circle><circle cx="268.07894736842104" cy="307.2225" r="3.5" stroke="none" stroke-width="0" fill-opacity="0" fill="#ffffff"></circle><circle cx="279.7105263157895" cy="305.449375" r="3.5" stroke="none" stroke-width="0" fill-opacity="0" fill="#ffffff"></circle><circle cx="291.3421052631579" cy="303.67625" r="3.5" stroke="none" stroke-width="0" fill-opacity="0" fill="#ffffff"></circle><circle cx="302.97368421052636" cy="301.903125" r="3.5" stroke="none" stroke-width="0" fill-opacity="0" fill="#ffffff"></circle><circle cx="314.60526315789474" cy="300.13" r="3.5" stroke="none" stroke-width="0" fill-opacity="0" fill="#ffffff"></circle><circle cx="326.2368421052631" cy="298.356875" r="3.5" stroke="none" stroke-width="0" fill-opacity="0" fill="#ffffff"></circle><circle cx="337.86842105263156" cy="296.58375" r="3.5" stroke="none" stroke-width="0" fill-opacity="0" fill="#ffffff"></circle><circle cx="349.5" cy="294.810625" r="3.5" stroke="none" stroke-width="0" fill-opacity="0" fill="#ffffff"></circle><circle cx="361.13157894736844" cy="293.0375" r="3.5" stroke="none" stroke-width="0" fill-opacity="0" fill="#ffffff"></circle><circle cx="372.7631578947369" cy="291.264375" r="3.5" stroke="none" stroke-width="0" fill-opacity="0" fill="#ffffff"></circle><circle cx="384.39473684210526" cy="289.49125" r="3.5" stroke="none" stroke-width="0" fill-opacity="0" fill="#ffffff"></circle><circle cx="396.0263157894737" cy="287.218125" r="3.5" stroke="none" stroke-width="0" fill-opacity="0" fill="#ffffff"></circle><circle cx="407.6578947368421" cy="284.945" r="3.5" stroke="none" stroke-width="0" fill-opacity="0" fill="#ffffff"></circle><circle cx="419.2894736842105" cy="282.671875" r="3.5" stroke="none" stroke-width="0" fill-opacity="0" fill="#ffffff"></circle><circle cx="430.92105263157896" cy="280.39875" r="3.5" stroke="none" stroke-width="0" fill-opacity="0" fill="#ffffff"></circle><circle cx="442.5526315789474" cy="278.125625" r="3.5" stroke="none" stroke-width="0" fill-opacity="0" fill="#ffffff"></circle><circle cx="454.1842105263158" cy="275.8525" r="3.5" stroke="none" stroke-width="0" fill-opacity="0" fill="#ffffff"></circle><circle cx="465.8157894736842" cy="273.579375" r="3.5" stroke="none" stroke-width="0" fill-opacity="0" fill="#ffffff"></circle><circle cx="477.44736842105266" cy="271.30625" r="3.5" stroke="none" stroke-width="0" fill-opacity="0" fill="#ffffff"></circle><circle cx="489.07894736842104" cy="269.033125" r="3.5" stroke="none" stroke-width="0" fill-opacity="0" fill="#ffffff"></circle><circle cx="500.7105263157895" cy="266.76" r="3.5" stroke="none" stroke-width="0" fill-opacity="0" fill="#ffffff"></circle><circle cx="512.3421052631579" cy="264.486875" r="3.5" stroke="none" stroke-width="0" fill-opacity="0" fill="#ffffff"></circle><circle cx="523.9736842105262" cy="262.21375" r="3.5" stroke="none" stroke-width="0" fill-opacity="0" fill="#ffffff"></circle><circle cx="535.6052631578948" cy="259.940625" r="3.5" stroke="none" stroke-width="0" fill-opacity="0" fill="#ffffff"></circle><circle cx="547.2368421052631" cy="257.6675" r="3.5" stroke="none" stroke-width="0" fill-opacity="0" fill="#ffffff"></circle><circle cx="558.8684210526316" cy="255.394375" r="3.5" stroke="none" stroke-width="0" fill-opacity="0" fill="#ffffff"></circle><circle cx="570.5" cy="253.12124999999997" r="3.5" stroke="none" stroke-width="0" fill-opacity="0" fill="#ffffff"></circle><circle cx="128.5" cy="326.4166666666667" r="3.5" stroke="none" stroke-width="0" fill-opacity="0" fill="#ffffff"></circle><circle cx="140.1315789473684" cy="326.4166666666667" r="3.5" stroke="none" stroke-width="0" fill-opacity="0" fill="#ffffff"></circle><circle cx="151.76315789473685" cy="326.4166666666667" r="3.5" stroke="none" stroke-width="0" fill-opacity="0" fill="#ffffff"></circle><circle cx="163.39473684210526" cy="326.30182291666665" r="3.5" stroke="none" stroke-width="0" fill-opacity="0" fill="#ffffff"></circle><circle cx="175.0263157894737" cy="326.07213541666664" r="3.5" stroke="none" stroke-width="0" fill-opacity="0" fill="#ffffff"></circle><circle cx="186.6578947368421" cy="325.72760416666665" r="3.5" stroke="none" stroke-width="0" fill-opacity="0" fill="#ffffff"></circle><circle cx="198.28947368421052" cy="325.2682291666667" r="3.5" stroke="none" stroke-width="0" fill-opacity="0" fill="#ffffff"></circle><circle cx="209.92105263157896" cy="324.6940104166667" r="3.5" stroke="none" stroke-width="0" fill-opacity="0" fill="#ffffff"></circle><circle cx="221.55263157894737" cy="324.00494791666665" r="3.5" stroke="none" stroke-width="0" fill-opacity="0" fill="#ffffff"></circle><circle cx="233.18421052631578" cy="323.2010416666667" r="3.5" stroke="none" stroke-width="0" fill-opacity="0" fill="#ffffff"></circle><circle cx="244.81578947368422" cy="322.1674479166667" r="3.5" stroke="none" stroke-width="0" fill-opacity="0" fill="#ffffff"></circle><circle cx="256.4473684210526" cy="320.9041666666667" r="3.5" stroke="none" stroke-width="0" fill-opacity="0" fill="#ffffff"></circle><circle cx="268.07894736842104" cy="319.2963541666667" r="3.5" stroke="none" stroke-width="0" fill-opacity="0" fill="#ffffff"></circle><circle cx="279.7105263157895" cy="317.2291666666667" r="3.5" stroke="none" stroke-width="0" fill-opacity="0" fill="#ffffff"></circle><circle cx="291.3421052631579" cy="314.7026041666667" r="3.5" stroke="none" stroke-width="0" fill-opacity="0" fill="#ffffff"></circle><circle cx="302.97368421052636" cy="311.7166666666667" r="3.5" stroke="none" stroke-width="0" fill-opacity="0" fill="#ffffff"></circle><circle cx="314.60526315789474" cy="308.2713541666667" r="3.5" stroke="none" stroke-width="0" fill-opacity="0" fill="#ffffff"></circle><circle cx="326.2368421052631" cy="304.3666666666667" r="3.5" stroke="none" stroke-width="0" fill-opacity="0" fill="#ffffff"></circle><circle cx="337.86842105263156" cy="300.0026041666667" r="3.5" stroke="none" stroke-width="0" fill-opacity="0" fill="#ffffff"></circle><circle cx="349.5" cy="295.1791666666667" r="3.5" stroke="none" stroke-width="0" fill-opacity="0" fill="#ffffff"></circle><circle cx="361.13157894736844" cy="289.8963541666667" r="3.5" stroke="none" stroke-width="0" fill-opacity="0" fill="#ffffff"></circle><circle cx="372.7631578947369" cy="284.1541666666667" r="3.5" stroke="none" stroke-width="0" fill-opacity="0" fill="#ffffff"></circle><circle cx="384.39473684210526" cy="277.95260416666673" r="3.5" stroke="none" stroke-width="0" fill-opacity="0" fill="#ffffff"></circle><circle cx="396.0263157894737" cy="271.29166666666674" r="3.5" stroke="none" stroke-width="0" fill-opacity="0" fill="#ffffff"></circle><circle cx="407.6578947368421" cy="264.17135416666673" r="3.5" stroke="none" stroke-width="0" fill-opacity="0" fill="#ffffff"></circle><circle cx="419.2894736842105" cy="256.5916666666667" r="3.5" stroke="none" stroke-width="0" fill-opacity="0" fill="#ffffff"></circle><circle cx="430.92105263157896" cy="248.5526041666667" r="3.5" stroke="none" stroke-width="0" fill-opacity="0" fill="#ffffff"></circle><circle cx="442.5526315789474" cy="240.0541666666667" r="3.5" stroke="none" stroke-width="0" fill-opacity="0" fill="#ffffff"></circle><circle cx="454.1842105263158" cy="231.0963541666667" r="3.5" stroke="none" stroke-width="0" fill-opacity="0" fill="#ffffff"></circle><circle cx="465.8157894736842" cy="221.67916666666673" r="3.5" stroke="none" stroke-width="0" fill-opacity="0" fill="#ffffff"></circle><circle cx="477.44736842105266" cy="211.80260416666673" r="3.5" stroke="none" stroke-width="0" fill-opacity="0" fill="#ffffff"></circle><circle cx="489.07894736842104" cy="201.46666666666673" r="3.5" stroke="none" stroke-width="0" fill-opacity="0" fill="#ffffff"></circle><circle cx="500.7105263157895" cy="190.67135416666673" r="3.5" stroke="none" stroke-width="0" fill-opacity="0" fill="#ffffff"></circle><circle cx="512.3421052631579" cy="179.41666666666674" r="3.5" stroke="none" stroke-width="0" fill-opacity="0" fill="#ffffff"></circle><circle cx="523.9736842105262" cy="167.70260416666673" r="3.5" stroke="none" stroke-width="0" fill-opacity="0" fill="#ffffff"></circle><circle cx="535.6052631578948" cy="155.57510416666673" r="3.5" stroke="none" stroke-width="0" fill-opacity="0" fill="#ffffff"></circle><circle cx="547.2368421052631" cy="143.03416666666672" r="3.5" stroke="none" stroke-width="0" fill-opacity="0" fill="#ffffff"></circle><circle cx="558.8684210526316" cy="130.07979166666672" r="3.5" stroke="none" stroke-width="0" fill-opacity="0" fill="#ffffff"></circle><circle cx="570.5" cy="116.71197916666674" r="3.5" stroke="none" stroke-width="0" fill-opacity="0" fill="#ffffff"></circle><circle cx="128.5" cy="326.4166666666667" r="3.5" stroke="none" stroke-width="0" fill-opacity="0" fill="#ffffff"></circle><circle cx="140.1315789473684" cy="326.4166666666667" r="3.5" stroke="none" stroke-width="0" fill-opacity="0" fill="#ffffff"></circle><circle cx="151.76315789473685" cy="326.4166666666667" r="3.5" stroke="none" stroke-width="0" fill-opacity="0" fill="#ffffff"></circle><circle cx="163.39473684210526" cy="326.4166666666667" r="3.5" stroke="none" stroke-width="0" fill-opacity="0" fill="#ffffff"></circle><circle cx="175.0263157894737" cy="326.4166666666667" r="3.5" stroke="none" stroke-width="0" fill-opacity="0" fill="#ffffff"></circle><circle cx="186.6578947368421" cy="326.37072916666665" r="3.5" stroke="none" stroke-width="0" fill-opacity="0" fill="#ffffff"></circle><circle cx="198.28947368421052" cy="326.2788541666667" r="3.5" stroke="none" stroke-width="0" fill-opacity="0" fill="#ffffff"></circle><circle cx="209.92105263157896" cy="326.1410416666667" r="3.5" stroke="none" stroke-width="0" fill-opacity="0" fill="#ffffff"></circle><circle cx="221.55263157894737" cy="325.95729166666666" r="3.5" stroke="none" stroke-width="0" fill-opacity="0" fill="#ffffff"></circle><circle cx="233.18421052631578" cy="325.72760416666665" r="3.5" stroke="none" stroke-width="0" fill-opacity="0" fill="#ffffff"></circle><circle cx="244.81578947368422" cy="325.42901041666664" r="3.5" stroke="none" stroke-width="0" fill-opacity="0" fill="#ffffff"></circle><circle cx="256.4473684210526" cy="325.0615104166667" r="3.5" stroke="none" stroke-width="0" fill-opacity="0" fill="#ffffff"></circle><circle cx="268.07894736842104" cy="324.5561979166667" r="3.5" stroke="none" stroke-width="0" fill-opacity="0" fill="#ffffff"></circle><circle cx="279.7105263157895" cy="323.9130729166667" r="3.5" stroke="none" stroke-width="0" fill-opacity="0" fill="#ffffff"></circle><circle cx="291.3421052631579" cy="323.13213541666664" r="3.5" stroke="none" stroke-width="0" fill-opacity="0" fill="#ffffff"></circle><circle cx="302.97368421052636" cy="322.21338541666665" r="3.5" stroke="none" stroke-width="0" fill-opacity="0" fill="#ffffff"></circle><circle cx="314.60526315789474" cy="321.15682291666667" r="3.5" stroke="none" stroke-width="0" fill-opacity="0" fill="#ffffff"></circle><circle cx="326.2368421052631" cy="319.9624479166667" r="3.5" stroke="none" stroke-width="0" fill-opacity="0" fill="#ffffff"></circle><circle cx="337.86842105263156" cy="318.63026041666666" r="3.5" stroke="none" stroke-width="0" fill-opacity="0" fill="#ffffff"></circle><circle cx="349.5" cy="317.11432291666665" r="3.5" stroke="none" stroke-width="0" fill-opacity="0" fill="#ffffff"></circle><circle cx="361.13157894736844" cy="315.41463541666667" r="3.5" stroke="none" stroke-width="0" fill-opacity="0" fill="#ffffff"></circle><circle cx="372.7631578947369" cy="313.53119791666666" r="3.5" stroke="none" stroke-width="0" fill-opacity="0" fill="#ffffff"></circle><circle cx="384.39473684210526" cy="311.4180729166667" r="3.5" stroke="none" stroke-width="0" fill-opacity="0" fill="#ffffff"></circle><circle cx="396.0263157894737" cy="309.07526041666665" r="3.5" stroke="none" stroke-width="0" fill-opacity="0" fill="#ffffff"></circle><circle cx="407.6578947368421" cy="306.43385416666666" r="3.5" stroke="none" stroke-width="0" fill-opacity="0" fill="#ffffff"></circle><circle cx="419.2894736842105" cy="303.49385416666667" r="3.5" stroke="none" stroke-width="0" fill-opacity="0" fill="#ffffff"></circle><circle cx="430.92105263157896" cy="300.2552604166667" r="3.5" stroke="none" stroke-width="0" fill-opacity="0" fill="#ffffff"></circle><circle cx="442.5526315789474" cy="296.7180729166667" r="3.5" stroke="none" stroke-width="0" fill-opacity="0" fill="#ffffff"></circle><circle cx="454.1842105263158" cy="292.8822916666667" r="3.5" stroke="none" stroke-width="0" fill-opacity="0" fill="#ffffff"></circle><circle cx="465.8157894736842" cy="288.7479166666667" r="3.5" stroke="none" stroke-width="0" fill-opacity="0" fill="#ffffff"></circle><circle cx="477.44736842105266" cy="284.3149479166667" r="3.5" stroke="none" stroke-width="0" fill-opacity="0" fill="#ffffff"></circle><circle cx="489.07894736842104" cy="279.5833854166667" r="3.5" stroke="none" stroke-width="0" fill-opacity="0" fill="#ffffff"></circle><circle cx="500.7105263157895" cy="274.5532291666667" r="3.5" stroke="none" stroke-width="0" fill-opacity="0" fill="#ffffff"></circle><circle cx="512.3421052631579" cy="269.2244791666667" r="3.5" stroke="none" stroke-width="0" fill-opacity="0" fill="#ffffff"></circle><circle cx="523.9736842105262" cy="263.59713541666673" r="3.5" stroke="none" stroke-width="0" fill-opacity="0" fill="#ffffff"></circle><circle cx="535.6052631578948" cy="257.6711979166667" r="3.5" stroke="none" stroke-width="0" fill-opacity="0" fill="#ffffff"></circle><circle cx="547.2368421052631" cy="251.44666666666672" r="3.5" stroke="none" stroke-width="0" fill-opacity="0" fill="#ffffff"></circle><circle cx="558.8684210526316" cy="244.92354166666672" r="3.5" stroke="none" stroke-width="0" fill-opacity="0" fill="#ffffff"></circle><circle cx="570.5" cy="238.10182291666672" r="3.5" stroke="none" stroke-width="0" fill-opacity="0" fill="#ffffff"></circle></g><g></g><g><text x="601" y="89" font-family="Arial" font-size="13" stroke="none" stroke-width="0" fill-opacity="1.0" fill="#222222">Dépenses</text><text x="601" y="106" font-family="Arial" font-size="13" stroke="none" stroke-width="0" fill-opacity="1.0" fill="#222222">cumulées</text></g><rect x="583" y="78" width="13" height="13" stroke="none" stroke-width="0" fill-opacity="1.0" fill="#ff9900"></rect><g><text x="601" y="127" font-family="Arial" font-size="13" stroke="none" stroke-width="0" fill-opacity="1.0" fill="#222222">Recettes</text><text x="601" y="144" font-family="Arial" font-size="13" stroke="none" stroke-width="0" fill-opacity="1.0" fill="#222222">cumulées</text><text x="601" y="161" font-family="Arial" font-size="13" stroke="none" stroke-width="0" fill-opacity="1.0" fill="#222222">(optimiste)</text></g><rect x="583" y="116" width="13" height="13" stroke="none" stroke-width="0" fill-opacity="1.0" fill="#38761d"></rect><g><text x="601" y="182" font-family="Arial" font-size="13" stroke="none" stroke-width="0" fill-opacity="1.0" fill="#222222">Recettes</text><text x="601" y="199" font-family="Arial" font-size="13" stroke="none" stroke-width="0" fill-opacity="1.0" fill="#222222">cumulées</text><text x="601" y="216" font-family="Arial" font-size="13" stroke="none" stroke-width="0" fill-opacity="1.0" fill="#222222">(pessimiste)</text></g><rect x="583" y="171" width="13" height="13" stroke="none" stroke-width="0" fill-opacity="1.0" fill="#741b47"></rect><text text-anchor="end" x="133.25961894323342" y="354" font-family="Arial" font-size="13" transform="rotate(330 118.25961894323342 349.12916512459884)" stroke="none" stroke-width="0" fill-opacity="1.0" fill="#222222">0</text><text text-anchor="end" x="168.15435578533868" y="354" font-family="Arial" font-size="13" transform="rotate(330 153.15435578533868 349.12916512459884)" stroke="none" stroke-width="0" fill-opacity="1.0" fill="#222222">3</text><text text-anchor="end" x="203.04909262744394" y="354" font-family="Arial" font-size="13" transform="rotate(330 188.04909262744394 349.12916512459884)" stroke="none" stroke-width="0" fill-opacity="1.0" fill="#222222">6</text><text text-anchor="end" x="237.9438294695492" y="354" font-family="Arial" font-size="13" transform="rotate(330 222.9438294695492 349.12916512459884)" stroke="none" stroke-width="0" fill-opacity="1.0" fill="#222222">9</text><text text-anchor="end" x="272.83856631165446" y="354" font-family="Arial" font-size="13" transform="rotate(330 257.83856631165446 349.12916512459884)" stroke="none" stroke-width="0" fill-opacity="1.0" fill="#222222">12</text><text text-anchor="end" x="307.7333031537598" y="354" font-family="Arial" font-size="13" transform="rotate(330 292.7333031537598 349.12916512459884)" stroke="none" stroke-width="0" fill-opacity="1.0" fill="#222222">15</text><text text-anchor="end" x="342.628039995865" y="354" font-family="Arial" font-size="13" transform="rotate(330 327.628039995865 349.12916512459884)" stroke="none" stroke-width="0" fill-opacity="1.0" fill="#222222">18</text><text text-anchor="end" x="377.5227768379703" y="354" font-family="Arial" font-size="13" transform="rotate(330 362.5227768379703 349.12916512459884)" stroke="none" stroke-width="0" fill-opacity="1.0" fill="#222222">21</text><text text-anchor="end" x="412.4175136800755" y="354" font-family="Arial" font-size="13" transform="rotate(330 397.4175136800755 349.12916512459884)" stroke="none" stroke-width="0" fill-opacity="1.0" fill="#222222">24</text><text text-anchor="end" x="447.3122505221808" y="354" font-family="Arial" font-size="13" transform="rotate(330 432.3122505221808 349.12916512459884)" stroke="none" stroke-width="0" fill-opacity="1.0" fill="#222222">27</text><text text-anchor="end" x="482.2069873642861" y="354" font-family="Arial" font-size="13" transform="rotate(330 467.2069873642861 349.12916512459884)" stroke="none" stroke-width="0" fill-opacity="1.0" fill="#222222">30</text><text text-anchor="end" x="517.1017242063913" y="354" font-family="Arial" font-size="13" transform="rotate(330 502.10172420639134 349.12916512459884)" stroke="none" stroke-width="0" fill-opacity="1.0" fill="#222222">33</text><text text-anchor="end" x="551.9964610484965" y="354" font-family="Arial" font-size="13" transform="rotate(330.0000000000001 536.9964610484965 349.12916512459884)" stroke="none" stroke-width="0" fill-opacity="1.0" fill="#222222">36</text><g><text text-anchor="end" x="115" y="333" font-family="Arial" font-size="13" stroke="none" stroke-width="0" fill-opacity="1.0" fill="#444444">0</text></g><g><text text-anchor="end" x="115" y="270" font-family="Arial" font-size="13" stroke="none" stroke-width="0" fill-opacity="1.0" fill="#444444">300,000</text></g><g><text text-anchor="end" x="115" y="208" font-family="Arial" font-size="13" stroke="none" stroke-width="0" fill-opacity="1.0" fill="#444444">600,000</text></g><g><text text-anchor="end" x="115" y="145" font-family="Arial" font-size="13" stroke="none" stroke-width="0" fill-opacity="1.0" fill="#444444">900,000</text></g><g><text text-anchor="end" x="115" y="82" font-family="Arial" font-size="13" stroke="none" stroke-width="0" fill-opacity="1.0" fill="#444444">1,200,000</text></g></g><g></g></svg>