<svg id="chart" width="750" height="406"><defs id="defs"></defs><g><rect x="0.5" y="0.5" width="749" height="405" stroke="none" stroke-width="0" fill-opacity="1.0" fill="#ffffff"></rect><g><text x="132" y="55" font-family="Arial" font-size="13" font-weight="bold" stroke="none" stroke-width="0" fill-opacity="1.0" fill="#000000">Évolution des dépenses et recettes</text></g><rect x="132" y="78" width="487" height="251" stroke="none" stroke-width="0" fill-opacity="1" fill="none"></rect><g><text text-anchor="middle" x="376" y="386" font-family="Arial" font-size="13" font-style="italic" stroke="none" stroke-width="0" fill-opacity="1.0" fill="#222222">Mois</text></g><g><text text-anchor="middle" x="157" y="334" font-family="Arial" font-size="13" font-style="italic" transform="rotate(270 31 329)" stroke="none" stroke-width="0" fill-opacity="1.0" fill="#222222">€</text></g><rect x="132" y="329" width="487" height="1" stroke="none" stroke-width="0" fill-opacity="1.0" fill="#cccccc"></rect><rect x="132" y="266" width="487" height="1" stroke="none" stroke-width="0" fill-opacity="1.0" fill="#cccccc"></rect><rect x="132" y="203" width="487" height="1" stroke="none" stroke-width="0" fill-opacity="1.0" fill="#cccccc"></rect><rect x="132" y="140" width="487" height="1" stroke="none" stroke-width="0" fill-opacity="1.0" fill="#cccccc"></rect><rect x="132" y="78" width="487" height="1" stroke="none" stroke-width="0" fill-opacity="1.0" fill="#cccccc"></rect><rect x="132" y="329" width="487" height="1" stroke="none" stroke-width="0" fill-opacity="1.0" fill="#333333"></rect><g><path d="M619,329L132,329L132,329L132,329L144.81578947368422,327.2197825L144.81578947368422,327.2197825L157.6315789473684,325.439565L157.6315789473684,325.439565L170.44736842105263,323.6593475L170.44736842105263,323.6593475L183.26315789473685,321.87913L183.26315789473685,321.87913L196.07894736842104,320.0989125L196.07894736842104,320.0989125L208.89473684210526,318.318695L208.89473684210526,318.318695L221.71052631578948,316.5384775L221.71052631578948,316.5384775L234.5263157894737,314.75826L234.5263157894737,314.75826L247.3421052631579,312.9780425L247.3421052631579,312.9780425L260.1578947368421,311.197825L260.1578947368421,311.197825L272.97368421052636,309.4176075L272.97368421052636,309.4176075L285.7894736842105,307.63739L285.7894736842105,307.63739L298.60526315789474,305.8571725L298.60526315789474,305.8571725L311.42105263157896,304.076955L311.42105263157896,304.076955L324.2368421052631,302.2967375L324.2368421052631,302.2967375L337.0526315789474,300.51652L337.0526315789474,300.51652L349.86842105263156,298.7363025L349.86842105263156,298.7363025L362.6842105263158,296.95608500000003L362.6842105263158,296.95608500000003L375.5,295.1758675L375.5,295.1758675L388.3157894736842,293.39565L388.3157894736842,293.39565L401.13157894736844,291.6154325L401.13157894736844,291.6154325L413.94736842105266,289.835215L413.94736842105266,289.835215L426.7631578947368,287.5529975L426.7631578947368,287.5529975L439.57894736842104,285.27078L439.57894736842104,285.27078L452.39473684210526,282.9885625L452.39473684210526,282.9885625L465.2105263157895,280.706345L465.2105263157895,280.706345L478.0263157894737,278.4241275L478.0263157894737,278.4241275L490.8421052631579,276.14191L490.8421052631579,276.14191L503.6578947368421,273.8596925L503.6578947368421,273.8596925L516.4736842105262,271.577475L516.4736842105262,271.577475L529.2894736842105,269.2952575L529.2894736842105,269.2952575L542.1052631578948,267.01304L542.1052631578948,267.01304L554.921052631579,264.7308225L554.921052631579,264.7308225L567.7368421052631,262.448605L567.7368421052631,262.448605L580.5526315789474,260.1663875L580.5526315789474,260.1663875L593.3684210526316,257.88417L593.3684210526316,257.88417L606.1842105263158,255.60195249999998L606.1842105263158,255.60195249999998L619,253.31973499999998L619,253.31973499999998Z" stroke="none" stroke-width="0" fill-opacity="0.3" fill="#ff9900"></path><path d="M619,329L132,329L132,326.90833333333336L132,326.90833333333336L144.81578947368422,326.90833333333336L144.81578947368422,326.90833333333336L157.6315789473684,326.90833333333336L157.6315789473684,326.90833333333336L170.44736842105263,326.78175143678163L170.44736842105263,326.78175143678163L183.26315789473685,326.5285876436782L183.26315789473685,326.5285876436782L196.07894736842104,326.148841954023L196.07894736842104,326.148841954023L208.89473684210526,325.6425143678161L208.89473684210526,325.6425143678161L221.71052631578948,325.00960488505746L221.71052631578948,325.00960488505746L234.5263157894737,324.25011350574715L234.5263157894737,324.25011350574715L247.3421052631579,323.36404022988506L247.3421052631579,323.36404022988506L260.1578947368421,322.35138505747125L260.1578947368421,322.35138505747125L272.97368421052636,321.08556609195404L272.97368421052636,321.08556609195404L285.7894736842105,319.5665833333333L285.7894736842105,319.5665833333333L298.60526315789474,317.7944367816092L298.60526315789474,317.7944367816092L311.42105263157896,315.7691264367816L311.42105263157896,315.7691264367816L324.2368421052631,313.23748850574714L324.2368421052631,313.23748850574714L337.0526315789474,310.19952298850575L337.0526315789474,310.19952298850575L349.86842105263156,306.65522988505745L349.86842105263156,306.65522988505745L362.6842105263158,302.6046091954023L362.6842105263158,302.6046091954023L375.5,298.04766091954025L375.5,298.04766091954025L388.3157894736842,292.9843850574713L388.3157894736842,292.9843850574713L401.13157894736844,287.4147816091954L401.13157894736844,287.4147816091954L413.94736842105266,281.33885057471264L413.94736842105266,281.33885057471264L426.7631578947368,274.756591954023L426.7631578947368,274.756591954023L439.57894736842104,267.6680057471264L439.57894736842104,267.6680057471264L452.39473684210526,260.07309195402297L452.39473684210526,260.07309195402297L465.2105263157895,251.97185057471265L465.2105263157895,251.97185057471265L478.0263157894737,243.36428160919542L478.0263157894737,243.36428160919542L490.8421052631579,234.25038505747128L490.8421052631579,234.25038505747128L503.6578947368421,224.63016091954023L503.6578947368421,224.63016091954023L516.4736842105262,214.5036091954023L516.4736842105262,214.5036091954023L529.2894736842105,203.87072988505747L529.2894736842105,203.87072988505747L542.1052631578948,192.73152298850576L542.1052631578948,192.73152298850576L554.921052631579,181.08598850574714L554.921052631579,181.08598850574714L567.7368421052631,168.9341264367816L567.7368421052631,168.9341264367816L580.5526315789474,156.27593678160918L580.5526315789474,156.27593678160918L593.3684210526316,143.11141954022986L593.3684210526316,143.11141954022986L606.1842105263158,129.44057471264367L606.1842105263158,129.44057471264367L619,115.26340229885054L619,115.26340229885054Z" stroke="none" stroke-width="0" fill-opacity="0.3" fill="#38761d"></path><path d="M619,329L132,329L132,326.90833333333336L132,326.90833333333336L144.81578947368422,326.90833333333336L144.81578947368422,326.90833333333336L157.6315789473684,326.90833333333336L157.6315789473684,326.90833333333336L170.44736842105263,326.90833333333336L170.44736842105263,326.90833333333336L183.26315789473685,326.90833333333336L183.26315789473685,326.90833333333336L196.07894736842104,326.8577005747126L196.07894736842104,326.8577005747126L208.89473684210526,326.75643505747126L208.89473684210526,326.75643505747126L221.71052631578948,326.60453678160917L221.71052631578948,326.60453678160917L234.5263157894737,326.40200574712645L234.5263157894737,326.40200574712645L247.3421052631579,326.148841954023L247.3421052631579,326.148841954023L260.1578947368421,325.8197290229885L260.1578947368421,325.8197290229885L272.97368421052636,325.414666954023L272.97368421052636,325.414666954023L285.7894736842105,324.9083393678161L285.7894736842105,324.9083393678161L298.60526315789474,324.30074626436783L298.60526315789474,324.30074626436783L311.42105263157896,323.54125488505747L311.42105263157896,323.54125488505747L324.2368421052631,322.6551816091954L324.2368421052631,322.6551816091954L337.0526315789474,321.6425264367816L337.0526315789474,321.6425264367816L349.86842105263156,320.5032893678161L349.86842105263156,320.5032893678161L362.6842105263158,319.23747040229887L362.6842105263158,319.23747040229887L375.5,317.71848764367815L375.5,317.71848764367815L388.3157894736842,315.946341091954L388.3157894736842,315.946341091954L401.13157894736844,313.92103074712645L401.13157894736844,313.92103074712645L413.94736842105266,311.6425566091954L413.94736842105266,311.6425566091954L426.7631578947368,309.11091867816094L426.7631578947368,309.11091867816094L439.57894736842104,306.1995350574713L439.57894736842104,306.1995350574713L452.39473684210526,302.90840574712644L452.39473684210526,302.90840574712644L465.2105263157895,299.2375307471264L465.2105263157895,299.2375307471264L478.0263157894737,295.18691005747127L478.0263157894737,295.18691005747127L490.8421052631579,290.88312557471266L490.8421052631579,290.88312557471266L503.6578947368421,286.32617729885055L503.6578947368421,286.32617729885055L516.4736842105262,281.51606522988504L516.4736842105262,281.51606522988504L529.2894736842105,276.4527893678161L529.2894736842105,276.4527893678161L542.1052631578948,271.13634971264366L542.1052631578948,271.13634971264366L554.921052631579,265.5667462643678L554.921052631579,265.5667462643678L567.7368421052631,259.74397902298847L567.7368421052631,259.74397902298847L580.5526315789474,253.66804798850575L580.5526315789474,253.66804798850575L593.3684210526316,247.33895316091952L593.3684210526316,247.33895316091952L606.1842105263158,240.75669454022986L606.1842105263158,240.75669454022986L619,233.92127212643675L619,233.92127212643675Z" stroke="none" stroke-width="0" fill-opacity="0.3" fill="#741b47"></path></g><g></g><g><path d="M132,329L144.81578947368422,327.2197825L157.6315789473684,325.439565L170.44736842105263,323.6593475L183.26315789473685,321.87913L196.07894736842104,320.0989125L208.89473684210526,318.318695L221.71052631578948,316.5384775L234.5263157894737,314.75826L247.3421052631579,312.9780425L260.1578947368421,311.197825L272.97368421052636,309.4176075L285.7894736842105,307.63739L298.60526315789474,305.8571725L311.42105263157896,304.076955L324.2368421052631,302.2967375L337.0526315789474,300.51652L349.86842105263156,298.7363025L362.6842105263158,296.95608500000003L375.5,295.1758675L388.3157894736842,293.39565L401.13157894736844,291.6154325L413.94736842105266,289.835215L426.7631578947368,287.5529975L439.57894736842104,285.27078L452.39473684210526,282.9885625L465.2105263157895,280.706345L478.0263157894737,278.4241275L490.8421052631579,276.14191L503.6578947368421,273.8596925L516.4736842105262,271.577475L529.2894736842105,269.2952575L542.1052631578948,267.01304L554.921052631579,264.7308225L567.7368421052631,262.448605L580.5526315789474,260.1663875L593.3684210526316,257.88417L606.1842105263158,255.60195249999998L619,253.31973499999998" stroke="#ff9900" stroke-width="2" fill-opacity="1" fill="none"></path><path d="M132,326.90833333333336L144.81578947368422,326.90833333333336L157.6315789473684,326.90833333333336L170.44736842105263,326.78175143678163L183.26315789473685,326.5285876436782L196.07894736842104,326.148841954023L208.89473684210526,325.6425143678161L221.71052631578948,325.00960488505746L234.5263157894737,324.25011350574715L247.3421052631579,323.36404022988506L260.1578947368421,322.35138505747125L272.97368421052636,321.08556609195404L285.7894736842105,319.5665833333333L298.60526315789474,317.7944367816092L311.42105263157896,315.7691264367816L324.2368421052631,313.23748850574714L337.0526315789474,310.19952298850575L349.86842105263156,306.65522988505745L362.6842105263158,302.6046091954023L375.5,298.04766091954025L388.3157894736842,292.9843850574713L401.13157894736844,287.4147816091954L413.94736842105266,281.33885057471264L426.7631578947368,274.756591954023L439.57894736842104,267.6680057471264L452.39473684210526,260.07309195402297L465.2105263157895,251.97185057471265L478.0263157894737,243.36428160919542L490.8421052631579,234.25038505747128L503.6578947368421,224.63016091954023L516.4736842105262,214.5036091954023L529.2894736842105,203.87072988505747L542.1052631578948,192.73152298850576L554.921052631579,181.08598850574714L567.7368421052631,168.9341264367816L580.5526315789474,156.27593678160918L593.3684210526316,143.11141954022986L606.1842105263158,129.44057471264367L619,115.26340229885054" stroke="#38761d" stroke-width="2" fill-opacity="1" fill="none"></path><path d="M132,326.90833333333336L144.81578947368422,326.90833333333336L157.6315789473684,326.90833333333336L170.44736842105263,326.90833333333336L183.26315789473685,326.90833333333336L196.07894736842104,326.8577005747126L208.89473684210526,326.75643505747126L221.71052631578948,326.60453678160917L234.5263157894737,326.40200574712645L247.3421052631579,326.148841954023L260.1578947368421,325.8197290229885L272.97368421052636,325.414666954023L285.7894736842105,324.9083393678161L298.60526315789474,324.30074626436783L311.42105263157896,323.54125488505747L324.2368421052631,322.6551816091954L337.0526315789474,321.6425264367816L349.86842105263156,320.5032893678161L362.6842105263158,319.23747040229887L375.5,317.71848764367815L388.3157894736842,315.946341091954L401.13157894736844,313.92103074712645L413.94736842105266,311.6425566091954L426.7631578947368,309.11091867816094L439.57894736842104,306.1995350574713L452.39473684210526,302.90840574712644L465.2105263157895,299.2375307471264L478.0263157894737,295.18691005747127L490.8421052631579,290.88312557471266L503.6578947368421,286.32617729885055L516.4736842105262,281.51606522988504L529.2894736842105,276.4527893678161L542.1052631578948,271.13634971264366L554.921052631579,265.5667462643678L567.7368421052631,259.74397902298847L580.5526315789474,253.66804798850575L593.3684210526316,247.33895316091952L606.1842105263158,240.75669454022986L619,233.92127212643675" stroke="#741b47" stroke-width="2" fill-opacity="1" fill="none"></path></g><g><circle cx="132.5" cy="329.5" r="12" stroke="none" stroke-width="0" fill-opacity="0" fill="#ffffff"></circle><circle cx="145.31578947368422" cy="327.7197825" r="12" stroke="none" stroke-width="0" fill-opacity="0" fill="#ffffff"></circle><circle cx="158.1315789473684" cy="325.939565" r="12" stroke="none" stroke-width="0" fill-opacity="0" fill="#ffffff"></circle><circle cx="170.94736842105263" cy="324.1593475" r="12" stroke="none" stroke-width="0" fill-opacity="0" fill="#ffffff"></circle><circle cx="183.76315789473685" cy="322.37913" r="12" stroke="none" stroke-width="0" fill-opacity="0" fill="#ffffff"></circle><circle cx="196.57894736842104" cy="320.5989125" r="12" stroke="none" stroke-width="0" fill-opacity="0" fill="#ffffff"></circle><circle cx="209.39473684210526" cy="318.818695" r="12" stroke="none" stroke-width="0" fill-opacity="0" fill="#ffffff"></circle><circle cx="222.21052631578948" cy="317.0384775" r="12" stroke="none" stroke-width="0" fill-opacity="0" fill="#ffffff"></circle><circle cx="235.0263157894737" cy="315.25826" r="12" stroke="none" stroke-width="0" fill-opacity="0" fill="#ffffff"></circle><circle cx="247.8421052631579" cy="313.4780425" r="12" stroke="none" stroke-width="0" fill-opacity="0" fill="#ffffff"></circle><circle cx="260.6578947368421" cy="311.697825" r="12" stroke="none" stroke-width="0" fill-opacity="0" fill="#ffffff"></circle><circle cx="273.47368421052636" cy="309.9176075" r="12" stroke="none" stroke-width="0" fill-opacity="0" fill="#ffffff"></circle><circle cx="286.2894736842105" cy="308.13739" r="12" stroke="none" stroke-width="0" fill-opacity="0" fill="#ffffff"></circle><circle cx="299.10526315789474" cy="306.3571725" r="12" stroke="none" stroke-width="0" fill-opacity="0" fill="#ffffff"></circle><circle cx="311.92105263157896" cy="304.576955" r="12" stroke="none" stroke-width="0" fill-opacity="0" fill="#ffffff"></circle><circle cx="324.7368421052631" cy="302.7967375" r="12" stroke="none" stroke-width="0" fill-opacity="0" fill="#ffffff"></circle><circle cx="337.5526315789474" cy="301.01652" r="12" stroke="none" stroke-width="0" fill-opacity="0" fill="#ffffff"></circle><circle cx="350.36842105263156" cy="299.2363025" r="12" stroke="none" stroke-width="0" fill-opacity="0" fill="#ffffff"></circle><circle cx="363.1842105263158" cy="297.45608500000003" r="12" stroke="none" stroke-width="0" fill-opacity="0" fill="#ffffff"></circle><circle cx="376" cy="295.6758675" r="12" stroke="none" stroke-width="0" fill-opacity="0" fill="#ffffff"></circle><circle cx="388.8157894736842" cy="293.89565" r="12" stroke="none" stroke-width="0" fill-opacity="0" fill="#ffffff"></circle><circle cx="401.63157894736844" cy="292.1154325" r="12" stroke="none" stroke-width="0" fill-opacity="0" fill="#ffffff"></circle><circle cx="414.44736842105266" cy="290.335215" r="12" stroke="none" stroke-width="0" fill-opacity="0" fill="#ffffff"></circle><circle cx="427.2631578947368" cy="288.0529975" r="12" stroke="none" stroke-width="0" fill-opacity="0" fill="#ffffff"></circle><circle cx="440.07894736842104" cy="285.77078" r="12" stroke="none" stroke-width="0" fill-opacity="0" fill="#ffffff"></circle><circle cx="452.89473684210526" cy="283.4885625" r="12" stroke="none" stroke-width="0" fill-opacity="0" fill="#ffffff"></circle><circle cx="465.7105263157895" cy="281.206345" r="12" stroke="none" stroke-width="0" fill-opacity="0" fill="#ffffff"></circle><circle cx="478.5263157894737" cy="278.9241275" r="12" stroke="none" stroke-width="0" fill-opacity="0" fill="#ffffff"></circle><circle cx="491.3421052631579" cy="276.64191" r="12" stroke="none" stroke-width="0" fill-opacity="0" fill="#ffffff"></circle><circle cx="504.1578947368421" cy="274.3596925" r="12" stroke="none" stroke-width="0" fill-opacity="0" fill="#ffffff"></circle><circle cx="516.9736842105262" cy="272.077475" r="12" stroke="none" stroke-width="0" fill-opacity="0" fill="#ffffff"></circle><circle cx="529.7894736842105" cy="269.7952575" r="12" stroke="none" stroke-width="0" fill-opacity="0" fill="#ffffff"></circle><circle cx="542.6052631578948" cy="267.51304" r="12" stroke="none" stroke-width="0" fill-opacity="0" fill="#ffffff"></circle><circle cx="555.421052631579" cy="265.2308225" r="12" stroke="none" stroke-width="0" fill-opacity="0" fill="#ffffff"></circle><circle cx="568.2368421052631" cy="262.948605" r="12" stroke="none" stroke-width="0" fill-opacity="0" fill="#ffffff"></circle><circle cx="581.0526315789474" cy="260.6663875" r="12" stroke="none" stroke-width="0" fill-opacity="0" fill="#ffffff"></circle><circle cx="593.8684210526316" cy="258.38417" r="12" stroke="none" stroke-width="0" fill-opacity="0" fill="#ffffff"></circle><circle cx="606.6842105263158" cy="256.1019525" r="12" stroke="none" stroke-width="0" fill-opacity="0" fill="#ffffff"></circle><circle cx="619.5" cy="253.81973499999998" r="12" stroke="none" stroke-width="0" fill-opacity="0" fill="#ffffff"></circle><circle cx="132.5" cy="327.40833333333336" r="12" stroke="none" stroke-width="0" fill-opacity="0" fill="#ffffff"></circle><circle cx="145.31578947368422" cy="327.40833333333336" r="12" stroke="none" stroke-width="0" fill-opacity="0" fill="#ffffff"></circle><circle cx="158.1315789473684" cy="327.40833333333336" r="12" stroke="none" stroke-width="0" fill-opacity="0" fill="#ffffff"></circle><circle cx="170.94736842105263" cy="327.28175143678163" r="12" stroke="none" stroke-width="0" fill-opacity="0" fill="#ffffff"></circle><circle cx="183.76315789473685" cy="327.0285876436782" r="12" stroke="none" stroke-width="0" fill-opacity="0" fill="#ffffff"></circle><circle cx="196.57894736842104" cy="326.648841954023" r="12" stroke="none" stroke-width="0" fill-opacity="0" fill="#ffffff"></circle><circle cx="209.39473684210526" cy="326.1425143678161" r="12" stroke="none" stroke-width="0" fill-opacity="0" fill="#ffffff"></circle><circle cx="222.21052631578948" cy="325.50960488505746" r="12" stroke="none" stroke-width="0" fill-opacity="0" fill="#ffffff"></circle><circle cx="235.0263157894737" cy="324.75011350574715" r="12" stroke="none" stroke-width="0" fill-opacity="0" fill="#ffffff"></circle><circle cx="247.8421052631579" cy="323.86404022988506" r="12" stroke="none" stroke-width="0" fill-opacity="0" fill="#ffffff"></circle><circle cx="260.6578947368421" cy="322.85138505747125" r="12" stroke="none" stroke-width="0" fill-opacity="0" fill="#ffffff"></circle><circle cx="273.47368421052636" cy="321.58556609195404" r="12" stroke="none" stroke-width="0" fill-opacity="0" fill="#ffffff"></circle><circle cx="286.2894736842105" cy="320.0665833333333" r="12" stroke="none" stroke-width="0" fill-opacity="0" fill="#ffffff"></circle><circle cx="299.10526315789474" cy="318.2944367816092" r="12" stroke="none" stroke-width="0" fill-opacity="0" fill="#ffffff"></circle><circle cx="311.92105263157896" cy="316.2691264367816" r="12" stroke="none" stroke-width="0" fill-opacity="0" fill="#ffffff"></circle><circle cx="324.7368421052631" cy="313.73748850574714" r="12" stroke="none" stroke-width="0" fill-opacity="0" fill="#ffffff"></circle><circle cx="337.5526315789474" cy="310.69952298850575" r="12" stroke="none" stroke-width="0" fill-opacity="0" fill="#ffffff"></circle><circle cx="350.36842105263156" cy="307.15522988505745" r="12" stroke="none" stroke-width="0" fill-opacity="0" fill="#ffffff"></circle><circle cx="363.1842105263158" cy="303.1046091954023" r="12" stroke="none" stroke-width="0" fill-opacity="0" fill="#ffffff"></circle><circle cx="376" cy="298.54766091954025" r="12" stroke="none" stroke-width="0" fill-opacity="0" fill="#ffffff"></circle><circle cx="388.8157894736842" cy="293.4843850574713" r="12" stroke="none" stroke-width="0" fill-opacity="0" fill="#ffffff"></circle><circle cx="401.63157894736844" cy="287.9147816091954" r="12" stroke="none" stroke-width="0" fill-opacity="0" fill="#ffffff"></circle><circle cx="414.44736842105266" cy="281.83885057471264" r="12" stroke="none" stroke-width="0" fill-opacity="0" fill="#ffffff"></circle><circle cx="427.2631578947368" cy="275.256591954023" r="12" stroke="none" stroke-width="0" fill-opacity="0" fill="#ffffff"></circle><circle cx="440.07894736842104" cy="268.1680057471264" r="12" stroke="none" stroke-width="0" fill-opacity="0" fill="#ffffff"></circle><circle cx="452.89473684210526" cy="260.57309195402297" r="12" stroke="none" stroke-width="0" fill-opacity="0" fill="#ffffff"></circle><circle cx="465.7105263157895" cy="252.47185057471265" r="12" stroke="none" stroke-width="0" fill-opacity="0" fill="#ffffff"></circle><circle cx="478.5263157894737" cy="243.86428160919542" r="12" stroke="none" stroke-width="0" fill-opacity="0" fill="#ffffff"></circle><circle cx="491.3421052631579" cy="234.75038505747128" r="12" stroke="none" stroke-width="0" fill-opacity="0" fill="#ffffff"></circle><circle cx="504.1578947368421" cy="225.13016091954023" r="12" stroke="none" stroke-width="0" fill-opacity="0" fill="#ffffff"></circle><circle cx="516.9736842105262" cy="215.0036091954023" r="12" stroke="none" stroke-width="0" fill-opacity="0" fill="#ffffff"></circle><circle cx="529.7894736842105" cy="204.37072988505747" r="12" stroke="none" stroke-width="0" fill-opacity="0" fill="#ffffff"></circle><circle cx="542.6052631578948" cy="193.23152298850576" r="12" stroke="none" stroke-width="0" fill-opacity="0" fill="#ffffff"></circle><circle cx="555.421052631579" cy="181.58598850574714" r="12" stroke="none" stroke-width="0" fill-opacity="0" fill="#ffffff"></circle><circle cx="568.2368421052631" cy="169.4341264367816" r="12" stroke="none" stroke-width="0" fill-opacity="0" fill="#ffffff"></circle><circle cx="581.0526315789474" cy="156.77593678160918" r="12" stroke="none" stroke-width="0" fill-opacity="0" fill="#ffffff"></circle><circle cx="593.8684210526316" cy="143.61141954022986" r="12" stroke="none" stroke-width="0" fill-opacity="0" fill="#ffffff"></circle><circle cx="606.6842105263158" cy="129.94057471264367" r="12" stroke="none" stroke-width="0" fill-opacity="0" fill="#ffffff"></circle><circle cx="619.5" cy="115.76340229885054" r="12" stroke="none" stroke-width="0" fill-opacity="0" fill="#ffffff"></circle><circle cx="132.5" cy="327.40833333333336" r="12" stroke="none" stroke-width="0" fill-opacity="0" fill="#ffffff"></circle><circle cx="145.31578947368422" cy="327.40833333333336" r="12" stroke="none" stroke-width="0" fill-opacity="0" fill="#ffffff"></circle><circle cx="158.1315789473684" cy="327.40833333333336" r="12" stroke="none" stroke-width="0" fill-opacity="0" fill="#ffffff"></circle><circle cx="170.94736842105263" cy="327.40833333333336" r="12" stroke="none" stroke-width="0" fill-opacity="0" fill="#ffffff"></circle><circle cx="183.76315789473685" cy="327.40833333333336" r="12" stroke="none" stroke-width="0" fill-opacity="0" fill="#ffffff"></circle><circle cx="196.57894736842104" cy="327.3577005747126" r="12" stroke="none" stroke-width="0" fill-opacity="0" fill="#ffffff"></circle><circle cx="209.39473684210526" cy="327.25643505747126" r="12" stroke="none" stroke-width="0" fill-opacity="0" fill="#ffffff"></circle><circle cx="222.21052631578948" cy="327.10453678160917" r="12" stroke="none" stroke-width="0" fill-opacity="0" fill="#ffffff"></circle><circle cx="235.0263157894737" cy="326.90200574712645" r="12" stroke="none" stroke-width="0" fill-opacity="0" fill="#ffffff"></circle><circle cx="247.8421052631579" cy="326.648841954023" r="12" stroke="none" stroke-width="0" fill-opacity="0" fill="#ffffff"></circle><circle cx="260.6578947368421" cy="326.3197290229885" r="12" stroke="none" stroke-width="0" fill-opacity="0" fill="#ffffff"></circle><circle cx="273.47368421052636" cy="325.914666954023" r="12" stroke="none" stroke-width="0" fill-opacity="0" fill="#ffffff"></circle><circle cx="286.2894736842105" cy="325.4083393678161" r="12" stroke="none" stroke-width="0" fill-opacity="0" fill="#ffffff"></circle><circle cx="299.10526315789474" cy="324.80074626436783" r="12" stroke="none" stroke-width="0" fill-opacity="0" fill="#ffffff"></circle><circle cx="311.92105263157896" cy="324.04125488505747" r="12" stroke="none" stroke-width="0" fill-opacity="0" fill="#ffffff"></circle><circle cx="324.7368421052631" cy="323.1551816091954" r="12" stroke="none" stroke-width="0" fill-opacity="0" fill="#ffffff"></circle><circle cx="337.5526315789474" cy="322.1425264367816" r="12" stroke="none" stroke-width="0" fill-opacity="0" fill="#ffffff"></circle><circle cx="350.36842105263156" cy="321.0032893678161" r="12" stroke="none" stroke-width="0" fill-opacity="0" fill="#ffffff"></circle><circle cx="363.1842105263158" cy="319.73747040229887" r="12" stroke="none" stroke-width="0" fill-opacity="0" fill="#ffffff"></circle><circle cx="376" cy="318.21848764367815" r="12" stroke="none" stroke-width="0" fill-opacity="0" fill="#ffffff"></circle><circle cx="388.8157894736842" cy="316.446341091954" r="12" stroke="none" stroke-width="0" fill-opacity="0" fill="#ffffff"></circle><circle cx="401.63157894736844" cy="314.42103074712645" r="12" stroke="none" stroke-width="0" fill-opacity="0" fill="#ffffff"></circle><circle cx="414.44736842105266" cy="312.1425566091954" r="12" stroke="none" stroke-width="0" fill-opacity="0" fill="#ffffff"></circle><circle cx="427.2631578947368" cy="309.61091867816094" r="12" stroke="none" stroke-width="0" fill-opacity="0" fill="#ffffff"></circle><circle cx="440.07894736842104" cy="306.6995350574713" r="12" stroke="none" stroke-width="0" fill-opacity="0" fill="#ffffff"></circle><circle cx="452.89473684210526" cy="303.40840574712644" r="12" stroke="none" stroke-width="0" fill-opacity="0" fill="#ffffff"></circle><circle cx="465.7105263157895" cy="299.7375307471264" r="12" stroke="none" stroke-width="0" fill-opacity="0" fill="#ffffff"></circle><circle cx="478.5263157894737" cy="295.68691005747127" r="12" stroke="none" stroke-width="0" fill-opacity="0" fill="#ffffff"></circle><circle cx="491.3421052631579" cy="291.38312557471266" r="12" stroke="none" stroke-width="0" fill-opacity="0" fill="#ffffff"></circle><circle cx="504.1578947368421" cy="286.82617729885055" r="12" stroke="none" stroke-width="0" fill-opacity="0" fill="#ffffff"></circle><circle cx="516.9736842105262" cy="282.01606522988504" r="12" stroke="none" stroke-width="0" fill-opacity="0" fill="#ffffff"></circle><circle cx="529.7894736842105" cy="276.9527893678161" r="12" stroke="none" stroke-width="0" fill-opacity="0" fill="#ffffff"></circle><circle cx="542.6052631578948" cy="271.63634971264366" r="12" stroke="none" stroke-width="0" fill-opacity="0" fill="#ffffff"></circle><circle cx="555.421052631579" cy="266.0667462643678" r="12" stroke="none" stroke-width="0" fill-opacity="0" fill="#ffffff"></circle><circle cx="568.2368421052631" cy="260.24397902298847" r="12" stroke="none" stroke-width="0" fill-opacity="0" fill="#ffffff"></circle><circle cx="581.0526315789474" cy="254.16804798850575" r="12" stroke="none" stroke-width="0" fill-opacity="0" fill="#ffffff"></circle><circle cx="593.8684210526316" cy="247.83895316091952" r="12" stroke="none" stroke-width="0" fill-opacity="0" fill="#ffffff"></circle><circle cx="606.6842105263158" cy="241.25669454022986" r="12" stroke="none" stroke-width="0" fill-opacity="0" fill="#ffffff"></circle><circle cx="619.5" cy="234.42127212643675" r="12" stroke="none" stroke-width="0" fill-opacity="0" fill="#ffffff"></circle></g><g><circle cx="132.5" cy="329.5" r="3.5" stroke="none" stroke-width="0" fill-opacity="0" fill="#ffffff"></circle><circle cx="145.31578947368422" cy="327.7197825" r="3.5" stroke="none" stroke-width="0" fill-opacity="0" fill="#ffffff"></circle><circle cx="158.1315789473684" cy="325.939565" r="3.5" stroke="none" stroke-width="0" fill-opacity="0" fill="#ffffff"></circle><circle cx="170.94736842105263" cy="324.1593475" r="3.5" stroke="none" stroke-width="0" fill-opacity="0" fill="#ffffff"></circle><circle cx="183.76315789473685" cy="322.37913" r="3.5" stroke="none" stroke-width="0" fill-opacity="0" fill="#ffffff"></circle><circle cx="196.57894736842104" cy="320.5989125" r="3.5" stroke="none" stroke-width="0" fill-opacity="0" fill="#ffffff"></circle><circle cx="209.39473684210526" cy="318.818695" r="3.5" stroke="none" stroke-width="0" fill-opacity="0" fill="#ffffff"></circle><circle cx="222.21052631578948" cy="317.0384775" r="3.5" stroke="none" stroke-width="0" fill-opacity="0" fill="#ffffff"></circle><circle cx="235.0263157894737" cy="315.25826" r="3.5" stroke="none" stroke-width="0" fill-opacity="0" fill="#ffffff"></circle><circle cx="247.8421052631579" cy="313.4780425" r="3.5" stroke="none" stroke-width="0" fill-opacity="0" fill="#ffffff"></circle><circle cx="260.6578947368421" cy="311.697825" r="3.5" stroke="none" stroke-width="0" fill-opacity="0" fill="#ffffff"></circle><circle cx="273.47368421052636" cy="309.9176075" r="3.5" stroke="none" stroke-width="0" fill-opacity="0" fill="#ffffff"></circle><circle cx="286.2894736842105" cy="308.13739" r="3.5" stroke="none" stroke-width="0" fill-opacity="0" fill="#ffffff"></circle><circle cx="299.10526315789474" cy="306.3571725" r="3.5" stroke="none" stroke-width="0" fill-opacity="0" fill="#ffffff"></circle><circle cx="311.92105263157896" cy="304.576955" r="3.5" stroke="none" stroke-width="0" fill-opacity="0" fill="#ffffff"></circle><circle cx="324.7368421052631" cy="302.7967375" r="3.5" stroke="none" stroke-width="0" fill-opacity="0" fill="#ffffff"></circle><circle cx="337.5526315789474" cy="301.01652" r="3.5" stroke="none" stroke-width="0" fill-opacity="0" fill="#ffffff"></circle><circle cx="350.36842105263156" cy="299.2363025" r="3.5" stroke="none" stroke-width="0" fill-opacity="0" fill="#ffffff"></circle><circle cx="363.1842105263158" cy="297.45608500000003" r="3.5" stroke="none" stroke-width="0" fill-opacity="0" fill="#ffffff"></circle><circle cx="376" cy="295.6758675" r="3.5" stroke="none" stroke-width="0" fill-opacity="0" fill="#ffffff"></circle><circle cx="388.8157894736842" cy="293.89565" r="3.5" stroke="none" stroke-width="0" fill-opacity="0" fill="#ffffff"></circle><circle cx="401.63157894736844" cy="292.1154325" r="3.5" stroke="none" stroke-width="0" fill-opacity="0" fill="#ffffff"></circle><circle cx="414.44736842105266" cy="290.335215" r="3.5" stroke="none" stroke-width="0" fill-opacity="0" fill="#ffffff"></circle><circle cx="427.2631578947368" cy="288.0529975" r="3.5" stroke="none" stroke-width="0" fill-opacity="0" fill="#ffffff"></circle><circle cx="440.07894736842104" cy="285.77078" r="3.5" stroke="none" stroke-width="0" fill-opacity="0" fill="#ffffff"></circle><circle cx="452.89473684210526" cy="283.4885625" r="3.5" stroke="none" stroke-width="0" fill-opacity="0" fill="#ffffff"></circle><circle cx="465.7105263157895" cy="281.206345" r="3.5" stroke="none" stroke-width="0" fill-opacity="0" fill="#ffffff"></circle><circle cx="478.5263157894737" cy="278.9241275" r="3.5" stroke="none" stroke-width="0" fill-opacity="0" fill="#ffffff"></circle><circle cx="491.3421052631579" cy="276.64191" r="3.5" stroke="none" stroke-width="0" fill-opacity="0" fill="#ffffff"></circle><circle cx="504.1578947368421" cy="274.3596925" r="3.5" stroke="none" stroke-width="0" fill-opacity="0" fill="#ffffff"></circle><circle cx="516.9736842105262" cy="272.077475" r="3.5" stroke="none" stroke-width="0" fill-opacity="0" fill="#ffffff"></circle><circle cx="529.7894736842105" cy="269.7952575" r="3.5" stroke="none" stroke-width="0" fill-opacity="0" fill="#ffffff"></circle><circle cx="542.6052631578948" cy="267.51304" r="3.5" stroke="none" stroke-width="0" fill-opacity="0" fill="#ffffff"></circle><circle cx="555.421052631579" cy="265.2308225" r="3.5" stroke="none" stroke-width="0" fill-opacity="0" fill="#ffffff"></circle><circle cx="568.2368421052631" cy="262.948605" r="3.5" stroke="none" stroke-width="0" fill-opacity="0" fill="#ffffff"></circle><circle cx="581.0526315789474" cy="260.6663875" r="3.5" stroke="none" stroke-width="0" fill-opacity="0" fill="#ffffff"></circle><circle cx="593.8684210526316" cy="258.38417" r="3.5" stroke="none" stroke-width="0" fill-opacity="0" fill="#ffffff"></circle><circle cx="606.6842105263158" cy="256.1019525" r="3.5" stroke="none" stroke-width="0" fill-opacity="0" fill="#ffffff"></circle><circle cx="619.5" cy="253.81973499999998" r="3.5" stroke="none" stroke-width="0" fill-opacity="0" fill="#ffffff"></circle><circle cx="132.5" cy="327.40833333333336" r="3.5" stroke="none" stroke-width="0" fill-opacity="0" fill="#ffffff"></circle><circle cx="145.31578947368422" cy="327.40833333333336" r="3.5" stroke="none" stroke-width="0" fill-opacity="0" fill="#ffffff"></circle><circle cx="158.1315789473684" cy="327.40833333333336" r="3.5" stroke="none" stroke-width="0" fill-opacity="0" fill="#ffffff"></circle><circle cx="170.94736842105263" cy="327.28175143678163" r="3.5" stroke="none" stroke-width="0" fill-opacity="0" fill="#ffffff"></circle><circle cx="183.76315789473685" cy="327.0285876436782" r="3.5" stroke="none" stroke-width="0" fill-opacity="0" fill="#ffffff"></circle><circle cx="196.57894736842104" cy="326.648841954023" r="3.5" stroke="none" stroke-width="0" fill-opacity="0" fill="#ffffff"></circle><circle cx="209.39473684210526" cy="326.1425143678161" r="3.5" stroke="none" stroke-width="0" fill-opacity="0" fill="#ffffff"></circle><circle cx="222.21052631578948" cy="325.50960488505746" r="3.5" stroke="none" stroke-width="0" fill-opacity="0" fill="#ffffff"></circle><circle cx="235.0263157894737" cy="324.75011350574715" r="3.5" stroke="none" stroke-width="0" fill-opacity="0" fill="#ffffff"></circle><circle cx="247.8421052631579" cy="323.86404022988506" r="3.5" stroke="none" stroke-width="0" fill-opacity="0" fill="#ffffff"></circle><circle cx="260.6578947368421" cy="322.85138505747125" r="3.5" stroke="none" stroke-width="0" fill-opacity="0" fill="#ffffff"></circle><circle cx="273.47368421052636" cy="321.58556609195404" r="3.5" stroke="none" stroke-width="0" fill-opacity="0" fill="#ffffff"></circle><circle cx="286.2894736842105" cy="320.0665833333333" r="3.5" stroke="none" stroke-width="0" fill-opacity="0" fill="#ffffff"></circle><circle cx="299.10526315789474" cy="318.2944367816092" r="3.5" stroke="none" stroke-width="0" fill-opacity="0" fill="#ffffff"></circle><circle cx="311.92105263157896" cy="316.2691264367816" r="3.5" stroke="none" stroke-width="0" fill-opacity="0" fill="#ffffff"></circle><circle cx="324.7368421052631" cy="313.73748850574714" r="3.5" stroke="none" stroke-width="0" fill-opacity="0" fill="#ffffff"></circle><circle cx="337.5526315789474" cy="310.69952298850575" r="3.5" stroke="none" stroke-width="0" fill-opacity="0" fill="#ffffff"></circle><circle cx="350.36842105263156" cy="307.15522988505745" r="3.5" stroke="none" stroke-width="0" fill-opacity="0" fill="#ffffff"></circle><circle cx="363.1842105263158" cy="303.1046091954023" r="3.5" stroke="none" stroke-width="0" fill-opacity="0" fill="#ffffff"></circle><circle cx="376" cy="298.54766091954025" r="3.5" stroke="none" stroke-width="0" fill-opacity="0" fill="#ffffff"></circle><circle cx="388.8157894736842" cy="293.4843850574713" r="3.5" stroke="none" stroke-width="0" fill-opacity="0" fill="#ffffff"></circle><circle cx="401.63157894736844" cy="287.9147816091954" r="3.5" stroke="none" stroke-width="0" fill-opacity="0" fill="#ffffff"></circle><circle cx="414.44736842105266" cy="281.83885057471264" r="3.5" stroke="none" stroke-width="0" fill-opacity="0" fill="#ffffff"></circle><circle cx="427.2631578947368" cy="275.256591954023" r="3.5" stroke="none" stroke-width="0" fill-opacity="0" fill="#ffffff"></circle><circle cx="440.07894736842104" cy="268.1680057471264" r="3.5" stroke="none" stroke-width="0" fill-opacity="0" fill="#ffffff"></circle><circle cx="452.89473684210526" cy="260.57309195402297" r="3.5" stroke="none" stroke-width="0" fill-opacity="0" fill="#ffffff"></circle><circle cx="465.7105263157895" cy="252.47185057471265" r="3.5" stroke="none" stroke-width="0" fill-opacity="0" fill="#ffffff"></circle><circle cx="478.5263157894737" cy="243.86428160919542" r="3.5" stroke="none" stroke-width="0" fill-opacity="0" fill="#ffffff"></circle><circle cx="491.3421052631579" cy="234.75038505747128" r="3.5" stroke="none" stroke-width="0" fill-opacity="0" fill="#ffffff"></circle><circle cx="504.1578947368421" cy="225.13016091954023" r="3.5" stroke="none" stroke-width="0" fill-opacity="0" fill="#ffffff"></circle><circle cx="516.9736842105262" cy="215.0036091954023" r="3.5" stroke="none" stroke-width="0" fill-opacity="0" fill="#ffffff"></circle><circle cx="529.7894736842105" cy="204.37072988505747" r="3.5" stroke="none" stroke-width="0" fill-opacity="0" fill="#ffffff"></circle><circle cx="542.6052631578948" cy="193.23152298850576" r="3.5" stroke="none" stroke-width="0" fill-opacity="0" fill="#ffffff"></circle><circle cx="555.421052631579" cy="181.58598850574714" r="3.5" stroke="none" stroke-width="0" fill-opacity="0" fill="#ffffff"></circle><circle cx="568.2368421052631" cy="169.4341264367816" r="3.5" stroke="none" stroke-width="0" fill-opacity="0" fill="#ffffff"></circle><circle cx="581.0526315789474" cy="156.77593678160918" r="3.5" stroke="none" stroke-width="0" fill-opacity="0" fill="#ffffff"></circle><circle cx="593.8684210526316" cy="143.61141954022986" r="3.5" stroke="none" stroke-width="0" fill-opacity="0" fill="#ffffff"></circle><circle cx="606.6842105263158" cy="129.94057471264367" r="3.5" stroke="none" stroke-width="0" fill-opacity="0" fill="#ffffff"></circle><circle cx="619.5" cy="115.76340229885054" r="3.5" stroke="none" stroke-width="0" fill-opacity="0" fill="#ffffff"></circle><circle cx="132.5" cy="327.40833333333336" r="3.5" stroke="none" stroke-width="0" fill-opacity="0" fill="#ffffff"></circle><circle cx="145.31578947368422" cy="327.40833333333336" r="3.5" stroke="none" stroke-width="0" fill-opacity="0" fill="#ffffff"></circle><circle cx="158.1315789473684" cy="327.40833333333336" r="3.5" stroke="none" stroke-width="0" fill-opacity="0" fill="#ffffff"></circle><circle cx="170.94736842105263" cy="327.40833333333336" r="3.5" stroke="none" stroke-width="0" fill-opacity="0" fill="#ffffff"></circle><circle cx="183.76315789473685" cy="327.40833333333336" r="3.5" stroke="none" stroke-width="0" fill-opacity="0" fill="#ffffff"></circle><circle cx="196.57894736842104" cy="327.3577005747126" r="3.5" stroke="none" stroke-width="0" fill-opacity="0" fill="#ffffff"></circle><circle cx="209.39473684210526" cy="327.25643505747126" r="3.5" stroke="none" stroke-width="0" fill-opacity="0" fill="#ffffff"></circle><circle cx="222.21052631578948" cy="327.10453678160917" r="3.5" stroke="none" stroke-width="0" fill-opacity="0" fill="#ffffff"></circle><circle cx="235.0263157894737" cy="326.90200574712645" r="3.5" stroke="none" stroke-width="0" fill-opacity="0" fill="#ffffff"></circle><circle cx="247.8421052631579" cy="326.648841954023" r="3.5" stroke="none" stroke-width="0" fill-opacity="0" fill="#ffffff"></circle><circle cx="260.6578947368421" cy="326.3197290229885" r="3.5" stroke="none" stroke-width="0" fill-opacity="0" fill="#ffffff"></circle><circle cx="273.47368421052636" cy="325.914666954023" r="3.5" stroke="none" stroke-width="0" fill-opacity="0" fill="#ffffff"></circle><circle cx="286.2894736842105" cy="325.4083393678161" r="3.5" stroke="none" stroke-width="0" fill-opacity="0" fill="#ffffff"></circle><circle cx="299.10526315789474" cy="324.80074626436783" r="3.5" stroke="none" stroke-width="0" fill-opacity="0" fill="#ffffff"></circle><circle cx="311.92105263157896" cy="324.04125488505747" r="3.5" stroke="none" stroke-width="0" fill-opacity="0" fill="#ffffff"></circle><circle cx="324.7368421052631" cy="323.1551816091954" r="3.5" stroke="none" stroke-width="0" fill-opacity="0" fill="#ffffff"></circle><circle cx="337.5526315789474" cy="322.1425264367816" r="3.5" stroke="none" stroke-width="0" fill-opacity="0" fill="#ffffff"></circle><circle cx="350.36842105263156" cy="321.0032893678161" r="3.5" stroke="none" stroke-width="0" fill-opacity="0" fill="#ffffff"></circle><circle cx="363.1842105263158" cy="319.73747040229887" r="3.5" stroke="none" stroke-width="0" fill-opacity="0" fill="#ffffff"></circle><circle cx="376" cy="318.21848764367815" r="3.5" stroke="none" stroke-width="0" fill-opacity="0" fill="#ffffff"></circle><circle cx="388.8157894736842" cy="316.446341091954" r="3.5" stroke="none" stroke-width="0" fill-opacity="0" fill="#ffffff"></circle><circle cx="401.63157894736844" cy="314.42103074712645" r="3.5" stroke="none" stroke-width="0" fill-opacity="0" fill="#ffffff"></circle><circle cx="414.44736842105266" cy="312.1425566091954" r="3.5" stroke="none" stroke-width="0" fill-opacity="0" fill="#ffffff"></circle><circle cx="427.2631578947368" cy="309.61091867816094" r="3.5" stroke="none" stroke-width="0" fill-opacity="0" fill="#ffffff"></circle><circle cx="440.07894736842104" cy="306.6995350574713" r="3.5" stroke="none" stroke-width="0" fill-opacity="0" fill="#ffffff"></circle><circle cx="452.89473684210526" cy="303.40840574712644" r="3.5" stroke="none" stroke-width="0" fill-opacity="0" fill="#ffffff"></circle><circle cx="465.7105263157895" cy="299.7375307471264" r="3.5" stroke="none" stroke-width="0" fill-opacity="0" fill="#ffffff"></circle><circle cx="478.5263157894737" cy="295.68691005747127" r="3.5" stroke="none" stroke-width="0" fill-opacity="0" fill="#ffffff"></circle><circle cx="491.3421052631579" cy="291.38312557471266" r="3.5" stroke="none" stroke-width="0" fill-opacity="0" fill="#ffffff"></circle><circle cx="504.1578947368421" cy="286.82617729885055" r="3.5" stroke="none" stroke-width="0" fill-opacity="0" fill="#ffffff"></circle><circle cx="516.9736842105262" cy="282.01606522988504" r="3.5" stroke="none" stroke-width="0" fill-opacity="0" fill="#ffffff"></circle><circle cx="529.7894736842105" cy="276.9527893678161" r="3.5" stroke="none" stroke-width="0" fill-opacity="0" fill="#ffffff"></circle><circle cx="542.6052631578948" cy="271.63634971264366" r="3.5" stroke="none" stroke-width="0" fill-opacity="0" fill="#ffffff"></circle><circle cx="555.421052631579" cy="266.0667462643678" r="3.5" stroke="none" stroke-width="0" fill-opacity="0" fill="#ffffff"></circle><circle cx="568.2368421052631" cy="260.24397902298847" r="3.5" stroke="none" stroke-width="0" fill-opacity="0" fill="#ffffff"></circle><circle cx="581.0526315789474" cy="254.16804798850575" r="3.5" stroke="none" stroke-width="0" fill-opacity="0" fill="#ffffff"></circle><circle cx="593.8684210526316" cy="247.83895316091952" r="3.5" stroke="none" stroke-width="0" fill-opacity="0" fill="#ffffff"></circle><circle cx="606.6842105263158" cy="241.25669454022986" r="3.5" stroke="none" stroke-width="0" fill-opacity="0" fill="#ffffff"></circle><circle cx="619.5" cy="234.42127212643675" r="3.5" stroke="none" stroke-width="0" fill-opacity="0" fill="#ffffff"></circle></g><g></g><g><text x="650" y="89" font-family="Arial" font-size="13" stroke="none" stroke-width="0" fill-opacity="1.0" fill="#222222">Dépenses</text><text x="650" y="106" font-family="Arial" font-size="13" stroke="none" stroke-width="0" fill-opacity="1.0" fill="#222222">cumulées</text></g><rect x="632" y="78" width="13" height="13" stroke="none" stroke-width="0" fill-opacity="1.0" fill="#ff9900"></rect><g><text x="650" y="127" font-family="Arial" font-size="13" stroke="none" stroke-width="0" fill-opacity="1.0" fill="#222222">Recettes</text><text x="650" y="144" font-family="Arial" font-size="13" stroke="none" stroke-width="0" fill-opacity="1.0" fill="#222222">cumulées</text><text x="650" y="161" font-family="Arial" font-size="13" stroke="none" stroke-width="0" fill-opacity="1.0" fill="#222222">(optimiste)</text></g><rect x="632" y="116" width="13" height="13" stroke="none" stroke-width="0" fill-opacity="1.0" fill="#38761d"></rect><g><text x="650" y="182" font-family="Arial" font-size="13" stroke="none" stroke-width="0" fill-opacity="1.0" fill="#222222">Recettes</text><text x="650" y="199" font-family="Arial" font-size="13" stroke="none" stroke-width="0" fill-opacity="1.0" fill="#222222">cumulées</text><text x="650" y="216" font-family="Arial" font-size="13" stroke="none" stroke-width="0" fill-opacity="1.0" fill="#222222">(pessimiste)</text></g><rect x="632" y="171" width="13" height="13" stroke="none" stroke-width="0" fill-opacity="1.0" fill="#741b47"></rect><text text-anchor="end" x="137.25961894323342" y="355" font-family="Arial" font-size="13" transform="rotate(330 122.25961894323342 350.12916512459884)" stroke="none" stroke-width="0" fill-opacity="1.0" fill="#222222">0</text><text text-anchor="end" x="175.70698736428605" y="355" font-family="Arial" font-size="13" transform="rotate(330 160.70698736428605 350.12916512459884)" stroke="none" stroke-width="0" fill-opacity="1.0" fill="#222222">3</text><text text-anchor="end" x="214.15435578533868" y="355" font-family="Arial" font-size="13" transform="rotate(330 199.15435578533868 350.12916512459884)" stroke="none" stroke-width="0" fill-opacity="1.0" fill="#222222">6</text><text text-anchor="end" x="252.6017242063913" y="355" font-family="Arial" font-size="13" transform="rotate(330 237.6017242063913 350.12916512459884)" stroke="none" stroke-width="0" fill-opacity="1.0" fill="#222222">9</text><text text-anchor="end" x="291.04909262744394" y="355" font-family="Arial" font-size="13" transform="rotate(330 276.04909262744394 350.12916512459884)" stroke="none" stroke-width="0" fill-opacity="1.0" fill="#222222">12</text><text text-anchor="end" x="329.49646104849654" y="355" font-family="Arial" font-size="13" transform="rotate(330 314.49646104849654 350.12916512459884)" stroke="none" stroke-width="0" fill-opacity="1.0" fill="#222222">15</text><text text-anchor="end" x="367.9438294695492" y="355" font-family="Arial" font-size="13" transform="rotate(330 352.9438294695492 350.12916512459884)" stroke="none" stroke-width="0" fill-opacity="1.0" fill="#222222">18</text><text text-anchor="end" x="406.39119789060186" y="355" font-family="Arial" font-size="13" transform="rotate(330 391.39119789060186 350.12916512459884)" stroke="none" stroke-width="0" fill-opacity="1.0" fill="#222222">21</text><text text-anchor="end" x="444.83856631165446" y="355" font-family="Arial" font-size="13" transform="rotate(330 429.83856631165446 350.12916512459884)" stroke="none" stroke-width="0" fill-opacity="1.0" fill="#222222">24</text><text text-anchor="end" x="483.2859347327071" y="355" font-family="Arial" font-size="13" transform="rotate(330 468.2859347327071 350.12916512459884)" stroke="none" stroke-width="0" fill-opacity="1.0" fill="#222222">27</text><text text-anchor="end" x="521.7333031537596" y="355" font-family="Arial" font-size="13" transform="rotate(330 506.73330315375966 350.12916512459884)" stroke="none" stroke-width="0" fill-opacity="1.0" fill="#222222">30</text><text text-anchor="end" x="560.1806715748123" y="355" font-family="Arial" font-size="13" transform="rotate(330.0000000000001 545.1806715748123 350.12916512459884)" stroke="none" stroke-width="0" fill-opacity="1.0" fill="#222222">33</text><text text-anchor="end" x="598.628039995865" y="355" font-family="Arial" font-size="13" transform="rotate(329.9999999999999 583.628039995865 350.12916512459884)" stroke="none" stroke-width="0" fill-opacity="1.0" fill="#222222">36</text><g><text text-anchor="end" x="119" y="334" font-family="Arial" font-size="13" stroke="none" stroke-width="0" fill-opacity="1.0" fill="#444444">0</text></g><g><text text-anchor="end" x="119" y="271" font-family="Arial" font-size="13" stroke="none" stroke-width="0" fill-opacity="1.0" fill="#444444">300,000</text></g><g><text text-anchor="end" x="119" y="208" font-family="Arial" font-size="13" stroke="none" stroke-width="0" fill-opacity="1.0" fill="#444444">600,000</text></g><g><text text-anchor="end" x="119" y="145" font-family="Arial" font-size="13" stroke="none" stroke-width="0" fill-opacity="1.0" fill="#444444">900,000</text></g><g><text text-anchor="end" x="119" y="83" font-family="Arial" font-size="13" stroke="none" stroke-width="0" fill-opacity="1.0" fill="#444444">1,200,000</text></g></g><g></g></svg>