<svg id="chart" width="698" height="405"><defs id="defs"></defs><g><rect x="0.5" y="0.5" width="697" height="404" stroke="none" stroke-width="0" fill-opacity="1.0" fill="#ffffff"></rect><g><text x="128" y="55" font-family="Arial" font-size="13" font-weight="bold" stroke="none" stroke-width="0" fill-opacity="1.0" fill="#000000">Évolution des dépenses et recettes</text></g><g><text text-anchor="middle" x="349" y="385" font-family="Arial" font-size="13" font-style="italic" stroke="none" stroke-width="0" fill-opacity="1.0" fill="#222222">Mois</text></g><g><text text-anchor="middle" x="154" y="333" font-family="Arial" font-size="13" font-style="italic" transform="rotate(270 29 328)" stroke="none" stroke-width="0" fill-opacity="1.0" fill="#222222">€</text></g><rect x="128" y="328" width="442" height="1" stroke="none" stroke-width="0" fill-opacity="1.0" fill="#cccccc"></rect><rect x="128" y="265" width="442" height="1" stroke="none" stroke-width="0" fill-opacity="1.0" fill="#cccccc"></rect><rect x="128" y="203" width="442" height="1" stroke="none" stroke-width="0" fill-opacity="1.0" fill="#cccccc"></rect><rect x="128" y="140" width="442" height="1" stroke="none" stroke-width="0" fill-opacity="1.0" fill="#cccccc"></rect><rect x="128" y="77" width="442" height="1" stroke="none" stroke-width="0" fill-opacity="1.0" fill="#cccccc"></rect><rect x="128" y="328" width="442" height="1" stroke="none" stroke-width="0" fill-opacity="1.0" fill="#333333"></rect><g><rect x="128" y="78" width="442" height="250" stroke="none" stroke-width="0" fill-opacity="1" fill="none"></rect><g><path d="M570,328L128,328L128,328L128,328L139.6315789473684,326.37625L139.6315789473684,326.37625L151.26315789473685,324.7316666666667L151.26315789473685,324.7316666666667L162.89473684210526,322.96208333333334L162.89473684210526,322.96208333333334L174.5263157894737,321.1925L174.5263157894737,321.1925L186.1578947368421,319.42291666666665L186.1578947368421,319.42291666666665L197.78947368421052,317.6533333333333L197.78947368421052,317.6533333333333L209.42105263157896,315.88375L209.42105263157896,315.88375L221.05263157894737,314.1141666666667L221.05263157894737,314.1141666666667L232.68421052631578,312.26125L232.68421052631578,312.26125L244.31578947368422,310.4083333333333L244.31578947368422,310.4083333333333L255.94736842105263,308.55541666666664L255.94736842105263,308.55541666666664L267.57894736842104,306.72333333333336L267.57894736842104,306.72333333333336L279.2105263157895,304.9502083333333L279.2105263157895,304.9502083333333L290.8421052631579,303.1770833333333L290.8421052631579,303.1770833333333L302.47368421052636,301.4039583333333L302.47368421052636,301.4039583333333L314.10526315789474,299.6308333333333L314.10526315789474,299.6308333333333L325.7368421052631,297.85770833333333L325.7368421052631,297.85770833333333L337.36842105263156,296.08458333333334L337.36842105263156,296.08458333333334L349,294.31145833333335L349,294.31145833333335L360.63157894736844,292.53833333333336L360.63157894736844,292.53833333333336L372.2631578947369,290.76520833333336L372.2631578947369,290.76520833333336L383.89473684210526,288.9920833333333L383.89473684210526,288.9920833333333L395.5263157894737,286.7189583333333L395.5263157894737,286.7189583333333L407.1578947368421,284.4458333333333L407.1578947368421,284.4458333333333L418.7894736842105,282.17270833333333L418.7894736842105,282.17270833333333L430.42105263157896,279.89958333333334L430.42105263157896,279.89958333333334L442.0526315789474,277.62645833333335L442.0526315789474,277.62645833333335L453.6842105263158,275.35333333333335L453.6842105263158,275.35333333333335L465.3157894736842,273.0802083333333L465.3157894736842,273.0802083333333L476.94736842105266,270.8070833333333L476.94736842105266,270.8070833333333L488.57894736842104,268.5339583333333L488.57894736842104,268.5339583333333L500.2105263157895,266.2608333333333L500.2105263157895,266.2608333333333L511.8421052631579,263.98770833333333L511.8421052631579,263.98770833333333L523.4736842105262,261.71458333333334L523.4736842105262,261.71458333333334L535.1052631578948,259.44145833333334L535.1052631578948,259.44145833333334L546.7368421052631,257.1683333333333L546.7368421052631,257.1683333333333L558.3684210526316,254.89520833333333L558.3684210526316,254.89520833333333L570,252.6220833333333L570,252.6220833333333Z" stroke="none" stroke-width="0" fill-opacity="0.3" fill="#ff9900"></path><path d="M570,328L128,328L128,325.9166666666667L128,325.9166666666667L139.6315789473684,325.9166666666667L139.6315789473684,325.9166666666667L151.26315789473685,325.9166666666667L151.26315789473685,325.9166666666667L162.89473684210526,325.7963541666667L162.89473684210526,325.7963541666667L174.5263157894737,325.55572916666665L174.5263157894737,325.55572916666665L186.1578947368421,325.1947916666667L186.1578947368421,325.1947916666667L197.78947368421052,324.7135416666667L197.78947368421052,324.7135416666667L209.42105263157896,324.1119791666667L209.42105263157896,324.1119791666667L221.05263157894737,323.26979166666666L221.05263157894737,323.26979166666666L232.68421052631578,322.1869791666667L232.68421052631578,322.1869791666667L244.31578947368422,320.74322916666665L244.31578947368422,320.74322916666665L255.94736842105263,318.93854166666665L255.94736842105263,318.93854166666665L267.57894736842104,316.7729166666667L267.57894736842104,316.7729166666667L279.2105263157895,314.12604166666665L279.2105263157895,314.12604166666665L290.8421052631579,310.99791666666664L290.8421052631579,310.99791666666664L302.47368421052636,307.38854166666664L302.47368421052636,307.38854166666664L314.10526315789474,303.29791666666665L314.10526315789474,303.29791666666665L325.7368421052631,298.7260416666667L325.7368421052631,298.7260416666667L337.36842105263156,293.67291666666665L337.36842105263156,293.67291666666665L349,288.13854166666664L349,288.13854166666664L360.63157894736844,282.12291666666664L360.63157894736844,282.12291666666664L372.2631578947369,275.62604166666665L372.2631578947369,275.62604166666665L383.89473684210526,268.6479166666667L383.89473684210526,268.6479166666667L395.5263157894737,261.18854166666665L395.5263157894737,261.18854166666665L407.1578947368421,253.24791666666667L407.1578947368421,253.24791666666667L418.7894736842105,244.82604166666664L418.7894736842105,244.82604166666664L430.42105263157896,235.92291666666665L430.42105263157896,235.92291666666665L442.0526315789474,226.53854166666667L442.0526315789474,226.53854166666667L453.6842105263158,216.67291666666665L453.6842105263158,216.67291666666665L465.3157894736842,206.32604166666664L465.3157894736842,206.32604166666664L476.94736842105266,195.49791666666667L476.94736842105266,195.49791666666667L488.57894736842104,184.18854166666665L488.57894736842104,184.18854166666665L500.2105263157895,172.39791666666665L500.2105263157895,172.39791666666665L511.8421052631579,160.12604166666665L511.8421052631579,160.12604166666665L523.4736842105262,147.37291666666667L523.4736842105262,147.37291666666667L535.1052631578948,134.18666666666667L535.1052631578948,134.18666666666667L546.7368421052631,120.56729166666665L546.7368421052631,120.56729166666665L558.3684210526316,106.51479166666664L558.3684210526316,106.51479166666664L570,92.02916666666664L570,92.02916666666664Z" stroke="none" stroke-width="0" fill-opacity="0.3" fill="#38761d"></path><path d="M570,328L128,328L128,325.9166666666667L128,325.9166666666667L139.6315789473684,325.9166666666667L139.6315789473684,325.9166666666667L151.26315789473685,325.9166666666667L151.26315789473685,325.9166666666667L162.89473684210526,325.9166666666667L162.89473684210526,325.9166666666667L174.5263157894737,325.9166666666667L174.5263157894737,325.9166666666667L186.1578947368421,325.86854166666666L186.1578947368421,325.86854166666666L197.78947368421052,325.77229166666666L197.78947368421052,325.77229166666666L209.42105263157896,325.6279166666667L209.42105263157896,325.6279166666667L221.05263157894737,325.43541666666664L221.05263157894737,325.43541666666664L232.68421052631578,325.1947916666667L232.68421052631578,325.1947916666667L244.31578947368422,324.85791666666665L244.31578947368422,324.85791666666665L255.94736842105263,324.4247916666667L255.94736842105263,324.4247916666667L267.57894736842104,323.84729166666665L267.57894736842104,323.84729166666665L279.2105263157895,323.12541666666664L279.2105263157895,323.12541666666664L290.8421052631579,322.25916666666666L290.8421052631579,322.25916666666666L302.47368421052636,321.24854166666665L302.47368421052636,321.24854166666665L314.10526315789474,320.0935416666667L314.10526315789474,320.0935416666667L325.7368421052631,318.7941666666667L325.7368421052631,318.7941666666667L337.36842105263156,317.35041666666666L337.36842105263156,317.35041666666666L349,315.71416666666664L349,315.71416666666664L360.63157894736844,313.8854166666667L360.63157894736844,313.8854166666667L372.2631578947369,311.8641666666667L372.2631578947369,311.8641666666667L383.89473684210526,309.60229166666664L383.89473684210526,309.60229166666664L395.5263157894737,307.09979166666665L395.5263157894737,307.09979166666665L407.1578947368421,304.28447916666664L407.1578947368421,304.28447916666664L418.7894736842105,301.1563541666667L418.7894736842105,301.1563541666667L430.42105263157896,297.71541666666667L430.42105263157896,297.71541666666667L442.0526315789474,293.96166666666664L442.0526315789474,293.96166666666664L453.6842105263158,289.89510416666667L453.6842105263158,289.89510416666667L465.3157894736842,285.5157291666667L465.3157894736842,285.5157291666667L476.94736842105266,280.82354166666664L476.94736842105266,280.82354166666664L488.57894736842104,275.81854166666665L488.57894736842104,275.81854166666665L500.2105263157895,270.50072916666664L500.2105263157895,270.50072916666664L511.8421052631579,264.8701041666667L511.8421052631579,264.8701041666667L523.4736842105262,258.9266666666667L523.4736842105262,258.9266666666667L535.1052631578948,252.67041666666665L535.1052631578948,252.67041666666665L546.7368421052631,246.10135416666668L546.7368421052631,246.10135416666668L558.3684210526316,239.21947916666664L558.3684210526316,239.21947916666664L570,232.02479166666666L570,232.02479166666666Z" stroke="none" stroke-width="0" fill-opacity="0.3" fill="#741b47"></path></g><g></g><g><path d="M128,328L139.6315789473684,326.37625L151.26315789473685,324.7316666666667L162.89473684210526,322.96208333333334L174.5263157894737,321.1925L186.1578947368421,319.42291666666665L197.78947368421052,317.6533333333333L209.42105263157896,315.88375L221.05263157894737,314.1141666666667L232.68421052631578,312.26125L244.31578947368422,310.4083333333333L255.94736842105263,308.55541666666664L267.57894736842104,306.72333333333336L279.2105263157895,304.9502083333333L290.8421052631579,303.1770833333333L302.47368421052636,301.4039583333333L314.10526315789474,299.6308333333333L325.7368421052631,297.85770833333333L337.36842105263156,296.08458333333334L349,294.31145833333335L360.63157894736844,292.53833333333336L372.2631578947369,290.76520833333336L383.89473684210526,288.9920833333333L395.5263157894737,286.7189583333333L407.1578947368421,284.4458333333333L418.7894736842105,282.17270833333333L430.42105263157896,279.89958333333334L442.0526315789474,277.62645833333335L453.6842105263158,275.35333333333335L465.3157894736842,273.0802083333333L476.94736842105266,270.8070833333333L488.57894736842104,268.5339583333333L500.2105263157895,266.2608333333333L511.8421052631579,263.98770833333333L523.4736842105262,261.71458333333334L535.1052631578948,259.44145833333334L546.7368421052631,257.1683333333333L558.3684210526316,254.89520833333333L570,252.6220833333333" stroke="#ff9900" stroke-width="2" fill-opacity="1" fill="none"></path><path d="M128,325.9166666666667L139.6315789473684,325.9166666666667L151.26315789473685,325.9166666666667L162.89473684210526,325.7963541666667L174.5263157894737,325.55572916666665L186.1578947368421,325.1947916666667L197.78947368421052,324.7135416666667L209.42105263157896,324.1119791666667L221.05263157894737,323.26979166666666L232.68421052631578,322.1869791666667L244.31578947368422,320.74322916666665L255.94736842105263,318.93854166666665L267.57894736842104,316.7729166666667L279.2105263157895,314.12604166666665L290.8421052631579,310.99791666666664L302.47368421052636,307.38854166666664L314.10526315789474,303.29791666666665L325.7368421052631,298.7260416666667L337.36842105263156,293.67291666666665L349,288.13854166666664L360.63157894736844,282.12291666666664L372.2631578947369,275.62604166666665L383.89473684210526,268.6479166666667L395.5263157894737,261.18854166666665L407.1578947368421,253.24791666666667L418.7894736842105,244.82604166666664L430.42105263157896,235.92291666666665L442.0526315789474,226.53854166666667L453.6842105263158,216.67291666666665L465.3157894736842,206.32604166666664L476.94736842105266,195.49791666666667L488.57894736842104,184.18854166666665L500.2105263157895,172.39791666666665L511.8421052631579,160.12604166666665L523.4736842105262,147.37291666666667L535.1052631578948,134.18666666666667L546.7368421052631,120.56729166666665L558.3684210526316,106.51479166666664L570,92.02916666666664" stroke="#38761d" stroke-width="2" fill-opacity="1" fill="none"></path><path d="M128,325.9166666666667L139.6315789473684,325.9166666666667L151.26315789473685,325.9166666666667L162.89473684210526,325.9166666666667L174.5263157894737,325.9166666666667L186.1578947368421,325.86854166666666L197.78947368421052,325.77229166666666L209.42105263157896,325.6279166666667L221.05263157894737,325.43541666666664L232.68421052631578,325.1947916666667L244.31578947368422,324.85791666666665L255.94736842105263,324.4247916666667L267.57894736842104,323.84729166666665L279.2105263157895,323.12541666666664L290.8421052631579,322.25916666666666L302.47368421052636,321.24854166666665L314.10526315789474,320.0935416666667L325.7368421052631,318.7941666666667L337.36842105263156,317.35041666666666L349,315.71416666666664L360.63157894736844,313.8854166666667L372.2631578947369,311.8641666666667L383.89473684210526,309.60229166666664L395.5263157894737,307.09979166666665L407.1578947368421,304.28447916666664L418.7894736842105,301.1563541666667L430.42105263157896,297.71541666666667L442.0526315789474,293.96166666666664L453.6842105263158,289.89510416666667L465.3157894736842,285.5157291666667L476.94736842105266,280.82354166666664L488.57894736842104,275.81854166666665L500.2105263157895,270.50072916666664L511.8421052631579,264.8701041666667L523.4736842105262,258.9266666666667L535.1052631578948,252.67041666666665L546.7368421052631,246.10135416666668L558.3684210526316,239.21947916666664L570,232.02479166666666" stroke="#741b47" stroke-width="2" fill-opacity="1" fill="none"></path></g><g><circle cx="128.5" cy="328.5" r="12" stroke="none" stroke-width="0" fill-opacity="0" fill="#ffffff"></circle><circle cx="140.1315789473684" cy="326.87625" r="12" stroke="none" stroke-width="0" fill-opacity="0" fill="#ffffff"></circle><circle cx="151.76315789473685" cy="325.2316666666667" r="12" stroke="none" stroke-width="0" fill-opacity="0" fill="#ffffff"></circle><circle cx="163.39473684210526" cy="323.46208333333334" r="12" stroke="none" stroke-width="0" fill-opacity="0" fill="#ffffff"></circle><circle cx="175.0263157894737" cy="321.6925" r="12" stroke="none" stroke-width="0" fill-opacity="0" fill="#ffffff"></circle><circle cx="186.6578947368421" cy="319.92291666666665" r="12" stroke="none" stroke-width="0" fill-opacity="0" fill="#ffffff"></circle><circle cx="198.28947368421052" cy="318.1533333333333" r="12" stroke="none" stroke-width="0" fill-opacity="0" fill="#ffffff"></circle><circle cx="209.92105263157896" cy="316.38375" r="12" stroke="none" stroke-width="0" fill-opacity="0" fill="#ffffff"></circle><circle cx="221.55263157894737" cy="314.6141666666667" r="12" stroke="none" stroke-width="0" fill-opacity="0" fill="#ffffff"></circle><circle cx="233.18421052631578" cy="312.76125" r="12" stroke="none" stroke-width="0" fill-opacity="0" fill="#ffffff"></circle><circle cx="244.81578947368422" cy="310.9083333333333" r="12" stroke="none" stroke-width="0" fill-opacity="0" fill="#ffffff"></circle><circle cx="256.4473684210526" cy="309.05541666666664" r="12" stroke="none" stroke-width="0" fill-opacity="0" fill="#ffffff"></circle><circle cx="268.07894736842104" cy="307.22333333333336" r="12" stroke="none" stroke-width="0" fill-opacity="0" fill="#ffffff"></circle><circle cx="279.7105263157895" cy="305.4502083333333" r="12" stroke="none" stroke-width="0" fill-opacity="0" fill="#ffffff"></circle><circle cx="291.3421052631579" cy="303.6770833333333" r="12" stroke="none" stroke-width="0" fill-opacity="0" fill="#ffffff"></circle><circle cx="302.97368421052636" cy="301.9039583333333" r="12" stroke="none" stroke-width="0" fill-opacity="0" fill="#ffffff"></circle><circle cx="314.60526315789474" cy="300.1308333333333" r="12" stroke="none" stroke-width="0" fill-opacity="0" fill="#ffffff"></circle><circle cx="326.2368421052631" cy="298.35770833333333" r="12" stroke="none" stroke-width="0" fill-opacity="0" fill="#ffffff"></circle><circle cx="337.86842105263156" cy="296.58458333333334" r="12" stroke="none" stroke-width="0" fill-opacity="0" fill="#ffffff"></circle><circle cx="349.5" cy="294.81145833333335" r="12" stroke="none" stroke-width="0" fill-opacity="0" fill="#ffffff"></circle><circle cx="361.13157894736844" cy="293.03833333333336" r="12" stroke="none" stroke-width="0" fill-opacity="0" fill="#ffffff"></circle><circle cx="372.7631578947369" cy="291.26520833333336" r="12" stroke="none" stroke-width="0" fill-opacity="0" fill="#ffffff"></circle><circle cx="384.39473684210526" cy="289.4920833333333" r="12" stroke="none" stroke-width="0" fill-opacity="0" fill="#ffffff"></circle><circle cx="396.0263157894737" cy="287.2189583333333" r="12" stroke="none" stroke-width="0" fill-opacity="0" fill="#ffffff"></circle><circle cx="407.6578947368421" cy="284.9458333333333" r="12" stroke="none" stroke-width="0" fill-opacity="0" fill="#ffffff"></circle><circle cx="419.2894736842105" cy="282.67270833333333" r="12" stroke="none" stroke-width="0" fill-opacity="0" fill="#ffffff"></circle><circle cx="430.92105263157896" cy="280.39958333333334" r="12" stroke="none" stroke-width="0" fill-opacity="0" fill="#ffffff"></circle><circle cx="442.5526315789474" cy="278.12645833333335" r="12" stroke="none" stroke-width="0" fill-opacity="0" fill="#ffffff"></circle><circle cx="454.1842105263158" cy="275.85333333333335" r="12" stroke="none" stroke-width="0" fill-opacity="0" fill="#ffffff"></circle><circle cx="465.8157894736842" cy="273.5802083333333" r="12" stroke="none" stroke-width="0" fill-opacity="0" fill="#ffffff"></circle><circle cx="477.44736842105266" cy="271.3070833333333" r="12" stroke="none" stroke-width="0" fill-opacity="0" fill="#ffffff"></circle><circle cx="489.07894736842104" cy="269.0339583333333" r="12" stroke="none" stroke-width="0" fill-opacity="0" fill="#ffffff"></circle><circle cx="500.7105263157895" cy="266.7608333333333" r="12" stroke="none" stroke-width="0" fill-opacity="0" fill="#ffffff"></circle><circle cx="512.3421052631579" cy="264.48770833333333" r="12" stroke="none" stroke-width="0" fill-opacity="0" fill="#ffffff"></circle><circle cx="523.9736842105262" cy="262.21458333333334" r="12" stroke="none" stroke-width="0" fill-opacity="0" fill="#ffffff"></circle><circle cx="535.6052631578948" cy="259.94145833333334" r="12" stroke="none" stroke-width="0" fill-opacity="0" fill="#ffffff"></circle><circle cx="547.2368421052631" cy="257.6683333333333" r="12" stroke="none" stroke-width="0" fill-opacity="0" fill="#ffffff"></circle><circle cx="558.8684210526316" cy="255.39520833333333" r="12" stroke="none" stroke-width="0" fill-opacity="0" fill="#ffffff"></circle><circle cx="570.5" cy="253.1220833333333" r="12" stroke="none" stroke-width="0" fill-opacity="0" fill="#ffffff"></circle><circle cx="128.5" cy="326.4166666666667" r="12" stroke="none" stroke-width="0" fill-opacity="0" fill="#ffffff"></circle><circle cx="140.1315789473684" cy="326.4166666666667" r="12" stroke="none" stroke-width="0" fill-opacity="0" fill="#ffffff"></circle><circle cx="151.76315789473685" cy="326.4166666666667" r="12" stroke="none" stroke-width="0" fill-opacity="0" fill="#ffffff"></circle><circle cx="163.39473684210526" cy="326.2963541666667" r="12" stroke="none" stroke-width="0" fill-opacity="0" fill="#ffffff"></circle><circle cx="175.0263157894737" cy="326.05572916666665" r="12" stroke="none" stroke-width="0" fill-opacity="0" fill="#ffffff"></circle><circle cx="186.6578947368421" cy="325.6947916666667" r="12" stroke="none" stroke-width="0" fill-opacity="0" fill="#ffffff"></circle><circle cx="198.28947368421052" cy="325.2135416666667" r="12" stroke="none" stroke-width="0" fill-opacity="0" fill="#ffffff"></circle><circle cx="209.92105263157896" cy="324.6119791666667" r="12" stroke="none" stroke-width="0" fill-opacity="0" fill="#ffffff"></circle><circle cx="221.55263157894737" cy="323.76979166666666" r="12" stroke="none" stroke-width="0" fill-opacity="0" fill="#ffffff"></circle><circle cx="233.18421052631578" cy="322.6869791666667" r="12" stroke="none" stroke-width="0" fill-opacity="0" fill="#ffffff"></circle><circle cx="244.81578947368422" cy="321.24322916666665" r="12" stroke="none" stroke-width="0" fill-opacity="0" fill="#ffffff"></circle><circle cx="256.4473684210526" cy="319.43854166666665" r="12" stroke="none" stroke-width="0" fill-opacity="0" fill="#ffffff"></circle><circle cx="268.07894736842104" cy="317.2729166666667" r="12" stroke="none" stroke-width="0" fill-opacity="0" fill="#ffffff"></circle><circle cx="279.7105263157895" cy="314.62604166666665" r="12" stroke="none" stroke-width="0" fill-opacity="0" fill="#ffffff"></circle><circle cx="291.3421052631579" cy="311.49791666666664" r="12" stroke="none" stroke-width="0" fill-opacity="0" fill="#ffffff"></circle><circle cx="302.97368421052636" cy="307.88854166666664" r="12" stroke="none" stroke-width="0" fill-opacity="0" fill="#ffffff"></circle><circle cx="314.60526315789474" cy="303.79791666666665" r="12" stroke="none" stroke-width="0" fill-opacity="0" fill="#ffffff"></circle><circle cx="326.2368421052631" cy="299.2260416666667" r="12" stroke="none" stroke-width="0" fill-opacity="0" fill="#ffffff"></circle><circle cx="337.86842105263156" cy="294.17291666666665" r="12" stroke="none" stroke-width="0" fill-opacity="0" fill="#ffffff"></circle><circle cx="349.5" cy="288.63854166666664" r="12" stroke="none" stroke-width="0" fill-opacity="0" fill="#ffffff"></circle><circle cx="361.13157894736844" cy="282.62291666666664" r="12" stroke="none" stroke-width="0" fill-opacity="0" fill="#ffffff"></circle><circle cx="372.7631578947369" cy="276.12604166666665" r="12" stroke="none" stroke-width="0" fill-opacity="0" fill="#ffffff"></circle><circle cx="384.39473684210526" cy="269.1479166666667" r="12" stroke="none" stroke-width="0" fill-opacity="0" fill="#ffffff"></circle><circle cx="396.0263157894737" cy="261.68854166666665" r="12" stroke="none" stroke-width="0" fill-opacity="0" fill="#ffffff"></circle><circle cx="407.6578947368421" cy="253.74791666666667" r="12" stroke="none" stroke-width="0" fill-opacity="0" fill="#ffffff"></circle><circle cx="419.2894736842105" cy="245.32604166666664" r="12" stroke="none" stroke-width="0" fill-opacity="0" fill="#ffffff"></circle><circle cx="430.92105263157896" cy="236.42291666666665" r="12" stroke="none" stroke-width="0" fill-opacity="0" fill="#ffffff"></circle><circle cx="442.5526315789474" cy="227.03854166666667" r="12" stroke="none" stroke-width="0" fill-opacity="0" fill="#ffffff"></circle><circle cx="454.1842105263158" cy="217.17291666666665" r="12" stroke="none" stroke-width="0" fill-opacity="0" fill="#ffffff"></circle><circle cx="465.8157894736842" cy="206.82604166666664" r="12" stroke="none" stroke-width="0" fill-opacity="0" fill="#ffffff"></circle><circle cx="477.44736842105266" cy="195.99791666666667" r="12" stroke="none" stroke-width="0" fill-opacity="0" fill="#ffffff"></circle><circle cx="489.07894736842104" cy="184.68854166666665" r="12" stroke="none" stroke-width="0" fill-opacity="0" fill="#ffffff"></circle><circle cx="500.7105263157895" cy="172.89791666666665" r="12" stroke="none" stroke-width="0" fill-opacity="0" fill="#ffffff"></circle><circle cx="512.3421052631579" cy="160.62604166666665" r="12" stroke="none" stroke-width="0" fill-opacity="0" fill="#ffffff"></circle><circle cx="523.9736842105262" cy="147.87291666666667" r="12" stroke="none" stroke-width="0" fill-opacity="0" fill="#ffffff"></circle><circle cx="535.6052631578948" cy="134.68666666666667" r="12" stroke="none" stroke-width="0" fill-opacity="0" fill="#ffffff"></circle><circle cx="547.2368421052631" cy="121.06729166666665" r="12" stroke="none" stroke-width="0" fill-opacity="0" fill="#ffffff"></circle><circle cx="558.8684210526316" cy="107.01479166666664" r="12" stroke="none" stroke-width="0" fill-opacity="0" fill="#ffffff"></circle><circle cx="570.5" cy="92.52916666666664" r="12" stroke="none" stroke-width="0" fill-opacity="0" fill="#ffffff"></circle><circle cx="128.5" cy="326.4166666666667" r="12" stroke="none" stroke-width="0" fill-opacity="0" fill="#ffffff"></circle><circle cx="140.1315789473684" cy="326.4166666666667" r="12" stroke="none" stroke-width="0" fill-opacity="0" fill="#ffffff"></circle><circle cx="151.76315789473685" cy="326.4166666666667" r="12" stroke="none" stroke-width="0" fill-opacity="0" fill="#ffffff"></circle><circle cx="163.39473684210526" cy="326.4166666666667" r="12" stroke="none" stroke-width="0" fill-opacity="0" fill="#ffffff"></circle><circle cx="175.0263157894737" cy="326.4166666666667" r="12" stroke="none" stroke-width="0" fill-opacity="0" fill="#ffffff"></circle><circle cx="186.6578947368421" cy="326.36854166666666" r="12" stroke="none" stroke-width="0" fill-opacity="0" fill="#ffffff"></circle><circle cx="198.28947368421052" cy="326.27229166666666" r="12" stroke="none" stroke-width="0" fill-opacity="0" fill="#ffffff"></circle><circle cx="209.92105263157896" cy="326.1279166666667" r="12" stroke="none" stroke-width="0" fill-opacity="0" fill="#ffffff"></circle><circle cx="221.55263157894737" cy="325.93541666666664" r="12" stroke="none" stroke-width="0" fill-opacity="0" fill="#ffffff"></circle><circle cx="233.18421052631578" cy="325.6947916666667" r="12" stroke="none" stroke-width="0" fill-opacity="0" fill="#ffffff"></circle><circle cx="244.81578947368422" cy="325.35791666666665" r="12" stroke="none" stroke-width="0" fill-opacity="0" fill="#ffffff"></circle><circle cx="256.4473684210526" cy="324.9247916666667" r="12" stroke="none" stroke-width="0" fill-opacity="0" fill="#ffffff"></circle><circle cx="268.07894736842104" cy="324.34729166666665" r="12" stroke="none" stroke-width="0" fill-opacity="0" fill="#ffffff"></circle><circle cx="279.7105263157895" cy="323.62541666666664" r="12" stroke="none" stroke-width="0" fill-opacity="0" fill="#ffffff"></circle><circle cx="291.3421052631579" cy="322.75916666666666" r="12" stroke="none" stroke-width="0" fill-opacity="0" fill="#ffffff"></circle><circle cx="302.97368421052636" cy="321.74854166666665" r="12" stroke="none" stroke-width="0" fill-opacity="0" fill="#ffffff"></circle><circle cx="314.60526315789474" cy="320.5935416666667" r="12" stroke="none" stroke-width="0" fill-opacity="0" fill="#ffffff"></circle><circle cx="326.2368421052631" cy="319.2941666666667" r="12" stroke="none" stroke-width="0" fill-opacity="0" fill="#ffffff"></circle><circle cx="337.86842105263156" cy="317.85041666666666" r="12" stroke="none" stroke-width="0" fill-opacity="0" fill="#ffffff"></circle><circle cx="349.5" cy="316.21416666666664" r="12" stroke="none" stroke-width="0" fill-opacity="0" fill="#ffffff"></circle><circle cx="361.13157894736844" cy="314.3854166666667" r="12" stroke="none" stroke-width="0" fill-opacity="0" fill="#ffffff"></circle><circle cx="372.7631578947369" cy="312.3641666666667" r="12" stroke="none" stroke-width="0" fill-opacity="0" fill="#ffffff"></circle><circle cx="384.39473684210526" cy="310.10229166666664" r="12" stroke="none" stroke-width="0" fill-opacity="0" fill="#ffffff"></circle><circle cx="396.0263157894737" cy="307.59979166666665" r="12" stroke="none" stroke-width="0" fill-opacity="0" fill="#ffffff"></circle><circle cx="407.6578947368421" cy="304.78447916666664" r="12" stroke="none" stroke-width="0" fill-opacity="0" fill="#ffffff"></circle><circle cx="419.2894736842105" cy="301.6563541666667" r="12" stroke="none" stroke-width="0" fill-opacity="0" fill="#ffffff"></circle><circle cx="430.92105263157896" cy="298.21541666666667" r="12" stroke="none" stroke-width="0" fill-opacity="0" fill="#ffffff"></circle><circle cx="442.5526315789474" cy="294.46166666666664" r="12" stroke="none" stroke-width="0" fill-opacity="0" fill="#ffffff"></circle><circle cx="454.1842105263158" cy="290.39510416666667" r="12" stroke="none" stroke-width="0" fill-opacity="0" fill="#ffffff"></circle><circle cx="465.8157894736842" cy="286.0157291666667" r="12" stroke="none" stroke-width="0" fill-opacity="0" fill="#ffffff"></circle><circle cx="477.44736842105266" cy="281.32354166666664" r="12" stroke="none" stroke-width="0" fill-opacity="0" fill="#ffffff"></circle><circle cx="489.07894736842104" cy="276.31854166666665" r="12" stroke="none" stroke-width="0" fill-opacity="0" fill="#ffffff"></circle><circle cx="500.7105263157895" cy="271.00072916666664" r="12" stroke="none" stroke-width="0" fill-opacity="0" fill="#ffffff"></circle><circle cx="512.3421052631579" cy="265.3701041666667" r="12" stroke="none" stroke-width="0" fill-opacity="0" fill="#ffffff"></circle><circle cx="523.9736842105262" cy="259.4266666666667" r="12" stroke="none" stroke-width="0" fill-opacity="0" fill="#ffffff"></circle><circle cx="535.6052631578948" cy="253.17041666666665" r="12" stroke="none" stroke-width="0" fill-opacity="0" fill="#ffffff"></circle><circle cx="547.2368421052631" cy="246.60135416666668" r="12" stroke="none" stroke-width="0" fill-opacity="0" fill="#ffffff"></circle><circle cx="558.8684210526316" cy="239.71947916666664" r="12" stroke="none" stroke-width="0" fill-opacity="0" fill="#ffffff"></circle><circle cx="570.5" cy="232.52479166666666" r="12" stroke="none" stroke-width="0" fill-opacity="0" fill="#ffffff"></circle></g><g><circle cx="128.5" cy="328.5" r="3.5" stroke="none" stroke-width="0" fill-opacity="0" fill="#ffffff"></circle><circle cx="140.1315789473684" cy="326.87625" r="3.5" stroke="none" stroke-width="0" fill-opacity="0" fill="#ffffff"></circle><circle cx="151.76315789473685" cy="325.2316666666667" r="3.5" stroke="none" stroke-width="0" fill-opacity="0" fill="#ffffff"></circle><circle cx="163.39473684210526" cy="323.46208333333334" r="3.5" stroke="none" stroke-width="0" fill-opacity="0" fill="#ffffff"></circle><circle cx="175.0263157894737" cy="321.6925" r="3.5" stroke="none" stroke-width="0" fill-opacity="0" fill="#ffffff"></circle><circle cx="186.6578947368421" cy="319.92291666666665" r="3.5" stroke="none" stroke-width="0" fill-opacity="0" fill="#ffffff"></circle><circle cx="198.28947368421052" cy="318.1533333333333" r="3.5" stroke="none" stroke-width="0" fill-opacity="0" fill="#ffffff"></circle><circle cx="209.92105263157896" cy="316.38375" r="3.5" stroke="none" stroke-width="0" fill-opacity="0" fill="#ffffff"></circle><circle cx="221.55263157894737" cy="314.6141666666667" r="3.5" stroke="none" stroke-width="0" fill-opacity="0" fill="#ffffff"></circle><circle cx="233.18421052631578" cy="312.76125" r="3.5" stroke="none" stroke-width="0" fill-opacity="0" fill="#ffffff"></circle><circle cx="244.81578947368422" cy="310.9083333333333" r="3.5" stroke="none" stroke-width="0" fill-opacity="0" fill="#ffffff"></circle><circle cx="256.4473684210526" cy="309.05541666666664" r="3.5" stroke="none" stroke-width="0" fill-opacity="0" fill="#ffffff"></circle><circle cx="268.07894736842104" cy="307.22333333333336" r="3.5" stroke="none" stroke-width="0" fill-opacity="0" fill="#ffffff"></circle><circle cx="279.7105263157895" cy="305.4502083333333" r="3.5" stroke="none" stroke-width="0" fill-opacity="0" fill="#ffffff"></circle><circle cx="291.3421052631579" cy="303.6770833333333" r="3.5" stroke="none" stroke-width="0" fill-opacity="0" fill="#ffffff"></circle><circle cx="302.97368421052636" cy="301.9039583333333" r="3.5" stroke="none" stroke-width="0" fill-opacity="0" fill="#ffffff"></circle><circle cx="314.60526315789474" cy="300.1308333333333" r="3.5" stroke="none" stroke-width="0" fill-opacity="0" fill="#ffffff"></circle><circle cx="326.2368421052631" cy="298.35770833333333" r="3.5" stroke="none" stroke-width="0" fill-opacity="0" fill="#ffffff"></circle><circle cx="337.86842105263156" cy="296.58458333333334" r="3.5" stroke="none" stroke-width="0" fill-opacity="0" fill="#ffffff"></circle><circle cx="349.5" cy="294.81145833333335" r="3.5" stroke="none" stroke-width="0" fill-opacity="0" fill="#ffffff"></circle><circle cx="361.13157894736844" cy="293.03833333333336" r="3.5" stroke="none" stroke-width="0" fill-opacity="0" fill="#ffffff"></circle><circle cx="372.7631578947369" cy="291.26520833333336" r="3.5" stroke="none" stroke-width="0" fill-opacity="0" fill="#ffffff"></circle><circle cx="384.39473684210526" cy="289.4920833333333" r="3.5" stroke="none" stroke-width="0" fill-opacity="0" fill="#ffffff"></circle><circle cx="396.0263157894737" cy="287.2189583333333" r="3.5" stroke="none" stroke-width="0" fill-opacity="0" fill="#ffffff"></circle><circle cx="407.6578947368421" cy="284.9458333333333" r="3.5" stroke="none" stroke-width="0" fill-opacity="0" fill="#ffffff"></circle><circle cx="419.2894736842105" cy="282.67270833333333" r="3.5" stroke="none" stroke-width="0" fill-opacity="0" fill="#ffffff"></circle><circle cx="430.92105263157896" cy="280.39958333333334" r="3.5" stroke="none" stroke-width="0" fill-opacity="0" fill="#ffffff"></circle><circle cx="442.5526315789474" cy="278.12645833333335" r="3.5" stroke="none" stroke-width="0" fill-opacity="0" fill="#ffffff"></circle><circle cx="454.1842105263158" cy="275.85333333333335" r="3.5" stroke="none" stroke-width="0" fill-opacity="0" fill="#ffffff"></circle><circle cx="465.8157894736842" cy="273.5802083333333" r="3.5" stroke="none" stroke-width="0" fill-opacity="0" fill="#ffffff"></circle><circle cx="477.44736842105266" cy="271.3070833333333" r="3.5" stroke="none" stroke-width="0" fill-opacity="0" fill="#ffffff"></circle><circle cx="489.07894736842104" cy="269.0339583333333" r="3.5" stroke="none" stroke-width="0" fill-opacity="0" fill="#ffffff"></circle><circle cx="500.7105263157895" cy="266.7608333333333" r="3.5" stroke="none" stroke-width="0" fill-opacity="0" fill="#ffffff"></circle><circle cx="512.3421052631579" cy="264.48770833333333" r="3.5" stroke="none" stroke-width="0" fill-opacity="0" fill="#ffffff"></circle><circle cx="523.9736842105262" cy="262.21458333333334" r="3.5" stroke="none" stroke-width="0" fill-opacity="0" fill="#ffffff"></circle><circle cx="535.6052631578948" cy="259.94145833333334" r="3.5" stroke="none" stroke-width="0" fill-opacity="0" fill="#ffffff"></circle><circle cx="547.2368421052631" cy="257.6683333333333" r="3.5" stroke="none" stroke-width="0" fill-opacity="0" fill="#ffffff"></circle><circle cx="558.8684210526316" cy="255.39520833333333" r="3.5" stroke="none" stroke-width="0" fill-opacity="0" fill="#ffffff"></circle><circle cx="570.5" cy="253.1220833333333" r="3.5" stroke="none" stroke-width="0" fill-opacity="0" fill="#ffffff"></circle><circle cx="128.5" cy="326.4166666666667" r="3.5" stroke="none" stroke-width="0" fill-opacity="0" fill="#ffffff"></circle><circle cx="140.1315789473684" cy="326.4166666666667" r="3.5" stroke="none" stroke-width="0" fill-opacity="0" fill="#ffffff"></circle><circle cx="151.76315789473685" cy="326.4166666666667" r="3.5" stroke="none" stroke-width="0" fill-opacity="0" fill="#ffffff"></circle><circle cx="163.39473684210526" cy="326.2963541666667" r="3.5" stroke="none" stroke-width="0" fill-opacity="0" fill="#ffffff"></circle><circle cx="175.0263157894737" cy="326.05572916666665" r="3.5" stroke="none" stroke-width="0" fill-opacity="0" fill="#ffffff"></circle><circle cx="186.6578947368421" cy="325.6947916666667" r="3.5" stroke="none" stroke-width="0" fill-opacity="0" fill="#ffffff"></circle><circle cx="198.28947368421052" cy="325.2135416666667" r="3.5" stroke="none" stroke-width="0" fill-opacity="0" fill="#ffffff"></circle><circle cx="209.92105263157896" cy="324.6119791666667" r="3.5" stroke="none" stroke-width="0" fill-opacity="0" fill="#ffffff"></circle><circle cx="221.55263157894737" cy="323.76979166666666" r="3.5" stroke="none" stroke-width="0" fill-opacity="0" fill="#ffffff"></circle><circle cx="233.18421052631578" cy="322.6869791666667" r="3.5" stroke="none" stroke-width="0" fill-opacity="0" fill="#ffffff"></circle><circle cx="244.81578947368422" cy="321.24322916666665" r="3.5" stroke="none" stroke-width="0" fill-opacity="0" fill="#ffffff"></circle><circle cx="256.4473684210526" cy="319.43854166666665" r="3.5" stroke="none" stroke-width="0" fill-opacity="0" fill="#ffffff"></circle><circle cx="268.07894736842104" cy="317.2729166666667" r="3.5" stroke="none" stroke-width="0" fill-opacity="0" fill="#ffffff"></circle><circle cx="279.7105263157895" cy="314.62604166666665" r="3.5" stroke="none" stroke-width="0" fill-opacity="0" fill="#ffffff"></circle><circle cx="291.3421052631579" cy="311.49791666666664" r="3.5" stroke="none" stroke-width="0" fill-opacity="0" fill="#ffffff"></circle><circle cx="302.97368421052636" cy="307.88854166666664" r="3.5" stroke="none" stroke-width="0" fill-opacity="0" fill="#ffffff"></circle><circle cx="314.60526315789474" cy="303.79791666666665" r="3.5" stroke="none" stroke-width="0" fill-opacity="0" fill="#ffffff"></circle><circle cx="326.2368421052631" cy="299.2260416666667" r="3.5" stroke="none" stroke-width="0" fill-opacity="0" fill="#ffffff"></circle><circle cx="337.86842105263156" cy="294.17291666666665" r="3.5" stroke="none" stroke-width="0" fill-opacity="0" fill="#ffffff"></circle><circle cx="349.5" cy="288.63854166666664" r="3.5" stroke="none" stroke-width="0" fill-opacity="0" fill="#ffffff"></circle><circle cx="361.13157894736844" cy="282.62291666666664" r="3.5" stroke="none" stroke-width="0" fill-opacity="0" fill="#ffffff"></circle><circle cx="372.7631578947369" cy="276.12604166666665" r="3.5" stroke="none" stroke-width="0" fill-opacity="0" fill="#ffffff"></circle><circle cx="384.39473684210526" cy="269.1479166666667" r="3.5" stroke="none" stroke-width="0" fill-opacity="0" fill="#ffffff"></circle><circle cx="396.0263157894737" cy="261.68854166666665" r="3.5" stroke="none" stroke-width="0" fill-opacity="0" fill="#ffffff"></circle><circle cx="407.6578947368421" cy="253.74791666666667" r="3.5" stroke="none" stroke-width="0" fill-opacity="0" fill="#ffffff"></circle><circle cx="419.2894736842105" cy="245.32604166666664" r="3.5" stroke="none" stroke-width="0" fill-opacity="0" fill="#ffffff"></circle><circle cx="430.92105263157896" cy="236.42291666666665" r="3.5" stroke="none" stroke-width="0" fill-opacity="0" fill="#ffffff"></circle><circle cx="442.5526315789474" cy="227.03854166666667" r="3.5" stroke="none" stroke-width="0" fill-opacity="0" fill="#ffffff"></circle><circle cx="454.1842105263158" cy="217.17291666666665" r="3.5" stroke="none" stroke-width="0" fill-opacity="0" fill="#ffffff"></circle><circle cx="465.8157894736842" cy="206.82604166666664" r="3.5" stroke="none" stroke-width="0" fill-opacity="0" fill="#ffffff"></circle><circle cx="477.44736842105266" cy="195.99791666666667" r="3.5" stroke="none" stroke-width="0" fill-opacity="0" fill="#ffffff"></circle><circle cx="489.07894736842104" cy="184.68854166666665" r="3.5" stroke="none" stroke-width="0" fill-opacity="0" fill="#ffffff"></circle><circle cx="500.7105263157895" cy="172.89791666666665" r="3.5" stroke="none" stroke-width="0" fill-opacity="0" fill="#ffffff"></circle><circle cx="512.3421052631579" cy="160.62604166666665" r="3.5" stroke="none" stroke-width="0" fill-opacity="0" fill="#ffffff"></circle><circle cx="523.9736842105262" cy="147.87291666666667" r="3.5" stroke="none" stroke-width="0" fill-opacity="0" fill="#ffffff"></circle><circle cx="535.6052631578948" cy="134.68666666666667" r="3.5" stroke="none" stroke-width="0" fill-opacity="0" fill="#ffffff"></circle><circle cx="547.2368421052631" cy="121.06729166666665" r="3.5" stroke="none" stroke-width="0" fill-opacity="0" fill="#ffffff"></circle><circle cx="558.8684210526316" cy="107.01479166666664" r="3.5" stroke="none" stroke-width="0" fill-opacity="0" fill="#ffffff"></circle><circle cx="570.5" cy="92.52916666666664" r="3.5" stroke="none" stroke-width="0" fill-opacity="0" fill="#ffffff"></circle><circle cx="128.5" cy="326.4166666666667" r="3.5" stroke="none" stroke-width="0" fill-opacity="0" fill="#ffffff"></circle><circle cx="140.1315789473684" cy="326.4166666666667" r="3.5" stroke="none" stroke-width="0" fill-opacity="0" fill="#ffffff"></circle><circle cx="151.76315789473685" cy="326.4166666666667" r="3.5" stroke="none" stroke-width="0" fill-opacity="0" fill="#ffffff"></circle><circle cx="163.39473684210526" cy="326.4166666666667" r="3.5" stroke="none" stroke-width="0" fill-opacity="0" fill="#ffffff"></circle><circle cx="175.0263157894737" cy="326.4166666666667" r="3.5" stroke="none" stroke-width="0" fill-opacity="0" fill="#ffffff"></circle><circle cx="186.6578947368421" cy="326.36854166666666" r="3.5" stroke="none" stroke-width="0" fill-opacity="0" fill="#ffffff"></circle><circle cx="198.28947368421052" cy="326.27229166666666" r="3.5" stroke="none" stroke-width="0" fill-opacity="0" fill="#ffffff"></circle><circle cx="209.92105263157896" cy="326.1279166666667" r="3.5" stroke="none" stroke-width="0" fill-opacity="0" fill="#ffffff"></circle><circle cx="221.55263157894737" cy="325.93541666666664" r="3.5" stroke="none" stroke-width="0" fill-opacity="0" fill="#ffffff"></circle><circle cx="233.18421052631578" cy="325.6947916666667" r="3.5" stroke="none" stroke-width="0" fill-opacity="0" fill="#ffffff"></circle><circle cx="244.81578947368422" cy="325.35791666666665" r="3.5" stroke="none" stroke-width="0" fill-opacity="0" fill="#ffffff"></circle><circle cx="256.4473684210526" cy="324.9247916666667" r="3.5" stroke="none" stroke-width="0" fill-opacity="0" fill="#ffffff"></circle><circle cx="268.07894736842104" cy="324.34729166666665" r="3.5" stroke="none" stroke-width="0" fill-opacity="0" fill="#ffffff"></circle><circle cx="279.7105263157895" cy="323.62541666666664" r="3.5" stroke="none" stroke-width="0" fill-opacity="0" fill="#ffffff"></circle><circle cx="291.3421052631579" cy="322.75916666666666" r="3.5" stroke="none" stroke-width="0" fill-opacity="0" fill="#ffffff"></circle><circle cx="302.97368421052636" cy="321.74854166666665" r="3.5" stroke="none" stroke-width="0" fill-opacity="0" fill="#ffffff"></circle><circle cx="314.60526315789474" cy="320.5935416666667" r="3.5" stroke="none" stroke-width="0" fill-opacity="0" fill="#ffffff"></circle><circle cx="326.2368421052631" cy="319.2941666666667" r="3.5" stroke="none" stroke-width="0" fill-opacity="0" fill="#ffffff"></circle><circle cx="337.86842105263156" cy="317.85041666666666" r="3.5" stroke="none" stroke-width="0" fill-opacity="0" fill="#ffffff"></circle><circle cx="349.5" cy="316.21416666666664" r="3.5" stroke="none" stroke-width="0" fill-opacity="0" fill="#ffffff"></circle><circle cx="361.13157894736844" cy="314.3854166666667" r="3.5" stroke="none" stroke-width="0" fill-opacity="0" fill="#ffffff"></circle><circle cx="372.7631578947369" cy="312.3641666666667" r="3.5" stroke="none" stroke-width="0" fill-opacity="0" fill="#ffffff"></circle><circle cx="384.39473684210526" cy="310.10229166666664" r="3.5" stroke="none" stroke-width="0" fill-opacity="0" fill="#ffffff"></circle><circle cx="396.0263157894737" cy="307.59979166666665" r="3.5" stroke="none" stroke-width="0" fill-opacity="0" fill="#ffffff"></circle><circle cx="407.6578947368421" cy="304.78447916666664" r="3.5" stroke="none" stroke-width="0" fill-opacity="0" fill="#ffffff"></circle><circle cx="419.2894736842105" cy="301.6563541666667" r="3.5" stroke="none" stroke-width="0" fill-opacity="0" fill="#ffffff"></circle><circle cx="430.92105263157896" cy="298.21541666666667" r="3.5" stroke="none" stroke-width="0" fill-opacity="0" fill="#ffffff"></circle><circle cx="442.5526315789474" cy="294.46166666666664" r="3.5" stroke="none" stroke-width="0" fill-opacity="0" fill="#ffffff"></circle><circle cx="454.1842105263158" cy="290.39510416666667" r="3.5" stroke="none" stroke-width="0" fill-opacity="0" fill="#ffffff"></circle><circle cx="465.8157894736842" cy="286.0157291666667" r="3.5" stroke="none" stroke-width="0" fill-opacity="0" fill="#ffffff"></circle><circle cx="477.44736842105266" cy="281.32354166666664" r="3.5" stroke="none" stroke-width="0" fill-opacity="0" fill="#ffffff"></circle><circle cx="489.07894736842104" cy="276.31854166666665" r="3.5" stroke="none" stroke-width="0" fill-opacity="0" fill="#ffffff"></circle><circle cx="500.7105263157895" cy="271.00072916666664" r="3.5" stroke="none" stroke-width="0" fill-opacity="0" fill="#ffffff"></circle><circle cx="512.3421052631579" cy="265.3701041666667" r="3.5" stroke="none" stroke-width="0" fill-opacity="0" fill="#ffffff"></circle><circle cx="523.9736842105262" cy="259.4266666666667" r="3.5" stroke="none" stroke-width="0" fill-opacity="0" fill="#ffffff"></circle><circle cx="535.6052631578948" cy="253.17041666666665" r="3.5" stroke="none" stroke-width="0" fill-opacity="0" fill="#ffffff"></circle><circle cx="547.2368421052631" cy="246.60135416666668" r="3.5" stroke="none" stroke-width="0" fill-opacity="0" fill="#ffffff"></circle><circle cx="558.8684210526316" cy="239.71947916666664" r="3.5" stroke="none" stroke-width="0" fill-opacity="0" fill="#ffffff"></circle><circle cx="570.5" cy="232.52479166666666" r="3.5" stroke="none" stroke-width="0" fill-opacity="0" fill="#ffffff"></circle></g><g></g></g><g><text x="601" y="89" font-family="Arial" font-size="13" stroke="none" stroke-width="0" fill-opacity="1.0" fill="#222222">Dépenses</text><text x="601" y="106" font-family="Arial" font-size="13" stroke="none" stroke-width="0" fill-opacity="1.0" fill="#222222">cumulées</text></g><rect x="583" y="78" width="13" height="13" stroke="none" stroke-width="0" fill-opacity="1.0" fill="#ff9900"></rect><g><text x="601" y="127" font-family="Arial" font-size="13" stroke="none" stroke-width="0" fill-opacity="1.0" fill="#222222">Recettes</text><text x="601" y="144" font-family="Arial" font-size="13" stroke="none" stroke-width="0" fill-opacity="1.0" fill="#222222">cumulées</text><text x="601" y="161" font-family="Arial" font-size="13" stroke="none" stroke-width="0" fill-opacity="1.0" fill="#222222">(optimiste)</text></g><rect x="583" y="116" width="13" height="13" stroke="none" stroke-width="0" fill-opacity="1.0" fill="#38761d"></rect><g><text x="601" y="182" font-family="Arial" font-size="13" stroke="none" stroke-width="0" fill-opacity="1.0" fill="#222222">Recettes</text><text x="601" y="199" font-family="Arial" font-size="13" stroke="none" stroke-width="0" fill-opacity="1.0" fill="#222222">cumulées</text><text x="601" y="216" font-family="Arial" font-size="13" stroke="none" stroke-width="0" fill-opacity="1.0" fill="#222222">(pessimiste)</text></g><rect x="583" y="171" width="13" height="13" stroke="none" stroke-width="0" fill-opacity="1.0" fill="#741b47"></rect><text text-anchor="end" x="133.25961894323342" y="354" font-family="Arial" font-size="13" transform="rotate(330 118.25961894323342 349.12916512459884)" stroke="none" stroke-width="0" fill-opacity="1.0" fill="#222222">0</text><text text-anchor="end" x="168.15435578533868" y="354" font-family="Arial" font-size="13" transform="rotate(330 153.15435578533868 349.12916512459884)" stroke="none" stroke-width="0" fill-opacity="1.0" fill="#222222">3</text><text text-anchor="end" x="203.04909262744394" y="354" font-family="Arial" font-size="13" transform="rotate(330 188.04909262744394 349.12916512459884)" stroke="none" stroke-width="0" fill-opacity="1.0" fill="#222222">6</text><text text-anchor="end" x="237.9438294695492" y="354" font-family="Arial" font-size="13" transform="rotate(330 222.9438294695492 349.12916512459884)" stroke="none" stroke-width="0" fill-opacity="1.0" fill="#222222">9</text><text text-anchor="end" x="272.83856631165446" y="354" font-family="Arial" font-size="13" transform="rotate(330 257.83856631165446 349.12916512459884)" stroke="none" stroke-width="0" fill-opacity="1.0" fill="#222222">12</text><text text-anchor="end" x="307.7333031537598" y="354" font-family="Arial" font-size="13" transform="rotate(330 292.7333031537598 349.12916512459884)" stroke="none" stroke-width="0" fill-opacity="1.0" fill="#222222">15</text><text text-anchor="end" x="342.628039995865" y="354" font-family="Arial" font-size="13" transform="rotate(330 327.628039995865 349.12916512459884)" stroke="none" stroke-width="0" fill-opacity="1.0" fill="#222222">18</text><text text-anchor="end" x="377.5227768379703" y="354" font-family="Arial" font-size="13" transform="rotate(330 362.5227768379703 349.12916512459884)" stroke="none" stroke-width="0" fill-opacity="1.0" fill="#222222">21</text><text text-anchor="end" x="412.4175136800755" y="354" font-family="Arial" font-size="13" transform="rotate(330 397.4175136800755 349.12916512459884)" stroke="none" stroke-width="0" fill-opacity="1.0" fill="#222222">24</text><text text-anchor="end" x="447.3122505221808" y="354" font-family="Arial" font-size="13" transform="rotate(330 432.3122505221808 349.12916512459884)" stroke="none" stroke-width="0" fill-opacity="1.0" fill="#222222">27</text><text text-anchor="end" x="482.2069873642861" y="354" font-family="Arial" font-size="13" transform="rotate(330 467.2069873642861 349.12916512459884)" stroke="none" stroke-width="0" fill-opacity="1.0" fill="#222222">30</text><text text-anchor="end" x="517.1017242063913" y="354" font-family="Arial" font-size="13" transform="rotate(330 502.10172420639134 349.12916512459884)" stroke="none" stroke-width="0" fill-opacity="1.0" fill="#222222">33</text><text text-anchor="end" x="551.9964610484965" y="354" font-family="Arial" font-size="13" transform="rotate(330.0000000000001 536.9964610484965 349.12916512459884)" stroke="none" stroke-width="0" fill-opacity="1.0" fill="#222222">36</text><g><text text-anchor="end" x="115" y="333" font-family="Arial" font-size="13" stroke="none" stroke-width="0" fill-opacity="1.0" fill="#444444">0</text></g><g><text text-anchor="end" x="115" y="270" font-family="Arial" font-size="13" stroke="none" stroke-width="0" fill-opacity="1.0" fill="#444444">300,000</text></g><g><text text-anchor="end" x="115" y="208" font-family="Arial" font-size="13" stroke="none" stroke-width="0" fill-opacity="1.0" fill="#444444">600,000</text></g><g><text text-anchor="end" x="115" y="145" font-family="Arial" font-size="13" stroke="none" stroke-width="0" fill-opacity="1.0" fill="#444444">900,000</text></g><g><text text-anchor="end" x="115" y="82" font-family="Arial" font-size="13" stroke="none" stroke-width="0" fill-opacity="1.0" fill="#444444">1,200,000</text></g></g><g></g></svg>