<svg id="chart" width="600" height="371"><defs id="defs"></defs><g><rect x="0.5" y="0.5" width="599" height="370" stroke="none" stroke-width="0" fill-opacity="1.0" fill="#ffffff"></rect><g><text x="115" y="50" font-family="Arial" font-size="12" font-weight="bold" stroke="none" stroke-width="0" fill-opacity="1.0" fill="#000000">Évolution du résultat d’exploitation</text></g><g><text text-anchor="middle" x="301" y="342" font-family="Arial" font-size="12" font-style="italic" stroke="none" stroke-width="0" fill-opacity="1.0" fill="#222222">Mois</text></g><g><text text-anchor="middle" x="130" y="304" font-family="Arial" font-size="12" font-style="italic" transform="rotate(270 15 300)" stroke="none" stroke-width="0" fill-opacity="1.0" fill="#222222">€</text></g><rect x="115" y="300" width="371" height="1" stroke="none" stroke-width="0" fill-opacity="1.0" fill="#cccccc"></rect><rect x="115" y="242" width="371" height="1" stroke="none" stroke-width="0" fill-opacity="1.0" fill="#cccccc"></rect><rect x="115" y="185" width="371" height="1" stroke="none" stroke-width="0" fill-opacity="1.0" fill="#cccccc"></rect><rect x="115" y="128" width="371" height="1" stroke="none" stroke-width="0" fill-opacity="1.0" fill="#cccccc"></rect><rect x="115" y="71" width="371" height="1" stroke="none" stroke-width="0" fill-opacity="1.0" fill="#cccccc"></rect><rect x="115" y="242" width="371" height="1" stroke="none" stroke-width="0" fill-opacity="1.0" fill="#333333"></rect><g><rect x="115" y="71" width="371" height="229" stroke="none" stroke-width="0" fill-opacity="1" fill="none"></rect><g></g><g></g><g><path d="M119.75641025641026,240.84166666666667L129.26923076923077,242.32902166666668L138.78205128205127,243.83546L148.2948717948718,245.34619208333334L157.80769230769232,246.74671791666668L167.32051282051282,248.0370375L176.83333333333334,249.21715083333333L186.34615384615384,250.28705791666667L195.85897435897436,251.1365525L205.37179487179486,251.84196791666668L214.8846153846154,252.21676458333334L224.3974358974359,252.2609425L233.9102564102564,251.95541833333334L243.42307692307693,251.15506333333335L252.93589743589743,249.91388333333333L262.44871794871796,248.23187833333333L271.96153846153845,246.10904833333333L281.474358974359,243.54539333333332L290.98717948717945,240.54091333333332L300.5,237.09560833333333L310.01282051282055,233.20947833333332L319.525641025641,228.88252333333332L329.03846153846155,224.11474333333334L338.55128205128204,219.36413833333333L348.06410256410254,214.17270833333333L357.5769230769231,208.54045333333335L367.0897435897436,202.46737333333334L376.6025641025641,195.95346833333332L386.11538461538464,188.99873833333334L395.62820512820514,181.60318333333333L405.14102564102564,173.76680333333334L414.65384615384613,165.48959833333333L424.1666666666667,156.77156833333333L433.6794871794872,147.61271333333335L443.1923076923077,138.01303333333334L452.7051282051282,128.01661083333335L462.21794871794873,117.62344583333334L471.7307692307692,106.83353833333334L481.2435897435897,95.64688833333335" stroke="#38761d" stroke-width="2" fill-opacity="1" fill="none"></path><path d="M119.75641025641026,240.84166666666667L129.26923076923077,242.32902166666668L138.78205128205127,243.83546L148.2948717948718,245.45639833333334L157.80769230769232,247.07733666666667L167.32051282051282,248.6541925L176.83333333333334,250.18696583333332L186.34615384615384,251.67565666666667L195.85897435897436,253.12026500000002L205.37179487179486,254.59712416666667L214.8846153846154,255.98581833333333L224.3974358974359,257.2863475L233.9102564102564,258.4355458333333L243.42307692307693,259.3984908333333L252.93589743589743,260.22918833333335L262.44871794871796,260.92763833333333L271.96153846153845,261.49384083333337L281.474358974359,261.92779583333333L290.98717948717945,262.22950333333335L300.5,262.3548808333333L310.01282051282055,262.3039283333333L319.525641025641,262.0766458333333L329.03846153846155,261.6289508333333L338.55128205128204,261.4188433333333L348.06410256410254,260.92219958333334L357.5769230769231,260.1390195833333L367.0897435897436,259.0693033333333L376.6025641025641,257.71305083333334L386.11538461538464,256.0702620833333L395.62820512820514,254.14093708333334L405.14102564102564,251.92507583333332L414.65384615384613,249.42267833333335L424.1666666666667,246.63374458333334L433.6794871794872,243.55827458333334L443.1923076923077,240.19626833333334L452.7051282051282,236.54772583333335L462.21794871794873,232.61264708333334L471.7307692307692,228.39103208333333L481.2435897435897,223.88288083333333" stroke="#741b47" stroke-width="2" fill-opacity="1" fill="none"></path></g><g><circle cx="120.25641025641026" cy="241.34166666666667" r="12" stroke="none" stroke-width="0" fill-opacity="0" fill="#ffffff"></circle><circle cx="129.76923076923077" cy="242.82902166666668" r="12" stroke="none" stroke-width="0" fill-opacity="0" fill="#ffffff"></circle><circle cx="139.28205128205127" cy="244.33546" r="12" stroke="none" stroke-width="0" fill-opacity="0" fill="#ffffff"></circle><circle cx="148.7948717948718" cy="245.84619208333334" r="12" stroke="none" stroke-width="0" fill-opacity="0" fill="#ffffff"></circle><circle cx="158.30769230769232" cy="247.24671791666668" r="12" stroke="none" stroke-width="0" fill-opacity="0" fill="#ffffff"></circle><circle cx="167.82051282051282" cy="248.5370375" r="12" stroke="none" stroke-width="0" fill-opacity="0" fill="#ffffff"></circle><circle cx="177.33333333333334" cy="249.71715083333333" r="12" stroke="none" stroke-width="0" fill-opacity="0" fill="#ffffff"></circle><circle cx="186.84615384615384" cy="250.78705791666667" r="12" stroke="none" stroke-width="0" fill-opacity="0" fill="#ffffff"></circle><circle cx="196.35897435897436" cy="251.6365525" r="12" stroke="none" stroke-width="0" fill-opacity="0" fill="#ffffff"></circle><circle cx="205.87179487179486" cy="252.34196791666668" r="12" stroke="none" stroke-width="0" fill-opacity="0" fill="#ffffff"></circle><circle cx="215.3846153846154" cy="252.71676458333334" r="12" stroke="none" stroke-width="0" fill-opacity="0" fill="#ffffff"></circle><circle cx="224.8974358974359" cy="252.7609425" r="12" stroke="none" stroke-width="0" fill-opacity="0" fill="#ffffff"></circle><circle cx="234.4102564102564" cy="252.45541833333334" r="12" stroke="none" stroke-width="0" fill-opacity="0" fill="#ffffff"></circle><circle cx="243.92307692307693" cy="251.65506333333335" r="12" stroke="none" stroke-width="0" fill-opacity="0" fill="#ffffff"></circle><circle cx="253.43589743589743" cy="250.41388333333333" r="12" stroke="none" stroke-width="0" fill-opacity="0" fill="#ffffff"></circle><circle cx="262.94871794871796" cy="248.73187833333333" r="12" stroke="none" stroke-width="0" fill-opacity="0" fill="#ffffff"></circle><circle cx="272.46153846153845" cy="246.60904833333333" r="12" stroke="none" stroke-width="0" fill-opacity="0" fill="#ffffff"></circle><circle cx="281.974358974359" cy="244.04539333333332" r="12" stroke="none" stroke-width="0" fill-opacity="0" fill="#ffffff"></circle><circle cx="291.48717948717945" cy="241.04091333333332" r="12" stroke="none" stroke-width="0" fill-opacity="0" fill="#ffffff"></circle><circle cx="301" cy="237.59560833333333" r="12" stroke="none" stroke-width="0" fill-opacity="0" fill="#ffffff"></circle><circle cx="310.51282051282055" cy="233.70947833333332" r="12" stroke="none" stroke-width="0" fill-opacity="0" fill="#ffffff"></circle><circle cx="320.025641025641" cy="229.38252333333332" r="12" stroke="none" stroke-width="0" fill-opacity="0" fill="#ffffff"></circle><circle cx="329.53846153846155" cy="224.61474333333334" r="12" stroke="none" stroke-width="0" fill-opacity="0" fill="#ffffff"></circle><circle cx="339.05128205128204" cy="219.86413833333333" r="12" stroke="none" stroke-width="0" fill-opacity="0" fill="#ffffff"></circle><circle cx="348.56410256410254" cy="214.67270833333333" r="12" stroke="none" stroke-width="0" fill-opacity="0" fill="#ffffff"></circle><circle cx="358.0769230769231" cy="209.04045333333335" r="12" stroke="none" stroke-width="0" fill-opacity="0" fill="#ffffff"></circle><circle cx="367.5897435897436" cy="202.96737333333334" r="12" stroke="none" stroke-width="0" fill-opacity="0" fill="#ffffff"></circle><circle cx="377.1025641025641" cy="196.45346833333332" r="12" stroke="none" stroke-width="0" fill-opacity="0" fill="#ffffff"></circle><circle cx="386.61538461538464" cy="189.49873833333334" r="12" stroke="none" stroke-width="0" fill-opacity="0" fill="#ffffff"></circle><circle cx="396.12820512820514" cy="182.10318333333333" r="12" stroke="none" stroke-width="0" fill-opacity="0" fill="#ffffff"></circle><circle cx="405.64102564102564" cy="174.26680333333334" r="12" stroke="none" stroke-width="0" fill-opacity="0" fill="#ffffff"></circle><circle cx="415.15384615384613" cy="165.98959833333333" r="12" stroke="none" stroke-width="0" fill-opacity="0" fill="#ffffff"></circle><circle cx="424.6666666666667" cy="157.27156833333333" r="12" stroke="none" stroke-width="0" fill-opacity="0" fill="#ffffff"></circle><circle cx="434.1794871794872" cy="148.11271333333335" r="12" stroke="none" stroke-width="0" fill-opacity="0" fill="#ffffff"></circle><circle cx="443.6923076923077" cy="138.51303333333334" r="12" stroke="none" stroke-width="0" fill-opacity="0" fill="#ffffff"></circle><circle cx="453.2051282051282" cy="128.51661083333335" r="12" stroke="none" stroke-width="0" fill-opacity="0" fill="#ffffff"></circle><circle cx="462.71794871794873" cy="118.12344583333334" r="12" stroke="none" stroke-width="0" fill-opacity="0" fill="#ffffff"></circle><circle cx="472.2307692307692" cy="107.33353833333334" r="12" stroke="none" stroke-width="0" fill-opacity="0" fill="#ffffff"></circle><circle cx="481.7435897435897" cy="96.14688833333335" r="12" stroke="none" stroke-width="0" fill-opacity="0" fill="#ffffff"></circle><circle cx="120.25641025641026" cy="241.34166666666667" r="12" stroke="none" stroke-width="0" fill-opacity="0" fill="#ffffff"></circle><circle cx="129.76923076923077" cy="242.82902166666668" r="12" stroke="none" stroke-width="0" fill-opacity="0" fill="#ffffff"></circle><circle cx="139.28205128205127" cy="244.33546" r="12" stroke="none" stroke-width="0" fill-opacity="0" fill="#ffffff"></circle><circle cx="148.7948717948718" cy="245.95639833333334" r="12" stroke="none" stroke-width="0" fill-opacity="0" fill="#ffffff"></circle><circle cx="158.30769230769232" cy="247.57733666666667" r="12" stroke="none" stroke-width="0" fill-opacity="0" fill="#ffffff"></circle><circle cx="167.82051282051282" cy="249.1541925" r="12" stroke="none" stroke-width="0" fill-opacity="0" fill="#ffffff"></circle><circle cx="177.33333333333334" cy="250.68696583333332" r="12" stroke="none" stroke-width="0" fill-opacity="0" fill="#ffffff"></circle><circle cx="186.84615384615384" cy="252.17565666666667" r="12" stroke="none" stroke-width="0" fill-opacity="0" fill="#ffffff"></circle><circle cx="196.35897435897436" cy="253.62026500000002" r="12" stroke="none" stroke-width="0" fill-opacity="0" fill="#ffffff"></circle><circle cx="205.87179487179486" cy="255.09712416666667" r="12" stroke="none" stroke-width="0" fill-opacity="0" fill="#ffffff"></circle><circle cx="215.3846153846154" cy="256.4858183333333" r="12" stroke="none" stroke-width="0" fill-opacity="0" fill="#ffffff"></circle><circle cx="224.8974358974359" cy="257.7863475" r="12" stroke="none" stroke-width="0" fill-opacity="0" fill="#ffffff"></circle><circle cx="234.4102564102564" cy="258.9355458333333" r="12" stroke="none" stroke-width="0" fill-opacity="0" fill="#ffffff"></circle><circle cx="243.92307692307693" cy="259.8984908333333" r="12" stroke="none" stroke-width="0" fill-opacity="0" fill="#ffffff"></circle><circle cx="253.43589743589743" cy="260.72918833333335" r="12" stroke="none" stroke-width="0" fill-opacity="0" fill="#ffffff"></circle><circle cx="262.94871794871796" cy="261.42763833333333" r="12" stroke="none" stroke-width="0" fill-opacity="0" fill="#ffffff"></circle><circle cx="272.46153846153845" cy="261.99384083333337" r="12" stroke="none" stroke-width="0" fill-opacity="0" fill="#ffffff"></circle><circle cx="281.974358974359" cy="262.42779583333333" r="12" stroke="none" stroke-width="0" fill-opacity="0" fill="#ffffff"></circle><circle cx="291.48717948717945" cy="262.72950333333335" r="12" stroke="none" stroke-width="0" fill-opacity="0" fill="#ffffff"></circle><circle cx="301" cy="262.8548808333333" r="12" stroke="none" stroke-width="0" fill-opacity="0" fill="#ffffff"></circle><circle cx="310.51282051282055" cy="262.8039283333333" r="12" stroke="none" stroke-width="0" fill-opacity="0" fill="#ffffff"></circle><circle cx="320.025641025641" cy="262.5766458333333" r="12" stroke="none" stroke-width="0" fill-opacity="0" fill="#ffffff"></circle><circle cx="329.53846153846155" cy="262.1289508333333" r="12" stroke="none" stroke-width="0" fill-opacity="0" fill="#ffffff"></circle><circle cx="339.05128205128204" cy="261.9188433333333" r="12" stroke="none" stroke-width="0" fill-opacity="0" fill="#ffffff"></circle><circle cx="348.56410256410254" cy="261.42219958333334" r="12" stroke="none" stroke-width="0" fill-opacity="0" fill="#ffffff"></circle><circle cx="358.0769230769231" cy="260.6390195833333" r="12" stroke="none" stroke-width="0" fill-opacity="0" fill="#ffffff"></circle><circle cx="367.5897435897436" cy="259.5693033333333" r="12" stroke="none" stroke-width="0" fill-opacity="0" fill="#ffffff"></circle><circle cx="377.1025641025641" cy="258.21305083333334" r="12" stroke="none" stroke-width="0" fill-opacity="0" fill="#ffffff"></circle><circle cx="386.61538461538464" cy="256.5702620833333" r="12" stroke="none" stroke-width="0" fill-opacity="0" fill="#ffffff"></circle><circle cx="396.12820512820514" cy="254.64093708333334" r="12" stroke="none" stroke-width="0" fill-opacity="0" fill="#ffffff"></circle><circle cx="405.64102564102564" cy="252.42507583333332" r="12" stroke="none" stroke-width="0" fill-opacity="0" fill="#ffffff"></circle><circle cx="415.15384615384613" cy="249.92267833333335" r="12" stroke="none" stroke-width="0" fill-opacity="0" fill="#ffffff"></circle><circle cx="424.6666666666667" cy="247.13374458333334" r="12" stroke="none" stroke-width="0" fill-opacity="0" fill="#ffffff"></circle><circle cx="434.1794871794872" cy="244.05827458333334" r="12" stroke="none" stroke-width="0" fill-opacity="0" fill="#ffffff"></circle><circle cx="443.6923076923077" cy="240.69626833333334" r="12" stroke="none" stroke-width="0" fill-opacity="0" fill="#ffffff"></circle><circle cx="453.2051282051282" cy="237.04772583333335" r="12" stroke="none" stroke-width="0" fill-opacity="0" fill="#ffffff"></circle><circle cx="462.71794871794873" cy="233.11264708333334" r="12" stroke="none" stroke-width="0" fill-opacity="0" fill="#ffffff"></circle><circle cx="472.2307692307692" cy="228.89103208333333" r="12" stroke="none" stroke-width="0" fill-opacity="0" fill="#ffffff"></circle><circle cx="481.7435897435897" cy="224.38288083333333" r="12" stroke="none" stroke-width="0" fill-opacity="0" fill="#ffffff"></circle></g><g><circle cx="120.25641025641026" cy="241.34166666666667" r="3.5" stroke="none" stroke-width="0" fill-opacity="0" fill="#ffffff"></circle><circle cx="129.76923076923077" cy="242.82902166666668" r="3.5" stroke="none" stroke-width="0" fill-opacity="0" fill="#ffffff"></circle><circle cx="139.28205128205127" cy="244.33546" r="3.5" stroke="none" stroke-width="0" fill-opacity="0" fill="#ffffff"></circle><circle cx="148.7948717948718" cy="245.84619208333334" r="3.5" stroke="none" stroke-width="0" fill-opacity="0" fill="#ffffff"></circle><circle cx="158.30769230769232" cy="247.24671791666668" r="3.5" stroke="none" stroke-width="0" fill-opacity="0" fill="#ffffff"></circle><circle cx="167.82051282051282" cy="248.5370375" r="3.5" stroke="none" stroke-width="0" fill-opacity="0" fill="#ffffff"></circle><circle cx="177.33333333333334" cy="249.71715083333333" r="3.5" stroke="none" stroke-width="0" fill-opacity="0" fill="#ffffff"></circle><circle cx="186.84615384615384" cy="250.78705791666667" r="3.5" stroke="none" stroke-width="0" fill-opacity="0" fill="#ffffff"></circle><circle cx="196.35897435897436" cy="251.6365525" r="3.5" stroke="none" stroke-width="0" fill-opacity="0" fill="#ffffff"></circle><circle cx="205.87179487179486" cy="252.34196791666668" r="3.5" stroke="none" stroke-width="0" fill-opacity="0" fill="#ffffff"></circle><circle cx="215.3846153846154" cy="252.71676458333334" r="3.5" stroke="none" stroke-width="0" fill-opacity="0" fill="#ffffff"></circle><circle cx="224.8974358974359" cy="252.7609425" r="3.5" stroke="none" stroke-width="0" fill-opacity="0" fill="#ffffff"></circle><circle cx="234.4102564102564" cy="252.45541833333334" r="3.5" stroke="none" stroke-width="0" fill-opacity="0" fill="#ffffff"></circle><circle cx="243.92307692307693" cy="251.65506333333335" r="3.5" stroke="none" stroke-width="0" fill-opacity="0" fill="#ffffff"></circle><circle cx="253.43589743589743" cy="250.41388333333333" r="3.5" stroke="none" stroke-width="0" fill-opacity="0" fill="#ffffff"></circle><circle cx="262.94871794871796" cy="248.73187833333333" r="3.5" stroke="none" stroke-width="0" fill-opacity="0" fill="#ffffff"></circle><circle cx="272.46153846153845" cy="246.60904833333333" r="3.5" stroke="none" stroke-width="0" fill-opacity="0" fill="#ffffff"></circle><circle cx="281.974358974359" cy="244.04539333333332" r="3.5" stroke="none" stroke-width="0" fill-opacity="0" fill="#ffffff"></circle><circle cx="291.48717948717945" cy="241.04091333333332" r="3.5" stroke="none" stroke-width="0" fill-opacity="0" fill="#ffffff"></circle><circle cx="301" cy="237.59560833333333" r="3.5" stroke="none" stroke-width="0" fill-opacity="0" fill="#ffffff"></circle><circle cx="310.51282051282055" cy="233.70947833333332" r="3.5" stroke="none" stroke-width="0" fill-opacity="0" fill="#ffffff"></circle><circle cx="320.025641025641" cy="229.38252333333332" r="3.5" stroke="none" stroke-width="0" fill-opacity="0" fill="#ffffff"></circle><circle cx="329.53846153846155" cy="224.61474333333334" r="3.5" stroke="none" stroke-width="0" fill-opacity="0" fill="#ffffff"></circle><circle cx="339.05128205128204" cy="219.86413833333333" r="3.5" stroke="none" stroke-width="0" fill-opacity="0" fill="#ffffff"></circle><circle cx="348.56410256410254" cy="214.67270833333333" r="3.5" stroke="none" stroke-width="0" fill-opacity="0" fill="#ffffff"></circle><circle cx="358.0769230769231" cy="209.04045333333335" r="3.5" stroke="none" stroke-width="0" fill-opacity="0" fill="#ffffff"></circle><circle cx="367.5897435897436" cy="202.96737333333334" r="3.5" stroke="none" stroke-width="0" fill-opacity="0" fill="#ffffff"></circle><circle cx="377.1025641025641" cy="196.45346833333332" r="3.5" stroke="none" stroke-width="0" fill-opacity="0" fill="#ffffff"></circle><circle cx="386.61538461538464" cy="189.49873833333334" r="3.5" stroke="none" stroke-width="0" fill-opacity="0" fill="#ffffff"></circle><circle cx="396.12820512820514" cy="182.10318333333333" r="3.5" stroke="none" stroke-width="0" fill-opacity="0" fill="#ffffff"></circle><circle cx="405.64102564102564" cy="174.26680333333334" r="3.5" stroke="none" stroke-width="0" fill-opacity="0" fill="#ffffff"></circle><circle cx="415.15384615384613" cy="165.98959833333333" r="3.5" stroke="none" stroke-width="0" fill-opacity="0" fill="#ffffff"></circle><circle cx="424.6666666666667" cy="157.27156833333333" r="3.5" stroke="none" stroke-width="0" fill-opacity="0" fill="#ffffff"></circle><circle cx="434.1794871794872" cy="148.11271333333335" r="3.5" stroke="none" stroke-width="0" fill-opacity="0" fill="#ffffff"></circle><circle cx="443.6923076923077" cy="138.51303333333334" r="3.5" stroke="none" stroke-width="0" fill-opacity="0" fill="#ffffff"></circle><circle cx="453.2051282051282" cy="128.51661083333335" r="3.5" stroke="none" stroke-width="0" fill-opacity="0" fill="#ffffff"></circle><circle cx="462.71794871794873" cy="118.12344583333334" r="3.5" stroke="none" stroke-width="0" fill-opacity="0" fill="#ffffff"></circle><circle cx="472.2307692307692" cy="107.33353833333334" r="3.5" stroke="none" stroke-width="0" fill-opacity="0" fill="#ffffff"></circle><circle cx="481.7435897435897" cy="96.14688833333335" r="3.5" stroke="none" stroke-width="0" fill-opacity="0" fill="#ffffff"></circle><circle cx="120.25641025641026" cy="241.34166666666667" r="3.5" stroke="none" stroke-width="0" fill-opacity="0" fill="#ffffff"></circle><circle cx="129.76923076923077" cy="242.82902166666668" r="3.5" stroke="none" stroke-width="0" fill-opacity="0" fill="#ffffff"></circle><circle cx="139.28205128205127" cy="244.33546" r="3.5" stroke="none" stroke-width="0" fill-opacity="0" fill="#ffffff"></circle><circle cx="148.7948717948718" cy="245.95639833333334" r="3.5" stroke="none" stroke-width="0" fill-opacity="0" fill="#ffffff"></circle><circle cx="158.30769230769232" cy="247.57733666666667" r="3.5" stroke="none" stroke-width="0" fill-opacity="0" fill="#ffffff"></circle><circle cx="167.82051282051282" cy="249.1541925" r="3.5" stroke="none" stroke-width="0" fill-opacity="0" fill="#ffffff"></circle><circle cx="177.33333333333334" cy="250.68696583333332" r="3.5" stroke="none" stroke-width="0" fill-opacity="0" fill="#ffffff"></circle><circle cx="186.84615384615384" cy="252.17565666666667" r="3.5" stroke="none" stroke-width="0" fill-opacity="0" fill="#ffffff"></circle><circle cx="196.35897435897436" cy="253.62026500000002" r="3.5" stroke="none" stroke-width="0" fill-opacity="0" fill="#ffffff"></circle><circle cx="205.87179487179486" cy="255.09712416666667" r="3.5" stroke="none" stroke-width="0" fill-opacity="0" fill="#ffffff"></circle><circle cx="215.3846153846154" cy="256.4858183333333" r="3.5" stroke="none" stroke-width="0" fill-opacity="0" fill="#ffffff"></circle><circle cx="224.8974358974359" cy="257.7863475" r="3.5" stroke="none" stroke-width="0" fill-opacity="0" fill="#ffffff"></circle><circle cx="234.4102564102564" cy="258.9355458333333" r="3.5" stroke="none" stroke-width="0" fill-opacity="0" fill="#ffffff"></circle><circle cx="243.92307692307693" cy="259.8984908333333" r="3.5" stroke="none" stroke-width="0" fill-opacity="0" fill="#ffffff"></circle><circle cx="253.43589743589743" cy="260.72918833333335" r="3.5" stroke="none" stroke-width="0" fill-opacity="0" fill="#ffffff"></circle><circle cx="262.94871794871796" cy="261.42763833333333" r="3.5" stroke="none" stroke-width="0" fill-opacity="0" fill="#ffffff"></circle><circle cx="272.46153846153845" cy="261.99384083333337" r="3.5" stroke="none" stroke-width="0" fill-opacity="0" fill="#ffffff"></circle><circle cx="281.974358974359" cy="262.42779583333333" r="3.5" stroke="none" stroke-width="0" fill-opacity="0" fill="#ffffff"></circle><circle cx="291.48717948717945" cy="262.72950333333335" r="3.5" stroke="none" stroke-width="0" fill-opacity="0" fill="#ffffff"></circle><circle cx="301" cy="262.8548808333333" r="3.5" stroke="none" stroke-width="0" fill-opacity="0" fill="#ffffff"></circle><circle cx="310.51282051282055" cy="262.8039283333333" r="3.5" stroke="none" stroke-width="0" fill-opacity="0" fill="#ffffff"></circle><circle cx="320.025641025641" cy="262.5766458333333" r="3.5" stroke="none" stroke-width="0" fill-opacity="0" fill="#ffffff"></circle><circle cx="329.53846153846155" cy="262.1289508333333" r="3.5" stroke="none" stroke-width="0" fill-opacity="0" fill="#ffffff"></circle><circle cx="339.05128205128204" cy="261.9188433333333" r="3.5" stroke="none" stroke-width="0" fill-opacity="0" fill="#ffffff"></circle><circle cx="348.56410256410254" cy="261.42219958333334" r="3.5" stroke="none" stroke-width="0" fill-opacity="0" fill="#ffffff"></circle><circle cx="358.0769230769231" cy="260.6390195833333" r="3.5" stroke="none" stroke-width="0" fill-opacity="0" fill="#ffffff"></circle><circle cx="367.5897435897436" cy="259.5693033333333" r="3.5" stroke="none" stroke-width="0" fill-opacity="0" fill="#ffffff"></circle><circle cx="377.1025641025641" cy="258.21305083333334" r="3.5" stroke="none" stroke-width="0" fill-opacity="0" fill="#ffffff"></circle><circle cx="386.61538461538464" cy="256.5702620833333" r="3.5" stroke="none" stroke-width="0" fill-opacity="0" fill="#ffffff"></circle><circle cx="396.12820512820514" cy="254.64093708333334" r="3.5" stroke="none" stroke-width="0" fill-opacity="0" fill="#ffffff"></circle><circle cx="405.64102564102564" cy="252.42507583333332" r="3.5" stroke="none" stroke-width="0" fill-opacity="0" fill="#ffffff"></circle><circle cx="415.15384615384613" cy="249.92267833333335" r="3.5" stroke="none" stroke-width="0" fill-opacity="0" fill="#ffffff"></circle><circle cx="424.6666666666667" cy="247.13374458333334" r="3.5" stroke="none" stroke-width="0" fill-opacity="0" fill="#ffffff"></circle><circle cx="434.1794871794872" cy="244.05827458333334" r="3.5" stroke="none" stroke-width="0" fill-opacity="0" fill="#ffffff"></circle><circle cx="443.6923076923077" cy="240.69626833333334" r="3.5" stroke="none" stroke-width="0" fill-opacity="0" fill="#ffffff"></circle><circle cx="453.2051282051282" cy="237.04772583333335" r="3.5" stroke="none" stroke-width="0" fill-opacity="0" fill="#ffffff"></circle><circle cx="462.71794871794873" cy="233.11264708333334" r="3.5" stroke="none" stroke-width="0" fill-opacity="0" fill="#ffffff"></circle><circle cx="472.2307692307692" cy="228.89103208333333" r="3.5" stroke="none" stroke-width="0" fill-opacity="0" fill="#ffffff"></circle><circle cx="481.7435897435897" cy="224.38288083333333" r="3.5" stroke="none" stroke-width="0" fill-opacity="0" fill="#ffffff"></circle></g><g></g></g><g><text x="157" y="362" font-family="Arial" font-size="12" stroke="none" stroke-width="0" fill-opacity="1.0" fill="#222222">Résultat net (optimiste)</text></g><rect x="140" y="352" width="12" height="12" stroke="none" stroke-width="0" fill-opacity="1.0" fill="#38761d"></rect><g><text x="321" y="362" font-family="Arial" font-size="12" stroke="none" stroke-width="0" fill-opacity="1.0" fill="#222222">Résultat net (pessimiste)</text></g><rect x="304" y="352" width="12" height="12" stroke="none" stroke-width="0" fill-opacity="1.0" fill="#741b47"></rect><text text-anchor="end" x="124.76602919964368" y="324" font-family="Arial" font-size="12" transform="rotate(330 109.76602919964368 319.69615242270663)" stroke="none" stroke-width="0" fill-opacity="1.0" fill="#222222">0</text><text text-anchor="end" x="153.30449073810522" y="324" font-family="Arial" font-size="12" transform="rotate(330 138.30449073810522 319.69615242270663)" stroke="none" stroke-width="0" fill-opacity="1.0" fill="#222222">3</text><text text-anchor="end" x="181.84295227656676" y="324" font-family="Arial" font-size="12" transform="rotate(330 166.84295227656676 319.69615242270663)" stroke="none" stroke-width="0" fill-opacity="1.0" fill="#222222">6</text><text text-anchor="end" x="210.38141381502828" y="324" font-family="Arial" font-size="12" transform="rotate(330 195.38141381502828 319.69615242270663)" stroke="none" stroke-width="0" fill-opacity="1.0" fill="#222222">9</text><text text-anchor="end" x="238.91987535348983" y="324" font-family="Arial" font-size="12" transform="rotate(330 223.91987535348983 319.69615242270663)" stroke="none" stroke-width="0" fill-opacity="1.0" fill="#222222">12</text><text text-anchor="end" x="267.4583368919514" y="324" font-family="Arial" font-size="12" transform="rotate(330 252.45833689195138 319.69615242270663)" stroke="none" stroke-width="0" fill-opacity="1.0" fill="#222222">15</text><text text-anchor="end" x="295.99679843041287" y="324" font-family="Arial" font-size="12" transform="rotate(330 280.99679843041287 319.69615242270663)" stroke="none" stroke-width="0" fill-opacity="1.0" fill="#222222">18</text><text text-anchor="end" x="324.5352599688744" y="324" font-family="Arial" font-size="12" transform="rotate(330 309.5352599688744 319.69615242270663)" stroke="none" stroke-width="0" fill-opacity="1.0" fill="#222222">21</text><text text-anchor="end" x="353.07372150733596" y="324" font-family="Arial" font-size="12" transform="rotate(330 338.07372150733596 319.69615242270663)" stroke="none" stroke-width="0" fill-opacity="1.0" fill="#222222">24</text><text text-anchor="end" x="381.6121830457975" y="324" font-family="Arial" font-size="12" transform="rotate(330 366.6121830457975 319.69615242270663)" stroke="none" stroke-width="0" fill-opacity="1.0" fill="#222222">27</text><text text-anchor="end" x="410.15064458425906" y="324" font-family="Arial" font-size="12" transform="rotate(330 395.15064458425906 319.69615242270663)" stroke="none" stroke-width="0" fill-opacity="1.0" fill="#222222">30</text><text text-anchor="end" x="438.6891061227206" y="324" font-family="Arial" font-size="12" transform="rotate(330 423.6891061227206 319.69615242270663)" stroke="none" stroke-width="0" fill-opacity="1.0" fill="#222222">33</text><text text-anchor="end" x="467.22756766118215" y="324" font-family="Arial" font-size="12" transform="rotate(330 452.22756766118215 319.69615242270663)" stroke="none" stroke-width="0" fill-opacity="1.0" fill="#222222">36</text><g><text text-anchor="end" x="106" y="304" font-family="Arial" font-size="12" stroke="none" stroke-width="0" fill-opacity="1.0" fill="#444444">€ -300,000.00</text></g><g><text text-anchor="end" x="106" y="247" font-family="Arial" font-size="12" stroke="none" stroke-width="0" fill-opacity="1.0" fill="#444444">€ 0.00</text></g><g><text text-anchor="end" x="106" y="190" font-family="Arial" font-size="12" stroke="none" stroke-width="0" fill-opacity="1.0" fill="#444444">€ 300,000.00</text></g><g><text text-anchor="end" x="106" y="132" font-family="Arial" font-size="12" stroke="none" stroke-width="0" fill-opacity="1.0" fill="#444444">€ 600,000.00</text></g><g><text text-anchor="end" x="106" y="75" font-family="Arial" font-size="12" stroke="none" stroke-width="0" fill-opacity="1.0" fill="#444444">€ 900,000.00</text></g></g><g></g></svg>