<svg id="chart" width="600" height="371"><defs id="defs"></defs><g><rect x="0.5" y="0.5" width="599" height="370" stroke="none" stroke-width="0" fill-opacity="1.0" fill="#ffffff"></rect><g><text x="115" y="50" font-family="Arial" font-size="12" font-weight="bold" stroke="none" stroke-width="0" fill-opacity="1.0" fill="#000000">Évolution du résultat</text></g><rect x="115" y="71" width="371" height="229" stroke="none" stroke-width="0" fill-opacity="1" fill="none"></rect><g><text text-anchor="middle" x="301" y="342" font-family="Arial" font-size="12" font-style="italic" stroke="none" stroke-width="0" fill-opacity="1.0" fill="#222222">Mois</text></g><g><text text-anchor="middle" x="142" y="304" font-family="Arial" font-size="12" font-style="italic" transform="rotate(270 27 300)" stroke="none" stroke-width="0" fill-opacity="1.0" fill="#222222">€</text></g><rect x="115" y="300" width="371" height="1" stroke="none" stroke-width="0" fill-opacity="1.0" fill="#cccccc"></rect><rect x="115" y="242" width="371" height="1" stroke="none" stroke-width="0" fill-opacity="1.0" fill="#cccccc"></rect><rect x="115" y="185" width="371" height="1" stroke="none" stroke-width="0" fill-opacity="1.0" fill="#cccccc"></rect><rect x="115" y="128" width="371" height="1" stroke="none" stroke-width="0" fill-opacity="1.0" fill="#cccccc"></rect><rect x="115" y="71" width="371" height="1" stroke="none" stroke-width="0" fill-opacity="1.0" fill="#cccccc"></rect><rect x="115" y="242" width="371" height="1" stroke="none" stroke-width="0" fill-opacity="1.0" fill="#333333"></rect><g></g><g></g><g><path d="M119.75641025641026,240.84166666666667L129.26923076923077,242.46584916666666L138.78205128205127,244.09003166666668L148.2948717948718,245.59872709770116L157.80769230769232,246.9919354597701L167.32051282051282,248.26965675287357L176.83333333333334,249.4318909770115L186.34615384615384,250.4786381321839L195.85897435897436,251.4098982183908L205.37179487179486,252.22567123563218L214.8846153846154,252.92595718390805L224.3974358974359,253.3952689942529L233.9102564102564,253.63360666666665L243.42307692307693,253.64097020114943L252.93589743589743,253.41735959770114L262.44871794871796,252.7318007183908L271.96153846153845,251.5842935632184L281.474358974359,249.97483813218392L290.98717948717945,247.90343442528737L300.5,245.37008244252874L310.01282051282055,242.37478218390805L319.525641025641,238.91753364942528L329.03846153846155,234.99833683908048L338.55128205128204,231.07519175287356L348.06410256410254,226.69009839080462L357.5769230769231,221.84305675287357L367.0897435897436,216.53406683908048L376.6025641025641,210.7631286494253L386.11538461538464,204.53024218390806L395.62820512820514,197.83540744252872L405.14102564102564,190.67862442528735L414.65384615384613,183.05989313218393L424.1666666666667,174.9792135632184L433.6794871794872,166.4365857183908L443.1923076923077,157.43200959770115L452.7051282051282,147.96548520114942L462.21794871794873,138.0370125287356L471.7307692307692,127.64659158045976L481.2435897435897,116.79422235632182" stroke="#38761d" stroke-width="2" fill-opacity="1" fill="none"></path><path d="M119.75641025641026,240.84166666666667L129.26923076923077,242.46584916666666L138.78205128205127,244.09003166666668L148.2948717948718,245.71421416666666L157.80769230769232,247.33839666666665L167.32051282051282,248.91638433908048L176.83333333333334,250.44817718390806L186.34615384615384,251.93377520114942L195.85897435897436,253.3731783908046L205.37179487179486,254.76638675287356L214.8846153846154,256.09030287356325L224.3974358974359,257.34492675287356L233.9102564102564,258.5071609770115L243.42307692307693,259.577005545977L252.93589743589743,260.5082656321839L262.44871794871796,261.3240386494253L271.96153846153845,262.02432459770114L281.474358974359,262.6091234770115L290.98717948717945,263.07843528735634L300.5,263.3167729597701L310.01282051282055,263.32413649425285L319.525641025641,263.1005258908046L329.03846153846155,262.6459411494253L338.55128205128204,262.41838227011493L348.06410256410254,261.84436218390806L357.5769230769231,260.9238808908046L367.0897435897436,259.6569383908046L376.6025641025641,258.04353468390804L386.11538461538464,256.19915683908044L395.62820512820514,254.12380485632184L405.14102564102564,251.81747873563216L414.65384615384613,249.28017847701148L424.1666666666667,246.51190408045977L433.6794871794872,243.512655545977L443.1923076923077,240.2824328735632L452.7051282051282,236.82123606321838L462.21794871794873,233.1290651149425L471.7307692307692,229.20592002873562L481.2435897435897,225.0518008045977" stroke="#741b47" stroke-width="2" fill-opacity="1" fill="none"></path></g><g><circle cx="120.25641025641026" cy="241.34166666666667" r="12" stroke="none" stroke-width="0" fill-opacity="0" fill="#ffffff"></circle><circle cx="129.76923076923077" cy="242.96584916666666" r="12" stroke="none" stroke-width="0" fill-opacity="0" fill="#ffffff"></circle><circle cx="139.28205128205127" cy="244.59003166666668" r="12" stroke="none" stroke-width="0" fill-opacity="0" fill="#ffffff"></circle><circle cx="148.7948717948718" cy="246.09872709770116" r="12" stroke="none" stroke-width="0" fill-opacity="0" fill="#ffffff"></circle><circle cx="158.30769230769232" cy="247.4919354597701" r="12" stroke="none" stroke-width="0" fill-opacity="0" fill="#ffffff"></circle><circle cx="167.82051282051282" cy="248.76965675287357" r="12" stroke="none" stroke-width="0" fill-opacity="0" fill="#ffffff"></circle><circle cx="177.33333333333334" cy="249.9318909770115" r="12" stroke="none" stroke-width="0" fill-opacity="0" fill="#ffffff"></circle><circle cx="186.84615384615384" cy="250.9786381321839" r="12" stroke="none" stroke-width="0" fill-opacity="0" fill="#ffffff"></circle><circle cx="196.35897435897436" cy="251.9098982183908" r="12" stroke="none" stroke-width="0" fill-opacity="0" fill="#ffffff"></circle><circle cx="205.87179487179486" cy="252.72567123563218" r="12" stroke="none" stroke-width="0" fill-opacity="0" fill="#ffffff"></circle><circle cx="215.3846153846154" cy="253.42595718390805" r="12" stroke="none" stroke-width="0" fill-opacity="0" fill="#ffffff"></circle><circle cx="224.8974358974359" cy="253.8952689942529" r="12" stroke="none" stroke-width="0" fill-opacity="0" fill="#ffffff"></circle><circle cx="234.4102564102564" cy="254.13360666666665" r="12" stroke="none" stroke-width="0" fill-opacity="0" fill="#ffffff"></circle><circle cx="243.92307692307693" cy="254.14097020114943" r="12" stroke="none" stroke-width="0" fill-opacity="0" fill="#ffffff"></circle><circle cx="253.43589743589743" cy="253.91735959770114" r="12" stroke="none" stroke-width="0" fill-opacity="0" fill="#ffffff"></circle><circle cx="262.94871794871796" cy="253.2318007183908" r="12" stroke="none" stroke-width="0" fill-opacity="0" fill="#ffffff"></circle><circle cx="272.46153846153845" cy="252.0842935632184" r="12" stroke="none" stroke-width="0" fill-opacity="0" fill="#ffffff"></circle><circle cx="281.974358974359" cy="250.47483813218392" r="12" stroke="none" stroke-width="0" fill-opacity="0" fill="#ffffff"></circle><circle cx="291.48717948717945" cy="248.40343442528737" r="12" stroke="none" stroke-width="0" fill-opacity="0" fill="#ffffff"></circle><circle cx="301" cy="245.87008244252874" r="12" stroke="none" stroke-width="0" fill-opacity="0" fill="#ffffff"></circle><circle cx="310.51282051282055" cy="242.87478218390805" r="12" stroke="none" stroke-width="0" fill-opacity="0" fill="#ffffff"></circle><circle cx="320.025641025641" cy="239.41753364942528" r="12" stroke="none" stroke-width="0" fill-opacity="0" fill="#ffffff"></circle><circle cx="329.53846153846155" cy="235.49833683908048" r="12" stroke="none" stroke-width="0" fill-opacity="0" fill="#ffffff"></circle><circle cx="339.05128205128204" cy="231.57519175287356" r="12" stroke="none" stroke-width="0" fill-opacity="0" fill="#ffffff"></circle><circle cx="348.56410256410254" cy="227.19009839080462" r="12" stroke="none" stroke-width="0" fill-opacity="0" fill="#ffffff"></circle><circle cx="358.0769230769231" cy="222.34305675287357" r="12" stroke="none" stroke-width="0" fill-opacity="0" fill="#ffffff"></circle><circle cx="367.5897435897436" cy="217.03406683908048" r="12" stroke="none" stroke-width="0" fill-opacity="0" fill="#ffffff"></circle><circle cx="377.1025641025641" cy="211.2631286494253" r="12" stroke="none" stroke-width="0" fill-opacity="0" fill="#ffffff"></circle><circle cx="386.61538461538464" cy="205.03024218390806" r="12" stroke="none" stroke-width="0" fill-opacity="0" fill="#ffffff"></circle><circle cx="396.12820512820514" cy="198.33540744252872" r="12" stroke="none" stroke-width="0" fill-opacity="0" fill="#ffffff"></circle><circle cx="405.64102564102564" cy="191.17862442528735" r="12" stroke="none" stroke-width="0" fill-opacity="0" fill="#ffffff"></circle><circle cx="415.15384615384613" cy="183.55989313218393" r="12" stroke="none" stroke-width="0" fill-opacity="0" fill="#ffffff"></circle><circle cx="424.6666666666667" cy="175.4792135632184" r="12" stroke="none" stroke-width="0" fill-opacity="0" fill="#ffffff"></circle><circle cx="434.1794871794872" cy="166.9365857183908" r="12" stroke="none" stroke-width="0" fill-opacity="0" fill="#ffffff"></circle><circle cx="443.6923076923077" cy="157.93200959770115" r="12" stroke="none" stroke-width="0" fill-opacity="0" fill="#ffffff"></circle><circle cx="453.2051282051282" cy="148.46548520114942" r="12" stroke="none" stroke-width="0" fill-opacity="0" fill="#ffffff"></circle><circle cx="462.71794871794873" cy="138.5370125287356" r="12" stroke="none" stroke-width="0" fill-opacity="0" fill="#ffffff"></circle><circle cx="472.2307692307692" cy="128.14659158045976" r="12" stroke="none" stroke-width="0" fill-opacity="0" fill="#ffffff"></circle><circle cx="481.7435897435897" cy="117.29422235632182" r="12" stroke="none" stroke-width="0" fill-opacity="0" fill="#ffffff"></circle><circle cx="120.25641025641026" cy="241.34166666666667" r="12" stroke="none" stroke-width="0" fill-opacity="0" fill="#ffffff"></circle><circle cx="129.76923076923077" cy="242.96584916666666" r="12" stroke="none" stroke-width="0" fill-opacity="0" fill="#ffffff"></circle><circle cx="139.28205128205127" cy="244.59003166666668" r="12" stroke="none" stroke-width="0" fill-opacity="0" fill="#ffffff"></circle><circle cx="148.7948717948718" cy="246.21421416666666" r="12" stroke="none" stroke-width="0" fill-opacity="0" fill="#ffffff"></circle><circle cx="158.30769230769232" cy="247.83839666666665" r="12" stroke="none" stroke-width="0" fill-opacity="0" fill="#ffffff"></circle><circle cx="167.82051282051282" cy="249.41638433908048" r="12" stroke="none" stroke-width="0" fill-opacity="0" fill="#ffffff"></circle><circle cx="177.33333333333334" cy="250.94817718390806" r="12" stroke="none" stroke-width="0" fill-opacity="0" fill="#ffffff"></circle><circle cx="186.84615384615384" cy="252.43377520114942" r="12" stroke="none" stroke-width="0" fill-opacity="0" fill="#ffffff"></circle><circle cx="196.35897435897436" cy="253.8731783908046" r="12" stroke="none" stroke-width="0" fill-opacity="0" fill="#ffffff"></circle><circle cx="205.87179487179486" cy="255.26638675287356" r="12" stroke="none" stroke-width="0" fill-opacity="0" fill="#ffffff"></circle><circle cx="215.3846153846154" cy="256.59030287356325" r="12" stroke="none" stroke-width="0" fill-opacity="0" fill="#ffffff"></circle><circle cx="224.8974358974359" cy="257.84492675287356" r="12" stroke="none" stroke-width="0" fill-opacity="0" fill="#ffffff"></circle><circle cx="234.4102564102564" cy="259.0071609770115" r="12" stroke="none" stroke-width="0" fill-opacity="0" fill="#ffffff"></circle><circle cx="243.92307692307693" cy="260.077005545977" r="12" stroke="none" stroke-width="0" fill-opacity="0" fill="#ffffff"></circle><circle cx="253.43589743589743" cy="261.0082656321839" r="12" stroke="none" stroke-width="0" fill-opacity="0" fill="#ffffff"></circle><circle cx="262.94871794871796" cy="261.8240386494253" r="12" stroke="none" stroke-width="0" fill-opacity="0" fill="#ffffff"></circle><circle cx="272.46153846153845" cy="262.52432459770114" r="12" stroke="none" stroke-width="0" fill-opacity="0" fill="#ffffff"></circle><circle cx="281.974358974359" cy="263.1091234770115" r="12" stroke="none" stroke-width="0" fill-opacity="0" fill="#ffffff"></circle><circle cx="291.48717948717945" cy="263.57843528735634" r="12" stroke="none" stroke-width="0" fill-opacity="0" fill="#ffffff"></circle><circle cx="301" cy="263.8167729597701" r="12" stroke="none" stroke-width="0" fill-opacity="0" fill="#ffffff"></circle><circle cx="310.51282051282055" cy="263.82413649425285" r="12" stroke="none" stroke-width="0" fill-opacity="0" fill="#ffffff"></circle><circle cx="320.025641025641" cy="263.6005258908046" r="12" stroke="none" stroke-width="0" fill-opacity="0" fill="#ffffff"></circle><circle cx="329.53846153846155" cy="263.1459411494253" r="12" stroke="none" stroke-width="0" fill-opacity="0" fill="#ffffff"></circle><circle cx="339.05128205128204" cy="262.91838227011493" r="12" stroke="none" stroke-width="0" fill-opacity="0" fill="#ffffff"></circle><circle cx="348.56410256410254" cy="262.34436218390806" r="12" stroke="none" stroke-width="0" fill-opacity="0" fill="#ffffff"></circle><circle cx="358.0769230769231" cy="261.4238808908046" r="12" stroke="none" stroke-width="0" fill-opacity="0" fill="#ffffff"></circle><circle cx="367.5897435897436" cy="260.1569383908046" r="12" stroke="none" stroke-width="0" fill-opacity="0" fill="#ffffff"></circle><circle cx="377.1025641025641" cy="258.54353468390804" r="12" stroke="none" stroke-width="0" fill-opacity="0" fill="#ffffff"></circle><circle cx="386.61538461538464" cy="256.69915683908044" r="12" stroke="none" stroke-width="0" fill-opacity="0" fill="#ffffff"></circle><circle cx="396.12820512820514" cy="254.62380485632184" r="12" stroke="none" stroke-width="0" fill-opacity="0" fill="#ffffff"></circle><circle cx="405.64102564102564" cy="252.31747873563216" r="12" stroke="none" stroke-width="0" fill-opacity="0" fill="#ffffff"></circle><circle cx="415.15384615384613" cy="249.78017847701148" r="12" stroke="none" stroke-width="0" fill-opacity="0" fill="#ffffff"></circle><circle cx="424.6666666666667" cy="247.01190408045977" r="12" stroke="none" stroke-width="0" fill-opacity="0" fill="#ffffff"></circle><circle cx="434.1794871794872" cy="244.012655545977" r="12" stroke="none" stroke-width="0" fill-opacity="0" fill="#ffffff"></circle><circle cx="443.6923076923077" cy="240.7824328735632" r="12" stroke="none" stroke-width="0" fill-opacity="0" fill="#ffffff"></circle><circle cx="453.2051282051282" cy="237.32123606321838" r="12" stroke="none" stroke-width="0" fill-opacity="0" fill="#ffffff"></circle><circle cx="462.71794871794873" cy="233.6290651149425" r="12" stroke="none" stroke-width="0" fill-opacity="0" fill="#ffffff"></circle><circle cx="472.2307692307692" cy="229.70592002873562" r="12" stroke="none" stroke-width="0" fill-opacity="0" fill="#ffffff"></circle><circle cx="481.7435897435897" cy="225.5518008045977" r="12" stroke="none" stroke-width="0" fill-opacity="0" fill="#ffffff"></circle></g><g><circle cx="120.25641025641026" cy="241.34166666666667" r="3.5" stroke="none" stroke-width="0" fill-opacity="0" fill="#ffffff"></circle><circle cx="129.76923076923077" cy="242.96584916666666" r="3.5" stroke="none" stroke-width="0" fill-opacity="0" fill="#ffffff"></circle><circle cx="139.28205128205127" cy="244.59003166666668" r="3.5" stroke="none" stroke-width="0" fill-opacity="0" fill="#ffffff"></circle><circle cx="148.7948717948718" cy="246.09872709770116" r="3.5" stroke="none" stroke-width="0" fill-opacity="0" fill="#ffffff"></circle><circle cx="158.30769230769232" cy="247.4919354597701" r="3.5" stroke="none" stroke-width="0" fill-opacity="0" fill="#ffffff"></circle><circle cx="167.82051282051282" cy="248.76965675287357" r="3.5" stroke="none" stroke-width="0" fill-opacity="0" fill="#ffffff"></circle><circle cx="177.33333333333334" cy="249.9318909770115" r="3.5" stroke="none" stroke-width="0" fill-opacity="0" fill="#ffffff"></circle><circle cx="186.84615384615384" cy="250.9786381321839" r="3.5" stroke="none" stroke-width="0" fill-opacity="0" fill="#ffffff"></circle><circle cx="196.35897435897436" cy="251.9098982183908" r="3.5" stroke="none" stroke-width="0" fill-opacity="0" fill="#ffffff"></circle><circle cx="205.87179487179486" cy="252.72567123563218" r="3.5" stroke="none" stroke-width="0" fill-opacity="0" fill="#ffffff"></circle><circle cx="215.3846153846154" cy="253.42595718390805" r="3.5" stroke="none" stroke-width="0" fill-opacity="0" fill="#ffffff"></circle><circle cx="224.8974358974359" cy="253.8952689942529" r="3.5" stroke="none" stroke-width="0" fill-opacity="0" fill="#ffffff"></circle><circle cx="234.4102564102564" cy="254.13360666666665" r="3.5" stroke="none" stroke-width="0" fill-opacity="0" fill="#ffffff"></circle><circle cx="243.92307692307693" cy="254.14097020114943" r="3.5" stroke="none" stroke-width="0" fill-opacity="0" fill="#ffffff"></circle><circle cx="253.43589743589743" cy="253.91735959770114" r="3.5" stroke="none" stroke-width="0" fill-opacity="0" fill="#ffffff"></circle><circle cx="262.94871794871796" cy="253.2318007183908" r="3.5" stroke="none" stroke-width="0" fill-opacity="0" fill="#ffffff"></circle><circle cx="272.46153846153845" cy="252.0842935632184" r="3.5" stroke="none" stroke-width="0" fill-opacity="0" fill="#ffffff"></circle><circle cx="281.974358974359" cy="250.47483813218392" r="3.5" stroke="none" stroke-width="0" fill-opacity="0" fill="#ffffff"></circle><circle cx="291.48717948717945" cy="248.40343442528737" r="3.5" stroke="none" stroke-width="0" fill-opacity="0" fill="#ffffff"></circle><circle cx="301" cy="245.87008244252874" r="3.5" stroke="none" stroke-width="0" fill-opacity="0" fill="#ffffff"></circle><circle cx="310.51282051282055" cy="242.87478218390805" r="3.5" stroke="none" stroke-width="0" fill-opacity="0" fill="#ffffff"></circle><circle cx="320.025641025641" cy="239.41753364942528" r="3.5" stroke="none" stroke-width="0" fill-opacity="0" fill="#ffffff"></circle><circle cx="329.53846153846155" cy="235.49833683908048" r="3.5" stroke="none" stroke-width="0" fill-opacity="0" fill="#ffffff"></circle><circle cx="339.05128205128204" cy="231.57519175287356" r="3.5" stroke="none" stroke-width="0" fill-opacity="0" fill="#ffffff"></circle><circle cx="348.56410256410254" cy="227.19009839080462" r="3.5" stroke="none" stroke-width="0" fill-opacity="0" fill="#ffffff"></circle><circle cx="358.0769230769231" cy="222.34305675287357" r="3.5" stroke="none" stroke-width="0" fill-opacity="0" fill="#ffffff"></circle><circle cx="367.5897435897436" cy="217.03406683908048" r="3.5" stroke="none" stroke-width="0" fill-opacity="0" fill="#ffffff"></circle><circle cx="377.1025641025641" cy="211.2631286494253" r="3.5" stroke="none" stroke-width="0" fill-opacity="0" fill="#ffffff"></circle><circle cx="386.61538461538464" cy="205.03024218390806" r="3.5" stroke="none" stroke-width="0" fill-opacity="0" fill="#ffffff"></circle><circle cx="396.12820512820514" cy="198.33540744252872" r="3.5" stroke="none" stroke-width="0" fill-opacity="0" fill="#ffffff"></circle><circle cx="405.64102564102564" cy="191.17862442528735" r="3.5" stroke="none" stroke-width="0" fill-opacity="0" fill="#ffffff"></circle><circle cx="415.15384615384613" cy="183.55989313218393" r="3.5" stroke="none" stroke-width="0" fill-opacity="0" fill="#ffffff"></circle><circle cx="424.6666666666667" cy="175.4792135632184" r="3.5" stroke="none" stroke-width="0" fill-opacity="0" fill="#ffffff"></circle><circle cx="434.1794871794872" cy="166.9365857183908" r="3.5" stroke="none" stroke-width="0" fill-opacity="0" fill="#ffffff"></circle><circle cx="443.6923076923077" cy="157.93200959770115" r="3.5" stroke="none" stroke-width="0" fill-opacity="0" fill="#ffffff"></circle><circle cx="453.2051282051282" cy="148.46548520114942" r="3.5" stroke="none" stroke-width="0" fill-opacity="0" fill="#ffffff"></circle><circle cx="462.71794871794873" cy="138.5370125287356" r="3.5" stroke="none" stroke-width="0" fill-opacity="0" fill="#ffffff"></circle><circle cx="472.2307692307692" cy="128.14659158045976" r="3.5" stroke="none" stroke-width="0" fill-opacity="0" fill="#ffffff"></circle><circle cx="481.7435897435897" cy="117.29422235632182" r="3.5" stroke="none" stroke-width="0" fill-opacity="0" fill="#ffffff"></circle><circle cx="120.25641025641026" cy="241.34166666666667" r="3.5" stroke="none" stroke-width="0" fill-opacity="0" fill="#ffffff"></circle><circle cx="129.76923076923077" cy="242.96584916666666" r="3.5" stroke="none" stroke-width="0" fill-opacity="0" fill="#ffffff"></circle><circle cx="139.28205128205127" cy="244.59003166666668" r="3.5" stroke="none" stroke-width="0" fill-opacity="0" fill="#ffffff"></circle><circle cx="148.7948717948718" cy="246.21421416666666" r="3.5" stroke="none" stroke-width="0" fill-opacity="0" fill="#ffffff"></circle><circle cx="158.30769230769232" cy="247.83839666666665" r="3.5" stroke="none" stroke-width="0" fill-opacity="0" fill="#ffffff"></circle><circle cx="167.82051282051282" cy="249.41638433908048" r="3.5" stroke="none" stroke-width="0" fill-opacity="0" fill="#ffffff"></circle><circle cx="177.33333333333334" cy="250.94817718390806" r="3.5" stroke="none" stroke-width="0" fill-opacity="0" fill="#ffffff"></circle><circle cx="186.84615384615384" cy="252.43377520114942" r="3.5" stroke="none" stroke-width="0" fill-opacity="0" fill="#ffffff"></circle><circle cx="196.35897435897436" cy="253.8731783908046" r="3.5" stroke="none" stroke-width="0" fill-opacity="0" fill="#ffffff"></circle><circle cx="205.87179487179486" cy="255.26638675287356" r="3.5" stroke="none" stroke-width="0" fill-opacity="0" fill="#ffffff"></circle><circle cx="215.3846153846154" cy="256.59030287356325" r="3.5" stroke="none" stroke-width="0" fill-opacity="0" fill="#ffffff"></circle><circle cx="224.8974358974359" cy="257.84492675287356" r="3.5" stroke="none" stroke-width="0" fill-opacity="0" fill="#ffffff"></circle><circle cx="234.4102564102564" cy="259.0071609770115" r="3.5" stroke="none" stroke-width="0" fill-opacity="0" fill="#ffffff"></circle><circle cx="243.92307692307693" cy="260.077005545977" r="3.5" stroke="none" stroke-width="0" fill-opacity="0" fill="#ffffff"></circle><circle cx="253.43589743589743" cy="261.0082656321839" r="3.5" stroke="none" stroke-width="0" fill-opacity="0" fill="#ffffff"></circle><circle cx="262.94871794871796" cy="261.8240386494253" r="3.5" stroke="none" stroke-width="0" fill-opacity="0" fill="#ffffff"></circle><circle cx="272.46153846153845" cy="262.52432459770114" r="3.5" stroke="none" stroke-width="0" fill-opacity="0" fill="#ffffff"></circle><circle cx="281.974358974359" cy="263.1091234770115" r="3.5" stroke="none" stroke-width="0" fill-opacity="0" fill="#ffffff"></circle><circle cx="291.48717948717945" cy="263.57843528735634" r="3.5" stroke="none" stroke-width="0" fill-opacity="0" fill="#ffffff"></circle><circle cx="301" cy="263.8167729597701" r="3.5" stroke="none" stroke-width="0" fill-opacity="0" fill="#ffffff"></circle><circle cx="310.51282051282055" cy="263.82413649425285" r="3.5" stroke="none" stroke-width="0" fill-opacity="0" fill="#ffffff"></circle><circle cx="320.025641025641" cy="263.6005258908046" r="3.5" stroke="none" stroke-width="0" fill-opacity="0" fill="#ffffff"></circle><circle cx="329.53846153846155" cy="263.1459411494253" r="3.5" stroke="none" stroke-width="0" fill-opacity="0" fill="#ffffff"></circle><circle cx="339.05128205128204" cy="262.91838227011493" r="3.5" stroke="none" stroke-width="0" fill-opacity="0" fill="#ffffff"></circle><circle cx="348.56410256410254" cy="262.34436218390806" r="3.5" stroke="none" stroke-width="0" fill-opacity="0" fill="#ffffff"></circle><circle cx="358.0769230769231" cy="261.4238808908046" r="3.5" stroke="none" stroke-width="0" fill-opacity="0" fill="#ffffff"></circle><circle cx="367.5897435897436" cy="260.1569383908046" r="3.5" stroke="none" stroke-width="0" fill-opacity="0" fill="#ffffff"></circle><circle cx="377.1025641025641" cy="258.54353468390804" r="3.5" stroke="none" stroke-width="0" fill-opacity="0" fill="#ffffff"></circle><circle cx="386.61538461538464" cy="256.69915683908044" r="3.5" stroke="none" stroke-width="0" fill-opacity="0" fill="#ffffff"></circle><circle cx="396.12820512820514" cy="254.62380485632184" r="3.5" stroke="none" stroke-width="0" fill-opacity="0" fill="#ffffff"></circle><circle cx="405.64102564102564" cy="252.31747873563216" r="3.5" stroke="none" stroke-width="0" fill-opacity="0" fill="#ffffff"></circle><circle cx="415.15384615384613" cy="249.78017847701148" r="3.5" stroke="none" stroke-width="0" fill-opacity="0" fill="#ffffff"></circle><circle cx="424.6666666666667" cy="247.01190408045977" r="3.5" stroke="none" stroke-width="0" fill-opacity="0" fill="#ffffff"></circle><circle cx="434.1794871794872" cy="244.012655545977" r="3.5" stroke="none" stroke-width="0" fill-opacity="0" fill="#ffffff"></circle><circle cx="443.6923076923077" cy="240.7824328735632" r="3.5" stroke="none" stroke-width="0" fill-opacity="0" fill="#ffffff"></circle><circle cx="453.2051282051282" cy="237.32123606321838" r="3.5" stroke="none" stroke-width="0" fill-opacity="0" fill="#ffffff"></circle><circle cx="462.71794871794873" cy="233.6290651149425" r="3.5" stroke="none" stroke-width="0" fill-opacity="0" fill="#ffffff"></circle><circle cx="472.2307692307692" cy="229.70592002873562" r="3.5" stroke="none" stroke-width="0" fill-opacity="0" fill="#ffffff"></circle><circle cx="481.7435897435897" cy="225.5518008045977" r="3.5" stroke="none" stroke-width="0" fill-opacity="0" fill="#ffffff"></circle></g><g></g><g><text x="157" y="362" font-family="Arial" font-size="12" stroke="none" stroke-width="0" fill-opacity="1.0" fill="#222222">Résultat net (optimiste)</text></g><rect x="140" y="352" width="12" height="12" stroke="none" stroke-width="0" fill-opacity="1.0" fill="#38761d"></rect><g><text x="321" y="362" font-family="Arial" font-size="12" stroke="none" stroke-width="0" fill-opacity="1.0" fill="#222222">Résultat net (pessimiste)</text></g><rect x="304" y="352" width="12" height="12" stroke="none" stroke-width="0" fill-opacity="1.0" fill="#741b47"></rect><text text-anchor="end" x="124.76602919964368" y="324" font-family="Arial" font-size="12" transform="rotate(330 109.76602919964368 319.69615242270663)" stroke="none" stroke-width="0" fill-opacity="1.0" fill="#222222">0</text><text text-anchor="end" x="153.30449073810522" y="324" font-family="Arial" font-size="12" transform="rotate(330 138.30449073810522 319.69615242270663)" stroke="none" stroke-width="0" fill-opacity="1.0" fill="#222222">3</text><text text-anchor="end" x="181.84295227656676" y="324" font-family="Arial" font-size="12" transform="rotate(330 166.84295227656676 319.69615242270663)" stroke="none" stroke-width="0" fill-opacity="1.0" fill="#222222">6</text><text text-anchor="end" x="210.38141381502828" y="324" font-family="Arial" font-size="12" transform="rotate(330 195.38141381502828 319.69615242270663)" stroke="none" stroke-width="0" fill-opacity="1.0" fill="#222222">9</text><text text-anchor="end" x="238.91987535348983" y="324" font-family="Arial" font-size="12" transform="rotate(330 223.91987535348983 319.69615242270663)" stroke="none" stroke-width="0" fill-opacity="1.0" fill="#222222">12</text><text text-anchor="end" x="267.4583368919514" y="324" font-family="Arial" font-size="12" transform="rotate(330 252.45833689195138 319.69615242270663)" stroke="none" stroke-width="0" fill-opacity="1.0" fill="#222222">15</text><text text-anchor="end" x="295.99679843041287" y="324" font-family="Arial" font-size="12" transform="rotate(330 280.99679843041287 319.69615242270663)" stroke="none" stroke-width="0" fill-opacity="1.0" fill="#222222">18</text><text text-anchor="end" x="324.5352599688744" y="324" font-family="Arial" font-size="12" transform="rotate(330 309.5352599688744 319.69615242270663)" stroke="none" stroke-width="0" fill-opacity="1.0" fill="#222222">21</text><text text-anchor="end" x="353.07372150733596" y="324" font-family="Arial" font-size="12" transform="rotate(330 338.07372150733596 319.69615242270663)" stroke="none" stroke-width="0" fill-opacity="1.0" fill="#222222">24</text><text text-anchor="end" x="381.6121830457975" y="324" font-family="Arial" font-size="12" transform="rotate(330 366.6121830457975 319.69615242270663)" stroke="none" stroke-width="0" fill-opacity="1.0" fill="#222222">27</text><text text-anchor="end" x="410.15064458425906" y="324" font-family="Arial" font-size="12" transform="rotate(330 395.15064458425906 319.69615242270663)" stroke="none" stroke-width="0" fill-opacity="1.0" fill="#222222">30</text><text text-anchor="end" x="438.6891061227206" y="324" font-family="Arial" font-size="12" transform="rotate(330 423.6891061227206 319.69615242270663)" stroke="none" stroke-width="0" fill-opacity="1.0" fill="#222222">33</text><text text-anchor="end" x="467.22756766118215" y="324" font-family="Arial" font-size="12" transform="rotate(330 452.22756766118215 319.69615242270663)" stroke="none" stroke-width="0" fill-opacity="1.0" fill="#222222">36</text><g><text text-anchor="end" x="103" y="304" font-family="Arial" font-size="12" stroke="none" stroke-width="0" fill-opacity="1.0" fill="#444444">-300,000</text></g><g><text text-anchor="end" x="103" y="247" font-family="Arial" font-size="12" stroke="none" stroke-width="0" fill-opacity="1.0" fill="#444444">0</text></g><g><text text-anchor="end" x="103" y="190" font-family="Arial" font-size="12" stroke="none" stroke-width="0" fill-opacity="1.0" fill="#444444">300,000</text></g><g><text text-anchor="end" x="103" y="132" font-family="Arial" font-size="12" stroke="none" stroke-width="0" fill-opacity="1.0" fill="#444444">600,000</text></g><g><text text-anchor="end" x="103" y="75" font-family="Arial" font-size="12" stroke="none" stroke-width="0" fill-opacity="1.0" fill="#444444">900,000</text></g></g><g></g></svg>