<svg id="chart" width="600" height="371"><defs id="defs"></defs><g><rect x="0.5" y="0.5" width="599" height="370" stroke="none" stroke-width="0" fill-opacity="1.0" fill="#ffffff"></rect><g><text x="115" y="50" font-family="Arial" font-size="12" font-weight="bold" stroke="none" stroke-width="0" fill-opacity="1.0" fill="#000000">Évolution du résultat</text></g><rect x="115" y="71" width="371" height="229" stroke="none" stroke-width="0" fill-opacity="1" fill="none"></rect><g><text text-anchor="middle" x="301" y="342" font-family="Arial" font-size="12" font-style="italic" stroke="none" stroke-width="0" fill-opacity="1.0" fill="#222222">Mois</text></g><g><text text-anchor="middle" x="142" y="304" font-family="Arial" font-size="12" font-style="italic" transform="rotate(270 27 300)" stroke="none" stroke-width="0" fill-opacity="1.0" fill="#222222">€</text></g><rect x="115" y="300" width="371" height="1" stroke="none" stroke-width="0" fill-opacity="1.0" fill="#cccccc"></rect><rect x="115" y="242" width="371" height="1" stroke="none" stroke-width="0" fill-opacity="1.0" fill="#cccccc"></rect><rect x="115" y="185" width="371" height="1" stroke="none" stroke-width="0" fill-opacity="1.0" fill="#cccccc"></rect><rect x="115" y="128" width="371" height="1" stroke="none" stroke-width="0" fill-opacity="1.0" fill="#cccccc"></rect><rect x="115" y="71" width="371" height="1" stroke="none" stroke-width="0" fill-opacity="1.0" fill="#cccccc"></rect><rect x="115" y="242" width="371" height="1" stroke="none" stroke-width="0" fill-opacity="1.0" fill="#333333"></rect><g></g><g></g><g><path d="M119.75641025641026,240.84166666666667L129.26923076923077,242.46584916666666L138.78205128205127,244.09003166666668L148.2948717948718,245.60901729166667L157.80769230769232,247.02280604166668L167.32051282051282,248.33139791666667L176.83333333333334,249.53479291666667L186.34615384615384,250.63299104166668L195.85897435897436,251.62599229166668L205.37179487179486,252.51379666666668L214.8846153846154,253.19120729166667L224.3974358974359,253.65822416666668L233.9102564102564,253.80965041666667L243.42307692307693,253.54028916666667L252.93589743589743,252.85014041666668L262.44871794871796,251.7392041666667L271.96153846153845,250.20748041666667L281.474358974359,248.25496916666668L290.98717948717945,245.88167041666668L300.5,243.0875841666667L310.01282051282055,239.8727104166667L319.525641025641,236.2370491666667L329.03846153846155,232.18060041666672L338.55128205128204,228.16136416666671L348.06410256410254,223.72134041666672L357.5769230769231,218.8605291666667L367.0897435897436,213.5789304166667L376.6025641025641,207.87654416666672L386.11538461538464,201.7533704166667L395.62820512820514,195.20940916666672L405.14102564102564,188.24466041666673L414.65384615384613,180.85912416666673L424.1666666666667,173.05280041666674L433.6794871794872,164.82568916666673L443.1923076923077,156.17779041666674L452.7051282051282,147.15118291666673L462.21794871794873,137.74586666666673L471.7307692307692,127.96184166666674L481.2435897435897,117.79910791666674" stroke="#38761d" stroke-width="2" fill-opacity="1" fill="none"></path><path d="M119.75641025641026,240.84166666666667L129.26923076923077,242.46584916666666L138.78205128205127,244.09003166666668L148.2948717948718,245.71421416666666L157.80769230769232,247.33839666666665L167.32051282051282,248.92050041666667L176.83333333333334,250.46052541666666L186.34615384615384,251.95847166666667L195.85897435897436,253.41433916666665L205.37179487179486,254.82812791666666L214.8846153846154,256.17879854166665L224.3974358974359,257.46635104166666L233.9102564102564,258.6276672916667L243.42307692307693,259.6627472916667L252.93589743589743,260.5715910416667L262.44871794871796,261.3541985416667L271.96153846153845,262.0105697916667L281.474358974359,262.54070479166666L290.98717948717945,262.94460354166665L300.5,263.1801872916667L310.01282051282055,263.2474560416667L319.525641025641,263.14640979166666L329.03846153846155,262.8349697916667L338.55128205128204,262.7711360416667L348.06410256410254,262.4337904166667L357.5769230769231,261.8229329166667L367.0897435897436,260.93856354166667L376.6025641025641,259.7806822916667L386.11538461538464,258.3492891666667L395.62820512820514,256.64438416666667L405.14102564102564,254.6659672916667L414.65384615384613,252.41403854166668L424.1666666666667,249.8885979166667L433.6794871794872,247.0896454166667L443.1923076923077,244.0171810416667L452.7051282051282,240.6712047916667L462.21794871794873,237.05171666666672L471.7307692307692,233.1587166666667L481.2435897435897,228.99220479166672" stroke="#741b47" stroke-width="2" fill-opacity="1" fill="none"></path></g><g><circle cx="120.25641025641026" cy="241.34166666666667" r="12" stroke="none" stroke-width="0" fill-opacity="0" fill="#ffffff"></circle><circle cx="129.76923076923077" cy="242.96584916666666" r="12" stroke="none" stroke-width="0" fill-opacity="0" fill="#ffffff"></circle><circle cx="139.28205128205127" cy="244.59003166666668" r="12" stroke="none" stroke-width="0" fill-opacity="0" fill="#ffffff"></circle><circle cx="148.7948717948718" cy="246.10901729166667" r="12" stroke="none" stroke-width="0" fill-opacity="0" fill="#ffffff"></circle><circle cx="158.30769230769232" cy="247.52280604166668" r="12" stroke="none" stroke-width="0" fill-opacity="0" fill="#ffffff"></circle><circle cx="167.82051282051282" cy="248.83139791666667" r="12" stroke="none" stroke-width="0" fill-opacity="0" fill="#ffffff"></circle><circle cx="177.33333333333334" cy="250.03479291666667" r="12" stroke="none" stroke-width="0" fill-opacity="0" fill="#ffffff"></circle><circle cx="186.84615384615384" cy="251.13299104166668" r="12" stroke="none" stroke-width="0" fill-opacity="0" fill="#ffffff"></circle><circle cx="196.35897435897436" cy="252.12599229166668" r="12" stroke="none" stroke-width="0" fill-opacity="0" fill="#ffffff"></circle><circle cx="205.87179487179486" cy="253.01379666666668" r="12" stroke="none" stroke-width="0" fill-opacity="0" fill="#ffffff"></circle><circle cx="215.3846153846154" cy="253.69120729166667" r="12" stroke="none" stroke-width="0" fill-opacity="0" fill="#ffffff"></circle><circle cx="224.8974358974359" cy="254.15822416666668" r="12" stroke="none" stroke-width="0" fill-opacity="0" fill="#ffffff"></circle><circle cx="234.4102564102564" cy="254.30965041666667" r="12" stroke="none" stroke-width="0" fill-opacity="0" fill="#ffffff"></circle><circle cx="243.92307692307693" cy="254.04028916666667" r="12" stroke="none" stroke-width="0" fill-opacity="0" fill="#ffffff"></circle><circle cx="253.43589743589743" cy="253.35014041666668" r="12" stroke="none" stroke-width="0" fill-opacity="0" fill="#ffffff"></circle><circle cx="262.94871794871796" cy="252.2392041666667" r="12" stroke="none" stroke-width="0" fill-opacity="0" fill="#ffffff"></circle><circle cx="272.46153846153845" cy="250.70748041666667" r="12" stroke="none" stroke-width="0" fill-opacity="0" fill="#ffffff"></circle><circle cx="281.974358974359" cy="248.75496916666668" r="12" stroke="none" stroke-width="0" fill-opacity="0" fill="#ffffff"></circle><circle cx="291.48717948717945" cy="246.38167041666668" r="12" stroke="none" stroke-width="0" fill-opacity="0" fill="#ffffff"></circle><circle cx="301" cy="243.5875841666667" r="12" stroke="none" stroke-width="0" fill-opacity="0" fill="#ffffff"></circle><circle cx="310.51282051282055" cy="240.3727104166667" r="12" stroke="none" stroke-width="0" fill-opacity="0" fill="#ffffff"></circle><circle cx="320.025641025641" cy="236.7370491666667" r="12" stroke="none" stroke-width="0" fill-opacity="0" fill="#ffffff"></circle><circle cx="329.53846153846155" cy="232.68060041666672" r="12" stroke="none" stroke-width="0" fill-opacity="0" fill="#ffffff"></circle><circle cx="339.05128205128204" cy="228.66136416666671" r="12" stroke="none" stroke-width="0" fill-opacity="0" fill="#ffffff"></circle><circle cx="348.56410256410254" cy="224.22134041666672" r="12" stroke="none" stroke-width="0" fill-opacity="0" fill="#ffffff"></circle><circle cx="358.0769230769231" cy="219.3605291666667" r="12" stroke="none" stroke-width="0" fill-opacity="0" fill="#ffffff"></circle><circle cx="367.5897435897436" cy="214.0789304166667" r="12" stroke="none" stroke-width="0" fill-opacity="0" fill="#ffffff"></circle><circle cx="377.1025641025641" cy="208.37654416666672" r="12" stroke="none" stroke-width="0" fill-opacity="0" fill="#ffffff"></circle><circle cx="386.61538461538464" cy="202.2533704166667" r="12" stroke="none" stroke-width="0" fill-opacity="0" fill="#ffffff"></circle><circle cx="396.12820512820514" cy="195.70940916666672" r="12" stroke="none" stroke-width="0" fill-opacity="0" fill="#ffffff"></circle><circle cx="405.64102564102564" cy="188.74466041666673" r="12" stroke="none" stroke-width="0" fill-opacity="0" fill="#ffffff"></circle><circle cx="415.15384615384613" cy="181.35912416666673" r="12" stroke="none" stroke-width="0" fill-opacity="0" fill="#ffffff"></circle><circle cx="424.6666666666667" cy="173.55280041666674" r="12" stroke="none" stroke-width="0" fill-opacity="0" fill="#ffffff"></circle><circle cx="434.1794871794872" cy="165.32568916666673" r="12" stroke="none" stroke-width="0" fill-opacity="0" fill="#ffffff"></circle><circle cx="443.6923076923077" cy="156.67779041666674" r="12" stroke="none" stroke-width="0" fill-opacity="0" fill="#ffffff"></circle><circle cx="453.2051282051282" cy="147.65118291666673" r="12" stroke="none" stroke-width="0" fill-opacity="0" fill="#ffffff"></circle><circle cx="462.71794871794873" cy="138.24586666666673" r="12" stroke="none" stroke-width="0" fill-opacity="0" fill="#ffffff"></circle><circle cx="472.2307692307692" cy="128.46184166666674" r="12" stroke="none" stroke-width="0" fill-opacity="0" fill="#ffffff"></circle><circle cx="481.7435897435897" cy="118.29910791666674" r="12" stroke="none" stroke-width="0" fill-opacity="0" fill="#ffffff"></circle><circle cx="120.25641025641026" cy="241.34166666666667" r="12" stroke="none" stroke-width="0" fill-opacity="0" fill="#ffffff"></circle><circle cx="129.76923076923077" cy="242.96584916666666" r="12" stroke="none" stroke-width="0" fill-opacity="0" fill="#ffffff"></circle><circle cx="139.28205128205127" cy="244.59003166666668" r="12" stroke="none" stroke-width="0" fill-opacity="0" fill="#ffffff"></circle><circle cx="148.7948717948718" cy="246.21421416666666" r="12" stroke="none" stroke-width="0" fill-opacity="0" fill="#ffffff"></circle><circle cx="158.30769230769232" cy="247.83839666666665" r="12" stroke="none" stroke-width="0" fill-opacity="0" fill="#ffffff"></circle><circle cx="167.82051282051282" cy="249.42050041666667" r="12" stroke="none" stroke-width="0" fill-opacity="0" fill="#ffffff"></circle><circle cx="177.33333333333334" cy="250.96052541666666" r="12" stroke="none" stroke-width="0" fill-opacity="0" fill="#ffffff"></circle><circle cx="186.84615384615384" cy="252.45847166666667" r="12" stroke="none" stroke-width="0" fill-opacity="0" fill="#ffffff"></circle><circle cx="196.35897435897436" cy="253.91433916666665" r="12" stroke="none" stroke-width="0" fill-opacity="0" fill="#ffffff"></circle><circle cx="205.87179487179486" cy="255.32812791666666" r="12" stroke="none" stroke-width="0" fill-opacity="0" fill="#ffffff"></circle><circle cx="215.3846153846154" cy="256.67879854166665" r="12" stroke="none" stroke-width="0" fill-opacity="0" fill="#ffffff"></circle><circle cx="224.8974358974359" cy="257.96635104166666" r="12" stroke="none" stroke-width="0" fill-opacity="0" fill="#ffffff"></circle><circle cx="234.4102564102564" cy="259.1276672916667" r="12" stroke="none" stroke-width="0" fill-opacity="0" fill="#ffffff"></circle><circle cx="243.92307692307693" cy="260.1627472916667" r="12" stroke="none" stroke-width="0" fill-opacity="0" fill="#ffffff"></circle><circle cx="253.43589743589743" cy="261.0715910416667" r="12" stroke="none" stroke-width="0" fill-opacity="0" fill="#ffffff"></circle><circle cx="262.94871794871796" cy="261.8541985416667" r="12" stroke="none" stroke-width="0" fill-opacity="0" fill="#ffffff"></circle><circle cx="272.46153846153845" cy="262.5105697916667" r="12" stroke="none" stroke-width="0" fill-opacity="0" fill="#ffffff"></circle><circle cx="281.974358974359" cy="263.04070479166666" r="12" stroke="none" stroke-width="0" fill-opacity="0" fill="#ffffff"></circle><circle cx="291.48717948717945" cy="263.44460354166665" r="12" stroke="none" stroke-width="0" fill-opacity="0" fill="#ffffff"></circle><circle cx="301" cy="263.6801872916667" r="12" stroke="none" stroke-width="0" fill-opacity="0" fill="#ffffff"></circle><circle cx="310.51282051282055" cy="263.7474560416667" r="12" stroke="none" stroke-width="0" fill-opacity="0" fill="#ffffff"></circle><circle cx="320.025641025641" cy="263.64640979166666" r="12" stroke="none" stroke-width="0" fill-opacity="0" fill="#ffffff"></circle><circle cx="329.53846153846155" cy="263.3349697916667" r="12" stroke="none" stroke-width="0" fill-opacity="0" fill="#ffffff"></circle><circle cx="339.05128205128204" cy="263.2711360416667" r="12" stroke="none" stroke-width="0" fill-opacity="0" fill="#ffffff"></circle><circle cx="348.56410256410254" cy="262.9337904166667" r="12" stroke="none" stroke-width="0" fill-opacity="0" fill="#ffffff"></circle><circle cx="358.0769230769231" cy="262.3229329166667" r="12" stroke="none" stroke-width="0" fill-opacity="0" fill="#ffffff"></circle><circle cx="367.5897435897436" cy="261.43856354166667" r="12" stroke="none" stroke-width="0" fill-opacity="0" fill="#ffffff"></circle><circle cx="377.1025641025641" cy="260.2806822916667" r="12" stroke="none" stroke-width="0" fill-opacity="0" fill="#ffffff"></circle><circle cx="386.61538461538464" cy="258.8492891666667" r="12" stroke="none" stroke-width="0" fill-opacity="0" fill="#ffffff"></circle><circle cx="396.12820512820514" cy="257.14438416666667" r="12" stroke="none" stroke-width="0" fill-opacity="0" fill="#ffffff"></circle><circle cx="405.64102564102564" cy="255.1659672916667" r="12" stroke="none" stroke-width="0" fill-opacity="0" fill="#ffffff"></circle><circle cx="415.15384615384613" cy="252.91403854166668" r="12" stroke="none" stroke-width="0" fill-opacity="0" fill="#ffffff"></circle><circle cx="424.6666666666667" cy="250.3885979166667" r="12" stroke="none" stroke-width="0" fill-opacity="0" fill="#ffffff"></circle><circle cx="434.1794871794872" cy="247.5896454166667" r="12" stroke="none" stroke-width="0" fill-opacity="0" fill="#ffffff"></circle><circle cx="443.6923076923077" cy="244.5171810416667" r="12" stroke="none" stroke-width="0" fill-opacity="0" fill="#ffffff"></circle><circle cx="453.2051282051282" cy="241.1712047916667" r="12" stroke="none" stroke-width="0" fill-opacity="0" fill="#ffffff"></circle><circle cx="462.71794871794873" cy="237.55171666666672" r="12" stroke="none" stroke-width="0" fill-opacity="0" fill="#ffffff"></circle><circle cx="472.2307692307692" cy="233.6587166666667" r="12" stroke="none" stroke-width="0" fill-opacity="0" fill="#ffffff"></circle><circle cx="481.7435897435897" cy="229.49220479166672" r="12" stroke="none" stroke-width="0" fill-opacity="0" fill="#ffffff"></circle></g><g><circle cx="120.25641025641026" cy="241.34166666666667" r="3.5" stroke="none" stroke-width="0" fill-opacity="0" fill="#ffffff"></circle><circle cx="129.76923076923077" cy="242.96584916666666" r="3.5" stroke="none" stroke-width="0" fill-opacity="0" fill="#ffffff"></circle><circle cx="139.28205128205127" cy="244.59003166666668" r="3.5" stroke="none" stroke-width="0" fill-opacity="0" fill="#ffffff"></circle><circle cx="148.7948717948718" cy="246.10901729166667" r="3.5" stroke="none" stroke-width="0" fill-opacity="0" fill="#ffffff"></circle><circle cx="158.30769230769232" cy="247.52280604166668" r="3.5" stroke="none" stroke-width="0" fill-opacity="0" fill="#ffffff"></circle><circle cx="167.82051282051282" cy="248.83139791666667" r="3.5" stroke="none" stroke-width="0" fill-opacity="0" fill="#ffffff"></circle><circle cx="177.33333333333334" cy="250.03479291666667" r="3.5" stroke="none" stroke-width="0" fill-opacity="0" fill="#ffffff"></circle><circle cx="186.84615384615384" cy="251.13299104166668" r="3.5" stroke="none" stroke-width="0" fill-opacity="0" fill="#ffffff"></circle><circle cx="196.35897435897436" cy="252.12599229166668" r="3.5" stroke="none" stroke-width="0" fill-opacity="0" fill="#ffffff"></circle><circle cx="205.87179487179486" cy="253.01379666666668" r="3.5" stroke="none" stroke-width="0" fill-opacity="0" fill="#ffffff"></circle><circle cx="215.3846153846154" cy="253.69120729166667" r="3.5" stroke="none" stroke-width="0" fill-opacity="0" fill="#ffffff"></circle><circle cx="224.8974358974359" cy="254.15822416666668" r="3.5" stroke="none" stroke-width="0" fill-opacity="0" fill="#ffffff"></circle><circle cx="234.4102564102564" cy="254.30965041666667" r="3.5" stroke="none" stroke-width="0" fill-opacity="0" fill="#ffffff"></circle><circle cx="243.92307692307693" cy="254.04028916666667" r="3.5" stroke="none" stroke-width="0" fill-opacity="0" fill="#ffffff"></circle><circle cx="253.43589743589743" cy="253.35014041666668" r="3.5" stroke="none" stroke-width="0" fill-opacity="0" fill="#ffffff"></circle><circle cx="262.94871794871796" cy="252.2392041666667" r="3.5" stroke="none" stroke-width="0" fill-opacity="0" fill="#ffffff"></circle><circle cx="272.46153846153845" cy="250.70748041666667" r="3.5" stroke="none" stroke-width="0" fill-opacity="0" fill="#ffffff"></circle><circle cx="281.974358974359" cy="248.75496916666668" r="3.5" stroke="none" stroke-width="0" fill-opacity="0" fill="#ffffff"></circle><circle cx="291.48717948717945" cy="246.38167041666668" r="3.5" stroke="none" stroke-width="0" fill-opacity="0" fill="#ffffff"></circle><circle cx="301" cy="243.5875841666667" r="3.5" stroke="none" stroke-width="0" fill-opacity="0" fill="#ffffff"></circle><circle cx="310.51282051282055" cy="240.3727104166667" r="3.5" stroke="none" stroke-width="0" fill-opacity="0" fill="#ffffff"></circle><circle cx="320.025641025641" cy="236.7370491666667" r="3.5" stroke="none" stroke-width="0" fill-opacity="0" fill="#ffffff"></circle><circle cx="329.53846153846155" cy="232.68060041666672" r="3.5" stroke="none" stroke-width="0" fill-opacity="0" fill="#ffffff"></circle><circle cx="339.05128205128204" cy="228.66136416666671" r="3.5" stroke="none" stroke-width="0" fill-opacity="0" fill="#ffffff"></circle><circle cx="348.56410256410254" cy="224.22134041666672" r="3.5" stroke="none" stroke-width="0" fill-opacity="0" fill="#ffffff"></circle><circle cx="358.0769230769231" cy="219.3605291666667" r="3.5" stroke="none" stroke-width="0" fill-opacity="0" fill="#ffffff"></circle><circle cx="367.5897435897436" cy="214.0789304166667" r="3.5" stroke="none" stroke-width="0" fill-opacity="0" fill="#ffffff"></circle><circle cx="377.1025641025641" cy="208.37654416666672" r="3.5" stroke="none" stroke-width="0" fill-opacity="0" fill="#ffffff"></circle><circle cx="386.61538461538464" cy="202.2533704166667" r="3.5" stroke="none" stroke-width="0" fill-opacity="0" fill="#ffffff"></circle><circle cx="396.12820512820514" cy="195.70940916666672" r="3.5" stroke="none" stroke-width="0" fill-opacity="0" fill="#ffffff"></circle><circle cx="405.64102564102564" cy="188.74466041666673" r="3.5" stroke="none" stroke-width="0" fill-opacity="0" fill="#ffffff"></circle><circle cx="415.15384615384613" cy="181.35912416666673" r="3.5" stroke="none" stroke-width="0" fill-opacity="0" fill="#ffffff"></circle><circle cx="424.6666666666667" cy="173.55280041666674" r="3.5" stroke="none" stroke-width="0" fill-opacity="0" fill="#ffffff"></circle><circle cx="434.1794871794872" cy="165.32568916666673" r="3.5" stroke="none" stroke-width="0" fill-opacity="0" fill="#ffffff"></circle><circle cx="443.6923076923077" cy="156.67779041666674" r="3.5" stroke="none" stroke-width="0" fill-opacity="0" fill="#ffffff"></circle><circle cx="453.2051282051282" cy="147.65118291666673" r="3.5" stroke="none" stroke-width="0" fill-opacity="0" fill="#ffffff"></circle><circle cx="462.71794871794873" cy="138.24586666666673" r="3.5" stroke="none" stroke-width="0" fill-opacity="0" fill="#ffffff"></circle><circle cx="472.2307692307692" cy="128.46184166666674" r="3.5" stroke="none" stroke-width="0" fill-opacity="0" fill="#ffffff"></circle><circle cx="481.7435897435897" cy="118.29910791666674" r="3.5" stroke="none" stroke-width="0" fill-opacity="0" fill="#ffffff"></circle><circle cx="120.25641025641026" cy="241.34166666666667" r="3.5" stroke="none" stroke-width="0" fill-opacity="0" fill="#ffffff"></circle><circle cx="129.76923076923077" cy="242.96584916666666" r="3.5" stroke="none" stroke-width="0" fill-opacity="0" fill="#ffffff"></circle><circle cx="139.28205128205127" cy="244.59003166666668" r="3.5" stroke="none" stroke-width="0" fill-opacity="0" fill="#ffffff"></circle><circle cx="148.7948717948718" cy="246.21421416666666" r="3.5" stroke="none" stroke-width="0" fill-opacity="0" fill="#ffffff"></circle><circle cx="158.30769230769232" cy="247.83839666666665" r="3.5" stroke="none" stroke-width="0" fill-opacity="0" fill="#ffffff"></circle><circle cx="167.82051282051282" cy="249.42050041666667" r="3.5" stroke="none" stroke-width="0" fill-opacity="0" fill="#ffffff"></circle><circle cx="177.33333333333334" cy="250.96052541666666" r="3.5" stroke="none" stroke-width="0" fill-opacity="0" fill="#ffffff"></circle><circle cx="186.84615384615384" cy="252.45847166666667" r="3.5" stroke="none" stroke-width="0" fill-opacity="0" fill="#ffffff"></circle><circle cx="196.35897435897436" cy="253.91433916666665" r="3.5" stroke="none" stroke-width="0" fill-opacity="0" fill="#ffffff"></circle><circle cx="205.87179487179486" cy="255.32812791666666" r="3.5" stroke="none" stroke-width="0" fill-opacity="0" fill="#ffffff"></circle><circle cx="215.3846153846154" cy="256.67879854166665" r="3.5" stroke="none" stroke-width="0" fill-opacity="0" fill="#ffffff"></circle><circle cx="224.8974358974359" cy="257.96635104166666" r="3.5" stroke="none" stroke-width="0" fill-opacity="0" fill="#ffffff"></circle><circle cx="234.4102564102564" cy="259.1276672916667" r="3.5" stroke="none" stroke-width="0" fill-opacity="0" fill="#ffffff"></circle><circle cx="243.92307692307693" cy="260.1627472916667" r="3.5" stroke="none" stroke-width="0" fill-opacity="0" fill="#ffffff"></circle><circle cx="253.43589743589743" cy="261.0715910416667" r="3.5" stroke="none" stroke-width="0" fill-opacity="0" fill="#ffffff"></circle><circle cx="262.94871794871796" cy="261.8541985416667" r="3.5" stroke="none" stroke-width="0" fill-opacity="0" fill="#ffffff"></circle><circle cx="272.46153846153845" cy="262.5105697916667" r="3.5" stroke="none" stroke-width="0" fill-opacity="0" fill="#ffffff"></circle><circle cx="281.974358974359" cy="263.04070479166666" r="3.5" stroke="none" stroke-width="0" fill-opacity="0" fill="#ffffff"></circle><circle cx="291.48717948717945" cy="263.44460354166665" r="3.5" stroke="none" stroke-width="0" fill-opacity="0" fill="#ffffff"></circle><circle cx="301" cy="263.6801872916667" r="3.5" stroke="none" stroke-width="0" fill-opacity="0" fill="#ffffff"></circle><circle cx="310.51282051282055" cy="263.7474560416667" r="3.5" stroke="none" stroke-width="0" fill-opacity="0" fill="#ffffff"></circle><circle cx="320.025641025641" cy="263.64640979166666" r="3.5" stroke="none" stroke-width="0" fill-opacity="0" fill="#ffffff"></circle><circle cx="329.53846153846155" cy="263.3349697916667" r="3.5" stroke="none" stroke-width="0" fill-opacity="0" fill="#ffffff"></circle><circle cx="339.05128205128204" cy="263.2711360416667" r="3.5" stroke="none" stroke-width="0" fill-opacity="0" fill="#ffffff"></circle><circle cx="348.56410256410254" cy="262.9337904166667" r="3.5" stroke="none" stroke-width="0" fill-opacity="0" fill="#ffffff"></circle><circle cx="358.0769230769231" cy="262.3229329166667" r="3.5" stroke="none" stroke-width="0" fill-opacity="0" fill="#ffffff"></circle><circle cx="367.5897435897436" cy="261.43856354166667" r="3.5" stroke="none" stroke-width="0" fill-opacity="0" fill="#ffffff"></circle><circle cx="377.1025641025641" cy="260.2806822916667" r="3.5" stroke="none" stroke-width="0" fill-opacity="0" fill="#ffffff"></circle><circle cx="386.61538461538464" cy="258.8492891666667" r="3.5" stroke="none" stroke-width="0" fill-opacity="0" fill="#ffffff"></circle><circle cx="396.12820512820514" cy="257.14438416666667" r="3.5" stroke="none" stroke-width="0" fill-opacity="0" fill="#ffffff"></circle><circle cx="405.64102564102564" cy="255.1659672916667" r="3.5" stroke="none" stroke-width="0" fill-opacity="0" fill="#ffffff"></circle><circle cx="415.15384615384613" cy="252.91403854166668" r="3.5" stroke="none" stroke-width="0" fill-opacity="0" fill="#ffffff"></circle><circle cx="424.6666666666667" cy="250.3885979166667" r="3.5" stroke="none" stroke-width="0" fill-opacity="0" fill="#ffffff"></circle><circle cx="434.1794871794872" cy="247.5896454166667" r="3.5" stroke="none" stroke-width="0" fill-opacity="0" fill="#ffffff"></circle><circle cx="443.6923076923077" cy="244.5171810416667" r="3.5" stroke="none" stroke-width="0" fill-opacity="0" fill="#ffffff"></circle><circle cx="453.2051282051282" cy="241.1712047916667" r="3.5" stroke="none" stroke-width="0" fill-opacity="0" fill="#ffffff"></circle><circle cx="462.71794871794873" cy="237.55171666666672" r="3.5" stroke="none" stroke-width="0" fill-opacity="0" fill="#ffffff"></circle><circle cx="472.2307692307692" cy="233.6587166666667" r="3.5" stroke="none" stroke-width="0" fill-opacity="0" fill="#ffffff"></circle><circle cx="481.7435897435897" cy="229.49220479166672" r="3.5" stroke="none" stroke-width="0" fill-opacity="0" fill="#ffffff"></circle></g><g></g><g><text x="157" y="362" font-family="Arial" font-size="12" stroke="none" stroke-width="0" fill-opacity="1.0" fill="#222222">Résultat net (optimiste)</text></g><rect x="140" y="352" width="12" height="12" stroke="none" stroke-width="0" fill-opacity="1.0" fill="#38761d"></rect><g><text x="321" y="362" font-family="Arial" font-size="12" stroke="none" stroke-width="0" fill-opacity="1.0" fill="#222222">Résultat net (pessimiste)</text></g><rect x="304" y="352" width="12" height="12" stroke="none" stroke-width="0" fill-opacity="1.0" fill="#741b47"></rect><text text-anchor="end" x="124.76602919964368" y="324" font-family="Arial" font-size="12" transform="rotate(330 109.76602919964368 319.69615242270663)" stroke="none" stroke-width="0" fill-opacity="1.0" fill="#222222">0</text><text text-anchor="end" x="153.30449073810522" y="324" font-family="Arial" font-size="12" transform="rotate(330 138.30449073810522 319.69615242270663)" stroke="none" stroke-width="0" fill-opacity="1.0" fill="#222222">3</text><text text-anchor="end" x="181.84295227656676" y="324" font-family="Arial" font-size="12" transform="rotate(330 166.84295227656676 319.69615242270663)" stroke="none" stroke-width="0" fill-opacity="1.0" fill="#222222">6</text><text text-anchor="end" x="210.38141381502828" y="324" font-family="Arial" font-size="12" transform="rotate(330 195.38141381502828 319.69615242270663)" stroke="none" stroke-width="0" fill-opacity="1.0" fill="#222222">9</text><text text-anchor="end" x="238.91987535348983" y="324" font-family="Arial" font-size="12" transform="rotate(330 223.91987535348983 319.69615242270663)" stroke="none" stroke-width="0" fill-opacity="1.0" fill="#222222">12</text><text text-anchor="end" x="267.4583368919514" y="324" font-family="Arial" font-size="12" transform="rotate(330 252.45833689195138 319.69615242270663)" stroke="none" stroke-width="0" fill-opacity="1.0" fill="#222222">15</text><text text-anchor="end" x="295.99679843041287" y="324" font-family="Arial" font-size="12" transform="rotate(330 280.99679843041287 319.69615242270663)" stroke="none" stroke-width="0" fill-opacity="1.0" fill="#222222">18</text><text text-anchor="end" x="324.5352599688744" y="324" font-family="Arial" font-size="12" transform="rotate(330 309.5352599688744 319.69615242270663)" stroke="none" stroke-width="0" fill-opacity="1.0" fill="#222222">21</text><text text-anchor="end" x="353.07372150733596" y="324" font-family="Arial" font-size="12" transform="rotate(330 338.07372150733596 319.69615242270663)" stroke="none" stroke-width="0" fill-opacity="1.0" fill="#222222">24</text><text text-anchor="end" x="381.6121830457975" y="324" font-family="Arial" font-size="12" transform="rotate(330 366.6121830457975 319.69615242270663)" stroke="none" stroke-width="0" fill-opacity="1.0" fill="#222222">27</text><text text-anchor="end" x="410.15064458425906" y="324" font-family="Arial" font-size="12" transform="rotate(330 395.15064458425906 319.69615242270663)" stroke="none" stroke-width="0" fill-opacity="1.0" fill="#222222">30</text><text text-anchor="end" x="438.6891061227206" y="324" font-family="Arial" font-size="12" transform="rotate(330 423.6891061227206 319.69615242270663)" stroke="none" stroke-width="0" fill-opacity="1.0" fill="#222222">33</text><text text-anchor="end" x="467.22756766118215" y="324" font-family="Arial" font-size="12" transform="rotate(330 452.22756766118215 319.69615242270663)" stroke="none" stroke-width="0" fill-opacity="1.0" fill="#222222">36</text><g><text text-anchor="end" x="103" y="304" font-family="Arial" font-size="12" stroke="none" stroke-width="0" fill-opacity="1.0" fill="#444444">-300,000</text></g><g><text text-anchor="end" x="103" y="247" font-family="Arial" font-size="12" stroke="none" stroke-width="0" fill-opacity="1.0" fill="#444444">0</text></g><g><text text-anchor="end" x="103" y="190" font-family="Arial" font-size="12" stroke="none" stroke-width="0" fill-opacity="1.0" fill="#444444">300,000</text></g><g><text text-anchor="end" x="103" y="132" font-family="Arial" font-size="12" stroke="none" stroke-width="0" fill-opacity="1.0" fill="#444444">600,000</text></g><g><text text-anchor="end" x="103" y="75" font-family="Arial" font-size="12" stroke="none" stroke-width="0" fill-opacity="1.0" fill="#444444">900,000</text></g></g><g></g></svg>