<svg id="chart" width="600" height="371"><defs id="defs"></defs><g><rect x="0.5" y="0.5" width="599" height="370" stroke="none" stroke-width="0" fill-opacity="1.0" fill="#ffffff"></rect><g><text x="115" y="50" font-family="Arial" font-size="12" font-weight="bold" stroke="none" stroke-width="0" fill-opacity="1.0" fill="#000000">Trésorerie mensuelle</text></g><g><text text-anchor="middle" x="301" y="352" font-family="Arial" font-size="12" font-style="italic" stroke="none" stroke-width="0" fill-opacity="1.0" fill="#222222">Mois</text></g><g><text text-anchor="middle" x="130" y="304" font-family="Arial" font-size="12" font-style="italic" transform="rotate(270 15 300)" stroke="none" stroke-width="0" fill-opacity="1.0" fill="#222222">€</text></g><rect x="115" y="300" width="371" height="1" stroke="none" stroke-width="0" fill-opacity="1.0" fill="#cccccc"></rect><rect x="115" y="242" width="371" height="1" stroke="none" stroke-width="0" fill-opacity="1.0" fill="#cccccc"></rect><rect x="115" y="185" width="371" height="1" stroke="none" stroke-width="0" fill-opacity="1.0" fill="#cccccc"></rect><rect x="115" y="128" width="371" height="1" stroke="none" stroke-width="0" fill-opacity="1.0" fill="#cccccc"></rect><rect x="115" y="71" width="371" height="1" stroke="none" stroke-width="0" fill-opacity="1.0" fill="#cccccc"></rect><rect x="115" y="242" width="371" height="1" stroke="none" stroke-width="0" fill-opacity="1.0" fill="#333333"></rect><g><rect x="115" y="71" width="371" height="229" stroke="none" stroke-width="0" fill-opacity="1" fill="none"></rect><g><path d="M486,242.75L115,242.75L115,242.32902166666668L115,242.32902166666668L125.6,225.36789240000002L125.6,225.36789240000002L136.2,227.49439021666666L136.2,227.49439021666666L146.8,229.51068178333333L146.8,229.51068178333333L157.4,231.41676710000002L157.4,231.41676710000002L168,233.21264616666667L168,233.21264616666667L178.6,234.89831898333335L178.6,234.89831898333335L189.2,236.36357930000003L189.2,236.36357930000003L199.8,237.68476045L199.8,237.68476045L210.39999999999998,238.67532285L210.39999999999998,238.67532285L221,239.3352665L221,239.3352665L231.6,239.64550806666665L231.6,239.64550806666665L242.2,239.4609188L242.2,239.4609188L252.79999999999998,238.83550453333334L252.79999999999998,238.83550453333334L263.4,237.76926526666668L263.4,237.76926526666668L274,236.262201L274,236.262201L284.6,234.31431173333334L284.6,234.31431173333334L295.2,231.92559746666666L295.2,231.92559746666666L305.79999999999995,229.09605820000002L305.79999999999995,229.09605820000002L316.4,225.82569393333335L316.4,225.82569393333335L327,222.11450466666668L327,222.11450466666668L337.6,217.9624904L337.6,217.9624904L348.2,213.82765113333335L348.2,213.82765113333335L358.79999999999995,209.2519868666667L358.79999999999995,209.2519868666667L369.4,204.2354976L369.4,204.2354976L380,198.77818333333335L380,198.77818333333335L390.59999999999997,192.8800440666667L390.59999999999997,192.8800440666667L401.2,186.54107980000003L401.2,186.54107980000003L411.8,179.76129053333335L411.8,179.76129053333335L422.4,172.54067626666665L422.4,172.54067626666665L433,164.879237L433,164.879237L443.59999999999997,156.77697273333334L443.59999999999997,156.77697273333334L454.2,148.23388346666667L454.2,148.23388346666667L464.8,139.24996919999998L464.8,139.24996919999998L475.4,129.8693124333333L475.4,129.8693124333333L486,120.09191316666664L486,120.09191316666664Z" stroke="none" stroke-width="0" fill-opacity="0.3" fill="#38761d"></path><path d="M486,242.75L115,242.75L115,242.32902166666668L115,242.32902166666668L125.6,225.36789240000002L125.6,225.36789240000002L136.2,227.60459646666666L136.2,227.60459646666666L146.8,229.84130053333334L146.8,229.84130053333334L157.4,232.03392209999998L157.4,232.03392209999998L168,234.18246116666666L168,234.18246116666666L178.6,236.28691773333333L178.6,236.28691773333333L189.2,238.3472918L189.2,238.3472918L199.8,240.4399167L199.8,240.4399167L210.39999999999998,242.4443766L210.39999999999998,242.4443766L221,244.3606715L221,244.3606715L231.6,246.12563556666666L231.6,246.12563556666666L242.2,247.7043463L242.2,247.7043463L252.79999999999998,249.15080953333333L252.79999999999998,249.15080953333333L263.4,250.46502526666666L263.4,250.46502526666666L274,251.6469935L274,251.6469935L284.6,252.69671423333335L284.6,252.69671423333335L295.2,253.61418746666666L295.2,253.61418746666666L305.79999999999995,254.3553307L305.79999999999995,254.3553307L316.4,254.92014393333335L316.4,254.92014393333335L327,255.30862716666667L327,255.30862716666667L337.6,255.4766979L337.6,255.4766979L348.2,255.88235613333333L348.2,255.88235613333333L358.79999999999995,256.00147811666665L358.79999999999995,256.00147811666665L369.4,255.83406385L369.4,255.83406385L380,255.38011333333333L380,255.38011333333333L390.59999999999997,254.63962656666666L390.59999999999997,254.63962656666666L401.2,253.61260355000002L401.2,253.61260355000002L411.8,252.29904428333333L411.8,252.29904428333333L422.4,250.69894876666666L422.4,250.69894876666666L433,248.812317L433,248.812317L443.59999999999997,246.63914898333334L443.59999999999997,246.63914898333334L454.2,244.17944471666667L454.2,244.17944471666667L464.8,241.4332042L464.8,241.4332042L475.4,238.40042743333333L475.4,238.40042743333333L486,235.08111441666668L486,235.08111441666668Z" stroke="none" stroke-width="0" fill-opacity="0.3" fill="#741b47"></path></g><g></g><g><path d="M115,242.32902166666668L125.6,225.36789240000002L136.2,227.49439021666666L146.8,229.51068178333333L157.4,231.41676710000002L168,233.21264616666667L178.6,234.89831898333335L189.2,236.36357930000003L199.8,237.68476045L210.39999999999998,238.67532285L221,239.3352665L231.6,239.64550806666665L242.2,239.4609188L252.79999999999998,238.83550453333334L263.4,237.76926526666668L274,236.262201L284.6,234.31431173333334L295.2,231.92559746666666L305.79999999999995,229.09605820000002L316.4,225.82569393333335L327,222.11450466666668L337.6,217.9624904L348.2,213.82765113333335L358.79999999999995,209.2519868666667L369.4,204.2354976L380,198.77818333333335L390.59999999999997,192.8800440666667L401.2,186.54107980000003L411.8,179.76129053333335L422.4,172.54067626666665L433,164.879237L443.59999999999997,156.77697273333334L454.2,148.23388346666667L464.8,139.24996919999998L475.4,129.8693124333333L486,120.09191316666664" stroke="#38761d" stroke-width="2" fill-opacity="1" fill="none"></path><path d="M115,242.32902166666668L125.6,225.36789240000002L136.2,227.60459646666666L146.8,229.84130053333334L157.4,232.03392209999998L168,234.18246116666666L178.6,236.28691773333333L189.2,238.3472918L199.8,240.4399167L210.39999999999998,242.4443766L221,244.3606715L231.6,246.12563556666666L242.2,247.7043463L252.79999999999998,249.15080953333333L263.4,250.46502526666666L274,251.6469935L284.6,252.69671423333335L295.2,253.61418746666666L305.79999999999995,254.3553307L316.4,254.92014393333335L327,255.30862716666667L337.6,255.4766979L348.2,255.88235613333333L358.79999999999995,256.00147811666665L369.4,255.83406385L380,255.38011333333333L390.59999999999997,254.63962656666666L401.2,253.61260355000002L411.8,252.29904428333333L422.4,250.69894876666666L433,248.812317L443.59999999999997,246.63914898333334L454.2,244.17944471666667L464.8,241.4332042L475.4,238.40042743333333L486,235.08111441666668" stroke="#741b47" stroke-width="2" fill-opacity="1" fill="none"></path></g><g><circle cx="115.5" cy="242.82902166666668" r="12" stroke="none" stroke-width="0" fill-opacity="0" fill="#ffffff"></circle><circle cx="126.1" cy="225.86789240000002" r="12" stroke="none" stroke-width="0" fill-opacity="0" fill="#ffffff"></circle><circle cx="136.7" cy="227.99439021666666" r="12" stroke="none" stroke-width="0" fill-opacity="0" fill="#ffffff"></circle><circle cx="147.3" cy="230.01068178333333" r="12" stroke="none" stroke-width="0" fill-opacity="0" fill="#ffffff"></circle><circle cx="157.9" cy="231.91676710000002" r="12" stroke="none" stroke-width="0" fill-opacity="0" fill="#ffffff"></circle><circle cx="168.5" cy="233.71264616666667" r="12" stroke="none" stroke-width="0" fill-opacity="0" fill="#ffffff"></circle><circle cx="179.1" cy="235.39831898333335" r="12" stroke="none" stroke-width="0" fill-opacity="0" fill="#ffffff"></circle><circle cx="189.7" cy="236.86357930000003" r="12" stroke="none" stroke-width="0" fill-opacity="0" fill="#ffffff"></circle><circle cx="200.3" cy="238.18476045" r="12" stroke="none" stroke-width="0" fill-opacity="0" fill="#ffffff"></circle><circle cx="210.89999999999998" cy="239.17532285" r="12" stroke="none" stroke-width="0" fill-opacity="0" fill="#ffffff"></circle><circle cx="221.5" cy="239.8352665" r="12" stroke="none" stroke-width="0" fill-opacity="0" fill="#ffffff"></circle><circle cx="232.1" cy="240.14550806666665" r="12" stroke="none" stroke-width="0" fill-opacity="0" fill="#ffffff"></circle><circle cx="242.7" cy="239.9609188" r="12" stroke="none" stroke-width="0" fill-opacity="0" fill="#ffffff"></circle><circle cx="253.29999999999998" cy="239.33550453333334" r="12" stroke="none" stroke-width="0" fill-opacity="0" fill="#ffffff"></circle><circle cx="263.9" cy="238.26926526666668" r="12" stroke="none" stroke-width="0" fill-opacity="0" fill="#ffffff"></circle><circle cx="274.5" cy="236.762201" r="12" stroke="none" stroke-width="0" fill-opacity="0" fill="#ffffff"></circle><circle cx="285.1" cy="234.81431173333334" r="12" stroke="none" stroke-width="0" fill-opacity="0" fill="#ffffff"></circle><circle cx="295.7" cy="232.42559746666666" r="12" stroke="none" stroke-width="0" fill-opacity="0" fill="#ffffff"></circle><circle cx="306.29999999999995" cy="229.59605820000002" r="12" stroke="none" stroke-width="0" fill-opacity="0" fill="#ffffff"></circle><circle cx="316.9" cy="226.32569393333335" r="12" stroke="none" stroke-width="0" fill-opacity="0" fill="#ffffff"></circle><circle cx="327.5" cy="222.61450466666668" r="12" stroke="none" stroke-width="0" fill-opacity="0" fill="#ffffff"></circle><circle cx="338.1" cy="218.4624904" r="12" stroke="none" stroke-width="0" fill-opacity="0" fill="#ffffff"></circle><circle cx="348.7" cy="214.32765113333335" r="12" stroke="none" stroke-width="0" fill-opacity="0" fill="#ffffff"></circle><circle cx="359.29999999999995" cy="209.7519868666667" r="12" stroke="none" stroke-width="0" fill-opacity="0" fill="#ffffff"></circle><circle cx="369.9" cy="204.7354976" r="12" stroke="none" stroke-width="0" fill-opacity="0" fill="#ffffff"></circle><circle cx="380.5" cy="199.27818333333335" r="12" stroke="none" stroke-width="0" fill-opacity="0" fill="#ffffff"></circle><circle cx="391.09999999999997" cy="193.3800440666667" r="12" stroke="none" stroke-width="0" fill-opacity="0" fill="#ffffff"></circle><circle cx="401.7" cy="187.04107980000003" r="12" stroke="none" stroke-width="0" fill-opacity="0" fill="#ffffff"></circle><circle cx="412.3" cy="180.26129053333335" r="12" stroke="none" stroke-width="0" fill-opacity="0" fill="#ffffff"></circle><circle cx="422.9" cy="173.04067626666665" r="12" stroke="none" stroke-width="0" fill-opacity="0" fill="#ffffff"></circle><circle cx="433.5" cy="165.379237" r="12" stroke="none" stroke-width="0" fill-opacity="0" fill="#ffffff"></circle><circle cx="444.09999999999997" cy="157.27697273333334" r="12" stroke="none" stroke-width="0" fill-opacity="0" fill="#ffffff"></circle><circle cx="454.7" cy="148.73388346666667" r="12" stroke="none" stroke-width="0" fill-opacity="0" fill="#ffffff"></circle><circle cx="465.3" cy="139.74996919999998" r="12" stroke="none" stroke-width="0" fill-opacity="0" fill="#ffffff"></circle><circle cx="475.9" cy="130.3693124333333" r="12" stroke="none" stroke-width="0" fill-opacity="0" fill="#ffffff"></circle><circle cx="486.5" cy="120.59191316666664" r="12" stroke="none" stroke-width="0" fill-opacity="0" fill="#ffffff"></circle><circle cx="115.5" cy="242.82902166666668" r="12" stroke="none" stroke-width="0" fill-opacity="0" fill="#ffffff"></circle><circle cx="126.1" cy="225.86789240000002" r="12" stroke="none" stroke-width="0" fill-opacity="0" fill="#ffffff"></circle><circle cx="136.7" cy="228.10459646666666" r="12" stroke="none" stroke-width="0" fill-opacity="0" fill="#ffffff"></circle><circle cx="147.3" cy="230.34130053333334" r="12" stroke="none" stroke-width="0" fill-opacity="0" fill="#ffffff"></circle><circle cx="157.9" cy="232.53392209999998" r="12" stroke="none" stroke-width="0" fill-opacity="0" fill="#ffffff"></circle><circle cx="168.5" cy="234.68246116666666" r="12" stroke="none" stroke-width="0" fill-opacity="0" fill="#ffffff"></circle><circle cx="179.1" cy="236.78691773333333" r="12" stroke="none" stroke-width="0" fill-opacity="0" fill="#ffffff"></circle><circle cx="189.7" cy="238.8472918" r="12" stroke="none" stroke-width="0" fill-opacity="0" fill="#ffffff"></circle><circle cx="200.3" cy="240.9399167" r="12" stroke="none" stroke-width="0" fill-opacity="0" fill="#ffffff"></circle><circle cx="210.89999999999998" cy="242.9443766" r="12" stroke="none" stroke-width="0" fill-opacity="0" fill="#ffffff"></circle><circle cx="221.5" cy="244.8606715" r="12" stroke="none" stroke-width="0" fill-opacity="0" fill="#ffffff"></circle><circle cx="232.1" cy="246.62563556666666" r="12" stroke="none" stroke-width="0" fill-opacity="0" fill="#ffffff"></circle><circle cx="242.7" cy="248.2043463" r="12" stroke="none" stroke-width="0" fill-opacity="0" fill="#ffffff"></circle><circle cx="253.29999999999998" cy="249.65080953333333" r="12" stroke="none" stroke-width="0" fill-opacity="0" fill="#ffffff"></circle><circle cx="263.9" cy="250.96502526666666" r="12" stroke="none" stroke-width="0" fill-opacity="0" fill="#ffffff"></circle><circle cx="274.5" cy="252.1469935" r="12" stroke="none" stroke-width="0" fill-opacity="0" fill="#ffffff"></circle><circle cx="285.1" cy="253.19671423333335" r="12" stroke="none" stroke-width="0" fill-opacity="0" fill="#ffffff"></circle><circle cx="295.7" cy="254.11418746666666" r="12" stroke="none" stroke-width="0" fill-opacity="0" fill="#ffffff"></circle><circle cx="306.29999999999995" cy="254.8553307" r="12" stroke="none" stroke-width="0" fill-opacity="0" fill="#ffffff"></circle><circle cx="316.9" cy="255.42014393333335" r="12" stroke="none" stroke-width="0" fill-opacity="0" fill="#ffffff"></circle><circle cx="327.5" cy="255.80862716666667" r="12" stroke="none" stroke-width="0" fill-opacity="0" fill="#ffffff"></circle><circle cx="338.1" cy="255.9766979" r="12" stroke="none" stroke-width="0" fill-opacity="0" fill="#ffffff"></circle><circle cx="348.7" cy="256.38235613333336" r="12" stroke="none" stroke-width="0" fill-opacity="0" fill="#ffffff"></circle><circle cx="359.29999999999995" cy="256.50147811666665" r="12" stroke="none" stroke-width="0" fill-opacity="0" fill="#ffffff"></circle><circle cx="369.9" cy="256.33406385" r="12" stroke="none" stroke-width="0" fill-opacity="0" fill="#ffffff"></circle><circle cx="380.5" cy="255.88011333333333" r="12" stroke="none" stroke-width="0" fill-opacity="0" fill="#ffffff"></circle><circle cx="391.09999999999997" cy="255.13962656666666" r="12" stroke="none" stroke-width="0" fill-opacity="0" fill="#ffffff"></circle><circle cx="401.7" cy="254.11260355000002" r="12" stroke="none" stroke-width="0" fill-opacity="0" fill="#ffffff"></circle><circle cx="412.3" cy="252.79904428333333" r="12" stroke="none" stroke-width="0" fill-opacity="0" fill="#ffffff"></circle><circle cx="422.9" cy="251.19894876666666" r="12" stroke="none" stroke-width="0" fill-opacity="0" fill="#ffffff"></circle><circle cx="433.5" cy="249.312317" r="12" stroke="none" stroke-width="0" fill-opacity="0" fill="#ffffff"></circle><circle cx="444.09999999999997" cy="247.13914898333334" r="12" stroke="none" stroke-width="0" fill-opacity="0" fill="#ffffff"></circle><circle cx="454.7" cy="244.67944471666667" r="12" stroke="none" stroke-width="0" fill-opacity="0" fill="#ffffff"></circle><circle cx="465.3" cy="241.9332042" r="12" stroke="none" stroke-width="0" fill-opacity="0" fill="#ffffff"></circle><circle cx="475.9" cy="238.90042743333333" r="12" stroke="none" stroke-width="0" fill-opacity="0" fill="#ffffff"></circle><circle cx="486.5" cy="235.58111441666668" r="12" stroke="none" stroke-width="0" fill-opacity="0" fill="#ffffff"></circle></g><g><circle cx="115.5" cy="242.82902166666668" r="3.5" stroke="none" stroke-width="0" fill-opacity="0" fill="#ffffff"></circle><circle cx="126.1" cy="225.86789240000002" r="3.5" stroke="none" stroke-width="0" fill-opacity="0" fill="#ffffff"></circle><circle cx="136.7" cy="227.99439021666666" r="3.5" stroke="none" stroke-width="0" fill-opacity="0" fill="#ffffff"></circle><circle cx="147.3" cy="230.01068178333333" r="3.5" stroke="none" stroke-width="0" fill-opacity="0" fill="#ffffff"></circle><circle cx="157.9" cy="231.91676710000002" r="3.5" stroke="none" stroke-width="0" fill-opacity="0" fill="#ffffff"></circle><circle cx="168.5" cy="233.71264616666667" r="3.5" stroke="none" stroke-width="0" fill-opacity="0" fill="#ffffff"></circle><circle cx="179.1" cy="235.39831898333335" r="3.5" stroke="none" stroke-width="0" fill-opacity="0" fill="#ffffff"></circle><circle cx="189.7" cy="236.86357930000003" r="3.5" stroke="none" stroke-width="0" fill-opacity="0" fill="#ffffff"></circle><circle cx="200.3" cy="238.18476045" r="3.5" stroke="none" stroke-width="0" fill-opacity="0" fill="#ffffff"></circle><circle cx="210.89999999999998" cy="239.17532285" r="3.5" stroke="none" stroke-width="0" fill-opacity="0" fill="#ffffff"></circle><circle cx="221.5" cy="239.8352665" r="3.5" stroke="none" stroke-width="0" fill-opacity="0" fill="#ffffff"></circle><circle cx="232.1" cy="240.14550806666665" r="3.5" stroke="none" stroke-width="0" fill-opacity="0" fill="#ffffff"></circle><circle cx="242.7" cy="239.9609188" r="3.5" stroke="none" stroke-width="0" fill-opacity="0" fill="#ffffff"></circle><circle cx="253.29999999999998" cy="239.33550453333334" r="3.5" stroke="none" stroke-width="0" fill-opacity="0" fill="#ffffff"></circle><circle cx="263.9" cy="238.26926526666668" r="3.5" stroke="none" stroke-width="0" fill-opacity="0" fill="#ffffff"></circle><circle cx="274.5" cy="236.762201" r="3.5" stroke="none" stroke-width="0" fill-opacity="0" fill="#ffffff"></circle><circle cx="285.1" cy="234.81431173333334" r="3.5" stroke="none" stroke-width="0" fill-opacity="0" fill="#ffffff"></circle><circle cx="295.7" cy="232.42559746666666" r="3.5" stroke="none" stroke-width="0" fill-opacity="0" fill="#ffffff"></circle><circle cx="306.29999999999995" cy="229.59605820000002" r="3.5" stroke="none" stroke-width="0" fill-opacity="0" fill="#ffffff"></circle><circle cx="316.9" cy="226.32569393333335" r="3.5" stroke="none" stroke-width="0" fill-opacity="0" fill="#ffffff"></circle><circle cx="327.5" cy="222.61450466666668" r="3.5" stroke="none" stroke-width="0" fill-opacity="0" fill="#ffffff"></circle><circle cx="338.1" cy="218.4624904" r="3.5" stroke="none" stroke-width="0" fill-opacity="0" fill="#ffffff"></circle><circle cx="348.7" cy="214.32765113333335" r="3.5" stroke="none" stroke-width="0" fill-opacity="0" fill="#ffffff"></circle><circle cx="359.29999999999995" cy="209.7519868666667" r="3.5" stroke="none" stroke-width="0" fill-opacity="0" fill="#ffffff"></circle><circle cx="369.9" cy="204.7354976" r="3.5" stroke="none" stroke-width="0" fill-opacity="0" fill="#ffffff"></circle><circle cx="380.5" cy="199.27818333333335" r="3.5" stroke="none" stroke-width="0" fill-opacity="0" fill="#ffffff"></circle><circle cx="391.09999999999997" cy="193.3800440666667" r="3.5" stroke="none" stroke-width="0" fill-opacity="0" fill="#ffffff"></circle><circle cx="401.7" cy="187.04107980000003" r="3.5" stroke="none" stroke-width="0" fill-opacity="0" fill="#ffffff"></circle><circle cx="412.3" cy="180.26129053333335" r="3.5" stroke="none" stroke-width="0" fill-opacity="0" fill="#ffffff"></circle><circle cx="422.9" cy="173.04067626666665" r="3.5" stroke="none" stroke-width="0" fill-opacity="0" fill="#ffffff"></circle><circle cx="433.5" cy="165.379237" r="3.5" stroke="none" stroke-width="0" fill-opacity="0" fill="#ffffff"></circle><circle cx="444.09999999999997" cy="157.27697273333334" r="3.5" stroke="none" stroke-width="0" fill-opacity="0" fill="#ffffff"></circle><circle cx="454.7" cy="148.73388346666667" r="3.5" stroke="none" stroke-width="0" fill-opacity="0" fill="#ffffff"></circle><circle cx="465.3" cy="139.74996919999998" r="3.5" stroke="none" stroke-width="0" fill-opacity="0" fill="#ffffff"></circle><circle cx="475.9" cy="130.3693124333333" r="3.5" stroke="none" stroke-width="0" fill-opacity="0" fill="#ffffff"></circle><circle cx="486.5" cy="120.59191316666664" r="3.5" stroke="none" stroke-width="0" fill-opacity="0" fill="#ffffff"></circle><circle cx="115.5" cy="242.82902166666668" r="3.5" stroke="none" stroke-width="0" fill-opacity="0" fill="#ffffff"></circle><circle cx="126.1" cy="225.86789240000002" r="3.5" stroke="none" stroke-width="0" fill-opacity="0" fill="#ffffff"></circle><circle cx="136.7" cy="228.10459646666666" r="3.5" stroke="none" stroke-width="0" fill-opacity="0" fill="#ffffff"></circle><circle cx="147.3" cy="230.34130053333334" r="3.5" stroke="none" stroke-width="0" fill-opacity="0" fill="#ffffff"></circle><circle cx="157.9" cy="232.53392209999998" r="3.5" stroke="none" stroke-width="0" fill-opacity="0" fill="#ffffff"></circle><circle cx="168.5" cy="234.68246116666666" r="3.5" stroke="none" stroke-width="0" fill-opacity="0" fill="#ffffff"></circle><circle cx="179.1" cy="236.78691773333333" r="3.5" stroke="none" stroke-width="0" fill-opacity="0" fill="#ffffff"></circle><circle cx="189.7" cy="238.8472918" r="3.5" stroke="none" stroke-width="0" fill-opacity="0" fill="#ffffff"></circle><circle cx="200.3" cy="240.9399167" r="3.5" stroke="none" stroke-width="0" fill-opacity="0" fill="#ffffff"></circle><circle cx="210.89999999999998" cy="242.9443766" r="3.5" stroke="none" stroke-width="0" fill-opacity="0" fill="#ffffff"></circle><circle cx="221.5" cy="244.8606715" r="3.5" stroke="none" stroke-width="0" fill-opacity="0" fill="#ffffff"></circle><circle cx="232.1" cy="246.62563556666666" r="3.5" stroke="none" stroke-width="0" fill-opacity="0" fill="#ffffff"></circle><circle cx="242.7" cy="248.2043463" r="3.5" stroke="none" stroke-width="0" fill-opacity="0" fill="#ffffff"></circle><circle cx="253.29999999999998" cy="249.65080953333333" r="3.5" stroke="none" stroke-width="0" fill-opacity="0" fill="#ffffff"></circle><circle cx="263.9" cy="250.96502526666666" r="3.5" stroke="none" stroke-width="0" fill-opacity="0" fill="#ffffff"></circle><circle cx="274.5" cy="252.1469935" r="3.5" stroke="none" stroke-width="0" fill-opacity="0" fill="#ffffff"></circle><circle cx="285.1" cy="253.19671423333335" r="3.5" stroke="none" stroke-width="0" fill-opacity="0" fill="#ffffff"></circle><circle cx="295.7" cy="254.11418746666666" r="3.5" stroke="none" stroke-width="0" fill-opacity="0" fill="#ffffff"></circle><circle cx="306.29999999999995" cy="254.8553307" r="3.5" stroke="none" stroke-width="0" fill-opacity="0" fill="#ffffff"></circle><circle cx="316.9" cy="255.42014393333335" r="3.5" stroke="none" stroke-width="0" fill-opacity="0" fill="#ffffff"></circle><circle cx="327.5" cy="255.80862716666667" r="3.5" stroke="none" stroke-width="0" fill-opacity="0" fill="#ffffff"></circle><circle cx="338.1" cy="255.9766979" r="3.5" stroke="none" stroke-width="0" fill-opacity="0" fill="#ffffff"></circle><circle cx="348.7" cy="256.38235613333336" r="3.5" stroke="none" stroke-width="0" fill-opacity="0" fill="#ffffff"></circle><circle cx="359.29999999999995" cy="256.50147811666665" r="3.5" stroke="none" stroke-width="0" fill-opacity="0" fill="#ffffff"></circle><circle cx="369.9" cy="256.33406385" r="3.5" stroke="none" stroke-width="0" fill-opacity="0" fill="#ffffff"></circle><circle cx="380.5" cy="255.88011333333333" r="3.5" stroke="none" stroke-width="0" fill-opacity="0" fill="#ffffff"></circle><circle cx="391.09999999999997" cy="255.13962656666666" r="3.5" stroke="none" stroke-width="0" fill-opacity="0" fill="#ffffff"></circle><circle cx="401.7" cy="254.11260355000002" r="3.5" stroke="none" stroke-width="0" fill-opacity="0" fill="#ffffff"></circle><circle cx="412.3" cy="252.79904428333333" r="3.5" stroke="none" stroke-width="0" fill-opacity="0" fill="#ffffff"></circle><circle cx="422.9" cy="251.19894876666666" r="3.5" stroke="none" stroke-width="0" fill-opacity="0" fill="#ffffff"></circle><circle cx="433.5" cy="249.312317" r="3.5" stroke="none" stroke-width="0" fill-opacity="0" fill="#ffffff"></circle><circle cx="444.09999999999997" cy="247.13914898333334" r="3.5" stroke="none" stroke-width="0" fill-opacity="0" fill="#ffffff"></circle><circle cx="454.7" cy="244.67944471666667" r="3.5" stroke="none" stroke-width="0" fill-opacity="0" fill="#ffffff"></circle><circle cx="465.3" cy="241.9332042" r="3.5" stroke="none" stroke-width="0" fill-opacity="0" fill="#ffffff"></circle><circle cx="475.9" cy="238.90042743333333" r="3.5" stroke="none" stroke-width="0" fill-opacity="0" fill="#ffffff"></circle><circle cx="486.5" cy="235.58111441666668" r="3.5" stroke="none" stroke-width="0" fill-opacity="0" fill="#ffffff"></circle></g><g></g></g><g><text x="515" y="81" font-family="Arial" font-size="12" stroke="none" stroke-width="0" fill-opacity="1.0" fill="#222222">Solde</text><text x="515" y="97" font-family="Arial" font-size="12" stroke="none" stroke-width="0" fill-opacity="1.0" fill="#222222">(optimiste)</text></g><rect x="498" y="71" width="12" height="12" stroke="none" stroke-width="0" fill-opacity="1.0" fill="#38761d"></rect><g><text x="515" y="116" font-family="Arial" font-size="12" stroke="none" stroke-width="0" fill-opacity="1.0" fill="#222222">Solde</text><text x="515" y="132" font-family="Arial" font-size="12" stroke="none" stroke-width="0" fill-opacity="1.0" fill="#222222">(pessimiste)</text></g><rect x="498" y="106" width="12" height="12" stroke="none" stroke-width="0" fill-opacity="1.0" fill="#741b47"></rect><text text-anchor="end" x="120.00961894323342" y="324" font-family="Arial" font-size="12" transform="rotate(330 105.00961894323342 319.69615242270663)" stroke="none" stroke-width="0" fill-opacity="1.0" fill="#222222">1</text><text text-anchor="end" x="151.80961894323343" y="324" font-family="Arial" font-size="12" transform="rotate(330 136.80961894323343 319.69615242270663)" stroke="none" stroke-width="0" fill-opacity="1.0" fill="#222222">4</text><text text-anchor="end" x="183.60961894323341" y="324" font-family="Arial" font-size="12" transform="rotate(330 168.60961894323341 319.69615242270663)" stroke="none" stroke-width="0" fill-opacity="1.0" fill="#222222">7</text><text text-anchor="end" x="215.4096189432334" y="324" font-family="Arial" font-size="12" transform="rotate(330 200.4096189432334 319.69615242270663)" stroke="none" stroke-width="0" fill-opacity="1.0" fill="#222222">10</text><text text-anchor="end" x="247.2096189432334" y="324" font-family="Arial" font-size="12" transform="rotate(330 232.2096189432334 319.69615242270663)" stroke="none" stroke-width="0" fill-opacity="1.0" fill="#222222">13</text><text text-anchor="end" x="279.0096189432334" y="324" font-family="Arial" font-size="12" transform="rotate(330 264.0096189432334 319.69615242270663)" stroke="none" stroke-width="0" fill-opacity="1.0" fill="#222222">16</text><text text-anchor="end" x="310.8096189432334" y="324" font-family="Arial" font-size="12" transform="rotate(330 295.8096189432334 319.69615242270663)" stroke="none" stroke-width="0" fill-opacity="1.0" fill="#222222">19</text><text text-anchor="end" x="342.60961894323344" y="324" font-family="Arial" font-size="12" transform="rotate(330 327.60961894323344 319.69615242270663)" stroke="none" stroke-width="0" fill-opacity="1.0" fill="#222222">22</text><text text-anchor="end" x="374.4096189432334" y="324" font-family="Arial" font-size="12" transform="rotate(330 359.4096189432334 319.69615242270663)" stroke="none" stroke-width="0" fill-opacity="1.0" fill="#222222">25</text><text text-anchor="end" x="406.2096189432334" y="324" font-family="Arial" font-size="12" transform="rotate(330 391.2096189432334 319.69615242270663)" stroke="none" stroke-width="0" fill-opacity="1.0" fill="#222222">28</text><text text-anchor="end" x="438.0096189432334" y="324" font-family="Arial" font-size="12" transform="rotate(330 423.0096189432334 319.69615242270663)" stroke="none" stroke-width="0" fill-opacity="1.0" fill="#222222">31</text><text text-anchor="end" x="469.80961894323343" y="324" font-family="Arial" font-size="12" transform="rotate(330 454.80961894323343 319.69615242270663)" stroke="none" stroke-width="0" fill-opacity="1.0" fill="#222222">34</text><g><text text-anchor="end" x="106" y="304" font-family="Arial" font-size="12" stroke="none" stroke-width="0" fill-opacity="1.0" fill="#444444">€ -300,000.00</text></g><g><text text-anchor="end" x="106" y="247" font-family="Arial" font-size="12" stroke="none" stroke-width="0" fill-opacity="1.0" fill="#444444">€ 0.00</text></g><g><text text-anchor="end" x="106" y="190" font-family="Arial" font-size="12" stroke="none" stroke-width="0" fill-opacity="1.0" fill="#444444">€ 300,000.00</text></g><g><text text-anchor="end" x="106" y="132" font-family="Arial" font-size="12" stroke="none" stroke-width="0" fill-opacity="1.0" fill="#444444">€ 600,000.00</text></g><g><text text-anchor="end" x="106" y="75" font-family="Arial" font-size="12" stroke="none" stroke-width="0" fill-opacity="1.0" fill="#444444">€ 900,000.00</text></g></g><g></g></svg>