<svg id="chart" width="600" height="371"><defs id="defs"></defs><g><rect x="0.5" y="0.5" width="599" height="370" stroke="none" stroke-width="0" fill-opacity="1.0" fill="#ffffff"></rect><g><text x="115" y="50" font-family="Arial" font-size="12" font-weight="bold" stroke="none" stroke-width="0" fill-opacity="1.0" fill="#000000">Évolution des ventes mensuelles</text></g><rect x="115" y="71" width="371" height="229" stroke="none" stroke-width="0" fill-opacity="1" fill="none"></rect><g><text text-anchor="middle" x="301" y="352" font-family="Arial" font-size="12" font-style="italic" stroke="none" stroke-width="0" fill-opacity="1.0" fill="#222222">Mois</text></g><g><text text-anchor="middle" x="151" y="304" font-family="Arial" font-size="12" font-style="italic" transform="rotate(270 36 300)" stroke="none" stroke-width="0" fill-opacity="1.0" fill="#222222">Nombre de ventes</text></g><rect x="115" y="300" width="371" height="1" stroke="none" stroke-width="0" fill-opacity="1.0" fill="#cccccc"></rect><rect x="115" y="242" width="371" height="1" stroke="none" stroke-width="0" fill-opacity="1.0" fill="#cccccc"></rect><rect x="115" y="185" width="371" height="1" stroke="none" stroke-width="0" fill-opacity="1.0" fill="#cccccc"></rect><rect x="115" y="128" width="371" height="1" stroke="none" stroke-width="0" fill-opacity="1.0" fill="#cccccc"></rect><rect x="115" y="71" width="371" height="1" stroke="none" stroke-width="0" fill-opacity="1.0" fill="#cccccc"></rect><rect x="115" y="300" width="371" height="1" stroke="none" stroke-width="0" fill-opacity="1.0" fill="#333333"></rect><g></g><g></g><g><path d="M118.78571428571429,300L126.35714285714286,300L133.92857142857142,300L141.5,298.56875L149.07142857142856,297.1375L156.64285714285714,295.70625L164.21428571428572,294.275L171.78571428571428,292.84375L179.35714285714286,291.4125L186.92857142857144,289.98125L194.5,288.55L202.07142857142856,285.6875L209.64285714285714,282.825L217.21428571428572,279.9625L224.78571428571428,277.1L232.35714285714283,271.375L239.92857142857144,265.65L247.5,259.925L255.07142857142856,254.2L262.6428571428571,248.475L270.2142857142857,242.75L277.7857142857143,237.025L285.3571428571429,231.3L292.92857142857144,225.575L300.5,219.85L308.07142857142856,214.125L315.6428571428571,208.39999999999998L323.21428571428567,202.675L330.7857142857143,196.95L338.3571428571429,191.225L345.92857142857144,185.5L353.5,179.77499999999998L361.07142857142856,174.05L368.6428571428571,168.325L376.2142857142857,162.6L383.7857142857143,156.875L391.35714285714283,151.15L398.92857142857144,145.42499999999998L406.5,139.7L414.07142857142856,133.975L421.6428571428571,128.25L429.2142857142857,122.525L436.7857142857143,116.79999999999998L444.35714285714283,111.07499999999999L451.92857142857144,108.2125L459.5,105.35L467.07142857142856,102.48749999999998L474.6428571428571,99.625L482.2142857142857,96.76249999999999" stroke="#38761d" stroke-width="2" fill-opacity="1" fill="none"></path><path d="M118.78571428571429,300L126.35714285714286,300L133.92857142857142,300L141.5,300L149.07142857142856,300L156.64285714285714,299.4275L164.21428571428572,298.855L171.78571428571428,298.2825L179.35714285714286,297.71L186.92857142857144,297.1375L194.5,296.27875L202.07142857142856,295.42L209.64285714285714,294.275L217.21428571428572,293.13L224.78571428571428,291.4125L232.35714285714283,289.98125L239.92857142857144,288.55L247.5,287.11875L255.07142857142856,285.6875L262.6428571428571,282.825L270.2142857142857,279.9625L277.7857142857143,277.1L285.3571428571429,274.2375L292.92857142857144,271.375L300.5,267.08125L308.07142857142856,262.7875L315.6428571428571,258.49375L323.21428571428567,254.2L330.7857142857143,251.3375L338.3571428571429,248.475L345.92857142857144,245.6125L353.5,242.75L361.07142857142856,239.8875L368.6428571428571,237.025L376.2142857142857,234.1625L383.7857142857143,231.3L391.35714285714283,228.4375L398.92857142857144,225.575L406.5,222.71249999999998L414.07142857142856,219.85L421.6428571428571,217.56L429.2142857142857,215.26999999999998L436.7857142857143,213.5525L444.35714285714283,212.12125L451.92857142857144,210.97625L459.5,210.1175L467.07142857142856,209.54500000000002L474.6428571428571,208.9725L482.2142857142857,208.39999999999998" stroke="#741b47" stroke-width="2" fill-opacity="1" fill="none"></path></g><g><circle cx="119.28571428571429" cy="300.5" r="12" stroke="none" stroke-width="0" fill-opacity="0" fill="#ffffff"></circle><circle cx="126.85714285714286" cy="300.5" r="12" stroke="none" stroke-width="0" fill-opacity="0" fill="#ffffff"></circle><circle cx="134.42857142857142" cy="300.5" r="12" stroke="none" stroke-width="0" fill-opacity="0" fill="#ffffff"></circle><circle cx="142" cy="299.06875" r="12" stroke="none" stroke-width="0" fill-opacity="0" fill="#ffffff"></circle><circle cx="149.57142857142856" cy="297.6375" r="12" stroke="none" stroke-width="0" fill-opacity="0" fill="#ffffff"></circle><circle cx="157.14285714285714" cy="296.20625" r="12" stroke="none" stroke-width="0" fill-opacity="0" fill="#ffffff"></circle><circle cx="164.71428571428572" cy="294.775" r="12" stroke="none" stroke-width="0" fill-opacity="0" fill="#ffffff"></circle><circle cx="172.28571428571428" cy="293.34375" r="12" stroke="none" stroke-width="0" fill-opacity="0" fill="#ffffff"></circle><circle cx="179.85714285714286" cy="291.9125" r="12" stroke="none" stroke-width="0" fill-opacity="0" fill="#ffffff"></circle><circle cx="187.42857142857144" cy="290.48125" r="12" stroke="none" stroke-width="0" fill-opacity="0" fill="#ffffff"></circle><circle cx="195" cy="289.05" r="12" stroke="none" stroke-width="0" fill-opacity="0" fill="#ffffff"></circle><circle cx="202.57142857142856" cy="286.1875" r="12" stroke="none" stroke-width="0" fill-opacity="0" fill="#ffffff"></circle><circle cx="210.14285714285714" cy="283.325" r="12" stroke="none" stroke-width="0" fill-opacity="0" fill="#ffffff"></circle><circle cx="217.71428571428572" cy="280.4625" r="12" stroke="none" stroke-width="0" fill-opacity="0" fill="#ffffff"></circle><circle cx="225.28571428571428" cy="277.6" r="12" stroke="none" stroke-width="0" fill-opacity="0" fill="#ffffff"></circle><circle cx="232.85714285714283" cy="271.875" r="12" stroke="none" stroke-width="0" fill-opacity="0" fill="#ffffff"></circle><circle cx="240.42857142857144" cy="266.15" r="12" stroke="none" stroke-width="0" fill-opacity="0" fill="#ffffff"></circle><circle cx="248" cy="260.425" r="12" stroke="none" stroke-width="0" fill-opacity="0" fill="#ffffff"></circle><circle cx="255.57142857142856" cy="254.7" r="12" stroke="none" stroke-width="0" fill-opacity="0" fill="#ffffff"></circle><circle cx="263.1428571428571" cy="248.975" r="12" stroke="none" stroke-width="0" fill-opacity="0" fill="#ffffff"></circle><circle cx="270.7142857142857" cy="243.25" r="12" stroke="none" stroke-width="0" fill-opacity="0" fill="#ffffff"></circle><circle cx="278.2857142857143" cy="237.525" r="12" stroke="none" stroke-width="0" fill-opacity="0" fill="#ffffff"></circle><circle cx="285.8571428571429" cy="231.8" r="12" stroke="none" stroke-width="0" fill-opacity="0" fill="#ffffff"></circle><circle cx="293.42857142857144" cy="226.075" r="12" stroke="none" stroke-width="0" fill-opacity="0" fill="#ffffff"></circle><circle cx="301" cy="220.35" r="12" stroke="none" stroke-width="0" fill-opacity="0" fill="#ffffff"></circle><circle cx="308.57142857142856" cy="214.625" r="12" stroke="none" stroke-width="0" fill-opacity="0" fill="#ffffff"></circle><circle cx="316.1428571428571" cy="208.89999999999998" r="12" stroke="none" stroke-width="0" fill-opacity="0" fill="#ffffff"></circle><circle cx="323.71428571428567" cy="203.175" r="12" stroke="none" stroke-width="0" fill-opacity="0" fill="#ffffff"></circle><circle cx="331.2857142857143" cy="197.45" r="12" stroke="none" stroke-width="0" fill-opacity="0" fill="#ffffff"></circle><circle cx="338.8571428571429" cy="191.725" r="12" stroke="none" stroke-width="0" fill-opacity="0" fill="#ffffff"></circle><circle cx="346.42857142857144" cy="186" r="12" stroke="none" stroke-width="0" fill-opacity="0" fill="#ffffff"></circle><circle cx="354" cy="180.27499999999998" r="12" stroke="none" stroke-width="0" fill-opacity="0" fill="#ffffff"></circle><circle cx="361.57142857142856" cy="174.55" r="12" stroke="none" stroke-width="0" fill-opacity="0" fill="#ffffff"></circle><circle cx="369.1428571428571" cy="168.825" r="12" stroke="none" stroke-width="0" fill-opacity="0" fill="#ffffff"></circle><circle cx="376.7142857142857" cy="163.1" r="12" stroke="none" stroke-width="0" fill-opacity="0" fill="#ffffff"></circle><circle cx="384.2857142857143" cy="157.375" r="12" stroke="none" stroke-width="0" fill-opacity="0" fill="#ffffff"></circle><circle cx="391.85714285714283" cy="151.65" r="12" stroke="none" stroke-width="0" fill-opacity="0" fill="#ffffff"></circle><circle cx="399.42857142857144" cy="145.92499999999998" r="12" stroke="none" stroke-width="0" fill-opacity="0" fill="#ffffff"></circle><circle cx="407" cy="140.2" r="12" stroke="none" stroke-width="0" fill-opacity="0" fill="#ffffff"></circle><circle cx="414.57142857142856" cy="134.475" r="12" stroke="none" stroke-width="0" fill-opacity="0" fill="#ffffff"></circle><circle cx="422.1428571428571" cy="128.75" r="12" stroke="none" stroke-width="0" fill-opacity="0" fill="#ffffff"></circle><circle cx="429.7142857142857" cy="123.025" r="12" stroke="none" stroke-width="0" fill-opacity="0" fill="#ffffff"></circle><circle cx="437.2857142857143" cy="117.29999999999998" r="12" stroke="none" stroke-width="0" fill-opacity="0" fill="#ffffff"></circle><circle cx="444.85714285714283" cy="111.57499999999999" r="12" stroke="none" stroke-width="0" fill-opacity="0" fill="#ffffff"></circle><circle cx="452.42857142857144" cy="108.7125" r="12" stroke="none" stroke-width="0" fill-opacity="0" fill="#ffffff"></circle><circle cx="460" cy="105.85" r="12" stroke="none" stroke-width="0" fill-opacity="0" fill="#ffffff"></circle><circle cx="467.57142857142856" cy="102.98749999999998" r="12" stroke="none" stroke-width="0" fill-opacity="0" fill="#ffffff"></circle><circle cx="475.1428571428571" cy="100.125" r="12" stroke="none" stroke-width="0" fill-opacity="0" fill="#ffffff"></circle><circle cx="482.7142857142857" cy="97.26249999999999" r="12" stroke="none" stroke-width="0" fill-opacity="0" fill="#ffffff"></circle><circle cx="119.28571428571429" cy="300.5" r="12" stroke="none" stroke-width="0" fill-opacity="0" fill="#ffffff"></circle><circle cx="126.85714285714286" cy="300.5" r="12" stroke="none" stroke-width="0" fill-opacity="0" fill="#ffffff"></circle><circle cx="134.42857142857142" cy="300.5" r="12" stroke="none" stroke-width="0" fill-opacity="0" fill="#ffffff"></circle><circle cx="142" cy="300.5" r="12" stroke="none" stroke-width="0" fill-opacity="0" fill="#ffffff"></circle><circle cx="149.57142857142856" cy="300.5" r="12" stroke="none" stroke-width="0" fill-opacity="0" fill="#ffffff"></circle><circle cx="157.14285714285714" cy="299.9275" r="12" stroke="none" stroke-width="0" fill-opacity="0" fill="#ffffff"></circle><circle cx="164.71428571428572" cy="299.355" r="12" stroke="none" stroke-width="0" fill-opacity="0" fill="#ffffff"></circle><circle cx="172.28571428571428" cy="298.7825" r="12" stroke="none" stroke-width="0" fill-opacity="0" fill="#ffffff"></circle><circle cx="179.85714285714286" cy="298.21" r="12" stroke="none" stroke-width="0" fill-opacity="0" fill="#ffffff"></circle><circle cx="187.42857142857144" cy="297.6375" r="12" stroke="none" stroke-width="0" fill-opacity="0" fill="#ffffff"></circle><circle cx="195" cy="296.77875" r="12" stroke="none" stroke-width="0" fill-opacity="0" fill="#ffffff"></circle><circle cx="202.57142857142856" cy="295.92" r="12" stroke="none" stroke-width="0" fill-opacity="0" fill="#ffffff"></circle><circle cx="210.14285714285714" cy="294.775" r="12" stroke="none" stroke-width="0" fill-opacity="0" fill="#ffffff"></circle><circle cx="217.71428571428572" cy="293.63" r="12" stroke="none" stroke-width="0" fill-opacity="0" fill="#ffffff"></circle><circle cx="225.28571428571428" cy="291.9125" r="12" stroke="none" stroke-width="0" fill-opacity="0" fill="#ffffff"></circle><circle cx="232.85714285714283" cy="290.48125" r="12" stroke="none" stroke-width="0" fill-opacity="0" fill="#ffffff"></circle><circle cx="240.42857142857144" cy="289.05" r="12" stroke="none" stroke-width="0" fill-opacity="0" fill="#ffffff"></circle><circle cx="248" cy="287.61875" r="12" stroke="none" stroke-width="0" fill-opacity="0" fill="#ffffff"></circle><circle cx="255.57142857142856" cy="286.1875" r="12" stroke="none" stroke-width="0" fill-opacity="0" fill="#ffffff"></circle><circle cx="263.1428571428571" cy="283.325" r="12" stroke="none" stroke-width="0" fill-opacity="0" fill="#ffffff"></circle><circle cx="270.7142857142857" cy="280.4625" r="12" stroke="none" stroke-width="0" fill-opacity="0" fill="#ffffff"></circle><circle cx="278.2857142857143" cy="277.6" r="12" stroke="none" stroke-width="0" fill-opacity="0" fill="#ffffff"></circle><circle cx="285.8571428571429" cy="274.7375" r="12" stroke="none" stroke-width="0" fill-opacity="0" fill="#ffffff"></circle><circle cx="293.42857142857144" cy="271.875" r="12" stroke="none" stroke-width="0" fill-opacity="0" fill="#ffffff"></circle><circle cx="301" cy="267.58125" r="12" stroke="none" stroke-width="0" fill-opacity="0" fill="#ffffff"></circle><circle cx="308.57142857142856" cy="263.2875" r="12" stroke="none" stroke-width="0" fill-opacity="0" fill="#ffffff"></circle><circle cx="316.1428571428571" cy="258.99375" r="12" stroke="none" stroke-width="0" fill-opacity="0" fill="#ffffff"></circle><circle cx="323.71428571428567" cy="254.7" r="12" stroke="none" stroke-width="0" fill-opacity="0" fill="#ffffff"></circle><circle cx="331.2857142857143" cy="251.8375" r="12" stroke="none" stroke-width="0" fill-opacity="0" fill="#ffffff"></circle><circle cx="338.8571428571429" cy="248.975" r="12" stroke="none" stroke-width="0" fill-opacity="0" fill="#ffffff"></circle><circle cx="346.42857142857144" cy="246.1125" r="12" stroke="none" stroke-width="0" fill-opacity="0" fill="#ffffff"></circle><circle cx="354" cy="243.25" r="12" stroke="none" stroke-width="0" fill-opacity="0" fill="#ffffff"></circle><circle cx="361.57142857142856" cy="240.3875" r="12" stroke="none" stroke-width="0" fill-opacity="0" fill="#ffffff"></circle><circle cx="369.1428571428571" cy="237.525" r="12" stroke="none" stroke-width="0" fill-opacity="0" fill="#ffffff"></circle><circle cx="376.7142857142857" cy="234.6625" r="12" stroke="none" stroke-width="0" fill-opacity="0" fill="#ffffff"></circle><circle cx="384.2857142857143" cy="231.8" r="12" stroke="none" stroke-width="0" fill-opacity="0" fill="#ffffff"></circle><circle cx="391.85714285714283" cy="228.9375" r="12" stroke="none" stroke-width="0" fill-opacity="0" fill="#ffffff"></circle><circle cx="399.42857142857144" cy="226.075" r="12" stroke="none" stroke-width="0" fill-opacity="0" fill="#ffffff"></circle><circle cx="407" cy="223.21249999999998" r="12" stroke="none" stroke-width="0" fill-opacity="0" fill="#ffffff"></circle><circle cx="414.57142857142856" cy="220.35" r="12" stroke="none" stroke-width="0" fill-opacity="0" fill="#ffffff"></circle><circle cx="422.1428571428571" cy="218.06" r="12" stroke="none" stroke-width="0" fill-opacity="0" fill="#ffffff"></circle><circle cx="429.7142857142857" cy="215.76999999999998" r="12" stroke="none" stroke-width="0" fill-opacity="0" fill="#ffffff"></circle><circle cx="437.2857142857143" cy="214.0525" r="12" stroke="none" stroke-width="0" fill-opacity="0" fill="#ffffff"></circle><circle cx="444.85714285714283" cy="212.62125" r="12" stroke="none" stroke-width="0" fill-opacity="0" fill="#ffffff"></circle><circle cx="452.42857142857144" cy="211.47625" r="12" stroke="none" stroke-width="0" fill-opacity="0" fill="#ffffff"></circle><circle cx="460" cy="210.6175" r="12" stroke="none" stroke-width="0" fill-opacity="0" fill="#ffffff"></circle><circle cx="467.57142857142856" cy="210.04500000000002" r="12" stroke="none" stroke-width="0" fill-opacity="0" fill="#ffffff"></circle><circle cx="475.1428571428571" cy="209.4725" r="12" stroke="none" stroke-width="0" fill-opacity="0" fill="#ffffff"></circle><circle cx="482.7142857142857" cy="208.89999999999998" r="12" stroke="none" stroke-width="0" fill-opacity="0" fill="#ffffff"></circle></g><g><circle cx="119.28571428571429" cy="300.5" r="3.5" stroke="none" stroke-width="0" fill-opacity="0" fill="#ffffff"></circle><circle cx="126.85714285714286" cy="300.5" r="3.5" stroke="none" stroke-width="0" fill-opacity="0" fill="#ffffff"></circle><circle cx="134.42857142857142" cy="300.5" r="3.5" stroke="none" stroke-width="0" fill-opacity="0" fill="#ffffff"></circle><circle cx="142" cy="299.06875" r="3.5" stroke="none" stroke-width="0" fill-opacity="0" fill="#ffffff"></circle><circle cx="149.57142857142856" cy="297.6375" r="3.5" stroke="none" stroke-width="0" fill-opacity="0" fill="#ffffff"></circle><circle cx="157.14285714285714" cy="296.20625" r="3.5" stroke="none" stroke-width="0" fill-opacity="0" fill="#ffffff"></circle><circle cx="164.71428571428572" cy="294.775" r="3.5" stroke="none" stroke-width="0" fill-opacity="0" fill="#ffffff"></circle><circle cx="172.28571428571428" cy="293.34375" r="3.5" stroke="none" stroke-width="0" fill-opacity="0" fill="#ffffff"></circle><circle cx="179.85714285714286" cy="291.9125" r="3.5" stroke="none" stroke-width="0" fill-opacity="0" fill="#ffffff"></circle><circle cx="187.42857142857144" cy="290.48125" r="3.5" stroke="none" stroke-width="0" fill-opacity="0" fill="#ffffff"></circle><circle cx="195" cy="289.05" r="3.5" stroke="none" stroke-width="0" fill-opacity="0" fill="#ffffff"></circle><circle cx="202.57142857142856" cy="286.1875" r="3.5" stroke="none" stroke-width="0" fill-opacity="0" fill="#ffffff"></circle><circle cx="210.14285714285714" cy="283.325" r="3.5" stroke="none" stroke-width="0" fill-opacity="0" fill="#ffffff"></circle><circle cx="217.71428571428572" cy="280.4625" r="3.5" stroke="none" stroke-width="0" fill-opacity="0" fill="#ffffff"></circle><circle cx="225.28571428571428" cy="277.6" r="3.5" stroke="none" stroke-width="0" fill-opacity="0" fill="#ffffff"></circle><circle cx="232.85714285714283" cy="271.875" r="3.5" stroke="none" stroke-width="0" fill-opacity="0" fill="#ffffff"></circle><circle cx="240.42857142857144" cy="266.15" r="3.5" stroke="none" stroke-width="0" fill-opacity="0" fill="#ffffff"></circle><circle cx="248" cy="260.425" r="3.5" stroke="none" stroke-width="0" fill-opacity="0" fill="#ffffff"></circle><circle cx="255.57142857142856" cy="254.7" r="3.5" stroke="none" stroke-width="0" fill-opacity="0" fill="#ffffff"></circle><circle cx="263.1428571428571" cy="248.975" r="3.5" stroke="none" stroke-width="0" fill-opacity="0" fill="#ffffff"></circle><circle cx="270.7142857142857" cy="243.25" r="3.5" stroke="none" stroke-width="0" fill-opacity="0" fill="#ffffff"></circle><circle cx="278.2857142857143" cy="237.525" r="3.5" stroke="none" stroke-width="0" fill-opacity="0" fill="#ffffff"></circle><circle cx="285.8571428571429" cy="231.8" r="3.5" stroke="none" stroke-width="0" fill-opacity="0" fill="#ffffff"></circle><circle cx="293.42857142857144" cy="226.075" r="3.5" stroke="none" stroke-width="0" fill-opacity="0" fill="#ffffff"></circle><circle cx="301" cy="220.35" r="3.5" stroke="none" stroke-width="0" fill-opacity="0" fill="#ffffff"></circle><circle cx="308.57142857142856" cy="214.625" r="3.5" stroke="none" stroke-width="0" fill-opacity="0" fill="#ffffff"></circle><circle cx="316.1428571428571" cy="208.89999999999998" r="3.5" stroke="none" stroke-width="0" fill-opacity="0" fill="#ffffff"></circle><circle cx="323.71428571428567" cy="203.175" r="3.5" stroke="none" stroke-width="0" fill-opacity="0" fill="#ffffff"></circle><circle cx="331.2857142857143" cy="197.45" r="3.5" stroke="none" stroke-width="0" fill-opacity="0" fill="#ffffff"></circle><circle cx="338.8571428571429" cy="191.725" r="3.5" stroke="none" stroke-width="0" fill-opacity="0" fill="#ffffff"></circle><circle cx="346.42857142857144" cy="186" r="3.5" stroke="none" stroke-width="0" fill-opacity="0" fill="#ffffff"></circle><circle cx="354" cy="180.27499999999998" r="3.5" stroke="none" stroke-width="0" fill-opacity="0" fill="#ffffff"></circle><circle cx="361.57142857142856" cy="174.55" r="3.5" stroke="none" stroke-width="0" fill-opacity="0" fill="#ffffff"></circle><circle cx="369.1428571428571" cy="168.825" r="3.5" stroke="none" stroke-width="0" fill-opacity="0" fill="#ffffff"></circle><circle cx="376.7142857142857" cy="163.1" r="3.5" stroke="none" stroke-width="0" fill-opacity="0" fill="#ffffff"></circle><circle cx="384.2857142857143" cy="157.375" r="3.5" stroke="none" stroke-width="0" fill-opacity="0" fill="#ffffff"></circle><circle cx="391.85714285714283" cy="151.65" r="3.5" stroke="none" stroke-width="0" fill-opacity="0" fill="#ffffff"></circle><circle cx="399.42857142857144" cy="145.92499999999998" r="3.5" stroke="none" stroke-width="0" fill-opacity="0" fill="#ffffff"></circle><circle cx="407" cy="140.2" r="3.5" stroke="none" stroke-width="0" fill-opacity="0" fill="#ffffff"></circle><circle cx="414.57142857142856" cy="134.475" r="3.5" stroke="none" stroke-width="0" fill-opacity="0" fill="#ffffff"></circle><circle cx="422.1428571428571" cy="128.75" r="3.5" stroke="none" stroke-width="0" fill-opacity="0" fill="#ffffff"></circle><circle cx="429.7142857142857" cy="123.025" r="3.5" stroke="none" stroke-width="0" fill-opacity="0" fill="#ffffff"></circle><circle cx="437.2857142857143" cy="117.29999999999998" r="3.5" stroke="none" stroke-width="0" fill-opacity="0" fill="#ffffff"></circle><circle cx="444.85714285714283" cy="111.57499999999999" r="3.5" stroke="none" stroke-width="0" fill-opacity="0" fill="#ffffff"></circle><circle cx="452.42857142857144" cy="108.7125" r="3.5" stroke="none" stroke-width="0" fill-opacity="0" fill="#ffffff"></circle><circle cx="460" cy="105.85" r="3.5" stroke="none" stroke-width="0" fill-opacity="0" fill="#ffffff"></circle><circle cx="467.57142857142856" cy="102.98749999999998" r="3.5" stroke="none" stroke-width="0" fill-opacity="0" fill="#ffffff"></circle><circle cx="475.1428571428571" cy="100.125" r="3.5" stroke="none" stroke-width="0" fill-opacity="0" fill="#ffffff"></circle><circle cx="482.7142857142857" cy="97.26249999999999" r="3.5" stroke="none" stroke-width="0" fill-opacity="0" fill="#ffffff"></circle><circle cx="119.28571428571429" cy="300.5" r="3.5" stroke="none" stroke-width="0" fill-opacity="0" fill="#ffffff"></circle><circle cx="126.85714285714286" cy="300.5" r="3.5" stroke="none" stroke-width="0" fill-opacity="0" fill="#ffffff"></circle><circle cx="134.42857142857142" cy="300.5" r="3.5" stroke="none" stroke-width="0" fill-opacity="0" fill="#ffffff"></circle><circle cx="142" cy="300.5" r="3.5" stroke="none" stroke-width="0" fill-opacity="0" fill="#ffffff"></circle><circle cx="149.57142857142856" cy="300.5" r="3.5" stroke="none" stroke-width="0" fill-opacity="0" fill="#ffffff"></circle><circle cx="157.14285714285714" cy="299.9275" r="3.5" stroke="none" stroke-width="0" fill-opacity="0" fill="#ffffff"></circle><circle cx="164.71428571428572" cy="299.355" r="3.5" stroke="none" stroke-width="0" fill-opacity="0" fill="#ffffff"></circle><circle cx="172.28571428571428" cy="298.7825" r="3.5" stroke="none" stroke-width="0" fill-opacity="0" fill="#ffffff"></circle><circle cx="179.85714285714286" cy="298.21" r="3.5" stroke="none" stroke-width="0" fill-opacity="0" fill="#ffffff"></circle><circle cx="187.42857142857144" cy="297.6375" r="3.5" stroke="none" stroke-width="0" fill-opacity="0" fill="#ffffff"></circle><circle cx="195" cy="296.77875" r="3.5" stroke="none" stroke-width="0" fill-opacity="0" fill="#ffffff"></circle><circle cx="202.57142857142856" cy="295.92" r="3.5" stroke="none" stroke-width="0" fill-opacity="0" fill="#ffffff"></circle><circle cx="210.14285714285714" cy="294.775" r="3.5" stroke="none" stroke-width="0" fill-opacity="0" fill="#ffffff"></circle><circle cx="217.71428571428572" cy="293.63" r="3.5" stroke="none" stroke-width="0" fill-opacity="0" fill="#ffffff"></circle><circle cx="225.28571428571428" cy="291.9125" r="3.5" stroke="none" stroke-width="0" fill-opacity="0" fill="#ffffff"></circle><circle cx="232.85714285714283" cy="290.48125" r="3.5" stroke="none" stroke-width="0" fill-opacity="0" fill="#ffffff"></circle><circle cx="240.42857142857144" cy="289.05" r="3.5" stroke="none" stroke-width="0" fill-opacity="0" fill="#ffffff"></circle><circle cx="248" cy="287.61875" r="3.5" stroke="none" stroke-width="0" fill-opacity="0" fill="#ffffff"></circle><circle cx="255.57142857142856" cy="286.1875" r="3.5" stroke="none" stroke-width="0" fill-opacity="0" fill="#ffffff"></circle><circle cx="263.1428571428571" cy="283.325" r="3.5" stroke="none" stroke-width="0" fill-opacity="0" fill="#ffffff"></circle><circle cx="270.7142857142857" cy="280.4625" r="3.5" stroke="none" stroke-width="0" fill-opacity="0" fill="#ffffff"></circle><circle cx="278.2857142857143" cy="277.6" r="3.5" stroke="none" stroke-width="0" fill-opacity="0" fill="#ffffff"></circle><circle cx="285.8571428571429" cy="274.7375" r="3.5" stroke="none" stroke-width="0" fill-opacity="0" fill="#ffffff"></circle><circle cx="293.42857142857144" cy="271.875" r="3.5" stroke="none" stroke-width="0" fill-opacity="0" fill="#ffffff"></circle><circle cx="301" cy="267.58125" r="3.5" stroke="none" stroke-width="0" fill-opacity="0" fill="#ffffff"></circle><circle cx="308.57142857142856" cy="263.2875" r="3.5" stroke="none" stroke-width="0" fill-opacity="0" fill="#ffffff"></circle><circle cx="316.1428571428571" cy="258.99375" r="3.5" stroke="none" stroke-width="0" fill-opacity="0" fill="#ffffff"></circle><circle cx="323.71428571428567" cy="254.7" r="3.5" stroke="none" stroke-width="0" fill-opacity="0" fill="#ffffff"></circle><circle cx="331.2857142857143" cy="251.8375" r="3.5" stroke="none" stroke-width="0" fill-opacity="0" fill="#ffffff"></circle><circle cx="338.8571428571429" cy="248.975" r="3.5" stroke="none" stroke-width="0" fill-opacity="0" fill="#ffffff"></circle><circle cx="346.42857142857144" cy="246.1125" r="3.5" stroke="none" stroke-width="0" fill-opacity="0" fill="#ffffff"></circle><circle cx="354" cy="243.25" r="3.5" stroke="none" stroke-width="0" fill-opacity="0" fill="#ffffff"></circle><circle cx="361.57142857142856" cy="240.3875" r="3.5" stroke="none" stroke-width="0" fill-opacity="0" fill="#ffffff"></circle><circle cx="369.1428571428571" cy="237.525" r="3.5" stroke="none" stroke-width="0" fill-opacity="0" fill="#ffffff"></circle><circle cx="376.7142857142857" cy="234.6625" r="3.5" stroke="none" stroke-width="0" fill-opacity="0" fill="#ffffff"></circle><circle cx="384.2857142857143" cy="231.8" r="3.5" stroke="none" stroke-width="0" fill-opacity="0" fill="#ffffff"></circle><circle cx="391.85714285714283" cy="228.9375" r="3.5" stroke="none" stroke-width="0" fill-opacity="0" fill="#ffffff"></circle><circle cx="399.42857142857144" cy="226.075" r="3.5" stroke="none" stroke-width="0" fill-opacity="0" fill="#ffffff"></circle><circle cx="407" cy="223.21249999999998" r="3.5" stroke="none" stroke-width="0" fill-opacity="0" fill="#ffffff"></circle><circle cx="414.57142857142856" cy="220.35" r="3.5" stroke="none" stroke-width="0" fill-opacity="0" fill="#ffffff"></circle><circle cx="422.1428571428571" cy="218.06" r="3.5" stroke="none" stroke-width="0" fill-opacity="0" fill="#ffffff"></circle><circle cx="429.7142857142857" cy="215.76999999999998" r="3.5" stroke="none" stroke-width="0" fill-opacity="0" fill="#ffffff"></circle><circle cx="437.2857142857143" cy="214.0525" r="3.5" stroke="none" stroke-width="0" fill-opacity="0" fill="#ffffff"></circle><circle cx="444.85714285714283" cy="212.62125" r="3.5" stroke="none" stroke-width="0" fill-opacity="0" fill="#ffffff"></circle><circle cx="452.42857142857144" cy="211.47625" r="3.5" stroke="none" stroke-width="0" fill-opacity="0" fill="#ffffff"></circle><circle cx="460" cy="210.6175" r="3.5" stroke="none" stroke-width="0" fill-opacity="0" fill="#ffffff"></circle><circle cx="467.57142857142856" cy="210.04500000000002" r="3.5" stroke="none" stroke-width="0" fill-opacity="0" fill="#ffffff"></circle><circle cx="475.1428571428571" cy="209.4725" r="3.5" stroke="none" stroke-width="0" fill-opacity="0" fill="#ffffff"></circle><circle cx="482.7142857142857" cy="208.89999999999998" r="3.5" stroke="none" stroke-width="0" fill-opacity="0" fill="#ffffff"></circle></g><g></g><g><text x="515" y="81" font-family="Arial" font-size="12" stroke="none" stroke-width="0" fill-opacity="1.0" fill="#222222">Ventes</text><text x="515" y="97" font-family="Arial" font-size="12" stroke="none" stroke-width="0" fill-opacity="1.0" fill="#222222">(optimiste)</text></g><rect x="498" y="71" width="12" height="12" stroke="none" stroke-width="0" fill-opacity="1.0" fill="#38761d"></rect><g><text x="515" y="116" font-family="Arial" font-size="12" stroke="none" stroke-width="0" fill-opacity="1.0" fill="#222222">Ventes</text><text x="515" y="132" font-family="Arial" font-size="12" stroke="none" stroke-width="0" fill-opacity="1.0" fill="#222222">(pessimiste)</text></g><rect x="498" y="106" width="12" height="12" stroke="none" stroke-width="0" fill-opacity="1.0" fill="#741b47"></rect><text text-anchor="end" x="123.79533322894771" y="324" font-family="Arial" font-size="12" transform="rotate(330 108.79533322894771 319.69615242270663)" stroke="none" stroke-width="0" fill-opacity="1.0" fill="#222222">0</text><text text-anchor="end" x="154.08104751466198" y="324" font-family="Arial" font-size="12" transform="rotate(330 139.08104751466198 319.69615242270663)" stroke="none" stroke-width="0" fill-opacity="1.0" fill="#222222">4</text><text text-anchor="end" x="184.36676180037628" y="324" font-family="Arial" font-size="12" transform="rotate(330 169.36676180037628 319.69615242270663)" stroke="none" stroke-width="0" fill-opacity="1.0" fill="#222222">8</text><text text-anchor="end" x="214.65247608609056" y="324" font-family="Arial" font-size="12" transform="rotate(330 199.65247608609056 319.69615242270663)" stroke="none" stroke-width="0" fill-opacity="1.0" fill="#222222">12</text><text text-anchor="end" x="244.93819037180486" y="324" font-family="Arial" font-size="12" transform="rotate(330 229.93819037180486 319.69615242270663)" stroke="none" stroke-width="0" fill-opacity="1.0" fill="#222222">16</text><text text-anchor="end" x="275.22390465751914" y="324" font-family="Arial" font-size="12" transform="rotate(330 260.22390465751914 319.69615242270663)" stroke="none" stroke-width="0" fill-opacity="1.0" fill="#222222">20</text><text text-anchor="end" x="305.5096189432334" y="324" font-family="Arial" font-size="12" transform="rotate(330 290.5096189432334 319.69615242270663)" stroke="none" stroke-width="0" fill-opacity="1.0" fill="#222222">24</text><text text-anchor="end" x="335.7953332289477" y="324" font-family="Arial" font-size="12" transform="rotate(330 320.7953332289477 319.69615242270663)" stroke="none" stroke-width="0" fill-opacity="1.0" fill="#222222">28</text><text text-anchor="end" x="366.081047514662" y="324" font-family="Arial" font-size="12" transform="rotate(330 351.081047514662 319.69615242270663)" stroke="none" stroke-width="0" fill-opacity="1.0" fill="#222222">32</text><text text-anchor="end" x="396.36676180037625" y="324" font-family="Arial" font-size="12" transform="rotate(330 381.36676180037625 319.69615242270663)" stroke="none" stroke-width="0" fill-opacity="1.0" fill="#222222">36</text><text text-anchor="end" x="426.65247608609053" y="324" font-family="Arial" font-size="12" transform="rotate(330 411.65247608609053 319.69615242270663)" stroke="none" stroke-width="0" fill-opacity="1.0" fill="#222222">40</text><text text-anchor="end" x="456.93819037180486" y="324" font-family="Arial" font-size="12" transform="rotate(330 441.93819037180486 319.69615242270663)" stroke="none" stroke-width="0" fill-opacity="1.0" fill="#222222">44</text><text text-anchor="end" x="487.22390465751914" y="324" font-family="Arial" font-size="12" transform="rotate(330 472.22390465751914 319.69615242270663)" stroke="none" stroke-width="0" fill-opacity="1.0" fill="#222222">48</text><g><text text-anchor="end" x="103" y="304" font-family="Arial" font-size="12" stroke="none" stroke-width="0" fill-opacity="1.0" fill="#444444">0</text></g><g><text text-anchor="end" x="103" y="247" font-family="Arial" font-size="12" stroke="none" stroke-width="0" fill-opacity="1.0" fill="#444444">1,000</text></g><g><text text-anchor="end" x="103" y="190" font-family="Arial" font-size="12" stroke="none" stroke-width="0" fill-opacity="1.0" fill="#444444">2,000</text></g><g><text text-anchor="end" x="103" y="132" font-family="Arial" font-size="12" stroke="none" stroke-width="0" fill-opacity="1.0" fill="#444444">3,000</text></g><g><text text-anchor="end" x="103" y="75" font-family="Arial" font-size="12" stroke="none" stroke-width="0" fill-opacity="1.0" fill="#444444">4,000</text></g></g><g></g></svg>