<svg id="chart" width="600" height="371"><defs id="defs"></defs><g><rect x="0.5" y="0.5" width="599" height="370" stroke="none" stroke-width="0" fill-opacity="1.0" fill="#ffffff"></rect><g><text x="115" y="50" font-family="Arial" font-size="12" font-weight="bold" stroke="none" stroke-width="0" fill-opacity="1.0" fill="#000000">Évolution des ventes mensuelles</text></g><rect x="115" y="71" width="371" height="229" stroke="none" stroke-width="0" fill-opacity="1" fill="none"></rect><g><text text-anchor="middle" x="301" y="352" font-family="Arial" font-size="12" font-style="italic" stroke="none" stroke-width="0" fill-opacity="1.0" fill="#222222">Mois</text></g><g><text text-anchor="middle" x="151" y="304" font-family="Arial" font-size="12" font-style="italic" transform="rotate(270 36 300)" stroke="none" stroke-width="0" fill-opacity="1.0" fill="#222222">Nombre de ventes</text></g><rect x="115" y="300" width="371" height="1" stroke="none" stroke-width="0" fill-opacity="1.0" fill="#cccccc"></rect><rect x="115" y="242" width="371" height="1" stroke="none" stroke-width="0" fill-opacity="1.0" fill="#cccccc"></rect><rect x="115" y="185" width="371" height="1" stroke="none" stroke-width="0" fill-opacity="1.0" fill="#cccccc"></rect><rect x="115" y="128" width="371" height="1" stroke="none" stroke-width="0" fill-opacity="1.0" fill="#cccccc"></rect><rect x="115" y="71" width="371" height="1" stroke="none" stroke-width="0" fill-opacity="1.0" fill="#cccccc"></rect><rect x="115" y="300" width="371" height="1" stroke="none" stroke-width="0" fill-opacity="1.0" fill="#333333"></rect><g></g><g></g><g><path d="M120.01351351351352,300L130.04054054054055,300L140.06756756756755,300L150.09459459459458,297.95535714285717L160.1216216216216,295.9107142857143L170.14864864864865,293.86607142857144L180.17567567567568,291.82142857142856L190.2027027027027,289.7767857142857L200.22972972972974,287.73214285714283L210.25675675675674,285.6875L220.28378378378378,281.5982142857143L230.3108108108108,277.50892857142856L240.3378378378378,271.375L250.36486486486484,263.19642857142856L260.3918918918919,255.01785714285714L270.4189189189189,246.83928571428572L280.44594594594594,238.66071428571428L290.47297297297297,230.48214285714286L300.5,222.30357142857144L310.527027027027,214.125L320.55405405405406,205.94642857142858L330.58108108108104,197.76785714285717L340.6081081081081,189.58928571428572L350.6351351351351,181.41071428571428L360.66216216216213,173.23214285714286L370.68918918918916,165.05357142857144L380.7162162162162,156.875L390.7432432432432,148.69642857142858L400.77027027027026,140.51785714285714L410.7972972972973,132.33928571428572L420.8243243243243,124.1607142857143L430.85135135135135,115.98214285714286L440.87837837837833,107.80357142857144L450.90540540540536,99.625L460.9324324324324,91.44642857142858L470.9594594594594,84.08571428571429L480.98648648648646,76.72500000000002" stroke="#38761d" stroke-width="2" fill-opacity="1" fill="none"></path><path d="M120.01351351351352,300L130.04054054054055,300L140.06756756756755,300L150.09459459459458,300L160.1216216216216,300L170.14864864864865,299.1821428571429L180.17567567567568,298.3642857142857L190.2027027027027,297.5464285714286L200.22972972972974,296.72857142857146L210.25675675675674,295.9107142857143L220.28378378378378,294.68392857142857L230.3108108108108,293.45714285714286L240.3378378378378,291.00357142857143L250.36486486486484,288.55L260.3918918918919,286.0964285714286L270.4189189189189,283.64285714285717L280.44594594594594,281.1892857142857L290.47297297297297,278.73571428571427L300.5,276.28214285714284L310.527027027027,273.0107142857143L320.55405405405406,269.7392857142857L330.58108108108104,266.46785714285716L340.6081081081081,262.37857142857143L350.6351351351351,258.2892857142857L360.66216216216213,252.97321428571428L370.68918918918916,247.65714285714284L380.7162162162162,242.34107142857144L390.7432432432432,237.025L400.77027027027026,231.70892857142857L410.7972972972973,226.39285714285717L420.8243243243243,221.07678571428573L430.85135135135135,215.7607142857143L440.87837837837833,210.44464285714287L450.90540540540536,205.12857142857143L460.9324324324324,199.8125L470.9594594594594,194.49642857142857L480.98648648648646,189.18035714285713" stroke="#741b47" stroke-width="2" fill-opacity="1" fill="none"></path><path d="M120.01351351351352,268.43182701652086L130.04054054054055,268.43182701652086L140.06756756756755,268.43182701652086L150.09459459459458,268.43182701652086L160.1216216216216,268.43182701652086L170.14864864864865,268.43182701652086L180.17567567567568,268.43182701652086L190.2027027027027,268.43182701652086L200.22972972972974,268.43182701652086L210.25675675675674,268.43182701652086L220.28378378378378,268.43182701652086L230.3108108108108,268.43182701652086L240.3378378378378,268.43182701652086L250.36486486486484,268.43182701652086L260.3918918918919,268.43182701652086L270.4189189189189,268.43182701652086L280.44594594594594,268.43182701652086L290.47297297297297,268.43182701652086L300.5,268.43182701652086L310.527027027027,268.43182701652086L320.55405405405406,268.43182701652086L330.58108108108104,268.43182701652086L340.6081081081081,268.43182701652086L350.6351351351351,259.529980563654L360.66216216216213,259.529980563654L370.68918918918916,259.529980563654L380.7162162162162,259.529980563654L390.7432432432432,259.529980563654L400.77027027027026,259.529980563654L410.7972972972973,259.529980563654L420.8243243243243,259.529980563654L430.85135135135135,259.529980563654L440.87837837837833,259.529980563654L450.90540540540536,259.529980563654L460.9324324324324,259.529980563654L470.9594594594594,259.529980563654L480.98648648648646,259.529980563654" stroke="#b45f06" stroke-width="2" fill-opacity="1" fill="none"></path></g><g><circle cx="120.51351351351352" cy="300.5" r="12" stroke="none" stroke-width="0" fill-opacity="0" fill="#ffffff"></circle><circle cx="130.54054054054055" cy="300.5" r="12" stroke="none" stroke-width="0" fill-opacity="0" fill="#ffffff"></circle><circle cx="140.56756756756755" cy="300.5" r="12" stroke="none" stroke-width="0" fill-opacity="0" fill="#ffffff"></circle><circle cx="150.59459459459458" cy="298.45535714285717" r="12" stroke="none" stroke-width="0" fill-opacity="0" fill="#ffffff"></circle><circle cx="160.6216216216216" cy="296.4107142857143" r="12" stroke="none" stroke-width="0" fill-opacity="0" fill="#ffffff"></circle><circle cx="170.64864864864865" cy="294.36607142857144" r="12" stroke="none" stroke-width="0" fill-opacity="0" fill="#ffffff"></circle><circle cx="180.67567567567568" cy="292.32142857142856" r="12" stroke="none" stroke-width="0" fill-opacity="0" fill="#ffffff"></circle><circle cx="190.7027027027027" cy="290.2767857142857" r="12" stroke="none" stroke-width="0" fill-opacity="0" fill="#ffffff"></circle><circle cx="200.72972972972974" cy="288.23214285714283" r="12" stroke="none" stroke-width="0" fill-opacity="0" fill="#ffffff"></circle><circle cx="210.75675675675674" cy="286.1875" r="12" stroke="none" stroke-width="0" fill-opacity="0" fill="#ffffff"></circle><circle cx="220.78378378378378" cy="282.0982142857143" r="12" stroke="none" stroke-width="0" fill-opacity="0" fill="#ffffff"></circle><circle cx="230.8108108108108" cy="278.00892857142856" r="12" stroke="none" stroke-width="0" fill-opacity="0" fill="#ffffff"></circle><circle cx="240.8378378378378" cy="271.875" r="12" stroke="none" stroke-width="0" fill-opacity="0" fill="#ffffff"></circle><circle cx="250.86486486486484" cy="263.69642857142856" r="12" stroke="none" stroke-width="0" fill-opacity="0" fill="#ffffff"></circle><circle cx="260.8918918918919" cy="255.51785714285714" r="12" stroke="none" stroke-width="0" fill-opacity="0" fill="#ffffff"></circle><circle cx="270.9189189189189" cy="247.33928571428572" r="12" stroke="none" stroke-width="0" fill-opacity="0" fill="#ffffff"></circle><circle cx="280.94594594594594" cy="239.16071428571428" r="12" stroke="none" stroke-width="0" fill-opacity="0" fill="#ffffff"></circle><circle cx="290.97297297297297" cy="230.98214285714286" r="12" stroke="none" stroke-width="0" fill-opacity="0" fill="#ffffff"></circle><circle cx="301" cy="222.80357142857144" r="12" stroke="none" stroke-width="0" fill-opacity="0" fill="#ffffff"></circle><circle cx="311.027027027027" cy="214.625" r="12" stroke="none" stroke-width="0" fill-opacity="0" fill="#ffffff"></circle><circle cx="321.05405405405406" cy="206.44642857142858" r="12" stroke="none" stroke-width="0" fill-opacity="0" fill="#ffffff"></circle><circle cx="331.08108108108104" cy="198.26785714285717" r="12" stroke="none" stroke-width="0" fill-opacity="0" fill="#ffffff"></circle><circle cx="341.1081081081081" cy="190.08928571428572" r="12" stroke="none" stroke-width="0" fill-opacity="0" fill="#ffffff"></circle><circle cx="351.1351351351351" cy="181.91071428571428" r="12" stroke="none" stroke-width="0" fill-opacity="0" fill="#ffffff"></circle><circle cx="361.16216216216213" cy="173.73214285714286" r="12" stroke="none" stroke-width="0" fill-opacity="0" fill="#ffffff"></circle><circle cx="371.18918918918916" cy="165.55357142857144" r="12" stroke="none" stroke-width="0" fill-opacity="0" fill="#ffffff"></circle><circle cx="381.2162162162162" cy="157.375" r="12" stroke="none" stroke-width="0" fill-opacity="0" fill="#ffffff"></circle><circle cx="391.2432432432432" cy="149.19642857142858" r="12" stroke="none" stroke-width="0" fill-opacity="0" fill="#ffffff"></circle><circle cx="401.27027027027026" cy="141.01785714285714" r="12" stroke="none" stroke-width="0" fill-opacity="0" fill="#ffffff"></circle><circle cx="411.2972972972973" cy="132.83928571428572" r="12" stroke="none" stroke-width="0" fill-opacity="0" fill="#ffffff"></circle><circle cx="421.3243243243243" cy="124.6607142857143" r="12" stroke="none" stroke-width="0" fill-opacity="0" fill="#ffffff"></circle><circle cx="431.35135135135135" cy="116.48214285714286" r="12" stroke="none" stroke-width="0" fill-opacity="0" fill="#ffffff"></circle><circle cx="441.37837837837833" cy="108.30357142857144" r="12" stroke="none" stroke-width="0" fill-opacity="0" fill="#ffffff"></circle><circle cx="451.40540540540536" cy="100.125" r="12" stroke="none" stroke-width="0" fill-opacity="0" fill="#ffffff"></circle><circle cx="461.4324324324324" cy="91.94642857142858" r="12" stroke="none" stroke-width="0" fill-opacity="0" fill="#ffffff"></circle><circle cx="471.4594594594594" cy="84.58571428571429" r="12" stroke="none" stroke-width="0" fill-opacity="0" fill="#ffffff"></circle><circle cx="481.48648648648646" cy="77.22500000000002" r="12" stroke="none" stroke-width="0" fill-opacity="0" fill="#ffffff"></circle><circle cx="120.51351351351352" cy="300.5" r="12" stroke="none" stroke-width="0" fill-opacity="0" fill="#ffffff"></circle><circle cx="130.54054054054055" cy="300.5" r="12" stroke="none" stroke-width="0" fill-opacity="0" fill="#ffffff"></circle><circle cx="140.56756756756755" cy="300.5" r="12" stroke="none" stroke-width="0" fill-opacity="0" fill="#ffffff"></circle><circle cx="150.59459459459458" cy="300.5" r="12" stroke="none" stroke-width="0" fill-opacity="0" fill="#ffffff"></circle><circle cx="160.6216216216216" cy="300.5" r="12" stroke="none" stroke-width="0" fill-opacity="0" fill="#ffffff"></circle><circle cx="170.64864864864865" cy="299.6821428571429" r="12" stroke="none" stroke-width="0" fill-opacity="0" fill="#ffffff"></circle><circle cx="180.67567567567568" cy="298.8642857142857" r="12" stroke="none" stroke-width="0" fill-opacity="0" fill="#ffffff"></circle><circle cx="190.7027027027027" cy="298.0464285714286" r="12" stroke="none" stroke-width="0" fill-opacity="0" fill="#ffffff"></circle><circle cx="200.72972972972974" cy="297.22857142857146" r="12" stroke="none" stroke-width="0" fill-opacity="0" fill="#ffffff"></circle><circle cx="210.75675675675674" cy="296.4107142857143" r="12" stroke="none" stroke-width="0" fill-opacity="0" fill="#ffffff"></circle><circle cx="220.78378378378378" cy="295.18392857142857" r="12" stroke="none" stroke-width="0" fill-opacity="0" fill="#ffffff"></circle><circle cx="230.8108108108108" cy="293.95714285714286" r="12" stroke="none" stroke-width="0" fill-opacity="0" fill="#ffffff"></circle><circle cx="240.8378378378378" cy="291.50357142857143" r="12" stroke="none" stroke-width="0" fill-opacity="0" fill="#ffffff"></circle><circle cx="250.86486486486484" cy="289.05" r="12" stroke="none" stroke-width="0" fill-opacity="0" fill="#ffffff"></circle><circle cx="260.8918918918919" cy="286.5964285714286" r="12" stroke="none" stroke-width="0" fill-opacity="0" fill="#ffffff"></circle><circle cx="270.9189189189189" cy="284.14285714285717" r="12" stroke="none" stroke-width="0" fill-opacity="0" fill="#ffffff"></circle><circle cx="280.94594594594594" cy="281.6892857142857" r="12" stroke="none" stroke-width="0" fill-opacity="0" fill="#ffffff"></circle><circle cx="290.97297297297297" cy="279.23571428571427" r="12" stroke="none" stroke-width="0" fill-opacity="0" fill="#ffffff"></circle><circle cx="301" cy="276.78214285714284" r="12" stroke="none" stroke-width="0" fill-opacity="0" fill="#ffffff"></circle><circle cx="311.027027027027" cy="273.5107142857143" r="12" stroke="none" stroke-width="0" fill-opacity="0" fill="#ffffff"></circle><circle cx="321.05405405405406" cy="270.2392857142857" r="12" stroke="none" stroke-width="0" fill-opacity="0" fill="#ffffff"></circle><circle cx="331.08108108108104" cy="266.96785714285716" r="12" stroke="none" stroke-width="0" fill-opacity="0" fill="#ffffff"></circle><circle cx="341.1081081081081" cy="262.87857142857143" r="12" stroke="none" stroke-width="0" fill-opacity="0" fill="#ffffff"></circle><circle cx="351.1351351351351" cy="258.7892857142857" r="12" stroke="none" stroke-width="0" fill-opacity="0" fill="#ffffff"></circle><circle cx="361.16216216216213" cy="253.47321428571428" r="12" stroke="none" stroke-width="0" fill-opacity="0" fill="#ffffff"></circle><circle cx="371.18918918918916" cy="248.15714285714284" r="12" stroke="none" stroke-width="0" fill-opacity="0" fill="#ffffff"></circle><circle cx="381.2162162162162" cy="242.84107142857144" r="12" stroke="none" stroke-width="0" fill-opacity="0" fill="#ffffff"></circle><circle cx="391.2432432432432" cy="237.525" r="12" stroke="none" stroke-width="0" fill-opacity="0" fill="#ffffff"></circle><circle cx="401.27027027027026" cy="232.20892857142857" r="12" stroke="none" stroke-width="0" fill-opacity="0" fill="#ffffff"></circle><circle cx="411.2972972972973" cy="226.89285714285717" r="12" stroke="none" stroke-width="0" fill-opacity="0" fill="#ffffff"></circle><circle cx="421.3243243243243" cy="221.57678571428573" r="12" stroke="none" stroke-width="0" fill-opacity="0" fill="#ffffff"></circle><circle cx="431.35135135135135" cy="216.2607142857143" r="12" stroke="none" stroke-width="0" fill-opacity="0" fill="#ffffff"></circle><circle cx="441.37837837837833" cy="210.94464285714287" r="12" stroke="none" stroke-width="0" fill-opacity="0" fill="#ffffff"></circle><circle cx="451.40540540540536" cy="205.62857142857143" r="12" stroke="none" stroke-width="0" fill-opacity="0" fill="#ffffff"></circle><circle cx="461.4324324324324" cy="200.3125" r="12" stroke="none" stroke-width="0" fill-opacity="0" fill="#ffffff"></circle><circle cx="471.4594594594594" cy="194.99642857142857" r="12" stroke="none" stroke-width="0" fill-opacity="0" fill="#ffffff"></circle><circle cx="481.48648648648646" cy="189.68035714285713" r="12" stroke="none" stroke-width="0" fill-opacity="0" fill="#ffffff"></circle><circle cx="120.51351351351352" cy="268.93182701652086" r="12" stroke="none" stroke-width="0" fill-opacity="0" fill="#ffffff"></circle><circle cx="130.54054054054055" cy="268.93182701652086" r="12" stroke="none" stroke-width="0" fill-opacity="0" fill="#ffffff"></circle><circle cx="140.56756756756755" cy="268.93182701652086" r="12" stroke="none" stroke-width="0" fill-opacity="0" fill="#ffffff"></circle><circle cx="150.59459459459458" cy="268.93182701652086" r="12" stroke="none" stroke-width="0" fill-opacity="0" fill="#ffffff"></circle><circle cx="160.6216216216216" cy="268.93182701652086" r="12" stroke="none" stroke-width="0" fill-opacity="0" fill="#ffffff"></circle><circle cx="170.64864864864865" cy="268.93182701652086" r="12" stroke="none" stroke-width="0" fill-opacity="0" fill="#ffffff"></circle><circle cx="180.67567567567568" cy="268.93182701652086" r="12" stroke="none" stroke-width="0" fill-opacity="0" fill="#ffffff"></circle><circle cx="190.7027027027027" cy="268.93182701652086" r="12" stroke="none" stroke-width="0" fill-opacity="0" fill="#ffffff"></circle><circle cx="200.72972972972974" cy="268.93182701652086" r="12" stroke="none" stroke-width="0" fill-opacity="0" fill="#ffffff"></circle><circle cx="210.75675675675674" cy="268.93182701652086" r="12" stroke="none" stroke-width="0" fill-opacity="0" fill="#ffffff"></circle><circle cx="220.78378378378378" cy="268.93182701652086" r="12" stroke="none" stroke-width="0" fill-opacity="0" fill="#ffffff"></circle><circle cx="230.8108108108108" cy="268.93182701652086" r="12" stroke="none" stroke-width="0" fill-opacity="0" fill="#ffffff"></circle><circle cx="240.8378378378378" cy="268.93182701652086" r="12" stroke="none" stroke-width="0" fill-opacity="0" fill="#ffffff"></circle><circle cx="250.86486486486484" cy="268.93182701652086" r="12" stroke="none" stroke-width="0" fill-opacity="0" fill="#ffffff"></circle><circle cx="260.8918918918919" cy="268.93182701652086" r="12" stroke="none" stroke-width="0" fill-opacity="0" fill="#ffffff"></circle><circle cx="270.9189189189189" cy="268.93182701652086" r="12" stroke="none" stroke-width="0" fill-opacity="0" fill="#ffffff"></circle><circle cx="280.94594594594594" cy="268.93182701652086" r="12" stroke="none" stroke-width="0" fill-opacity="0" fill="#ffffff"></circle><circle cx="290.97297297297297" cy="268.93182701652086" r="12" stroke="none" stroke-width="0" fill-opacity="0" fill="#ffffff"></circle><circle cx="301" cy="268.93182701652086" r="12" stroke="none" stroke-width="0" fill-opacity="0" fill="#ffffff"></circle><circle cx="311.027027027027" cy="268.93182701652086" r="12" stroke="none" stroke-width="0" fill-opacity="0" fill="#ffffff"></circle><circle cx="321.05405405405406" cy="268.93182701652086" r="12" stroke="none" stroke-width="0" fill-opacity="0" fill="#ffffff"></circle><circle cx="331.08108108108104" cy="268.93182701652086" r="12" stroke="none" stroke-width="0" fill-opacity="0" fill="#ffffff"></circle><circle cx="341.1081081081081" cy="268.93182701652086" r="12" stroke="none" stroke-width="0" fill-opacity="0" fill="#ffffff"></circle><circle cx="351.1351351351351" cy="260.029980563654" r="12" stroke="none" stroke-width="0" fill-opacity="0" fill="#ffffff"></circle><circle cx="361.16216216216213" cy="260.029980563654" r="12" stroke="none" stroke-width="0" fill-opacity="0" fill="#ffffff"></circle><circle cx="371.18918918918916" cy="260.029980563654" r="12" stroke="none" stroke-width="0" fill-opacity="0" fill="#ffffff"></circle><circle cx="381.2162162162162" cy="260.029980563654" r="12" stroke="none" stroke-width="0" fill-opacity="0" fill="#ffffff"></circle><circle cx="391.2432432432432" cy="260.029980563654" r="12" stroke="none" stroke-width="0" fill-opacity="0" fill="#ffffff"></circle><circle cx="401.27027027027026" cy="260.029980563654" r="12" stroke="none" stroke-width="0" fill-opacity="0" fill="#ffffff"></circle><circle cx="411.2972972972973" cy="260.029980563654" r="12" stroke="none" stroke-width="0" fill-opacity="0" fill="#ffffff"></circle><circle cx="421.3243243243243" cy="260.029980563654" r="12" stroke="none" stroke-width="0" fill-opacity="0" fill="#ffffff"></circle><circle cx="431.35135135135135" cy="260.029980563654" r="12" stroke="none" stroke-width="0" fill-opacity="0" fill="#ffffff"></circle><circle cx="441.37837837837833" cy="260.029980563654" r="12" stroke="none" stroke-width="0" fill-opacity="0" fill="#ffffff"></circle><circle cx="451.40540540540536" cy="260.029980563654" r="12" stroke="none" stroke-width="0" fill-opacity="0" fill="#ffffff"></circle><circle cx="461.4324324324324" cy="260.029980563654" r="12" stroke="none" stroke-width="0" fill-opacity="0" fill="#ffffff"></circle><circle cx="471.4594594594594" cy="260.029980563654" r="12" stroke="none" stroke-width="0" fill-opacity="0" fill="#ffffff"></circle><circle cx="481.48648648648646" cy="260.029980563654" r="12" stroke="none" stroke-width="0" fill-opacity="0" fill="#ffffff"></circle></g><g><circle cx="120.51351351351352" cy="300.5" r="3.5" stroke="none" stroke-width="0" fill-opacity="0" fill="#ffffff"></circle><circle cx="130.54054054054055" cy="300.5" r="3.5" stroke="none" stroke-width="0" fill-opacity="0" fill="#ffffff"></circle><circle cx="140.56756756756755" cy="300.5" r="3.5" stroke="none" stroke-width="0" fill-opacity="0" fill="#ffffff"></circle><circle cx="150.59459459459458" cy="298.45535714285717" r="3.5" stroke="none" stroke-width="0" fill-opacity="0" fill="#ffffff"></circle><circle cx="160.6216216216216" cy="296.4107142857143" r="3.5" stroke="none" stroke-width="0" fill-opacity="0" fill="#ffffff"></circle><circle cx="170.64864864864865" cy="294.36607142857144" r="3.5" stroke="none" stroke-width="0" fill-opacity="0" fill="#ffffff"></circle><circle cx="180.67567567567568" cy="292.32142857142856" r="3.5" stroke="none" stroke-width="0" fill-opacity="0" fill="#ffffff"></circle><circle cx="190.7027027027027" cy="290.2767857142857" r="3.5" stroke="none" stroke-width="0" fill-opacity="0" fill="#ffffff"></circle><circle cx="200.72972972972974" cy="288.23214285714283" r="3.5" stroke="none" stroke-width="0" fill-opacity="0" fill="#ffffff"></circle><circle cx="210.75675675675674" cy="286.1875" r="3.5" stroke="none" stroke-width="0" fill-opacity="0" fill="#ffffff"></circle><circle cx="220.78378378378378" cy="282.0982142857143" r="3.5" stroke="none" stroke-width="0" fill-opacity="0" fill="#ffffff"></circle><circle cx="230.8108108108108" cy="278.00892857142856" r="3.5" stroke="none" stroke-width="0" fill-opacity="0" fill="#ffffff"></circle><circle cx="240.8378378378378" cy="271.875" r="3.5" stroke="none" stroke-width="0" fill-opacity="0" fill="#ffffff"></circle><circle cx="250.86486486486484" cy="263.69642857142856" r="3.5" stroke="none" stroke-width="0" fill-opacity="0" fill="#ffffff"></circle><circle cx="260.8918918918919" cy="255.51785714285714" r="3.5" stroke="none" stroke-width="0" fill-opacity="0" fill="#ffffff"></circle><circle cx="270.9189189189189" cy="247.33928571428572" r="3.5" stroke="none" stroke-width="0" fill-opacity="0" fill="#ffffff"></circle><circle cx="280.94594594594594" cy="239.16071428571428" r="3.5" stroke="none" stroke-width="0" fill-opacity="0" fill="#ffffff"></circle><circle cx="290.97297297297297" cy="230.98214285714286" r="3.5" stroke="none" stroke-width="0" fill-opacity="0" fill="#ffffff"></circle><circle cx="301" cy="222.80357142857144" r="3.5" stroke="none" stroke-width="0" fill-opacity="0" fill="#ffffff"></circle><circle cx="311.027027027027" cy="214.625" r="3.5" stroke="none" stroke-width="0" fill-opacity="0" fill="#ffffff"></circle><circle cx="321.05405405405406" cy="206.44642857142858" r="3.5" stroke="none" stroke-width="0" fill-opacity="0" fill="#ffffff"></circle><circle cx="331.08108108108104" cy="198.26785714285717" r="3.5" stroke="none" stroke-width="0" fill-opacity="0" fill="#ffffff"></circle><circle cx="341.1081081081081" cy="190.08928571428572" r="3.5" stroke="none" stroke-width="0" fill-opacity="0" fill="#ffffff"></circle><circle cx="351.1351351351351" cy="181.91071428571428" r="3.5" stroke="none" stroke-width="0" fill-opacity="0" fill="#ffffff"></circle><circle cx="361.16216216216213" cy="173.73214285714286" r="3.5" stroke="none" stroke-width="0" fill-opacity="0" fill="#ffffff"></circle><circle cx="371.18918918918916" cy="165.55357142857144" r="3.5" stroke="none" stroke-width="0" fill-opacity="0" fill="#ffffff"></circle><circle cx="381.2162162162162" cy="157.375" r="3.5" stroke="none" stroke-width="0" fill-opacity="0" fill="#ffffff"></circle><circle cx="391.2432432432432" cy="149.19642857142858" r="3.5" stroke="none" stroke-width="0" fill-opacity="0" fill="#ffffff"></circle><circle cx="401.27027027027026" cy="141.01785714285714" r="3.5" stroke="none" stroke-width="0" fill-opacity="0" fill="#ffffff"></circle><circle cx="411.2972972972973" cy="132.83928571428572" r="3.5" stroke="none" stroke-width="0" fill-opacity="0" fill="#ffffff"></circle><circle cx="421.3243243243243" cy="124.6607142857143" r="3.5" stroke="none" stroke-width="0" fill-opacity="0" fill="#ffffff"></circle><circle cx="431.35135135135135" cy="116.48214285714286" r="3.5" stroke="none" stroke-width="0" fill-opacity="0" fill="#ffffff"></circle><circle cx="441.37837837837833" cy="108.30357142857144" r="3.5" stroke="none" stroke-width="0" fill-opacity="0" fill="#ffffff"></circle><circle cx="451.40540540540536" cy="100.125" r="3.5" stroke="none" stroke-width="0" fill-opacity="0" fill="#ffffff"></circle><circle cx="461.4324324324324" cy="91.94642857142858" r="3.5" stroke="none" stroke-width="0" fill-opacity="0" fill="#ffffff"></circle><circle cx="471.4594594594594" cy="84.58571428571429" r="3.5" stroke="none" stroke-width="0" fill-opacity="0" fill="#ffffff"></circle><circle cx="481.48648648648646" cy="77.22500000000002" r="3.5" stroke="none" stroke-width="0" fill-opacity="0" fill="#ffffff"></circle><circle cx="120.51351351351352" cy="300.5" r="3.5" stroke="none" stroke-width="0" fill-opacity="0" fill="#ffffff"></circle><circle cx="130.54054054054055" cy="300.5" r="3.5" stroke="none" stroke-width="0" fill-opacity="0" fill="#ffffff"></circle><circle cx="140.56756756756755" cy="300.5" r="3.5" stroke="none" stroke-width="0" fill-opacity="0" fill="#ffffff"></circle><circle cx="150.59459459459458" cy="300.5" r="3.5" stroke="none" stroke-width="0" fill-opacity="0" fill="#ffffff"></circle><circle cx="160.6216216216216" cy="300.5" r="3.5" stroke="none" stroke-width="0" fill-opacity="0" fill="#ffffff"></circle><circle cx="170.64864864864865" cy="299.6821428571429" r="3.5" stroke="none" stroke-width="0" fill-opacity="0" fill="#ffffff"></circle><circle cx="180.67567567567568" cy="298.8642857142857" r="3.5" stroke="none" stroke-width="0" fill-opacity="0" fill="#ffffff"></circle><circle cx="190.7027027027027" cy="298.0464285714286" r="3.5" stroke="none" stroke-width="0" fill-opacity="0" fill="#ffffff"></circle><circle cx="200.72972972972974" cy="297.22857142857146" r="3.5" stroke="none" stroke-width="0" fill-opacity="0" fill="#ffffff"></circle><circle cx="210.75675675675674" cy="296.4107142857143" r="3.5" stroke="none" stroke-width="0" fill-opacity="0" fill="#ffffff"></circle><circle cx="220.78378378378378" cy="295.18392857142857" r="3.5" stroke="none" stroke-width="0" fill-opacity="0" fill="#ffffff"></circle><circle cx="230.8108108108108" cy="293.95714285714286" r="3.5" stroke="none" stroke-width="0" fill-opacity="0" fill="#ffffff"></circle><circle cx="240.8378378378378" cy="291.50357142857143" r="3.5" stroke="none" stroke-width="0" fill-opacity="0" fill="#ffffff"></circle><circle cx="250.86486486486484" cy="289.05" r="3.5" stroke="none" stroke-width="0" fill-opacity="0" fill="#ffffff"></circle><circle cx="260.8918918918919" cy="286.5964285714286" r="3.5" stroke="none" stroke-width="0" fill-opacity="0" fill="#ffffff"></circle><circle cx="270.9189189189189" cy="284.14285714285717" r="3.5" stroke="none" stroke-width="0" fill-opacity="0" fill="#ffffff"></circle><circle cx="280.94594594594594" cy="281.6892857142857" r="3.5" stroke="none" stroke-width="0" fill-opacity="0" fill="#ffffff"></circle><circle cx="290.97297297297297" cy="279.23571428571427" r="3.5" stroke="none" stroke-width="0" fill-opacity="0" fill="#ffffff"></circle><circle cx="301" cy="276.78214285714284" r="3.5" stroke="none" stroke-width="0" fill-opacity="0" fill="#ffffff"></circle><circle cx="311.027027027027" cy="273.5107142857143" r="3.5" stroke="none" stroke-width="0" fill-opacity="0" fill="#ffffff"></circle><circle cx="321.05405405405406" cy="270.2392857142857" r="3.5" stroke="none" stroke-width="0" fill-opacity="0" fill="#ffffff"></circle><circle cx="331.08108108108104" cy="266.96785714285716" r="3.5" stroke="none" stroke-width="0" fill-opacity="0" fill="#ffffff"></circle><circle cx="341.1081081081081" cy="262.87857142857143" r="3.5" stroke="none" stroke-width="0" fill-opacity="0" fill="#ffffff"></circle><circle cx="351.1351351351351" cy="258.7892857142857" r="3.5" stroke="none" stroke-width="0" fill-opacity="0" fill="#ffffff"></circle><circle cx="361.16216216216213" cy="253.47321428571428" r="3.5" stroke="none" stroke-width="0" fill-opacity="0" fill="#ffffff"></circle><circle cx="371.18918918918916" cy="248.15714285714284" r="3.5" stroke="none" stroke-width="0" fill-opacity="0" fill="#ffffff"></circle><circle cx="381.2162162162162" cy="242.84107142857144" r="3.5" stroke="none" stroke-width="0" fill-opacity="0" fill="#ffffff"></circle><circle cx="391.2432432432432" cy="237.525" r="3.5" stroke="none" stroke-width="0" fill-opacity="0" fill="#ffffff"></circle><circle cx="401.27027027027026" cy="232.20892857142857" r="3.5" stroke="none" stroke-width="0" fill-opacity="0" fill="#ffffff"></circle><circle cx="411.2972972972973" cy="226.89285714285717" r="3.5" stroke="none" stroke-width="0" fill-opacity="0" fill="#ffffff"></circle><circle cx="421.3243243243243" cy="221.57678571428573" r="3.5" stroke="none" stroke-width="0" fill-opacity="0" fill="#ffffff"></circle><circle cx="431.35135135135135" cy="216.2607142857143" r="3.5" stroke="none" stroke-width="0" fill-opacity="0" fill="#ffffff"></circle><circle cx="441.37837837837833" cy="210.94464285714287" r="3.5" stroke="none" stroke-width="0" fill-opacity="0" fill="#ffffff"></circle><circle cx="451.40540540540536" cy="205.62857142857143" r="3.5" stroke="none" stroke-width="0" fill-opacity="0" fill="#ffffff"></circle><circle cx="461.4324324324324" cy="200.3125" r="3.5" stroke="none" stroke-width="0" fill-opacity="0" fill="#ffffff"></circle><circle cx="471.4594594594594" cy="194.99642857142857" r="3.5" stroke="none" stroke-width="0" fill-opacity="0" fill="#ffffff"></circle><circle cx="481.48648648648646" cy="189.68035714285713" r="3.5" stroke="none" stroke-width="0" fill-opacity="0" fill="#ffffff"></circle><circle cx="120.51351351351352" cy="268.93182701652086" r="3.5" stroke="none" stroke-width="0" fill-opacity="0" fill="#ffffff"></circle><circle cx="130.54054054054055" cy="268.93182701652086" r="3.5" stroke="none" stroke-width="0" fill-opacity="0" fill="#ffffff"></circle><circle cx="140.56756756756755" cy="268.93182701652086" r="3.5" stroke="none" stroke-width="0" fill-opacity="0" fill="#ffffff"></circle><circle cx="150.59459459459458" cy="268.93182701652086" r="3.5" stroke="none" stroke-width="0" fill-opacity="0" fill="#ffffff"></circle><circle cx="160.6216216216216" cy="268.93182701652086" r="3.5" stroke="none" stroke-width="0" fill-opacity="0" fill="#ffffff"></circle><circle cx="170.64864864864865" cy="268.93182701652086" r="3.5" stroke="none" stroke-width="0" fill-opacity="0" fill="#ffffff"></circle><circle cx="180.67567567567568" cy="268.93182701652086" r="3.5" stroke="none" stroke-width="0" fill-opacity="0" fill="#ffffff"></circle><circle cx="190.7027027027027" cy="268.93182701652086" r="3.5" stroke="none" stroke-width="0" fill-opacity="0" fill="#ffffff"></circle><circle cx="200.72972972972974" cy="268.93182701652086" r="3.5" stroke="none" stroke-width="0" fill-opacity="0" fill="#ffffff"></circle><circle cx="210.75675675675674" cy="268.93182701652086" r="3.5" stroke="none" stroke-width="0" fill-opacity="0" fill="#ffffff"></circle><circle cx="220.78378378378378" cy="268.93182701652086" r="3.5" stroke="none" stroke-width="0" fill-opacity="0" fill="#ffffff"></circle><circle cx="230.8108108108108" cy="268.93182701652086" r="3.5" stroke="none" stroke-width="0" fill-opacity="0" fill="#ffffff"></circle><circle cx="240.8378378378378" cy="268.93182701652086" r="3.5" stroke="none" stroke-width="0" fill-opacity="0" fill="#ffffff"></circle><circle cx="250.86486486486484" cy="268.93182701652086" r="3.5" stroke="none" stroke-width="0" fill-opacity="0" fill="#ffffff"></circle><circle cx="260.8918918918919" cy="268.93182701652086" r="3.5" stroke="none" stroke-width="0" fill-opacity="0" fill="#ffffff"></circle><circle cx="270.9189189189189" cy="268.93182701652086" r="3.5" stroke="none" stroke-width="0" fill-opacity="0" fill="#ffffff"></circle><circle cx="280.94594594594594" cy="268.93182701652086" r="3.5" stroke="none" stroke-width="0" fill-opacity="0" fill="#ffffff"></circle><circle cx="290.97297297297297" cy="268.93182701652086" r="3.5" stroke="none" stroke-width="0" fill-opacity="0" fill="#ffffff"></circle><circle cx="301" cy="268.93182701652086" r="3.5" stroke="none" stroke-width="0" fill-opacity="0" fill="#ffffff"></circle><circle cx="311.027027027027" cy="268.93182701652086" r="3.5" stroke="none" stroke-width="0" fill-opacity="0" fill="#ffffff"></circle><circle cx="321.05405405405406" cy="268.93182701652086" r="3.5" stroke="none" stroke-width="0" fill-opacity="0" fill="#ffffff"></circle><circle cx="331.08108108108104" cy="268.93182701652086" r="3.5" stroke="none" stroke-width="0" fill-opacity="0" fill="#ffffff"></circle><circle cx="341.1081081081081" cy="268.93182701652086" r="3.5" stroke="none" stroke-width="0" fill-opacity="0" fill="#ffffff"></circle><circle cx="351.1351351351351" cy="260.029980563654" r="3.5" stroke="none" stroke-width="0" fill-opacity="0" fill="#ffffff"></circle><circle cx="361.16216216216213" cy="260.029980563654" r="3.5" stroke="none" stroke-width="0" fill-opacity="0" fill="#ffffff"></circle><circle cx="371.18918918918916" cy="260.029980563654" r="3.5" stroke="none" stroke-width="0" fill-opacity="0" fill="#ffffff"></circle><circle cx="381.2162162162162" cy="260.029980563654" r="3.5" stroke="none" stroke-width="0" fill-opacity="0" fill="#ffffff"></circle><circle cx="391.2432432432432" cy="260.029980563654" r="3.5" stroke="none" stroke-width="0" fill-opacity="0" fill="#ffffff"></circle><circle cx="401.27027027027026" cy="260.029980563654" r="3.5" stroke="none" stroke-width="0" fill-opacity="0" fill="#ffffff"></circle><circle cx="411.2972972972973" cy="260.029980563654" r="3.5" stroke="none" stroke-width="0" fill-opacity="0" fill="#ffffff"></circle><circle cx="421.3243243243243" cy="260.029980563654" r="3.5" stroke="none" stroke-width="0" fill-opacity="0" fill="#ffffff"></circle><circle cx="431.35135135135135" cy="260.029980563654" r="3.5" stroke="none" stroke-width="0" fill-opacity="0" fill="#ffffff"></circle><circle cx="441.37837837837833" cy="260.029980563654" r="3.5" stroke="none" stroke-width="0" fill-opacity="0" fill="#ffffff"></circle><circle cx="451.40540540540536" cy="260.029980563654" r="3.5" stroke="none" stroke-width="0" fill-opacity="0" fill="#ffffff"></circle><circle cx="461.4324324324324" cy="260.029980563654" r="3.5" stroke="none" stroke-width="0" fill-opacity="0" fill="#ffffff"></circle><circle cx="471.4594594594594" cy="260.029980563654" r="3.5" stroke="none" stroke-width="0" fill-opacity="0" fill="#ffffff"></circle><circle cx="481.48648648648646" cy="260.029980563654" r="3.5" stroke="none" stroke-width="0" fill-opacity="0" fill="#ffffff"></circle></g><g></g><g><text x="515" y="81" font-family="Arial" font-size="12" stroke="none" stroke-width="0" fill-opacity="1.0" fill="#222222">Ventes</text><text x="515" y="97" font-family="Arial" font-size="12" stroke="none" stroke-width="0" fill-opacity="1.0" fill="#222222">(optimiste)</text></g><rect x="498" y="71" width="12" height="12" stroke="none" stroke-width="0" fill-opacity="1.0" fill="#38761d"></rect><g><text x="515" y="116" font-family="Arial" font-size="12" stroke="none" stroke-width="0" fill-opacity="1.0" fill="#222222">Ventes</text><text x="515" y="132" font-family="Arial" font-size="12" stroke="none" stroke-width="0" fill-opacity="1.0" fill="#222222">(pessimiste)</text></g><rect x="498" y="106" width="12" height="12" stroke="none" stroke-width="0" fill-opacity="1.0" fill="#741b47"></rect><g><text x="515" y="151" font-family="Arial" font-size="12" stroke="none" stroke-width="0" fill-opacity="1.0" fill="#222222">Point mort</text></g><rect x="498" y="141" width="12" height="12" stroke="none" stroke-width="0" fill-opacity="1.0" fill="#b45f06"></rect><text text-anchor="end" x="125.02313245674694" y="324" font-family="Arial" font-size="12" transform="rotate(330 110.02313245674694 319.69615242270663)" stroke="none" stroke-width="0" fill-opacity="1.0" fill="#222222">0</text><text text-anchor="end" x="155.104213537828" y="324" font-family="Arial" font-size="12" transform="rotate(330 140.104213537828 319.69615242270663)" stroke="none" stroke-width="0" fill-opacity="1.0" fill="#222222">3</text><text text-anchor="end" x="185.1852946189091" y="324" font-family="Arial" font-size="12" transform="rotate(330 170.1852946189091 319.69615242270663)" stroke="none" stroke-width="0" fill-opacity="1.0" fill="#222222">6</text><text text-anchor="end" x="215.26637569999016" y="324" font-family="Arial" font-size="12" transform="rotate(330 200.26637569999016 319.69615242270663)" stroke="none" stroke-width="0" fill-opacity="1.0" fill="#222222">9</text><text text-anchor="end" x="245.34745678107123" y="324" font-family="Arial" font-size="12" transform="rotate(330 230.34745678107123 319.69615242270663)" stroke="none" stroke-width="0" fill-opacity="1.0" fill="#222222">12</text><text text-anchor="end" x="275.4285378621523" y="324" font-family="Arial" font-size="12" transform="rotate(330 260.4285378621523 319.69615242270663)" stroke="none" stroke-width="0" fill-opacity="1.0" fill="#222222">15</text><text text-anchor="end" x="305.5096189432334" y="324" font-family="Arial" font-size="12" transform="rotate(330 290.5096189432334 319.69615242270663)" stroke="none" stroke-width="0" fill-opacity="1.0" fill="#222222">18</text><text text-anchor="end" x="335.59070002431446" y="324" font-family="Arial" font-size="12" transform="rotate(330 320.59070002431446 319.69615242270663)" stroke="none" stroke-width="0" fill-opacity="1.0" fill="#222222">21</text><text text-anchor="end" x="365.67178110539555" y="324" font-family="Arial" font-size="12" transform="rotate(330 350.67178110539555 319.69615242270663)" stroke="none" stroke-width="0" fill-opacity="1.0" fill="#222222">24</text><text text-anchor="end" x="395.75286218647665" y="324" font-family="Arial" font-size="12" transform="rotate(330 380.75286218647665 319.69615242270663)" stroke="none" stroke-width="0" fill-opacity="1.0" fill="#222222">27</text><text text-anchor="end" x="425.83394326755774" y="324" font-family="Arial" font-size="12" transform="rotate(330 410.83394326755774 319.69615242270663)" stroke="none" stroke-width="0" fill-opacity="1.0" fill="#222222">30</text><text text-anchor="end" x="455.9150243486388" y="324" font-family="Arial" font-size="12" transform="rotate(330 440.9150243486388 319.69615242270663)" stroke="none" stroke-width="0" fill-opacity="1.0" fill="#222222">33</text><text text-anchor="end" x="485.9961054297199" y="324" font-family="Arial" font-size="12" transform="rotate(330 470.9961054297199 319.69615242270663)" stroke="none" stroke-width="0" fill-opacity="1.0" fill="#222222">36</text><g><text text-anchor="end" x="103" y="304" font-family="Arial" font-size="12" stroke="none" stroke-width="0" fill-opacity="1.0" fill="#444444">0</text></g><g><text text-anchor="end" x="103" y="247" font-family="Arial" font-size="12" stroke="none" stroke-width="0" fill-opacity="1.0" fill="#444444">700</text></g><g><text text-anchor="end" x="103" y="190" font-family="Arial" font-size="12" stroke="none" stroke-width="0" fill-opacity="1.0" fill="#444444">1,400</text></g><g><text text-anchor="end" x="103" y="132" font-family="Arial" font-size="12" stroke="none" stroke-width="0" fill-opacity="1.0" fill="#444444">2,100</text></g><g><text text-anchor="end" x="103" y="75" font-family="Arial" font-size="12" stroke="none" stroke-width="0" fill-opacity="1.0" fill="#444444">2,800</text></g></g><g></g></svg>