<svg id="chart" width="600" height="371"><defs id="defs"></defs><g><rect x="0.5" y="0.5" width="599" height="370" stroke="none" stroke-width="0" fill-opacity="1.0" fill="#ffffff"></rect><g><text x="115" y="50" font-family="Arial" font-size="12" font-weight="bold" stroke="none" stroke-width="0" fill-opacity="1.0" fill="#000000">Évolution des ventes mensuelles</text></g><g><text text-anchor="middle" x="301" y="352" font-family="Arial" font-size="12" font-style="italic" stroke="none" stroke-width="0" fill-opacity="1.0" fill="#222222">Mois</text></g><g><text text-anchor="middle" x="151" y="304" font-family="Arial" font-size="12" font-style="italic" transform="rotate(270 36 300)" stroke="none" stroke-width="0" fill-opacity="1.0" fill="#222222">Nombre de ventes</text></g><rect x="115" y="300" width="371" height="1" stroke="none" stroke-width="0" fill-opacity="1.0" fill="#cccccc"></rect><rect x="115" y="242" width="371" height="1" stroke="none" stroke-width="0" fill-opacity="1.0" fill="#cccccc"></rect><rect x="115" y="185" width="371" height="1" stroke="none" stroke-width="0" fill-opacity="1.0" fill="#cccccc"></rect><rect x="115" y="128" width="371" height="1" stroke="none" stroke-width="0" fill-opacity="1.0" fill="#cccccc"></rect><rect x="115" y="71" width="371" height="1" stroke="none" stroke-width="0" fill-opacity="1.0" fill="#cccccc"></rect><rect x="115" y="300" width="371" height="1" stroke="none" stroke-width="0" fill-opacity="1.0" fill="#333333"></rect><g><rect x="115" y="71" width="371" height="229" stroke="none" stroke-width="0" fill-opacity="1" fill="none"></rect><g></g><g></g><g><path d="M120.01351351351352,300L130.04054054054055,300L140.06756756756755,300L150.09459459459458,298.09166666666664L160.1216216216216,296.18333333333334L170.14864864864865,294.275L180.17567567567568,292.3666666666667L190.2027027027027,290.4583333333333L200.22972972972974,286.64166666666665L210.25675675675674,282.825L220.28378378378378,277.1L230.3108108108108,271.375L240.3378378378378,265.65L250.36486486486484,258.01666666666665L260.3918918918919,250.38333333333333L270.4189189189189,242.75L280.44594594594594,235.11666666666667L290.47297297297297,227.48333333333335L300.5,219.85L310.527027027027,212.21666666666667L320.55405405405406,204.58333333333331L330.58108108108104,196.95L340.6081081081081,189.31666666666666L350.6351351351351,181.68333333333334L360.66216216216213,174.05L370.68918918918916,166.41666666666666L380.7162162162162,158.78333333333333L390.7432432432432,151.15L400.77027027027026,143.51666666666665L410.7972972972973,135.88333333333333L420.8243243243243,128.25L430.85135135135135,120.61666666666665L440.87837837837833,112.98333333333332L450.90540540540536,105.35L460.9324324324324,97.71666666666667L470.9594594594594,90.84666666666666L480.98648648648646,83.97666666666666" stroke="#38761d" stroke-width="2" fill-opacity="1" fill="none"></path><path d="M120.01351351351352,300L130.04054054054055,300L140.06756756756755,300L150.09459459459458,300L160.1216216216216,300L170.14864864864865,299.2366666666667L180.17567567567568,298.47333333333336L190.2027027027027,297.71L200.22972972972974,296.94666666666666L210.25675675675674,296.18333333333334L220.28378378378378,294.65666666666664L230.3108108108108,293.13L240.3378378378378,290.84L250.36486486486484,288.55L260.3918918918919,286.26L270.4189189189189,283.97L280.44594594594594,281.68L290.47297297297297,279.39L300.5,277.1L310.527027027027,274.0466666666667L320.55405405405406,270.99333333333334L330.58108108108104,267.94L340.6081081081081,264.12333333333333L350.6351351351351,260.3066666666667L360.66216216216213,255.345L370.68918918918916,250.38333333333333L380.7162162162162,245.42166666666668L390.7432432432432,240.46L400.77027027027026,235.49833333333333L410.7972972972973,230.53666666666666L420.8243243243243,225.575L430.85135135135135,220.61333333333334L440.87837837837833,215.65166666666664L450.90540540540536,210.69L460.9324324324324,205.72833333333332L470.9594594594594,200.76666666666665L480.98648648648646,195.805" stroke="#741b47" stroke-width="2" fill-opacity="1" fill="none"></path><path d="M120.01351351351352,274.2449350649351L130.04054054054055,273.91448773448775L140.06756756756755,271.9318037518037L150.09459459459458,271.9318037518037L160.1216216216216,271.9318037518037L170.14864864864865,271.9318037518037L180.17567567567568,271.9318037518037L190.2027027027027,271.9318037518037L200.22972972972974,270.6100144300144L210.25675675675674,270.6100144300144L220.28378378378378,270.6100144300144L230.3108108108108,270.94046176046174L240.3378378378378,271.8756277056277L250.36486486486484,271.8756277056277L260.3918918918919,271.8756277056277L270.4189189189189,271.8756277056277L280.44594594594594,271.8756277056277L290.47297297297297,271.8756277056277L300.5,271.8756277056277L310.527027027027,271.8756277056277L320.55405405405406,271.8756277056277L330.58108108108104,271.8756277056277L340.6081081081081,271.8756277056277L350.6351351351351,263.94489177489174L360.66216216216213,263.94489177489174L370.68918918918916,263.94489177489174L380.7162162162162,263.94489177489174L390.7432432432432,263.94489177489174L400.77027027027026,263.94489177489174L410.7972972972973,263.94489177489174L420.8243243243243,263.94489177489174L430.85135135135135,263.94489177489174L440.87837837837833,263.94489177489174L450.90540540540536,263.94489177489174L460.9324324324324,263.94489177489174L470.9594594594594,263.94489177489174L480.98648648648646,263.94489177489174" stroke="#b45f06" stroke-width="2" fill-opacity="1" fill="none"></path></g><g><circle cx="120.51351351351352" cy="300.5" r="12" stroke="none" stroke-width="0" fill-opacity="0" fill="#ffffff"></circle><circle cx="130.54054054054055" cy="300.5" r="12" stroke="none" stroke-width="0" fill-opacity="0" fill="#ffffff"></circle><circle cx="140.56756756756755" cy="300.5" r="12" stroke="none" stroke-width="0" fill-opacity="0" fill="#ffffff"></circle><circle cx="150.59459459459458" cy="298.59166666666664" r="12" stroke="none" stroke-width="0" fill-opacity="0" fill="#ffffff"></circle><circle cx="160.6216216216216" cy="296.68333333333334" r="12" stroke="none" stroke-width="0" fill-opacity="0" fill="#ffffff"></circle><circle cx="170.64864864864865" cy="294.775" r="12" stroke="none" stroke-width="0" fill-opacity="0" fill="#ffffff"></circle><circle cx="180.67567567567568" cy="292.8666666666667" r="12" stroke="none" stroke-width="0" fill-opacity="0" fill="#ffffff"></circle><circle cx="190.7027027027027" cy="290.9583333333333" r="12" stroke="none" stroke-width="0" fill-opacity="0" fill="#ffffff"></circle><circle cx="200.72972972972974" cy="287.14166666666665" r="12" stroke="none" stroke-width="0" fill-opacity="0" fill="#ffffff"></circle><circle cx="210.75675675675674" cy="283.325" r="12" stroke="none" stroke-width="0" fill-opacity="0" fill="#ffffff"></circle><circle cx="220.78378378378378" cy="277.6" r="12" stroke="none" stroke-width="0" fill-opacity="0" fill="#ffffff"></circle><circle cx="230.8108108108108" cy="271.875" r="12" stroke="none" stroke-width="0" fill-opacity="0" fill="#ffffff"></circle><circle cx="240.8378378378378" cy="266.15" r="12" stroke="none" stroke-width="0" fill-opacity="0" fill="#ffffff"></circle><circle cx="250.86486486486484" cy="258.51666666666665" r="12" stroke="none" stroke-width="0" fill-opacity="0" fill="#ffffff"></circle><circle cx="260.8918918918919" cy="250.88333333333333" r="12" stroke="none" stroke-width="0" fill-opacity="0" fill="#ffffff"></circle><circle cx="270.9189189189189" cy="243.25" r="12" stroke="none" stroke-width="0" fill-opacity="0" fill="#ffffff"></circle><circle cx="280.94594594594594" cy="235.61666666666667" r="12" stroke="none" stroke-width="0" fill-opacity="0" fill="#ffffff"></circle><circle cx="290.97297297297297" cy="227.98333333333335" r="12" stroke="none" stroke-width="0" fill-opacity="0" fill="#ffffff"></circle><circle cx="301" cy="220.35" r="12" stroke="none" stroke-width="0" fill-opacity="0" fill="#ffffff"></circle><circle cx="311.027027027027" cy="212.71666666666667" r="12" stroke="none" stroke-width="0" fill-opacity="0" fill="#ffffff"></circle><circle cx="321.05405405405406" cy="205.08333333333331" r="12" stroke="none" stroke-width="0" fill-opacity="0" fill="#ffffff"></circle><circle cx="331.08108108108104" cy="197.45" r="12" stroke="none" stroke-width="0" fill-opacity="0" fill="#ffffff"></circle><circle cx="341.1081081081081" cy="189.81666666666666" r="12" stroke="none" stroke-width="0" fill-opacity="0" fill="#ffffff"></circle><circle cx="351.1351351351351" cy="182.18333333333334" r="12" stroke="none" stroke-width="0" fill-opacity="0" fill="#ffffff"></circle><circle cx="361.16216216216213" cy="174.55" r="12" stroke="none" stroke-width="0" fill-opacity="0" fill="#ffffff"></circle><circle cx="371.18918918918916" cy="166.91666666666666" r="12" stroke="none" stroke-width="0" fill-opacity="0" fill="#ffffff"></circle><circle cx="381.2162162162162" cy="159.28333333333333" r="12" stroke="none" stroke-width="0" fill-opacity="0" fill="#ffffff"></circle><circle cx="391.2432432432432" cy="151.65" r="12" stroke="none" stroke-width="0" fill-opacity="0" fill="#ffffff"></circle><circle cx="401.27027027027026" cy="144.01666666666665" r="12" stroke="none" stroke-width="0" fill-opacity="0" fill="#ffffff"></circle><circle cx="411.2972972972973" cy="136.38333333333333" r="12" stroke="none" stroke-width="0" fill-opacity="0" fill="#ffffff"></circle><circle cx="421.3243243243243" cy="128.75" r="12" stroke="none" stroke-width="0" fill-opacity="0" fill="#ffffff"></circle><circle cx="431.35135135135135" cy="121.11666666666665" r="12" stroke="none" stroke-width="0" fill-opacity="0" fill="#ffffff"></circle><circle cx="441.37837837837833" cy="113.48333333333332" r="12" stroke="none" stroke-width="0" fill-opacity="0" fill="#ffffff"></circle><circle cx="451.40540540540536" cy="105.85" r="12" stroke="none" stroke-width="0" fill-opacity="0" fill="#ffffff"></circle><circle cx="461.4324324324324" cy="98.21666666666667" r="12" stroke="none" stroke-width="0" fill-opacity="0" fill="#ffffff"></circle><circle cx="471.4594594594594" cy="91.34666666666666" r="12" stroke="none" stroke-width="0" fill-opacity="0" fill="#ffffff"></circle><circle cx="481.48648648648646" cy="84.47666666666666" r="12" stroke="none" stroke-width="0" fill-opacity="0" fill="#ffffff"></circle><circle cx="120.51351351351352" cy="300.5" r="12" stroke="none" stroke-width="0" fill-opacity="0" fill="#ffffff"></circle><circle cx="130.54054054054055" cy="300.5" r="12" stroke="none" stroke-width="0" fill-opacity="0" fill="#ffffff"></circle><circle cx="140.56756756756755" cy="300.5" r="12" stroke="none" stroke-width="0" fill-opacity="0" fill="#ffffff"></circle><circle cx="150.59459459459458" cy="300.5" r="12" stroke="none" stroke-width="0" fill-opacity="0" fill="#ffffff"></circle><circle cx="160.6216216216216" cy="300.5" r="12" stroke="none" stroke-width="0" fill-opacity="0" fill="#ffffff"></circle><circle cx="170.64864864864865" cy="299.7366666666667" r="12" stroke="none" stroke-width="0" fill-opacity="0" fill="#ffffff"></circle><circle cx="180.67567567567568" cy="298.97333333333336" r="12" stroke="none" stroke-width="0" fill-opacity="0" fill="#ffffff"></circle><circle cx="190.7027027027027" cy="298.21" r="12" stroke="none" stroke-width="0" fill-opacity="0" fill="#ffffff"></circle><circle cx="200.72972972972974" cy="297.44666666666666" r="12" stroke="none" stroke-width="0" fill-opacity="0" fill="#ffffff"></circle><circle cx="210.75675675675674" cy="296.68333333333334" r="12" stroke="none" stroke-width="0" fill-opacity="0" fill="#ffffff"></circle><circle cx="220.78378378378378" cy="295.15666666666664" r="12" stroke="none" stroke-width="0" fill-opacity="0" fill="#ffffff"></circle><circle cx="230.8108108108108" cy="293.63" r="12" stroke="none" stroke-width="0" fill-opacity="0" fill="#ffffff"></circle><circle cx="240.8378378378378" cy="291.34" r="12" stroke="none" stroke-width="0" fill-opacity="0" fill="#ffffff"></circle><circle cx="250.86486486486484" cy="289.05" r="12" stroke="none" stroke-width="0" fill-opacity="0" fill="#ffffff"></circle><circle cx="260.8918918918919" cy="286.76" r="12" stroke="none" stroke-width="0" fill-opacity="0" fill="#ffffff"></circle><circle cx="270.9189189189189" cy="284.47" r="12" stroke="none" stroke-width="0" fill-opacity="0" fill="#ffffff"></circle><circle cx="280.94594594594594" cy="282.18" r="12" stroke="none" stroke-width="0" fill-opacity="0" fill="#ffffff"></circle><circle cx="290.97297297297297" cy="279.89" r="12" stroke="none" stroke-width="0" fill-opacity="0" fill="#ffffff"></circle><circle cx="301" cy="277.6" r="12" stroke="none" stroke-width="0" fill-opacity="0" fill="#ffffff"></circle><circle cx="311.027027027027" cy="274.5466666666667" r="12" stroke="none" stroke-width="0" fill-opacity="0" fill="#ffffff"></circle><circle cx="321.05405405405406" cy="271.49333333333334" r="12" stroke="none" stroke-width="0" fill-opacity="0" fill="#ffffff"></circle><circle cx="331.08108108108104" cy="268.44" r="12" stroke="none" stroke-width="0" fill-opacity="0" fill="#ffffff"></circle><circle cx="341.1081081081081" cy="264.62333333333333" r="12" stroke="none" stroke-width="0" fill-opacity="0" fill="#ffffff"></circle><circle cx="351.1351351351351" cy="260.8066666666667" r="12" stroke="none" stroke-width="0" fill-opacity="0" fill="#ffffff"></circle><circle cx="361.16216216216213" cy="255.845" r="12" stroke="none" stroke-width="0" fill-opacity="0" fill="#ffffff"></circle><circle cx="371.18918918918916" cy="250.88333333333333" r="12" stroke="none" stroke-width="0" fill-opacity="0" fill="#ffffff"></circle><circle cx="381.2162162162162" cy="245.92166666666668" r="12" stroke="none" stroke-width="0" fill-opacity="0" fill="#ffffff"></circle><circle cx="391.2432432432432" cy="240.96" r="12" stroke="none" stroke-width="0" fill-opacity="0" fill="#ffffff"></circle><circle cx="401.27027027027026" cy="235.99833333333333" r="12" stroke="none" stroke-width="0" fill-opacity="0" fill="#ffffff"></circle><circle cx="411.2972972972973" cy="231.03666666666666" r="12" stroke="none" stroke-width="0" fill-opacity="0" fill="#ffffff"></circle><circle cx="421.3243243243243" cy="226.075" r="12" stroke="none" stroke-width="0" fill-opacity="0" fill="#ffffff"></circle><circle cx="431.35135135135135" cy="221.11333333333334" r="12" stroke="none" stroke-width="0" fill-opacity="0" fill="#ffffff"></circle><circle cx="441.37837837837833" cy="216.15166666666664" r="12" stroke="none" stroke-width="0" fill-opacity="0" fill="#ffffff"></circle><circle cx="451.40540540540536" cy="211.19" r="12" stroke="none" stroke-width="0" fill-opacity="0" fill="#ffffff"></circle><circle cx="461.4324324324324" cy="206.22833333333332" r="12" stroke="none" stroke-width="0" fill-opacity="0" fill="#ffffff"></circle><circle cx="471.4594594594594" cy="201.26666666666665" r="12" stroke="none" stroke-width="0" fill-opacity="0" fill="#ffffff"></circle><circle cx="481.48648648648646" cy="196.305" r="12" stroke="none" stroke-width="0" fill-opacity="0" fill="#ffffff"></circle><circle cx="120.51351351351352" cy="274.7449350649351" r="12" stroke="none" stroke-width="0" fill-opacity="0" fill="#ffffff"></circle><circle cx="130.54054054054055" cy="274.41448773448775" r="12" stroke="none" stroke-width="0" fill-opacity="0" fill="#ffffff"></circle><circle cx="140.56756756756755" cy="272.4318037518037" r="12" stroke="none" stroke-width="0" fill-opacity="0" fill="#ffffff"></circle><circle cx="150.59459459459458" cy="272.4318037518037" r="12" stroke="none" stroke-width="0" fill-opacity="0" fill="#ffffff"></circle><circle cx="160.6216216216216" cy="272.4318037518037" r="12" stroke="none" stroke-width="0" fill-opacity="0" fill="#ffffff"></circle><circle cx="170.64864864864865" cy="272.4318037518037" r="12" stroke="none" stroke-width="0" fill-opacity="0" fill="#ffffff"></circle><circle cx="180.67567567567568" cy="272.4318037518037" r="12" stroke="none" stroke-width="0" fill-opacity="0" fill="#ffffff"></circle><circle cx="190.7027027027027" cy="272.4318037518037" r="12" stroke="none" stroke-width="0" fill-opacity="0" fill="#ffffff"></circle><circle cx="200.72972972972974" cy="271.1100144300144" r="12" stroke="none" stroke-width="0" fill-opacity="0" fill="#ffffff"></circle><circle cx="210.75675675675674" cy="271.1100144300144" r="12" stroke="none" stroke-width="0" fill-opacity="0" fill="#ffffff"></circle><circle cx="220.78378378378378" cy="271.1100144300144" r="12" stroke="none" stroke-width="0" fill-opacity="0" fill="#ffffff"></circle><circle cx="230.8108108108108" cy="271.44046176046174" r="12" stroke="none" stroke-width="0" fill-opacity="0" fill="#ffffff"></circle><circle cx="240.8378378378378" cy="272.3756277056277" r="12" stroke="none" stroke-width="0" fill-opacity="0" fill="#ffffff"></circle><circle cx="250.86486486486484" cy="272.3756277056277" r="12" stroke="none" stroke-width="0" fill-opacity="0" fill="#ffffff"></circle><circle cx="260.8918918918919" cy="272.3756277056277" r="12" stroke="none" stroke-width="0" fill-opacity="0" fill="#ffffff"></circle><circle cx="270.9189189189189" cy="272.3756277056277" r="12" stroke="none" stroke-width="0" fill-opacity="0" fill="#ffffff"></circle><circle cx="280.94594594594594" cy="272.3756277056277" r="12" stroke="none" stroke-width="0" fill-opacity="0" fill="#ffffff"></circle><circle cx="290.97297297297297" cy="272.3756277056277" r="12" stroke="none" stroke-width="0" fill-opacity="0" fill="#ffffff"></circle><circle cx="301" cy="272.3756277056277" r="12" stroke="none" stroke-width="0" fill-opacity="0" fill="#ffffff"></circle><circle cx="311.027027027027" cy="272.3756277056277" r="12" stroke="none" stroke-width="0" fill-opacity="0" fill="#ffffff"></circle><circle cx="321.05405405405406" cy="272.3756277056277" r="12" stroke="none" stroke-width="0" fill-opacity="0" fill="#ffffff"></circle><circle cx="331.08108108108104" cy="272.3756277056277" r="12" stroke="none" stroke-width="0" fill-opacity="0" fill="#ffffff"></circle><circle cx="341.1081081081081" cy="272.3756277056277" r="12" stroke="none" stroke-width="0" fill-opacity="0" fill="#ffffff"></circle><circle cx="351.1351351351351" cy="264.44489177489174" r="12" stroke="none" stroke-width="0" fill-opacity="0" fill="#ffffff"></circle><circle cx="361.16216216216213" cy="264.44489177489174" r="12" stroke="none" stroke-width="0" fill-opacity="0" fill="#ffffff"></circle><circle cx="371.18918918918916" cy="264.44489177489174" r="12" stroke="none" stroke-width="0" fill-opacity="0" fill="#ffffff"></circle><circle cx="381.2162162162162" cy="264.44489177489174" r="12" stroke="none" stroke-width="0" fill-opacity="0" fill="#ffffff"></circle><circle cx="391.2432432432432" cy="264.44489177489174" r="12" stroke="none" stroke-width="0" fill-opacity="0" fill="#ffffff"></circle><circle cx="401.27027027027026" cy="264.44489177489174" r="12" stroke="none" stroke-width="0" fill-opacity="0" fill="#ffffff"></circle><circle cx="411.2972972972973" cy="264.44489177489174" r="12" stroke="none" stroke-width="0" fill-opacity="0" fill="#ffffff"></circle><circle cx="421.3243243243243" cy="264.44489177489174" r="12" stroke="none" stroke-width="0" fill-opacity="0" fill="#ffffff"></circle><circle cx="431.35135135135135" cy="264.44489177489174" r="12" stroke="none" stroke-width="0" fill-opacity="0" fill="#ffffff"></circle><circle cx="441.37837837837833" cy="264.44489177489174" r="12" stroke="none" stroke-width="0" fill-opacity="0" fill="#ffffff"></circle><circle cx="451.40540540540536" cy="264.44489177489174" r="12" stroke="none" stroke-width="0" fill-opacity="0" fill="#ffffff"></circle><circle cx="461.4324324324324" cy="264.44489177489174" r="12" stroke="none" stroke-width="0" fill-opacity="0" fill="#ffffff"></circle><circle cx="471.4594594594594" cy="264.44489177489174" r="12" stroke="none" stroke-width="0" fill-opacity="0" fill="#ffffff"></circle><circle cx="481.48648648648646" cy="264.44489177489174" r="12" stroke="none" stroke-width="0" fill-opacity="0" fill="#ffffff"></circle></g><g><circle cx="120.51351351351352" cy="300.5" r="3.5" stroke="none" stroke-width="0" fill-opacity="0" fill="#ffffff"></circle><circle cx="130.54054054054055" cy="300.5" r="3.5" stroke="none" stroke-width="0" fill-opacity="0" fill="#ffffff"></circle><circle cx="140.56756756756755" cy="300.5" r="3.5" stroke="none" stroke-width="0" fill-opacity="0" fill="#ffffff"></circle><circle cx="150.59459459459458" cy="298.59166666666664" r="3.5" stroke="none" stroke-width="0" fill-opacity="0" fill="#ffffff"></circle><circle cx="160.6216216216216" cy="296.68333333333334" r="3.5" stroke="none" stroke-width="0" fill-opacity="0" fill="#ffffff"></circle><circle cx="170.64864864864865" cy="294.775" r="3.5" stroke="none" stroke-width="0" fill-opacity="0" fill="#ffffff"></circle><circle cx="180.67567567567568" cy="292.8666666666667" r="3.5" stroke="none" stroke-width="0" fill-opacity="0" fill="#ffffff"></circle><circle cx="190.7027027027027" cy="290.9583333333333" r="3.5" stroke="none" stroke-width="0" fill-opacity="0" fill="#ffffff"></circle><circle cx="200.72972972972974" cy="287.14166666666665" r="3.5" stroke="none" stroke-width="0" fill-opacity="0" fill="#ffffff"></circle><circle cx="210.75675675675674" cy="283.325" r="3.5" stroke="none" stroke-width="0" fill-opacity="0" fill="#ffffff"></circle><circle cx="220.78378378378378" cy="277.6" r="3.5" stroke="none" stroke-width="0" fill-opacity="0" fill="#ffffff"></circle><circle cx="230.8108108108108" cy="271.875" r="3.5" stroke="none" stroke-width="0" fill-opacity="0" fill="#ffffff"></circle><circle cx="240.8378378378378" cy="266.15" r="3.5" stroke="none" stroke-width="0" fill-opacity="0" fill="#ffffff"></circle><circle cx="250.86486486486484" cy="258.51666666666665" r="3.5" stroke="none" stroke-width="0" fill-opacity="0" fill="#ffffff"></circle><circle cx="260.8918918918919" cy="250.88333333333333" r="3.5" stroke="none" stroke-width="0" fill-opacity="0" fill="#ffffff"></circle><circle cx="270.9189189189189" cy="243.25" r="3.5" stroke="none" stroke-width="0" fill-opacity="0" fill="#ffffff"></circle><circle cx="280.94594594594594" cy="235.61666666666667" r="3.5" stroke="none" stroke-width="0" fill-opacity="0" fill="#ffffff"></circle><circle cx="290.97297297297297" cy="227.98333333333335" r="3.5" stroke="none" stroke-width="0" fill-opacity="0" fill="#ffffff"></circle><circle cx="301" cy="220.35" r="3.5" stroke="none" stroke-width="0" fill-opacity="0" fill="#ffffff"></circle><circle cx="311.027027027027" cy="212.71666666666667" r="3.5" stroke="none" stroke-width="0" fill-opacity="0" fill="#ffffff"></circle><circle cx="321.05405405405406" cy="205.08333333333331" r="3.5" stroke="none" stroke-width="0" fill-opacity="0" fill="#ffffff"></circle><circle cx="331.08108108108104" cy="197.45" r="3.5" stroke="none" stroke-width="0" fill-opacity="0" fill="#ffffff"></circle><circle cx="341.1081081081081" cy="189.81666666666666" r="3.5" stroke="none" stroke-width="0" fill-opacity="0" fill="#ffffff"></circle><circle cx="351.1351351351351" cy="182.18333333333334" r="3.5" stroke="none" stroke-width="0" fill-opacity="0" fill="#ffffff"></circle><circle cx="361.16216216216213" cy="174.55" r="3.5" stroke="none" stroke-width="0" fill-opacity="0" fill="#ffffff"></circle><circle cx="371.18918918918916" cy="166.91666666666666" r="3.5" stroke="none" stroke-width="0" fill-opacity="0" fill="#ffffff"></circle><circle cx="381.2162162162162" cy="159.28333333333333" r="3.5" stroke="none" stroke-width="0" fill-opacity="0" fill="#ffffff"></circle><circle cx="391.2432432432432" cy="151.65" r="3.5" stroke="none" stroke-width="0" fill-opacity="0" fill="#ffffff"></circle><circle cx="401.27027027027026" cy="144.01666666666665" r="3.5" stroke="none" stroke-width="0" fill-opacity="0" fill="#ffffff"></circle><circle cx="411.2972972972973" cy="136.38333333333333" r="3.5" stroke="none" stroke-width="0" fill-opacity="0" fill="#ffffff"></circle><circle cx="421.3243243243243" cy="128.75" r="3.5" stroke="none" stroke-width="0" fill-opacity="0" fill="#ffffff"></circle><circle cx="431.35135135135135" cy="121.11666666666665" r="3.5" stroke="none" stroke-width="0" fill-opacity="0" fill="#ffffff"></circle><circle cx="441.37837837837833" cy="113.48333333333332" r="3.5" stroke="none" stroke-width="0" fill-opacity="0" fill="#ffffff"></circle><circle cx="451.40540540540536" cy="105.85" r="3.5" stroke="none" stroke-width="0" fill-opacity="0" fill="#ffffff"></circle><circle cx="461.4324324324324" cy="98.21666666666667" r="3.5" stroke="none" stroke-width="0" fill-opacity="0" fill="#ffffff"></circle><circle cx="471.4594594594594" cy="91.34666666666666" r="3.5" stroke="none" stroke-width="0" fill-opacity="0" fill="#ffffff"></circle><circle cx="481.48648648648646" cy="84.47666666666666" r="3.5" stroke="none" stroke-width="0" fill-opacity="0" fill="#ffffff"></circle><circle cx="120.51351351351352" cy="300.5" r="3.5" stroke="none" stroke-width="0" fill-opacity="0" fill="#ffffff"></circle><circle cx="130.54054054054055" cy="300.5" r="3.5" stroke="none" stroke-width="0" fill-opacity="0" fill="#ffffff"></circle><circle cx="140.56756756756755" cy="300.5" r="3.5" stroke="none" stroke-width="0" fill-opacity="0" fill="#ffffff"></circle><circle cx="150.59459459459458" cy="300.5" r="3.5" stroke="none" stroke-width="0" fill-opacity="0" fill="#ffffff"></circle><circle cx="160.6216216216216" cy="300.5" r="3.5" stroke="none" stroke-width="0" fill-opacity="0" fill="#ffffff"></circle><circle cx="170.64864864864865" cy="299.7366666666667" r="3.5" stroke="none" stroke-width="0" fill-opacity="0" fill="#ffffff"></circle><circle cx="180.67567567567568" cy="298.97333333333336" r="3.5" stroke="none" stroke-width="0" fill-opacity="0" fill="#ffffff"></circle><circle cx="190.7027027027027" cy="298.21" r="3.5" stroke="none" stroke-width="0" fill-opacity="0" fill="#ffffff"></circle><circle cx="200.72972972972974" cy="297.44666666666666" r="3.5" stroke="none" stroke-width="0" fill-opacity="0" fill="#ffffff"></circle><circle cx="210.75675675675674" cy="296.68333333333334" r="3.5" stroke="none" stroke-width="0" fill-opacity="0" fill="#ffffff"></circle><circle cx="220.78378378378378" cy="295.15666666666664" r="3.5" stroke="none" stroke-width="0" fill-opacity="0" fill="#ffffff"></circle><circle cx="230.8108108108108" cy="293.63" r="3.5" stroke="none" stroke-width="0" fill-opacity="0" fill="#ffffff"></circle><circle cx="240.8378378378378" cy="291.34" r="3.5" stroke="none" stroke-width="0" fill-opacity="0" fill="#ffffff"></circle><circle cx="250.86486486486484" cy="289.05" r="3.5" stroke="none" stroke-width="0" fill-opacity="0" fill="#ffffff"></circle><circle cx="260.8918918918919" cy="286.76" r="3.5" stroke="none" stroke-width="0" fill-opacity="0" fill="#ffffff"></circle><circle cx="270.9189189189189" cy="284.47" r="3.5" stroke="none" stroke-width="0" fill-opacity="0" fill="#ffffff"></circle><circle cx="280.94594594594594" cy="282.18" r="3.5" stroke="none" stroke-width="0" fill-opacity="0" fill="#ffffff"></circle><circle cx="290.97297297297297" cy="279.89" r="3.5" stroke="none" stroke-width="0" fill-opacity="0" fill="#ffffff"></circle><circle cx="301" cy="277.6" r="3.5" stroke="none" stroke-width="0" fill-opacity="0" fill="#ffffff"></circle><circle cx="311.027027027027" cy="274.5466666666667" r="3.5" stroke="none" stroke-width="0" fill-opacity="0" fill="#ffffff"></circle><circle cx="321.05405405405406" cy="271.49333333333334" r="3.5" stroke="none" stroke-width="0" fill-opacity="0" fill="#ffffff"></circle><circle cx="331.08108108108104" cy="268.44" r="3.5" stroke="none" stroke-width="0" fill-opacity="0" fill="#ffffff"></circle><circle cx="341.1081081081081" cy="264.62333333333333" r="3.5" stroke="none" stroke-width="0" fill-opacity="0" fill="#ffffff"></circle><circle cx="351.1351351351351" cy="260.8066666666667" r="3.5" stroke="none" stroke-width="0" fill-opacity="0" fill="#ffffff"></circle><circle cx="361.16216216216213" cy="255.845" r="3.5" stroke="none" stroke-width="0" fill-opacity="0" fill="#ffffff"></circle><circle cx="371.18918918918916" cy="250.88333333333333" r="3.5" stroke="none" stroke-width="0" fill-opacity="0" fill="#ffffff"></circle><circle cx="381.2162162162162" cy="245.92166666666668" r="3.5" stroke="none" stroke-width="0" fill-opacity="0" fill="#ffffff"></circle><circle cx="391.2432432432432" cy="240.96" r="3.5" stroke="none" stroke-width="0" fill-opacity="0" fill="#ffffff"></circle><circle cx="401.27027027027026" cy="235.99833333333333" r="3.5" stroke="none" stroke-width="0" fill-opacity="0" fill="#ffffff"></circle><circle cx="411.2972972972973" cy="231.03666666666666" r="3.5" stroke="none" stroke-width="0" fill-opacity="0" fill="#ffffff"></circle><circle cx="421.3243243243243" cy="226.075" r="3.5" stroke="none" stroke-width="0" fill-opacity="0" fill="#ffffff"></circle><circle cx="431.35135135135135" cy="221.11333333333334" r="3.5" stroke="none" stroke-width="0" fill-opacity="0" fill="#ffffff"></circle><circle cx="441.37837837837833" cy="216.15166666666664" r="3.5" stroke="none" stroke-width="0" fill-opacity="0" fill="#ffffff"></circle><circle cx="451.40540540540536" cy="211.19" r="3.5" stroke="none" stroke-width="0" fill-opacity="0" fill="#ffffff"></circle><circle cx="461.4324324324324" cy="206.22833333333332" r="3.5" stroke="none" stroke-width="0" fill-opacity="0" fill="#ffffff"></circle><circle cx="471.4594594594594" cy="201.26666666666665" r="3.5" stroke="none" stroke-width="0" fill-opacity="0" fill="#ffffff"></circle><circle cx="481.48648648648646" cy="196.305" r="3.5" stroke="none" stroke-width="0" fill-opacity="0" fill="#ffffff"></circle><circle cx="120.51351351351352" cy="274.7449350649351" r="3.5" stroke="none" stroke-width="0" fill-opacity="0" fill="#ffffff"></circle><circle cx="130.54054054054055" cy="274.41448773448775" r="3.5" stroke="none" stroke-width="0" fill-opacity="0" fill="#ffffff"></circle><circle cx="140.56756756756755" cy="272.4318037518037" r="3.5" stroke="none" stroke-width="0" fill-opacity="0" fill="#ffffff"></circle><circle cx="150.59459459459458" cy="272.4318037518037" r="3.5" stroke="none" stroke-width="0" fill-opacity="0" fill="#ffffff"></circle><circle cx="160.6216216216216" cy="272.4318037518037" r="3.5" stroke="none" stroke-width="0" fill-opacity="0" fill="#ffffff"></circle><circle cx="170.64864864864865" cy="272.4318037518037" r="3.5" stroke="none" stroke-width="0" fill-opacity="0" fill="#ffffff"></circle><circle cx="180.67567567567568" cy="272.4318037518037" r="3.5" stroke="none" stroke-width="0" fill-opacity="0" fill="#ffffff"></circle><circle cx="190.7027027027027" cy="272.4318037518037" r="3.5" stroke="none" stroke-width="0" fill-opacity="0" fill="#ffffff"></circle><circle cx="200.72972972972974" cy="271.1100144300144" r="3.5" stroke="none" stroke-width="0" fill-opacity="0" fill="#ffffff"></circle><circle cx="210.75675675675674" cy="271.1100144300144" r="3.5" stroke="none" stroke-width="0" fill-opacity="0" fill="#ffffff"></circle><circle cx="220.78378378378378" cy="271.1100144300144" r="3.5" stroke="none" stroke-width="0" fill-opacity="0" fill="#ffffff"></circle><circle cx="230.8108108108108" cy="271.44046176046174" r="3.5" stroke="none" stroke-width="0" fill-opacity="0" fill="#ffffff"></circle><circle cx="240.8378378378378" cy="272.3756277056277" r="3.5" stroke="none" stroke-width="0" fill-opacity="0" fill="#ffffff"></circle><circle cx="250.86486486486484" cy="272.3756277056277" r="3.5" stroke="none" stroke-width="0" fill-opacity="0" fill="#ffffff"></circle><circle cx="260.8918918918919" cy="272.3756277056277" r="3.5" stroke="none" stroke-width="0" fill-opacity="0" fill="#ffffff"></circle><circle cx="270.9189189189189" cy="272.3756277056277" r="3.5" stroke="none" stroke-width="0" fill-opacity="0" fill="#ffffff"></circle><circle cx="280.94594594594594" cy="272.3756277056277" r="3.5" stroke="none" stroke-width="0" fill-opacity="0" fill="#ffffff"></circle><circle cx="290.97297297297297" cy="272.3756277056277" r="3.5" stroke="none" stroke-width="0" fill-opacity="0" fill="#ffffff"></circle><circle cx="301" cy="272.3756277056277" r="3.5" stroke="none" stroke-width="0" fill-opacity="0" fill="#ffffff"></circle><circle cx="311.027027027027" cy="272.3756277056277" r="3.5" stroke="none" stroke-width="0" fill-opacity="0" fill="#ffffff"></circle><circle cx="321.05405405405406" cy="272.3756277056277" r="3.5" stroke="none" stroke-width="0" fill-opacity="0" fill="#ffffff"></circle><circle cx="331.08108108108104" cy="272.3756277056277" r="3.5" stroke="none" stroke-width="0" fill-opacity="0" fill="#ffffff"></circle><circle cx="341.1081081081081" cy="272.3756277056277" r="3.5" stroke="none" stroke-width="0" fill-opacity="0" fill="#ffffff"></circle><circle cx="351.1351351351351" cy="264.44489177489174" r="3.5" stroke="none" stroke-width="0" fill-opacity="0" fill="#ffffff"></circle><circle cx="361.16216216216213" cy="264.44489177489174" r="3.5" stroke="none" stroke-width="0" fill-opacity="0" fill="#ffffff"></circle><circle cx="371.18918918918916" cy="264.44489177489174" r="3.5" stroke="none" stroke-width="0" fill-opacity="0" fill="#ffffff"></circle><circle cx="381.2162162162162" cy="264.44489177489174" r="3.5" stroke="none" stroke-width="0" fill-opacity="0" fill="#ffffff"></circle><circle cx="391.2432432432432" cy="264.44489177489174" r="3.5" stroke="none" stroke-width="0" fill-opacity="0" fill="#ffffff"></circle><circle cx="401.27027027027026" cy="264.44489177489174" r="3.5" stroke="none" stroke-width="0" fill-opacity="0" fill="#ffffff"></circle><circle cx="411.2972972972973" cy="264.44489177489174" r="3.5" stroke="none" stroke-width="0" fill-opacity="0" fill="#ffffff"></circle><circle cx="421.3243243243243" cy="264.44489177489174" r="3.5" stroke="none" stroke-width="0" fill-opacity="0" fill="#ffffff"></circle><circle cx="431.35135135135135" cy="264.44489177489174" r="3.5" stroke="none" stroke-width="0" fill-opacity="0" fill="#ffffff"></circle><circle cx="441.37837837837833" cy="264.44489177489174" r="3.5" stroke="none" stroke-width="0" fill-opacity="0" fill="#ffffff"></circle><circle cx="451.40540540540536" cy="264.44489177489174" r="3.5" stroke="none" stroke-width="0" fill-opacity="0" fill="#ffffff"></circle><circle cx="461.4324324324324" cy="264.44489177489174" r="3.5" stroke="none" stroke-width="0" fill-opacity="0" fill="#ffffff"></circle><circle cx="471.4594594594594" cy="264.44489177489174" r="3.5" stroke="none" stroke-width="0" fill-opacity="0" fill="#ffffff"></circle><circle cx="481.48648648648646" cy="264.44489177489174" r="3.5" stroke="none" stroke-width="0" fill-opacity="0" fill="#ffffff"></circle></g><g></g></g><g><text x="515" y="81" font-family="Arial" font-size="12" stroke="none" stroke-width="0" fill-opacity="1.0" fill="#222222">Ventes</text><text x="515" y="97" font-family="Arial" font-size="12" stroke="none" stroke-width="0" fill-opacity="1.0" fill="#222222">(optimiste)</text></g><rect x="498" y="71" width="12" height="12" stroke="none" stroke-width="0" fill-opacity="1.0" fill="#38761d"></rect><g><text x="515" y="116" font-family="Arial" font-size="12" stroke="none" stroke-width="0" fill-opacity="1.0" fill="#222222">Ventes</text><text x="515" y="132" font-family="Arial" font-size="12" stroke="none" stroke-width="0" fill-opacity="1.0" fill="#222222">(pessimiste)</text></g><rect x="498" y="106" width="12" height="12" stroke="none" stroke-width="0" fill-opacity="1.0" fill="#741b47"></rect><g><text x="515" y="151" font-family="Arial" font-size="12" stroke="none" stroke-width="0" fill-opacity="1.0" fill="#222222">Point mort</text></g><rect x="498" y="141" width="12" height="12" stroke="none" stroke-width="0" fill-opacity="1.0" fill="#b45f06"></rect><text text-anchor="end" x="125.02313245674694" y="324" font-family="Arial" font-size="12" transform="rotate(330 110.02313245674694 319.69615242270663)" stroke="none" stroke-width="0" fill-opacity="1.0" fill="#222222">0</text><text text-anchor="end" x="155.104213537828" y="324" font-family="Arial" font-size="12" transform="rotate(330 140.104213537828 319.69615242270663)" stroke="none" stroke-width="0" fill-opacity="1.0" fill="#222222">3</text><text text-anchor="end" x="185.1852946189091" y="324" font-family="Arial" font-size="12" transform="rotate(330 170.1852946189091 319.69615242270663)" stroke="none" stroke-width="0" fill-opacity="1.0" fill="#222222">6</text><text text-anchor="end" x="215.26637569999016" y="324" font-family="Arial" font-size="12" transform="rotate(330 200.26637569999016 319.69615242270663)" stroke="none" stroke-width="0" fill-opacity="1.0" fill="#222222">9</text><text text-anchor="end" x="245.34745678107123" y="324" font-family="Arial" font-size="12" transform="rotate(330 230.34745678107123 319.69615242270663)" stroke="none" stroke-width="0" fill-opacity="1.0" fill="#222222">12</text><text text-anchor="end" x="275.4285378621523" y="324" font-family="Arial" font-size="12" transform="rotate(330 260.4285378621523 319.69615242270663)" stroke="none" stroke-width="0" fill-opacity="1.0" fill="#222222">15</text><text text-anchor="end" x="305.5096189432334" y="324" font-family="Arial" font-size="12" transform="rotate(330 290.5096189432334 319.69615242270663)" stroke="none" stroke-width="0" fill-opacity="1.0" fill="#222222">18</text><text text-anchor="end" x="335.59070002431446" y="324" font-family="Arial" font-size="12" transform="rotate(330 320.59070002431446 319.69615242270663)" stroke="none" stroke-width="0" fill-opacity="1.0" fill="#222222">21</text><text text-anchor="end" x="365.67178110539555" y="324" font-family="Arial" font-size="12" transform="rotate(330 350.67178110539555 319.69615242270663)" stroke="none" stroke-width="0" fill-opacity="1.0" fill="#222222">24</text><text text-anchor="end" x="395.75286218647665" y="324" font-family="Arial" font-size="12" transform="rotate(330 380.75286218647665 319.69615242270663)" stroke="none" stroke-width="0" fill-opacity="1.0" fill="#222222">27</text><text text-anchor="end" x="425.83394326755774" y="324" font-family="Arial" font-size="12" transform="rotate(330 410.83394326755774 319.69615242270663)" stroke="none" stroke-width="0" fill-opacity="1.0" fill="#222222">30</text><text text-anchor="end" x="455.9150243486388" y="324" font-family="Arial" font-size="12" transform="rotate(330 440.9150243486388 319.69615242270663)" stroke="none" stroke-width="0" fill-opacity="1.0" fill="#222222">33</text><text text-anchor="end" x="485.9961054297199" y="324" font-family="Arial" font-size="12" transform="rotate(330 470.9961054297199 319.69615242270663)" stroke="none" stroke-width="0" fill-opacity="1.0" fill="#222222">36</text><g><text text-anchor="end" x="103" y="304" font-family="Arial" font-size="12" stroke="none" stroke-width="0" fill-opacity="1.0" fill="#444444">0</text></g><g><text text-anchor="end" x="103" y="247" font-family="Arial" font-size="12" stroke="none" stroke-width="0" fill-opacity="1.0" fill="#444444">750</text></g><g><text text-anchor="end" x="103" y="190" font-family="Arial" font-size="12" stroke="none" stroke-width="0" fill-opacity="1.0" fill="#444444">1,500</text></g><g><text text-anchor="end" x="103" y="132" font-family="Arial" font-size="12" stroke="none" stroke-width="0" fill-opacity="1.0" fill="#444444">2,250</text></g><g><text text-anchor="end" x="103" y="75" font-family="Arial" font-size="12" stroke="none" stroke-width="0" fill-opacity="1.0" fill="#444444">3,000</text></g></g><g></g></svg>